G04*
G04 #@! TF.GenerationSoftware,Altium Limited,Altium Designer,23.4.1 (23)*
G04*
G04 Layer_Physical_Order=1*
G04 Layer_Color=255*
%FSLAX25Y25*%
%MOIN*%
G70*
G04*
G04 #@! TF.SameCoordinates,01ECF62D-24FD-4C24-98F2-6CFE089B3EF1*
G04*
G04*
G04 #@! TF.FilePolarity,Positive*
G04*
G01*
G75*
%ADD12C,0.01000*%
%ADD63C,0.08268*%
%ADD69R,0.02756X0.05118*%
%ADD70R,0.03800X0.03100*%
%ADD71R,0.05118X0.02756*%
G04:AMPARAMS|DCode=72|XSize=62.99mil|YSize=49.21mil|CornerRadius=0mil|HoleSize=0mil|Usage=FLASHONLY|Rotation=225.000|XOffset=0mil|YOffset=0mil|HoleType=Round|Shape=Rectangle|*
%AMROTATEDRECTD72*
4,1,4,0.00487,0.03967,0.03967,0.00487,-0.00487,-0.03967,-0.03967,-0.00487,0.00487,0.03967,0.0*
%
%ADD72ROTATEDRECTD72*%

%ADD73R,0.04724X0.01181*%
%ADD74R,0.01181X0.04724*%
%ADD75R,0.03100X0.03800*%
%ADD76R,0.04331X0.03150*%
%ADD77R,0.07874X0.04331*%
%ADD78R,0.02362X0.02362*%
%ADD79R,0.06299X0.06299*%
%ADD80R,0.17323X0.12992*%
%ADD81R,0.24410X0.15354*%
%ADD82R,0.03543X0.07874*%
%ADD83R,0.07874X0.03543*%
%ADD84R,0.05236X0.05236*%
%ADD85R,0.08858X0.08346*%
%ADD86R,0.07480X0.07087*%
%ADD87R,0.08268X0.06299*%
%ADD88R,0.01575X0.05315*%
%ADD89R,0.02362X0.05354*%
%ADD90R,0.04134X0.02165*%
%ADD91R,0.05906X0.01968*%
%ADD92R,0.03937X0.01968*%
%ADD93R,0.03937X0.03150*%
%ADD94R,0.02756X0.05906*%
%ADD95R,0.12992X0.17323*%
%ADD96R,0.15354X0.24410*%
%ADD97R,0.05118X0.13386*%
%ADD98R,0.02165X0.04134*%
%ADD99R,0.12992X0.06299*%
%ADD100R,0.04724X0.06299*%
%ADD101R,0.06102X0.04724*%
%ADD102R,0.11811X0.07874*%
%ADD103C,0.01500*%
%ADD104C,0.02000*%
%ADD105C,0.02500*%
%ADD106C,0.01100*%
%ADD107C,0.00800*%
%ADD108C,0.01200*%
%ADD109C,0.01470*%
%ADD110C,0.03000*%
%ADD111C,0.03500*%
%ADD112C,0.07000*%
%ADD113C,0.06000*%
%ADD114O,0.06693X0.04724*%
%ADD115C,0.09843*%
%ADD116O,0.07874X0.15748*%
%ADD117O,0.15748X0.07874*%
%ADD118O,0.07087X0.14173*%
%ADD119C,0.01181*%
%ADD120C,0.07874*%
%ADD121C,0.03937*%
%ADD122O,0.14173X0.07087*%
%ADD123C,0.11811*%
%ADD124C,0.02362*%
%ADD125C,0.01968*%
%ADD126C,0.01772*%
G36*
X203188Y255066D02*
Y241324D01*
X201935Y240070D01*
X189470Y240130D01*
X188150Y241450D01*
X188150Y258300D01*
X190750Y260900D01*
X197320D01*
X197337Y260917D01*
X203188Y255066D01*
D02*
G37*
G36*
X246063Y243307D02*
Y239764D01*
X244882Y238583D01*
X235827D01*
X235039Y239370D01*
X235039Y245276D01*
X236221Y246457D01*
X242913D01*
X246063Y243307D01*
D02*
G37*
G36*
X230709Y258661D02*
Y248819D01*
X229528Y247638D01*
X222441D01*
X219685Y244882D01*
Y240945D01*
X220079Y240551D01*
Y237402D01*
X219291Y236614D01*
X214961D01*
X213779Y237795D01*
Y238976D01*
X209449D01*
X208661Y239764D01*
Y253150D01*
X215748Y260236D01*
X229134D01*
X230709Y258661D01*
D02*
G37*
G36*
X279528Y257480D02*
Y249606D01*
X277559Y247638D01*
X272835D01*
X272047Y246850D01*
Y236221D01*
X271260Y235433D01*
X267323D01*
X266535Y236221D01*
Y239764D01*
X268110Y241339D01*
Y257874D01*
X269685Y259449D01*
X277559D01*
X279528Y257480D01*
D02*
G37*
G36*
X248819Y259842D02*
X253543Y255118D01*
Y240945D01*
X259055D01*
X261024Y238976D01*
Y236614D01*
X259449Y235039D01*
X248819D01*
X247638Y236221D01*
Y244882D01*
X244488Y248031D01*
X240158D01*
X238189Y250000D01*
Y258268D01*
X239764Y259842D01*
X248819Y259842D01*
D02*
G37*
G36*
X233465Y237402D02*
Y234252D01*
X231890Y232677D01*
X228346D01*
X227165Y231496D01*
Y226772D01*
X226378Y225984D01*
X222835D01*
X220866Y227953D01*
Y236221D01*
X222835Y238189D01*
X232677D01*
X233465Y237402D01*
D02*
G37*
G36*
X136614Y209055D02*
X150394Y209055D01*
X153150Y206299D01*
X153150Y200000D01*
X150787Y197638D01*
X135827D01*
X112598Y220866D01*
X91732Y220866D01*
X87008Y225590D01*
Y234252D01*
X90158Y237402D01*
X108268D01*
X136614Y209055D01*
D02*
G37*
G36*
X118504Y205906D02*
Y200000D01*
X115748Y197244D01*
X96457D01*
X94488Y199213D01*
Y206693D01*
X96457Y208661D01*
X115748D01*
X118504Y205906D01*
D02*
G37*
G36*
X42126Y284646D02*
X42126Y253937D01*
X88976Y207087D01*
X88976Y192126D01*
X87402Y190551D01*
X84252D01*
X44094Y230709D01*
X31890Y230709D01*
X26378Y236221D01*
Y284646D01*
X31102Y289370D01*
X37402D01*
X42126Y284646D01*
D02*
G37*
G36*
X172835Y210433D02*
Y191535D01*
X159449Y178150D01*
X144685D01*
X144001Y178833D01*
X144193Y179295D01*
X146100D01*
Y182658D01*
Y186020D01*
X143956D01*
X143765Y186482D01*
X144685Y187402D01*
X157283D01*
X163189Y193307D01*
Y206890D01*
X146457Y223622D01*
X131299Y223622D01*
X127559Y227362D01*
Y232283D01*
X129724Y236024D01*
X147244D01*
X172835Y210433D01*
D02*
G37*
G36*
X218701Y181890D02*
Y175197D01*
X216339Y172835D01*
Y165945D01*
X215158D01*
Y169216D01*
X212598Y172704D01*
Y175394D01*
Y182087D01*
X185433D01*
X166142Y162795D01*
X166142Y155905D01*
X163779Y153543D01*
X158661D01*
X154331Y149213D01*
X154331Y121462D01*
X153730Y120802D01*
X153264Y120983D01*
Y122085D01*
X151181D01*
X149098D01*
Y120901D01*
X148632Y120722D01*
X148031Y121387D01*
X148031Y156693D01*
X148895Y157556D01*
X149380Y157334D01*
X149520Y156629D01*
X150002Y155908D01*
X150724Y155426D01*
X150825Y155406D01*
Y157480D01*
X152325D01*
Y155406D01*
X152426Y155426D01*
X153147Y155908D01*
X153293Y156126D01*
X153793D01*
X153939Y155908D01*
X154661Y155426D01*
X154762Y155406D01*
Y157480D01*
Y159555D01*
X154661Y159535D01*
X153939Y159053D01*
X153793Y158834D01*
X153293D01*
X153147Y159053D01*
X152426Y159535D01*
X151721Y159675D01*
X151499Y160160D01*
X160113Y168774D01*
X163189D01*
X167323Y173228D01*
X183268Y189173D01*
X211417D01*
X218701Y181890D01*
D02*
G37*
G36*
X76378Y193701D02*
X82677Y187402D01*
X87795Y187402D01*
X88583Y186614D01*
Y183858D01*
X87402Y182677D01*
X79528D01*
X77165Y180315D01*
Y169685D01*
X69685Y162205D01*
X57087Y162205D01*
X49213Y170079D01*
Y188976D01*
X53937Y193701D01*
X76378Y193701D01*
D02*
G37*
G36*
X246199Y113128D02*
X246678Y112807D01*
X247244Y112695D01*
X266317D01*
X272928Y106083D01*
X272737Y105621D01*
X268001D01*
Y105481D01*
X267432D01*
Y105621D01*
X260914D01*
Y105481D01*
X256595D01*
X256496Y105500D01*
X255755Y105353D01*
X255597Y105247D01*
X252843D01*
Y101879D01*
X255587D01*
X255774Y101753D01*
X256516Y101606D01*
X260914D01*
Y101465D01*
X267432D01*
Y101606D01*
X268001D01*
Y101465D01*
X272960D01*
X274864Y99562D01*
X275007Y99215D01*
X275593Y98629D01*
X276358Y98313D01*
X277186D01*
X277951Y98629D01*
X278536Y99215D01*
X278698Y99606D01*
X279288Y99724D01*
X279624Y99388D01*
Y49539D01*
X279124Y49407D01*
X279048Y49520D01*
X278064Y50505D01*
X277832Y50659D01*
X277559Y50714D01*
X268209D01*
X267446Y51477D01*
Y56496D01*
X267392Y56769D01*
X267237Y57001D01*
X266450Y57788D01*
X266218Y57943D01*
X265945Y57997D01*
X245669D01*
X245396Y57943D01*
X245165Y57788D01*
X243590Y56213D01*
X243435Y55982D01*
X243381Y55709D01*
X243381Y46063D01*
X243435Y45790D01*
X243590Y45558D01*
X244968Y44180D01*
X245199Y44026D01*
X245472Y43971D01*
X270971Y43971D01*
X271217Y43471D01*
X270882Y43034D01*
X270543Y42216D01*
X270526Y42089D01*
X274803D01*
Y40589D01*
X270526D01*
X270543Y40461D01*
X270882Y39643D01*
X271421Y38941D01*
X271815Y38638D01*
Y38008D01*
X271492Y37760D01*
X270969Y37078D01*
X270641Y36285D01*
X270529Y35433D01*
X270641Y34582D01*
X270969Y33788D01*
X271492Y33106D01*
X271911Y32785D01*
Y32176D01*
X271492Y31854D01*
X270969Y31173D01*
X270641Y30379D01*
X270529Y29528D01*
X270641Y28676D01*
X270969Y27882D01*
X271492Y27201D01*
X271911Y26880D01*
Y26270D01*
X271492Y25949D01*
X270969Y25267D01*
X270641Y24474D01*
X270529Y23622D01*
X270641Y22770D01*
X270969Y21977D01*
X271492Y21295D01*
X271911Y20974D01*
Y20365D01*
X271492Y20043D01*
X270969Y19362D01*
X270641Y18568D01*
X270529Y17717D01*
X270641Y16865D01*
X270969Y16071D01*
X271492Y15390D01*
X272174Y14867D01*
X272967Y14538D01*
X273819Y14426D01*
X275787D01*
X276639Y14538D01*
X277433Y14867D01*
X278114Y15390D01*
X278637Y16071D01*
X278966Y16865D01*
X279078Y17717D01*
X278966Y18568D01*
X278637Y19362D01*
X278114Y20043D01*
X277695Y20365D01*
Y20974D01*
X278114Y21295D01*
X278637Y21977D01*
X278966Y22770D01*
X279078Y23622D01*
X278966Y24474D01*
X278897Y24640D01*
X283790Y29534D01*
X284252Y29342D01*
Y7874D01*
X279528Y3150D01*
X126378D01*
X118504Y11024D01*
Y60114D01*
X131321Y72931D01*
X156387D01*
Y60387D01*
X153150D01*
X151990Y60234D01*
X150909Y59787D01*
X149981Y59074D01*
X149268Y58146D01*
X148821Y57065D01*
X148668Y55905D01*
X148821Y54746D01*
X149268Y53665D01*
X149981Y52737D01*
X150909Y52024D01*
X151990Y51577D01*
X153150Y51424D01*
X160236D01*
X161396Y51577D01*
X162477Y52024D01*
X163405Y52737D01*
X164117Y53665D01*
X164348Y54221D01*
X170779D01*
Y72931D01*
X177734D01*
X182419Y68246D01*
X182899Y67926D01*
X183465Y67813D01*
X207874D01*
X208440Y67926D01*
X208919Y68246D01*
X211636Y70963D01*
X213187D01*
X213394Y70463D01*
X213250Y70319D01*
X212978Y69662D01*
Y68952D01*
X213250Y68296D01*
X213653Y67892D01*
X213166Y67406D01*
X212879Y66713D01*
Y65964D01*
X213166Y65271D01*
X213696Y64741D01*
X214389Y64454D01*
X215139D01*
X215831Y64741D01*
X216011Y64921D01*
X217275D01*
X218097Y64099D01*
Y49588D01*
X215357Y46848D01*
X214995Y46307D01*
X214868Y45669D01*
Y42550D01*
X214654D01*
Y35796D01*
X214868D01*
Y33298D01*
X214654D01*
Y26544D01*
X214868D01*
Y26178D01*
X214995Y25540D01*
X215357Y24999D01*
X217207Y23149D01*
X217174Y22649D01*
X215567D01*
Y22949D01*
X214529D01*
Y19291D01*
Y15634D01*
X215567D01*
Y15934D01*
X225503D01*
Y19080D01*
X225545Y19291D01*
Y22535D01*
X225794Y22720D01*
X226269Y22472D01*
Y14960D01*
X235936D01*
Y22659D01*
X233348D01*
X233196Y23159D01*
X233449Y23328D01*
X234152Y24031D01*
X234484Y24527D01*
X234600Y25112D01*
Y30895D01*
X235838D01*
Y34460D01*
X230304D01*
Y30895D01*
X231541D01*
Y25939D01*
X226267D01*
X225872Y26439D01*
X225897Y26544D01*
X225897D01*
Y33298D01*
X225683D01*
Y35796D01*
X225897D01*
Y42550D01*
X225683D01*
Y47261D01*
X225556Y47898D01*
X225194Y48439D01*
X223901Y49733D01*
Y54964D01*
X224316Y55242D01*
X224423Y55197D01*
X225173D01*
X225865Y55484D01*
X226137Y55756D01*
X227554D01*
X228061Y55857D01*
X228491Y56144D01*
X241100Y68753D01*
X253543D01*
X254051Y68854D01*
X254481Y69142D01*
X270703Y85364D01*
X270990Y85794D01*
X271091Y86301D01*
Y86333D01*
X273073D01*
Y90833D01*
X267873D01*
Y86333D01*
X267873Y86333D01*
X267873D01*
X267568Y85978D01*
X252994Y71404D01*
X240551D01*
X240044Y71303D01*
X239614Y71016D01*
X227005Y58407D01*
X226137D01*
X225865Y58679D01*
X225173Y58966D01*
X224423D01*
X224316Y58922D01*
X223901Y59199D01*
Y65812D01*
X223774Y66450D01*
X223412Y66991D01*
X220167Y70236D01*
X219828Y70463D01*
X219980Y70963D01*
X234252D01*
X234818Y71075D01*
X235297Y71396D01*
X247727Y83825D01*
X248048Y84305D01*
X248160Y84871D01*
Y104893D01*
X248048Y105459D01*
X247727Y105938D01*
X238093Y115573D01*
Y120581D01*
X238555Y120772D01*
X246199Y113128D01*
D02*
G37*
G36*
X23228Y285827D02*
Y233465D01*
X30709Y225984D01*
X41339D01*
X72446Y194876D01*
X72255Y194414D01*
X53937Y194414D01*
X53664Y194360D01*
X53432Y194205D01*
X48708Y189481D01*
X48553Y189250D01*
X48499Y188976D01*
Y170079D01*
X48553Y169806D01*
X48708Y169574D01*
X56582Y161700D01*
X56814Y161545D01*
X57087Y161491D01*
X69685Y161491D01*
X69958Y161545D01*
X70190Y161700D01*
X73697Y165207D01*
X74197Y165000D01*
Y161380D01*
X80352D01*
Y165567D01*
X74764D01*
X74557Y166067D01*
X77670Y169180D01*
X77825Y169412D01*
X77879Y169685D01*
Y180019D01*
X79823Y181964D01*
X87402D01*
X87675Y182018D01*
X87906Y182173D01*
X89087Y183354D01*
X89242Y183585D01*
X89296Y183858D01*
Y186614D01*
X89242Y186887D01*
X89087Y187119D01*
X88300Y187906D01*
X88068Y188061D01*
X87795Y188115D01*
X82973Y188115D01*
X77849Y193239D01*
X78041Y193701D01*
X80093D01*
X83747Y190047D01*
X83979Y189892D01*
X84252Y189838D01*
X87402D01*
X87675Y189892D01*
X87906Y190047D01*
X89481Y191621D01*
X89636Y191853D01*
X89690Y192126D01*
Y193701D01*
X153150Y193701D01*
X162013Y202565D01*
X162475Y202373D01*
Y193603D01*
X156988Y188115D01*
X144685D01*
X144412Y188061D01*
X144180Y187906D01*
X143260Y186986D01*
X143106Y186755D01*
X143051Y186482D01*
X143104Y186220D01*
X143106Y186208D01*
X143099Y185720D01*
X143099Y185720D01*
X143099Y185720D01*
Y179595D01*
X143099D01*
X143342Y179107D01*
X143340Y179095D01*
X143288Y178833D01*
X143342Y178560D01*
X143497Y178329D01*
X144180Y177645D01*
X144412Y177490D01*
X144685Y177436D01*
X159449D01*
X159722Y177490D01*
X159953Y177645D01*
X173339Y191031D01*
X173494Y191262D01*
X173548Y191535D01*
Y210433D01*
X173494Y210706D01*
X173339Y210938D01*
X171863Y212414D01*
X184252Y224803D01*
X229624D01*
Y223447D01*
X229089Y222912D01*
X228768Y222432D01*
X228656Y221866D01*
Y179326D01*
X228240Y179048D01*
X228117Y179099D01*
X227737D01*
X227420Y179486D01*
X227422Y179496D01*
X227422Y179496D01*
Y181153D01*
X227767Y181498D01*
X228084Y182263D01*
Y183091D01*
X227767Y183856D01*
X227182Y184441D01*
X226417Y184758D01*
X225589D01*
X225465Y184707D01*
X225049Y184985D01*
Y189329D01*
X225872D01*
Y194529D01*
X221372D01*
Y189329D01*
X222195D01*
Y171389D01*
X221010D01*
Y171889D01*
X221282Y172161D01*
X221569Y172854D01*
Y173603D01*
X221282Y174296D01*
X220752Y174826D01*
X220060Y175113D01*
X219484D01*
X219414Y175197D01*
Y181890D01*
X219360Y182163D01*
X219205Y182394D01*
X211922Y189678D01*
X211690Y189833D01*
X211417Y189887D01*
X183268D01*
X182995Y189833D01*
X182763Y189678D01*
X166818Y173733D01*
X166811Y173722D01*
X166800Y173714D01*
X162878Y169488D01*
X160113D01*
X159840Y169433D01*
X159608Y169279D01*
X150994Y160665D01*
X150986Y160653D01*
X150976Y160646D01*
X150909Y160538D01*
X150839Y160433D01*
X150837Y160420D01*
X150830Y160408D01*
X150810Y160284D01*
X150785Y160160D01*
X150787Y160147D01*
X150785Y160134D01*
X150815Y160011D01*
X150839Y159887D01*
X150793Y159644D01*
X150682Y159363D01*
X150396Y159245D01*
X149811Y158659D01*
X149692Y158373D01*
X149411Y158262D01*
X149168Y158216D01*
X149045Y158240D01*
X148922Y158270D01*
X148908Y158268D01*
X148895Y158270D01*
X148771Y158246D01*
X148647Y158226D01*
X148635Y158219D01*
X148622Y158216D01*
X148517Y158146D01*
X148409Y158080D01*
X148402Y158069D01*
X148390Y158061D01*
X147527Y157198D01*
X147372Y156966D01*
X147318Y156693D01*
X147318Y121387D01*
X147342Y121267D01*
X147359Y121147D01*
X147369Y121131D01*
X147372Y121113D01*
X147440Y121012D01*
X147502Y120908D01*
X148102Y120244D01*
X148109Y120238D01*
X148114Y120230D01*
X148221Y120155D01*
X148326Y120077D01*
X148334Y120075D01*
X148342Y120070D01*
X148469Y120041D01*
X148595Y120009D01*
X148605Y120010D01*
X148614Y120008D01*
X148742Y120030D01*
X148871Y120049D01*
X148879Y120054D01*
X148888Y120056D01*
X148901Y120061D01*
X149398Y120068D01*
X149398Y120068D01*
X152964D01*
X152964Y120068D01*
Y120068D01*
X153464Y120140D01*
X153472Y120137D01*
X153481Y120135D01*
X153488Y120131D01*
X153617Y120112D01*
X153747Y120089D01*
X153755Y120091D01*
X153763Y120090D01*
X153890Y120121D01*
X154018Y120150D01*
X154025Y120155D01*
X154034Y120157D01*
X154139Y120234D01*
X154246Y120310D01*
X154251Y120317D01*
X154258Y120322D01*
X154858Y120981D01*
X154922Y121086D01*
X154990Y121189D01*
X154993Y121205D01*
X155002Y121220D01*
X155020Y121341D01*
X155044Y121462D01*
X155044Y148917D01*
X156609Y150481D01*
X157071Y150290D01*
Y147425D01*
X159880D01*
Y149803D01*
Y152181D01*
X159379D01*
X159126Y152681D01*
X159234Y152830D01*
X163779D01*
X164053Y152884D01*
X164284Y153039D01*
X166646Y155401D01*
X166801Y155632D01*
X166855Y155905D01*
X166855Y162500D01*
X185729Y181373D01*
X205890D01*
Y178703D01*
X208268D01*
X210646D01*
Y181373D01*
X211885D01*
Y175394D01*
Y172704D01*
X211901Y172620D01*
X211905Y172534D01*
X211928Y172484D01*
X211939Y172431D01*
X211987Y172359D01*
X212023Y172282D01*
X214444Y168982D01*
Y165945D01*
X214458Y165876D01*
Y165265D01*
X214989D01*
X215158Y165231D01*
X216126D01*
Y164965D01*
X216967D01*
Y165264D01*
X217039D01*
Y165876D01*
X217053Y165945D01*
Y168327D01*
X218359D01*
X218394Y168151D01*
Y165264D01*
X218466D01*
Y164965D01*
X219307D01*
Y165265D01*
X238519D01*
Y159407D01*
X238620Y158899D01*
X238908Y158469D01*
X239552Y157825D01*
X239982Y157538D01*
X240245Y157485D01*
Y155225D01*
Y151288D01*
Y147351D01*
Y143414D01*
Y139477D01*
X246369D01*
Y143277D01*
X258424D01*
Y142435D01*
X263624D01*
Y146935D01*
X258424D01*
Y146132D01*
X246369D01*
Y152313D01*
X246831Y152504D01*
X249729Y149606D01*
X279528D01*
X280709Y150787D01*
Y158661D01*
X279134Y160236D01*
X260842D01*
Y161848D01*
X258465D01*
X255624D01*
X254012Y160236D01*
X253062D01*
Y165858D01*
X252561D01*
Y166941D01*
X252945Y167325D01*
X253262Y168090D01*
Y168918D01*
X252945Y169683D01*
X252360Y170268D01*
X251595Y170585D01*
X250767D01*
X250002Y170268D01*
X249417Y169683D01*
X249100Y168918D01*
Y168090D01*
X249417Y167325D01*
X249604Y167138D01*
Y165858D01*
X248906D01*
Y163900D01*
X243307D01*
X242741Y163787D01*
X242629Y163712D01*
X241170D01*
Y173548D01*
X242795Y175173D01*
X260560D01*
X261067Y175274D01*
X261497Y175561D01*
X262632Y176697D01*
X262920Y177127D01*
X263021Y177634D01*
Y181218D01*
X262920Y181725D01*
X262632Y182155D01*
X260780Y184008D01*
X260350Y184295D01*
X259842Y184396D01*
X241483D01*
Y186898D01*
X245582D01*
Y192629D01*
X237013D01*
Y195512D01*
X238399Y196898D01*
X245582D01*
Y202629D01*
X236308D01*
Y198989D01*
X235675Y198356D01*
X235213Y198547D01*
Y204264D01*
X237847Y206898D01*
X245582D01*
Y212629D01*
X236308D01*
Y209540D01*
X233875Y207107D01*
X233413Y207298D01*
Y220298D01*
X235508Y222393D01*
X236008Y222190D01*
Y220514D01*
X240945D01*
X245882D01*
Y222629D01*
X245985Y222650D01*
X246464Y222970D01*
X247109Y223615D01*
X247429Y224094D01*
X247542Y224660D01*
Y224803D01*
X253730D01*
X254052Y224588D01*
X254793Y224441D01*
X260788D01*
X261377Y224197D01*
X262245D01*
X263047Y224529D01*
X263321Y224803D01*
X279528D01*
X284252Y220079D01*
Y102744D01*
X283790Y102553D01*
X269156Y117187D01*
X268676Y117508D01*
X268110Y117620D01*
X249435D01*
X247589Y119466D01*
X247796Y119966D01*
X248052D01*
X248817Y120283D01*
X249402Y120868D01*
X249719Y121633D01*
Y122461D01*
X249402Y123226D01*
X249128Y123500D01*
X249335Y124000D01*
X250234D01*
Y126809D01*
X248606D01*
Y124440D01*
X248106Y124106D01*
X248052Y124128D01*
X247844D01*
X245582Y126391D01*
Y130818D01*
X241426D01*
Y129822D01*
X240964Y129631D01*
X238880Y131715D01*
Y134862D01*
X238767Y135428D01*
X238692Y135541D01*
Y137924D01*
X237024D01*
Y138224D01*
X236183D01*
Y137925D01*
X236111D01*
Y135541D01*
X236035Y135428D01*
X235923Y134862D01*
X234943D01*
X234831Y135428D01*
X234755Y135541D01*
Y137925D01*
X234683D01*
Y138224D01*
X233842D01*
Y137924D01*
X214458D01*
Y135541D01*
X214382Y135428D01*
X214270Y134862D01*
Y131715D01*
X213167Y130612D01*
X205402D01*
X205116Y130898D01*
X204687Y131076D01*
Y131617D01*
X204722Y131631D01*
X205308Y132217D01*
X205624Y132982D01*
Y133810D01*
X205308Y134574D01*
X205022Y134860D01*
Y137218D01*
X207093Y139289D01*
X209842D01*
X210408Y139402D01*
X210521Y139477D01*
X212905D01*
Y143414D01*
Y147051D01*
X213205D01*
Y147892D01*
X212905D01*
Y147964D01*
X210521D01*
X210408Y148039D01*
X209842Y148152D01*
Y149132D01*
X210408Y149244D01*
X210521Y149320D01*
X212905D01*
Y149392D01*
X213205D01*
Y150232D01*
X212905D01*
Y155225D01*
Y159162D01*
Y163712D01*
X206780D01*
Y161971D01*
X206280Y161819D01*
X206164Y161994D01*
X204907Y163250D01*
X204428Y163571D01*
X203862Y163683D01*
X197273D01*
X193575Y167381D01*
X192883Y166688D01*
X192167Y167404D01*
X191688Y167724D01*
X191122Y167837D01*
X190396D01*
Y168608D01*
X185196D01*
Y164108D01*
X189649D01*
X189841Y163646D01*
X188131Y161937D01*
X192601Y157467D01*
X195860Y160726D01*
X198092D01*
X198284Y160264D01*
X197296Y159277D01*
X199743Y156830D01*
X199213Y156299D01*
X199743Y155769D01*
X196809Y152835D01*
X198186Y151458D01*
X197419Y150691D01*
X192126D01*
X191560Y150578D01*
X191081Y150258D01*
X190589Y149766D01*
X189399Y150956D01*
X183955Y145512D01*
X185540Y143927D01*
X185040Y143427D01*
X184490D01*
Y144199D01*
X179290D01*
Y139699D01*
X184002D01*
X184210Y139199D01*
X183994Y138984D01*
X183674Y138504D01*
X183561Y137938D01*
Y136718D01*
X182440D01*
Y132219D01*
X183561D01*
Y130818D01*
X182765D01*
Y124300D01*
X186920D01*
Y130818D01*
X186518D01*
Y132219D01*
X187640D01*
Y136718D01*
X187916Y137104D01*
X188626D01*
X188817Y136642D01*
X188787Y136612D01*
X188470Y135847D01*
Y135019D01*
X188787Y134254D01*
X189372Y133669D01*
X190137Y133352D01*
X190965D01*
X191730Y133669D01*
X191819Y133758D01*
X193591D01*
Y133158D01*
X200109D01*
Y137314D01*
X198329D01*
Y140332D01*
X203101Y145104D01*
X206780D01*
Y142246D01*
X206480D01*
X205915Y142134D01*
X205435Y141813D01*
X202498Y138876D01*
X202177Y138397D01*
X202065Y137831D01*
Y134860D01*
X201779Y134574D01*
X201462Y133810D01*
Y132982D01*
X201779Y132217D01*
X202364Y131631D01*
X202793Y131454D01*
Y130913D01*
X202758Y130898D01*
X202173Y130313D01*
X201856Y129548D01*
Y128720D01*
X202173Y127955D01*
X202758Y127370D01*
X203523Y127053D01*
X204351D01*
X205116Y127370D01*
X205402Y127655D01*
X212371D01*
X212629Y127155D01*
X212461Y126903D01*
X212352Y126357D01*
X212352Y126357D01*
Y122876D01*
X211529D01*
Y117676D01*
X216030D01*
Y122876D01*
X215207D01*
Y125766D01*
X217008Y127567D01*
X217470Y127376D01*
Y122876D01*
X216648D01*
Y117676D01*
X221148D01*
Y122876D01*
X220325D01*
Y128149D01*
X220694Y128518D01*
X220694Y128518D01*
X221004Y128981D01*
X221112Y129528D01*
X221112Y129528D01*
Y131800D01*
X222195D01*
Y122876D01*
X221766D01*
Y117676D01*
X226266D01*
Y122110D01*
X226766Y122377D01*
X226884Y122298D01*
Y117695D01*
X231384D01*
Y118563D01*
X231846Y118754D01*
X231892Y118708D01*
X232657Y118391D01*
X233485D01*
X234250Y118708D01*
X234636Y119094D01*
X235136Y118887D01*
Y114961D01*
X235248Y114395D01*
X235569Y113915D01*
X237663Y111821D01*
X237456Y111321D01*
X233899D01*
X231384Y113836D01*
Y116595D01*
X226884D01*
Y111395D01*
X229643D01*
X231922Y109116D01*
X231715Y108616D01*
X226618D01*
X225545Y109689D01*
Y111376D01*
X226266D01*
Y116576D01*
X221766D01*
Y111376D01*
X222486D01*
Y109055D01*
X222603Y108470D01*
X222934Y107974D01*
X224903Y106005D01*
X225399Y105674D01*
X225808Y105592D01*
X225758Y105092D01*
X223842D01*
X220427Y108508D01*
Y111376D01*
X221148D01*
Y116576D01*
X216648D01*
Y111376D01*
X217368D01*
Y107943D01*
X217206Y107819D01*
X216890Y107713D01*
X215309Y109295D01*
Y111376D01*
X216030D01*
Y116576D01*
X211529D01*
Y111376D01*
X212250D01*
Y108661D01*
X212367Y108076D01*
X212698Y107580D01*
X222797Y97482D01*
X223293Y97150D01*
X223878Y97034D01*
X231190D01*
Y96879D01*
X238495D01*
Y100247D01*
X231190D01*
Y100092D01*
X224512D01*
X223048Y101556D01*
X223154Y101871D01*
X223277Y102034D01*
X231190D01*
Y101879D01*
X238495D01*
Y102869D01*
X238957Y103061D01*
X240990Y101028D01*
Y95092D01*
X238495D01*
Y95247D01*
X231190D01*
Y91879D01*
X238495D01*
Y92034D01*
X241817D01*
X242402Y92150D01*
X242510Y92222D01*
X243010Y91955D01*
Y87620D01*
X232065Y76675D01*
X213197D01*
X213098Y77175D01*
X213327Y77270D01*
X213912Y77855D01*
X214229Y78620D01*
Y79448D01*
X213912Y80213D01*
X213327Y80799D01*
X212562Y81115D01*
X211734D01*
X210969Y80799D01*
X210740Y80569D01*
X208155D01*
Y81340D01*
X203656D01*
Y76140D01*
X208155D01*
Y77205D01*
X210694D01*
X210718Y77175D01*
X210481Y76675D01*
X210236D01*
X209670Y76563D01*
X209191Y76242D01*
X206868Y73919D01*
X184471D01*
X180179Y78211D01*
X179700Y78531D01*
X179134Y78644D01*
X129921D01*
X129356Y78531D01*
X128876Y78211D01*
X118966Y68301D01*
X118504Y68492D01*
Y87402D01*
X105905Y100000D01*
X55022D01*
Y102079D01*
X55308Y102365D01*
X55624Y103129D01*
Y103957D01*
X55308Y104722D01*
X54722Y105308D01*
X53957Y105624D01*
X53129D01*
X52364Y105308D01*
X51779Y104722D01*
X51462Y103957D01*
Y103129D01*
X51779Y102365D01*
X52065Y102079D01*
Y100000D01*
X50297D01*
Y102079D01*
X50583Y102365D01*
X50900Y103129D01*
Y103957D01*
X50583Y104722D01*
X49998Y105308D01*
X49233Y105624D01*
X48405D01*
X47640Y105308D01*
X47055Y104722D01*
X46738Y103957D01*
Y103129D01*
X47055Y102365D01*
X47341Y102079D01*
Y100000D01*
X36472D01*
Y100213D01*
X30929D01*
Y100000D01*
X13780D01*
X5118Y108661D01*
Y283858D01*
X10236Y288976D01*
X20079D01*
X23228Y285827D01*
D02*
G37*
G36*
X375984Y145669D02*
Y24551D01*
X373520Y22087D01*
X331181Y22087D01*
X327811Y18717D01*
Y4445D01*
X325335Y1969D01*
X294488Y1969D01*
X291881Y4576D01*
Y25926D01*
X292343Y26117D01*
X293184Y25276D01*
Y23302D01*
X293238Y23029D01*
X293393Y22797D01*
X294542Y21648D01*
X294583Y21235D01*
X294538Y21015D01*
X294391Y20902D01*
X293868Y20221D01*
X293539Y19427D01*
X293427Y18576D01*
X293539Y17724D01*
X293868Y16930D01*
X294391Y16249D01*
X295072Y15726D01*
X295866Y15397D01*
X296717Y15285D01*
X298686D01*
X299537Y15397D01*
X300331Y15726D01*
X301012Y16249D01*
X301535Y16930D01*
X301864Y17724D01*
X301976Y18576D01*
X301864Y19427D01*
X301535Y20221D01*
X301012Y20902D01*
X300922Y20972D01*
X300889Y21464D01*
X300933Y21593D01*
X301813Y22473D01*
X301968Y22705D01*
X302022Y22978D01*
Y26127D01*
X301968Y26401D01*
X301813Y26632D01*
X301026Y27420D01*
X301011Y27429D01*
X300953Y28003D01*
X300959Y28019D01*
X301012Y28060D01*
X301535Y28741D01*
X301864Y29535D01*
X301976Y30387D01*
X301864Y31238D01*
X301535Y32032D01*
X301012Y32713D01*
X300926Y32779D01*
X300901Y33295D01*
X300942Y33397D01*
X302154Y34610D01*
X309127D01*
X309770Y34738D01*
X310316Y35102D01*
X311156Y35942D01*
X311746Y35825D01*
X311930Y35379D01*
X312544Y34765D01*
X313030Y34564D01*
Y36614D01*
X313779D01*
Y37364D01*
X315830D01*
X315629Y37850D01*
X315015Y38463D01*
X314569Y38648D01*
X314452Y39238D01*
X322468Y47255D01*
X327675D01*
Y46687D01*
X332875D01*
Y51187D01*
X327675D01*
Y50619D01*
X321772D01*
X321744Y50614D01*
X321498Y51075D01*
X325172Y54749D01*
X325647Y55460D01*
X325814Y56299D01*
Y56789D01*
X326091Y57174D01*
X331822D01*
Y57766D01*
X333532D01*
Y53434D01*
X334893D01*
Y51187D01*
X333975D01*
Y46687D01*
X339175D01*
Y51187D01*
X338257D01*
Y53434D01*
X339263D01*
Y57766D01*
X342520D01*
X343163Y57895D01*
X343709Y58259D01*
X345284Y59834D01*
X345649Y60380D01*
X345777Y61024D01*
Y79134D01*
X345649Y79778D01*
X345284Y80323D01*
X343158Y82449D01*
X342612Y82814D01*
X341968Y82942D01*
X338338D01*
Y84519D01*
X334300D01*
Y84627D01*
X334133Y85466D01*
X333658Y86177D01*
X327783Y92052D01*
Y109411D01*
X327966Y109595D01*
X328357Y110272D01*
X328463Y110667D01*
X322718D01*
X322824Y110272D01*
X323215Y109595D01*
X323398Y109411D01*
Y91144D01*
X323565Y90305D01*
X324041Y89593D01*
X328653Y84981D01*
X328462Y84519D01*
X326702D01*
Y78001D01*
X327097D01*
Y73667D01*
X326180D01*
Y69167D01*
X325699Y69121D01*
X323228D01*
X322390Y68954D01*
X321678Y68479D01*
X314719Y61520D01*
X314244Y60809D01*
X314077Y59970D01*
Y55970D01*
X313170Y55063D01*
X312679Y55160D01*
X312634Y55270D01*
X312049Y55855D01*
X311284Y56172D01*
X310456D01*
X309691Y55855D01*
X309609Y55773D01*
X296246D01*
X296246Y55773D01*
X295602Y55645D01*
X295056Y55280D01*
X295056Y55280D01*
X292343Y52567D01*
X291881Y52759D01*
X291881Y143456D01*
X295940Y147515D01*
X374064Y147589D01*
X375984Y145669D01*
D02*
G37*
G36*
X302756Y48031D02*
X300394Y45669D01*
X294882Y45669D01*
X294291Y46260D01*
Y49803D01*
X295276Y50787D01*
X300000D01*
X302756Y48031D01*
D02*
G37*
G36*
X266732Y56496D02*
Y51181D01*
X267913Y50000D01*
X277559D01*
X278543Y49016D01*
Y45715D01*
X277855Y44685D01*
X245472Y44685D01*
X244094Y46063D01*
X244094Y55709D01*
X245669Y57284D01*
X265945D01*
X266732Y56496D01*
D02*
G37*
G36*
X78347Y72835D02*
Y43701D01*
X77253Y42607D01*
X50020Y42607D01*
X45757D01*
X36433Y33283D01*
X34451D01*
Y28346D01*
Y23410D01*
X35433D01*
Y4724D01*
X33390Y2681D01*
X32890Y2888D01*
Y4368D01*
X30512D01*
X28134D01*
Y2362D01*
X24803D01*
X21260Y5906D01*
Y7277D01*
X21760Y7544D01*
X21984Y7394D01*
X22085Y7374D01*
Y9449D01*
Y11524D01*
X21984Y11503D01*
X21760Y11354D01*
X21260Y11621D01*
Y15151D01*
X21760Y15418D01*
X21984Y15268D01*
X22085Y15248D01*
Y17323D01*
Y19398D01*
X21984Y19377D01*
X21760Y19228D01*
X21260Y19495D01*
Y23025D01*
X21760Y23292D01*
X21984Y23142D01*
X22085Y23122D01*
Y25197D01*
Y27272D01*
X21984Y27251D01*
X21760Y27102D01*
X21260Y27369D01*
Y30899D01*
X21760Y31166D01*
X21984Y31016D01*
X22085Y30996D01*
Y33071D01*
Y35146D01*
X21984Y35125D01*
X21760Y34976D01*
X21260Y35243D01*
X21260Y70079D01*
X26782Y75601D01*
X75580D01*
X78347Y72835D01*
D02*
G37*
G36*
X302756Y42126D02*
X300394Y39764D01*
X294882Y39764D01*
X294291Y40354D01*
Y43898D01*
X295024Y44630D01*
X300252D01*
X302756Y42126D01*
D02*
G37*
G36*
Y36220D02*
X300394Y33858D01*
X294882Y33858D01*
X294291Y34449D01*
Y37992D01*
X295024Y38725D01*
X300252D01*
X302756Y36220D01*
D02*
G37*
G36*
X300521Y26915D02*
X301308Y26127D01*
Y22978D01*
X300379Y22048D01*
X295151D01*
X293898Y23302D01*
Y25943D01*
X294869Y26915D01*
X300521Y26915D01*
D02*
G37*
G36*
X347008Y4528D02*
X333819D01*
Y17598D01*
X334134D01*
X340394Y14173D01*
X346693Y17638D01*
X347008D01*
Y4528D01*
D02*
G37*
G36*
X45669Y18898D02*
X47244Y17323D01*
X52756D01*
X53543Y16535D01*
Y13386D01*
X53150Y12992D01*
X48819Y12992D01*
X46850Y14961D01*
X42520D01*
X42126Y15354D01*
Y22835D01*
X41732Y23228D01*
Y31102D01*
Y32283D01*
X45669D01*
Y18898D01*
D02*
G37*
G36*
X375433Y4528D02*
X360906Y4567D01*
X368071Y17643D01*
X368283D01*
X375433Y4528D01*
D02*
G37*
G36*
X357992Y17520D02*
X360315Y15748D01*
X361772Y13071D01*
X362047Y10669D01*
X361378Y8347D01*
X360039Y6339D01*
X358543Y5158D01*
X356457Y4331D01*
X353622D01*
X350197Y6024D01*
X348740Y8110D01*
X348071Y10551D01*
X348425Y13543D01*
X350236Y16260D01*
X352165Y17520D01*
X354724Y18150D01*
X354803D01*
X357992Y17520D01*
D02*
G37*
G36*
X40945Y22047D02*
X40157Y21260D01*
Y14961D01*
X41339Y13780D01*
X46063Y13780D01*
X46850Y12992D01*
Y8268D01*
X50000Y8268D01*
X50787Y7480D01*
Y3150D01*
X50000Y2362D01*
X36614D01*
X36220Y2756D01*
Y22441D01*
X36614Y22835D01*
Y32283D01*
X40945D01*
Y22047D01*
D02*
G37*
%LPC*%
G36*
X95238Y235225D02*
Y231065D01*
X99398D01*
X99089Y232221D01*
X98439Y233346D01*
X97520Y234265D01*
X96394Y234915D01*
X95238Y235225D01*
D02*
G37*
G36*
X93738Y235225D02*
X92583Y234915D01*
X91457Y234265D01*
X90538Y233346D01*
X89888Y232221D01*
X89578Y231065D01*
X93738D01*
Y235225D01*
D02*
G37*
G36*
Y229565D02*
X89578D01*
X89888Y228409D01*
X90538Y227284D01*
X91457Y226364D01*
X92583Y225714D01*
X93738Y225405D01*
Y229565D01*
D02*
G37*
G36*
X99398D02*
X95238D01*
Y225405D01*
X96394Y225714D01*
X97520Y226364D01*
X98439Y227284D01*
X99089Y228409D01*
X99398Y229565D01*
D02*
G37*
G36*
X150902Y206532D02*
X147600D01*
Y203919D01*
X150902D01*
Y206532D01*
D02*
G37*
G36*
X146100D02*
X142799D01*
Y203919D01*
X146100D01*
Y206532D01*
D02*
G37*
G36*
X150902Y202419D02*
X147600D01*
Y199807D01*
X150902D01*
Y202419D01*
D02*
G37*
G36*
X146100D02*
X142799D01*
Y199807D01*
X146100D01*
Y202419D01*
D02*
G37*
G36*
X35002Y286406D02*
Y282246D01*
X39162D01*
X38853Y283402D01*
X38203Y284527D01*
X37283Y285447D01*
X36158Y286097D01*
X35002Y286406D01*
D02*
G37*
G36*
X33502Y286406D02*
X32346Y286097D01*
X31221Y285447D01*
X30301Y284527D01*
X29651Y283402D01*
X29342Y282246D01*
X33502D01*
Y286406D01*
D02*
G37*
G36*
X39162Y280746D02*
X35002D01*
Y276586D01*
X36158Y276895D01*
X37283Y277545D01*
X38203Y278465D01*
X38853Y279591D01*
X39162Y280746D01*
D02*
G37*
G36*
X33502D02*
X29342D01*
X29651Y279591D01*
X30301Y278465D01*
X31221Y277545D01*
X32346Y276895D01*
X33502Y276586D01*
Y280746D01*
D02*
G37*
G36*
X35002Y243099D02*
Y238939D01*
X39162D01*
X38853Y240095D01*
X38203Y241220D01*
X37283Y242140D01*
X36158Y242790D01*
X35002Y243099D01*
D02*
G37*
G36*
X33502D02*
X32346Y242790D01*
X31221Y242140D01*
X30301Y241220D01*
X29651Y240095D01*
X29342Y238939D01*
X33502D01*
Y243099D01*
D02*
G37*
G36*
X39162Y237439D02*
X35002D01*
Y233279D01*
X36158Y233588D01*
X37283Y234238D01*
X38203Y235158D01*
X38853Y236283D01*
X39162Y237439D01*
D02*
G37*
G36*
X33502D02*
X29342D01*
X29651Y236283D01*
X30301Y235158D01*
X31221Y234238D01*
X32346Y233588D01*
X33502Y233279D01*
Y237439D01*
D02*
G37*
G36*
X134608Y235225D02*
Y231065D01*
X138768D01*
X138459Y232221D01*
X137809Y233346D01*
X136890Y234265D01*
X135764Y234915D01*
X134608Y235225D01*
D02*
G37*
G36*
X133108Y235225D02*
X131953Y234915D01*
X130827Y234265D01*
X129908Y233346D01*
X129258Y232221D01*
X128948Y231065D01*
X133108D01*
Y235225D01*
D02*
G37*
G36*
Y229565D02*
X128948D01*
X129258Y228409D01*
X129908Y227284D01*
X130827Y226364D01*
X131953Y225714D01*
X133108Y225405D01*
Y229565D01*
D02*
G37*
G36*
X138768D02*
X134608D01*
Y225405D01*
X135764Y225714D01*
X136890Y226364D01*
X137809Y227284D01*
X138459Y228409D01*
X138768Y229565D01*
D02*
G37*
G36*
X150902Y186020D02*
X147600D01*
Y183407D01*
X150902D01*
Y186020D01*
D02*
G37*
G36*
Y181907D02*
X147600D01*
Y179295D01*
X150902D01*
Y181907D01*
D02*
G37*
G36*
X193717Y187811D02*
X190908D01*
Y186183D01*
X193717D01*
Y187811D01*
D02*
G37*
G36*
X201590D02*
X198782D01*
Y186183D01*
X201590D01*
Y187811D01*
D02*
G37*
G36*
X197282D02*
X194472D01*
Y186183D01*
X197282D01*
Y187811D01*
D02*
G37*
G36*
X189408D02*
X186598D01*
Y186183D01*
X189408D01*
Y187811D01*
D02*
G37*
G36*
X201590Y184683D02*
X198782D01*
Y183055D01*
X201590D01*
Y184683D01*
D02*
G37*
G36*
X197282D02*
X194472D01*
Y183055D01*
X197282D01*
Y184683D01*
D02*
G37*
G36*
X193717D02*
X190908D01*
Y183055D01*
X193717D01*
Y184683D01*
D02*
G37*
G36*
X189408D02*
X186598D01*
Y183055D01*
X189408D01*
Y184683D01*
D02*
G37*
G36*
X163742Y165854D02*
Y164530D01*
X165067D01*
X165047Y164630D01*
X164565Y165352D01*
X163843Y165834D01*
X163742Y165854D01*
D02*
G37*
G36*
X162242D02*
X162141Y165834D01*
X161420Y165352D01*
X160938Y164630D01*
X160917Y164530D01*
X162242D01*
Y165854D01*
D02*
G37*
G36*
X158624Y164673D02*
Y163348D01*
X159949D01*
X159929Y163450D01*
X159447Y164171D01*
X158725Y164653D01*
X158624Y164673D01*
D02*
G37*
G36*
X157124D02*
X157023Y164653D01*
X156301Y164171D01*
X155819Y163450D01*
X155799Y163348D01*
X157124D01*
Y164673D01*
D02*
G37*
G36*
X165067Y163030D02*
X163742D01*
Y161705D01*
X163843Y161725D01*
X164565Y162207D01*
X165047Y162928D01*
X165067Y163030D01*
D02*
G37*
G36*
X162242D02*
X160917D01*
X160938Y162928D01*
X161420Y162207D01*
X162141Y161725D01*
X162242Y161705D01*
Y163030D01*
D02*
G37*
G36*
X159949Y161848D02*
X158624D01*
Y160524D01*
X158725Y160544D01*
X159447Y161026D01*
X159929Y161747D01*
X159949Y161848D01*
D02*
G37*
G36*
X157124D02*
X155799D01*
X155819Y161747D01*
X156301Y161026D01*
X157023Y160544D01*
X157124Y160524D01*
Y161848D01*
D02*
G37*
G36*
X156262Y159555D02*
Y158230D01*
X157586D01*
X157566Y158331D01*
X157084Y159053D01*
X156363Y159535D01*
X156262Y159555D01*
D02*
G37*
G36*
X157586Y156730D02*
X156262D01*
Y155406D01*
X156363Y155426D01*
X157084Y155908D01*
X157566Y156629D01*
X157586Y156730D01*
D02*
G37*
G36*
X152325Y153649D02*
Y152325D01*
X153649D01*
X153629Y152426D01*
X153147Y153147D01*
X152426Y153629D01*
X152325Y153649D01*
D02*
G37*
G36*
X150825D02*
X150724Y153629D01*
X150002Y153147D01*
X149520Y152426D01*
X149500Y152325D01*
X150825D01*
Y153649D01*
D02*
G37*
G36*
X153649Y150825D02*
X152325D01*
Y149500D01*
X152426Y149520D01*
X153147Y150002D01*
X153629Y150724D01*
X153649Y150825D01*
D02*
G37*
G36*
X150825D02*
X149500D01*
X149520Y150724D01*
X150002Y150002D01*
X150724Y149520D01*
X150825Y149500D01*
Y150825D01*
D02*
G37*
G36*
X153559Y134661D02*
X151931D01*
Y131852D01*
X153559D01*
Y134661D01*
D02*
G37*
G36*
X150431D02*
X148803D01*
Y131852D01*
X150431D01*
Y134661D01*
D02*
G37*
G36*
X153559Y130352D02*
X151931D01*
Y127543D01*
X153559D01*
Y130352D01*
D02*
G37*
G36*
X150431D02*
X148803D01*
Y127543D01*
X150431D01*
Y130352D01*
D02*
G37*
G36*
X153264Y125902D02*
X151931D01*
Y123585D01*
X153264D01*
Y125902D01*
D02*
G37*
G36*
X150431D02*
X149098D01*
Y123585D01*
X150431D01*
Y125902D01*
D02*
G37*
G36*
X272010Y98441D02*
Y96813D01*
X274819D01*
Y98441D01*
X272010D01*
D02*
G37*
G36*
X260149Y100247D02*
X252843D01*
Y96879D01*
X260114D01*
X260149Y96879D01*
X260515Y96813D01*
X263423D01*
Y98441D01*
X260649D01*
X260614Y98441D01*
X260149Y98524D01*
Y100247D01*
D02*
G37*
G36*
X274819Y95313D02*
X272010D01*
Y93685D01*
X274819D01*
Y95313D01*
D02*
G37*
G36*
X264923Y98441D02*
Y96063D01*
Y93685D01*
X270510D01*
Y96063D01*
Y98441D01*
X264923D01*
D02*
G37*
G36*
X263423Y95313D02*
X260515D01*
X260149Y95247D01*
X260114Y95247D01*
X252843D01*
Y91879D01*
X260149D01*
Y93602D01*
X260614Y93685D01*
X260649Y93685D01*
X263423D01*
Y95313D01*
D02*
G37*
G36*
X277128Y92601D02*
Y91301D01*
X278428D01*
X278227Y91787D01*
X277613Y92400D01*
X277128Y92601D01*
D02*
G37*
G36*
X275628D02*
X275143Y92400D01*
X274529Y91787D01*
X274328Y91301D01*
X275628D01*
Y92601D01*
D02*
G37*
G36*
X266773Y90833D02*
X261573D01*
Y90092D01*
X260149D01*
Y90247D01*
X252843D01*
Y86879D01*
X260149D01*
Y87034D01*
X261573D01*
Y86333D01*
X266773D01*
Y90833D01*
D02*
G37*
G36*
X278428Y89801D02*
X277128D01*
Y88501D01*
X277613Y88702D01*
X278227Y89316D01*
X278428Y89801D01*
D02*
G37*
G36*
X275628D02*
X274328D01*
X274529Y89316D01*
X275143Y88702D01*
X275628Y88501D01*
Y89801D01*
D02*
G37*
G36*
X277128Y76853D02*
Y75553D01*
X278428D01*
X278227Y76039D01*
X277613Y76652D01*
X277128Y76853D01*
D02*
G37*
G36*
X275628D02*
X275143Y76652D01*
X274529Y76039D01*
X274328Y75553D01*
X275628D01*
Y76853D01*
D02*
G37*
G36*
X249569D02*
Y75553D01*
X250869D01*
X250668Y76039D01*
X250054Y76652D01*
X249569Y76853D01*
D02*
G37*
G36*
X248069D02*
X247583Y76652D01*
X246970Y76039D01*
X246769Y75553D01*
X248069D01*
Y76853D01*
D02*
G37*
G36*
X278428Y74053D02*
X277128D01*
Y72753D01*
X277613Y72954D01*
X278227Y73568D01*
X278428Y74053D01*
D02*
G37*
G36*
X275628D02*
X274328D01*
X274529Y73568D01*
X275143Y72954D01*
X275628Y72753D01*
Y74053D01*
D02*
G37*
G36*
X250869D02*
X249569D01*
Y72753D01*
X250054Y72954D01*
X250668Y73568D01*
X250869Y74053D01*
D02*
G37*
G36*
X248069D02*
X246769D01*
X246970Y73568D01*
X247583Y72954D01*
X248069Y72753D01*
Y74053D01*
D02*
G37*
G36*
X180671Y52519D02*
Y44451D01*
X184901D01*
Y47638D01*
X184731Y48927D01*
X184234Y50128D01*
X183442Y51159D01*
X182411Y51950D01*
X181210Y52448D01*
X180671Y52519D01*
D02*
G37*
G36*
X179171D02*
X178632Y52448D01*
X177431Y51950D01*
X176400Y51159D01*
X175609Y50128D01*
X175111Y48927D01*
X174942Y47638D01*
Y44451D01*
X179171D01*
Y52519D01*
D02*
G37*
G36*
X267339Y42142D02*
X264529D01*
Y40514D01*
X267339D01*
Y42142D01*
D02*
G37*
G36*
X249250D02*
X246441D01*
Y40514D01*
X249250D01*
Y42142D01*
D02*
G37*
G36*
X239333Y41814D02*
Y40514D01*
X240633D01*
X240432Y40999D01*
X239818Y41613D01*
X239333Y41814D01*
D02*
G37*
G36*
X237833D02*
X237347Y41613D01*
X236734Y40999D01*
X236532Y40514D01*
X237833D01*
Y41814D01*
D02*
G37*
G36*
X240633Y39014D02*
X239333D01*
Y37714D01*
X239818Y37915D01*
X240432Y38528D01*
X240633Y39014D01*
D02*
G37*
G36*
X237833D02*
X236532D01*
X236734Y38528D01*
X237347Y37915D01*
X237833Y37714D01*
Y39014D01*
D02*
G37*
G36*
X267339Y39014D02*
X264529D01*
Y37386D01*
X267339D01*
Y39014D01*
D02*
G37*
G36*
X263030Y42142D02*
X257837D01*
Y39764D01*
Y37386D01*
X263030D01*
Y39764D01*
Y42142D01*
D02*
G37*
G36*
X256337D02*
X250750D01*
Y39764D01*
X250000D01*
D01*
X250750D01*
Y37386D01*
X256337D01*
Y39764D01*
Y42142D01*
D02*
G37*
G36*
X249250Y39014D02*
X246441D01*
Y37386D01*
X249250D01*
Y39014D01*
D02*
G37*
G36*
X266892Y35121D02*
Y33821D01*
X268192D01*
X267991Y34306D01*
X267377Y34920D01*
X266892Y35121D01*
D02*
G37*
G36*
X265392D02*
X264906Y34920D01*
X264293Y34306D01*
X264092Y33821D01*
X265392D01*
Y35121D01*
D02*
G37*
G36*
X164961Y36082D02*
X161774D01*
Y31852D01*
X169842D01*
X169771Y32391D01*
X169273Y33592D01*
X168482Y34624D01*
X167450Y35415D01*
X166249Y35912D01*
X164961Y36082D01*
D02*
G37*
G36*
X160274D02*
X157087D01*
X155798Y35912D01*
X154597Y35415D01*
X153566Y34624D01*
X152774Y33592D01*
X152277Y32391D01*
X152206Y31852D01*
X160274D01*
Y36082D01*
D02*
G37*
G36*
X268192Y32321D02*
X266892D01*
Y31021D01*
X267377Y31222D01*
X267991Y31835D01*
X268192Y32321D01*
D02*
G37*
G36*
X265392D02*
X264092D01*
X264293Y31835D01*
X264906Y31222D01*
X265392Y31021D01*
Y32321D01*
D02*
G37*
G36*
X195095Y41551D02*
X187167D01*
Y29096D01*
X195095D01*
Y41551D01*
D02*
G37*
G36*
X184901Y42951D02*
X179921D01*
X174942D01*
Y39764D01*
X175111Y38475D01*
X175609Y37274D01*
X176400Y36243D01*
X177431Y35451D01*
X177740Y35324D01*
Y29096D01*
X185667D01*
Y41551D01*
X184901D01*
Y42951D01*
D02*
G37*
G36*
X144307Y41551D02*
X136380D01*
Y29096D01*
X144307D01*
Y41551D01*
D02*
G37*
G36*
X134880D02*
X126953D01*
Y29096D01*
X134880D01*
Y41551D01*
D02*
G37*
G36*
X169842Y30352D02*
X161774D01*
Y26123D01*
X164961D01*
X166249Y26292D01*
X167450Y26790D01*
X168482Y27581D01*
X169273Y28613D01*
X169771Y29814D01*
X169842Y30352D01*
D02*
G37*
G36*
X160274D02*
X152206D01*
X152277Y29814D01*
X152774Y28613D01*
X153566Y27581D01*
X154597Y26790D01*
X155798Y26292D01*
X157087Y26123D01*
X160274D01*
Y30352D01*
D02*
G37*
G36*
X254346Y28362D02*
X252718D01*
Y25553D01*
X254346D01*
Y28362D01*
D02*
G37*
G36*
X251219D02*
X249590D01*
Y25553D01*
X251219D01*
Y28362D01*
D02*
G37*
G36*
X254346Y24053D02*
X252718D01*
Y21244D01*
X254346D01*
Y24053D01*
D02*
G37*
G36*
X251219D02*
X249590D01*
Y21244D01*
X251219D01*
Y24053D01*
D02*
G37*
G36*
X267285Y22129D02*
Y20829D01*
X268586D01*
X268385Y21314D01*
X267771Y21928D01*
X267285Y22129D01*
D02*
G37*
G36*
X265785D02*
X265300Y21928D01*
X264686Y21314D01*
X264485Y20829D01*
X265785D01*
Y22129D01*
D02*
G37*
G36*
X268586Y19329D02*
X267285D01*
Y18029D01*
X267771Y18230D01*
X268385Y18843D01*
X268586Y19329D01*
D02*
G37*
G36*
X265785D02*
X264485D01*
X264686Y18843D01*
X265300Y18230D01*
X265785Y18029D01*
Y19329D01*
D02*
G37*
G36*
X195095Y27597D02*
X187167D01*
Y15142D01*
X195095D01*
Y27597D01*
D02*
G37*
G36*
X185667D02*
X177740D01*
Y15142D01*
X185667D01*
Y27597D01*
D02*
G37*
G36*
X144307Y27597D02*
X136380D01*
Y15142D01*
X144307D01*
Y27597D01*
D02*
G37*
G36*
X134880D02*
X126953D01*
Y15142D01*
X134880D01*
Y27597D01*
D02*
G37*
G36*
X244488Y34869D02*
X243649Y34702D01*
X243286Y34460D01*
X241328D01*
Y30895D01*
X242296D01*
Y24803D01*
Y17323D01*
X242463Y16484D01*
X242938Y15773D01*
X243649Y15298D01*
X244488Y15131D01*
X245327Y15298D01*
X246038Y15773D01*
X246513Y16484D01*
X246680Y17323D01*
Y24803D01*
Y30895D01*
X246861D01*
Y34460D01*
X245690D01*
X245327Y34702D01*
X244488Y34869D01*
D02*
G37*
G36*
X213030Y22949D02*
X211992D01*
Y22742D01*
X211527Y22659D01*
X211492Y22659D01*
X201859D01*
Y14960D01*
X211527D01*
Y15550D01*
X211992Y15634D01*
X212027Y15634D01*
X213030D01*
Y19291D01*
Y22949D01*
D02*
G37*
G36*
X161686Y18420D02*
X160361D01*
X159081Y18077D01*
X157933Y17414D01*
X156995Y16477D01*
X156333Y15329D01*
X155990Y14049D01*
Y12723D01*
X156333Y11443D01*
X156995Y10295D01*
X157933Y9358D01*
X159081Y8695D01*
X160361Y8352D01*
X161686D01*
X162967Y8695D01*
X164114Y9358D01*
X165052Y10295D01*
X165714Y11443D01*
X166058Y12723D01*
Y14049D01*
X165714Y15329D01*
X165052Y16477D01*
X164114Y17414D01*
X162967Y18077D01*
X161686Y18420D01*
D02*
G37*
G36*
X238298Y12314D02*
X229418D01*
Y3828D01*
X238298D01*
Y12314D01*
D02*
G37*
G36*
X208377D02*
X199497D01*
Y3828D01*
X208377D01*
Y12314D01*
D02*
G37*
G36*
X15317Y286406D02*
Y282246D01*
X19477D01*
X19168Y283402D01*
X18518Y284527D01*
X17598Y285447D01*
X16473Y286097D01*
X15317Y286406D01*
D02*
G37*
G36*
X13817Y286406D02*
X12661Y286097D01*
X11535Y285447D01*
X10616Y284527D01*
X9966Y283402D01*
X9657Y282246D01*
X13817D01*
Y286406D01*
D02*
G37*
G36*
X19477Y280746D02*
X15317D01*
Y276586D01*
X16473Y276895D01*
X17598Y277545D01*
X18518Y278465D01*
X19168Y279591D01*
X19477Y280746D01*
D02*
G37*
G36*
X13817D02*
X9657D01*
X9966Y279591D01*
X10616Y278465D01*
X11535Y277545D01*
X12661Y276895D01*
X13817Y276586D01*
Y280746D01*
D02*
G37*
G36*
X15317Y243099D02*
Y238939D01*
X19477D01*
X19168Y240095D01*
X18518Y241220D01*
X17598Y242140D01*
X16473Y242790D01*
X15317Y243099D01*
D02*
G37*
G36*
X13817D02*
X12661Y242790D01*
X11535Y242140D01*
X10616Y241220D01*
X9966Y240095D01*
X9657Y238939D01*
X13817D01*
Y243099D01*
D02*
G37*
G36*
X19477Y237439D02*
X15317D01*
Y233279D01*
X16473Y233588D01*
X17598Y234238D01*
X18518Y235158D01*
X19168Y236283D01*
X19477Y237439D01*
D02*
G37*
G36*
X13817D02*
X9657D01*
X9966Y236283D01*
X10616Y235158D01*
X11535Y234238D01*
X12661Y233588D01*
X13817Y233279D01*
Y237439D01*
D02*
G37*
G36*
X213348Y222523D02*
Y221222D01*
X214649D01*
X214447Y221708D01*
X213834Y222322D01*
X213348Y222523D01*
D02*
G37*
G36*
X211848D02*
X211363Y222322D01*
X210749Y221708D01*
X210548Y221222D01*
X211848D01*
Y222523D01*
D02*
G37*
G36*
X197600D02*
Y221222D01*
X198900D01*
X198699Y221708D01*
X198086Y222322D01*
X197600Y222523D01*
D02*
G37*
G36*
X196100D02*
X195615Y222322D01*
X195001Y221708D01*
X194800Y221222D01*
X196100D01*
Y222523D01*
D02*
G37*
G36*
X214649Y219722D02*
X213348D01*
Y218422D01*
X213834Y218623D01*
X214447Y219237D01*
X214649Y219722D01*
D02*
G37*
G36*
X211848D02*
X210548D01*
X210749Y219237D01*
X211363Y218623D01*
X211848Y218422D01*
Y219722D01*
D02*
G37*
G36*
X198900D02*
X197600D01*
Y218422D01*
X198086Y218623D01*
X198699Y219237D01*
X198900Y219722D01*
D02*
G37*
G36*
X196100D02*
X194800D01*
X195001Y219237D01*
X195615Y218623D01*
X196100Y218422D01*
Y219722D01*
D02*
G37*
G36*
X274372Y218586D02*
Y217285D01*
X275672D01*
X275471Y217771D01*
X274857Y218385D01*
X274372Y218586D01*
D02*
G37*
G36*
X272872D02*
X272387Y218385D01*
X271773Y217771D01*
X271572Y217285D01*
X272872D01*
Y218586D01*
D02*
G37*
G36*
X245882Y219014D02*
X241695D01*
Y216598D01*
X245882D01*
Y219014D01*
D02*
G37*
G36*
X240195D02*
X236008D01*
Y216598D01*
X240195D01*
Y219014D01*
D02*
G37*
G36*
X275672Y215785D02*
X274372D01*
Y214485D01*
X274857Y214686D01*
X275471Y215300D01*
X275672Y215785D01*
D02*
G37*
G36*
X272872D02*
X271572D01*
X271773Y215300D01*
X272387Y214686D01*
X272872Y214485D01*
Y215785D01*
D02*
G37*
G36*
X213348Y210712D02*
Y209411D01*
X214649D01*
X214447Y209897D01*
X213834Y210510D01*
X213348Y210712D01*
D02*
G37*
G36*
X211848D02*
X211363Y210510D01*
X210749Y209897D01*
X210548Y209411D01*
X211848D01*
Y210712D01*
D02*
G37*
G36*
X214649Y207911D02*
X213348D01*
Y206611D01*
X213834Y206812D01*
X214447Y207426D01*
X214649Y207911D01*
D02*
G37*
G36*
X211848D02*
X210548D01*
X210749Y207426D01*
X211363Y206812D01*
X211848Y206611D01*
Y207911D01*
D02*
G37*
G36*
X42339Y212024D02*
X29884D01*
Y204097D01*
X42339D01*
Y212024D01*
D02*
G37*
G36*
X28384D02*
X15929D01*
Y204097D01*
X28384D01*
Y212024D01*
D02*
G37*
G36*
X274372Y202838D02*
Y201537D01*
X275672D01*
X275471Y202023D01*
X274857Y202636D01*
X274372Y202838D01*
D02*
G37*
G36*
X272872D02*
X272387Y202636D01*
X271773Y202023D01*
X271572Y201537D01*
X272872D01*
Y202838D01*
D02*
G37*
G36*
X226172Y201129D02*
X224372D01*
Y198979D01*
X226172D01*
Y201129D01*
D02*
G37*
G36*
X222872D02*
X221072D01*
Y198979D01*
X222872D01*
Y201129D01*
D02*
G37*
G36*
X275672Y200037D02*
X274372D01*
Y198737D01*
X274857Y198938D01*
X275471Y199552D01*
X275672Y200037D01*
D02*
G37*
G36*
X272872D02*
X271572D01*
X271773Y199552D01*
X272387Y198938D01*
X272872Y198737D01*
Y200037D01*
D02*
G37*
G36*
X207443Y199760D02*
Y198460D01*
X208743D01*
X208542Y198945D01*
X207928Y199559D01*
X207443Y199760D01*
D02*
G37*
G36*
X205943D02*
X205457Y199559D01*
X204844Y198945D01*
X204643Y198460D01*
X205943D01*
Y199760D01*
D02*
G37*
G36*
X223622Y198229D02*
D01*
D01*
D01*
D02*
G37*
G36*
X191695Y198507D02*
Y197207D01*
X192995D01*
X192794Y197692D01*
X192180Y198306D01*
X191695Y198507D01*
D02*
G37*
G36*
X190195D02*
X189709Y198306D01*
X189096Y197692D01*
X188895Y197207D01*
X190195D01*
Y198507D01*
D02*
G37*
G36*
X208743Y196960D02*
X207443D01*
Y195660D01*
X207928Y195861D01*
X208542Y196474D01*
X208743Y196960D01*
D02*
G37*
G36*
X205943D02*
X204643D01*
X204844Y196474D01*
X205457Y195861D01*
X205943Y195660D01*
Y196960D01*
D02*
G37*
G36*
X226172Y197479D02*
X224372D01*
Y195329D01*
X226172D01*
Y197479D01*
D02*
G37*
G36*
X222872D02*
X221072D01*
Y195329D01*
X222872D01*
Y197479D01*
D02*
G37*
G36*
X42339Y202596D02*
X29884D01*
Y194669D01*
X42339D01*
Y202596D01*
D02*
G37*
G36*
X28384D02*
X15929D01*
Y194669D01*
X28384D01*
Y202596D01*
D02*
G37*
G36*
X192995Y195707D02*
X191695D01*
Y194406D01*
X192180Y194608D01*
X192794Y195221D01*
X192995Y195707D01*
D02*
G37*
G36*
X190195D02*
X188895D01*
X189096Y195221D01*
X189709Y194608D01*
X190195Y194406D01*
Y195707D01*
D02*
G37*
G36*
X112955Y191814D02*
Y190514D01*
X114255D01*
X114054Y190999D01*
X113440Y191613D01*
X112955Y191814D01*
D02*
G37*
G36*
X111455D02*
X110969Y191613D01*
X110356Y190999D01*
X110155Y190514D01*
X111455D01*
Y191814D01*
D02*
G37*
G36*
X114255Y189014D02*
X112955D01*
Y187714D01*
X113440Y187915D01*
X114054Y188528D01*
X114255Y189014D01*
D02*
G37*
G36*
X111455D02*
X110155D01*
X110356Y188528D01*
X110969Y187915D01*
X111455Y187714D01*
Y189014D01*
D02*
G37*
G36*
X116256Y186020D02*
X112955D01*
Y183407D01*
X116256D01*
Y186020D01*
D02*
G37*
G36*
X111455D02*
X108153D01*
Y183407D01*
X111455D01*
Y186020D01*
D02*
G37*
G36*
X100750Y184334D02*
Y183034D01*
X102050D01*
X101849Y183519D01*
X101235Y184133D01*
X100750Y184334D01*
D02*
G37*
G36*
X99250D02*
X98764Y184133D01*
X98151Y183519D01*
X97950Y183034D01*
X99250D01*
Y184334D01*
D02*
G37*
G36*
X102050Y181534D02*
X100750D01*
Y180233D01*
X101235Y180434D01*
X101849Y181048D01*
X102050Y181534D01*
D02*
G37*
G36*
X99250D02*
X97950D01*
X98151Y181048D01*
X98764Y180434D01*
X99250Y180233D01*
Y181534D01*
D02*
G37*
G36*
X116256Y181907D02*
X112955D01*
Y179295D01*
X116256D01*
Y181907D01*
D02*
G37*
G36*
X111455D02*
X108153D01*
Y179295D01*
X111455D01*
Y181907D01*
D02*
G37*
G36*
X193717Y180331D02*
X190908D01*
Y178703D01*
X193717D01*
Y180331D01*
D02*
G37*
G36*
X201590D02*
X198782D01*
Y178703D01*
X201590D01*
Y180331D01*
D02*
G37*
G36*
X32640Y186771D02*
Y178703D01*
X36869D01*
Y181890D01*
X36700Y183179D01*
X36202Y184380D01*
X35411Y185411D01*
X34380Y186202D01*
X33179Y186700D01*
X32640Y186771D01*
D02*
G37*
G36*
X31140D02*
X30601Y186700D01*
X29400Y186202D01*
X28369Y185411D01*
X27577Y184380D01*
X27080Y183179D01*
X26910Y181890D01*
Y178703D01*
X31140D01*
Y186771D01*
D02*
G37*
G36*
X197282Y180331D02*
X194472D01*
Y178703D01*
X197282D01*
Y180331D01*
D02*
G37*
G36*
X189408D02*
X186598D01*
Y178703D01*
X189408D01*
Y180331D01*
D02*
G37*
G36*
X133034Y178822D02*
Y177522D01*
X134334D01*
X134133Y178007D01*
X133519Y178621D01*
X133034Y178822D01*
D02*
G37*
G36*
X131534D02*
X131048Y178621D01*
X130434Y178007D01*
X130233Y177522D01*
X131534D01*
Y178822D01*
D02*
G37*
G36*
X124372D02*
Y177522D01*
X125672D01*
X125471Y178007D01*
X124857Y178621D01*
X124372Y178822D01*
D02*
G37*
G36*
X122872D02*
X122387Y178621D01*
X121773Y178007D01*
X121572Y177522D01*
X122872D01*
Y178822D01*
D02*
G37*
G36*
X201590Y177203D02*
X198782D01*
Y175575D01*
X201590D01*
Y177203D01*
D02*
G37*
G36*
X197282D02*
X194472D01*
Y175575D01*
X197282D01*
Y177203D01*
D02*
G37*
G36*
X193717D02*
X190908D01*
Y175575D01*
X193717D01*
Y177203D01*
D02*
G37*
G36*
X189408D02*
X186598D01*
Y175575D01*
X189408D01*
Y177203D01*
D02*
G37*
G36*
X134334Y176022D02*
X133034D01*
Y174722D01*
X133519Y174923D01*
X134133Y175536D01*
X134334Y176022D01*
D02*
G37*
G36*
X131534D02*
X130233D01*
X130434Y175536D01*
X131048Y174923D01*
X131534Y174722D01*
Y176022D01*
D02*
G37*
G36*
X125672D02*
X124372D01*
Y174722D01*
X124857Y174923D01*
X125471Y175536D01*
X125672Y176022D01*
D02*
G37*
G36*
X122872D02*
X121572D01*
X121773Y175536D01*
X122387Y174923D01*
X122872Y174722D01*
Y176022D01*
D02*
G37*
G36*
X210646Y177203D02*
X209018D01*
Y174394D01*
X210646D01*
Y177203D01*
D02*
G37*
G36*
X207518D02*
X205890D01*
Y174394D01*
X207518D01*
Y177203D01*
D02*
G37*
G36*
X14836Y182987D02*
X13510D01*
X12230Y182644D01*
X11082Y181981D01*
X10145Y181044D01*
X9482Y179896D01*
X9139Y178615D01*
Y177290D01*
X9482Y176010D01*
X10145Y174862D01*
X11082Y173925D01*
X12230Y173262D01*
X13510Y172919D01*
X14836D01*
X16116Y173262D01*
X17264Y173925D01*
X18201Y174862D01*
X18864Y176010D01*
X19207Y177290D01*
Y178615D01*
X18864Y179896D01*
X18201Y181044D01*
X17264Y181981D01*
X16116Y182644D01*
X14836Y182987D01*
D02*
G37*
G36*
X198388Y174097D02*
Y172797D01*
X199688D01*
X199487Y173283D01*
X198873Y173896D01*
X198388Y174097D01*
D02*
G37*
G36*
X196888D02*
X196402Y173896D01*
X195789Y173283D01*
X195588Y172797D01*
X196888D01*
Y174097D01*
D02*
G37*
G36*
X190514D02*
Y172797D01*
X191814D01*
X191613Y173283D01*
X190999Y173896D01*
X190514Y174097D01*
D02*
G37*
G36*
X189014D02*
X188528Y173896D01*
X187915Y173283D01*
X187714Y172797D01*
X189014D01*
Y174097D01*
D02*
G37*
G36*
X199688Y171297D02*
X198388D01*
Y169997D01*
X198873Y170198D01*
X199487Y170812D01*
X199688Y171297D01*
D02*
G37*
G36*
X196888D02*
X195588D01*
X195789Y170812D01*
X196402Y170198D01*
X196888Y169997D01*
Y171297D01*
D02*
G37*
G36*
X191814D02*
X190514D01*
Y169997D01*
X190999Y170198D01*
X191613Y170812D01*
X191814Y171297D01*
D02*
G37*
G36*
X189014D02*
X187714D01*
X187915Y170812D01*
X188528Y170198D01*
X189014Y169997D01*
Y171297D01*
D02*
G37*
G36*
X36869Y177203D02*
X32640D01*
Y169135D01*
X33179Y169206D01*
X34380Y169703D01*
X35411Y170495D01*
X36202Y171526D01*
X36700Y172727D01*
X36869Y174016D01*
Y177203D01*
D02*
G37*
G36*
X31140D02*
X26910D01*
Y174016D01*
X27080Y172727D01*
X27577Y171526D01*
X28369Y170495D01*
X29400Y169703D01*
X30601Y169206D01*
X31140Y169135D01*
Y177203D01*
D02*
G37*
G36*
X149622Y172260D02*
X142876D01*
Y168860D01*
X149622D01*
Y172260D01*
D02*
G37*
G36*
X141376D02*
X134630D01*
Y168860D01*
X141376D01*
Y172260D01*
D02*
G37*
G36*
X127969Y170488D02*
X125160D01*
Y168860D01*
X127969D01*
Y170488D01*
D02*
G37*
G36*
X123660D02*
X120850D01*
Y168860D01*
X123660D01*
Y170488D01*
D02*
G37*
G36*
X120095D02*
X117285D01*
Y168860D01*
X120095D01*
Y170488D01*
D02*
G37*
G36*
X115785D02*
X112976D01*
Y168860D01*
X115785D01*
Y170488D01*
D02*
G37*
G36*
X184396Y168908D02*
X182246D01*
Y167108D01*
X184396D01*
Y168908D01*
D02*
G37*
G36*
X180746D02*
X178596D01*
Y167108D01*
X180746D01*
Y168908D01*
D02*
G37*
G36*
X127969Y167360D02*
X125160D01*
Y165732D01*
X127969D01*
Y167360D01*
D02*
G37*
G36*
X123660D02*
X120850D01*
Y165732D01*
X123660D01*
Y167360D01*
D02*
G37*
G36*
X120095D02*
X117285D01*
Y165732D01*
X120095D01*
Y167360D01*
D02*
G37*
G36*
X115785D02*
X112976D01*
Y165732D01*
X115785D01*
Y167360D01*
D02*
G37*
G36*
X149622D02*
X142876D01*
Y163961D01*
X149622D01*
Y167360D01*
D02*
G37*
G36*
X141376D02*
X134630D01*
Y163961D01*
X141376D01*
Y167360D01*
D02*
G37*
G36*
X184396Y165608D02*
X182246D01*
Y163808D01*
X184396D01*
Y165608D01*
D02*
G37*
G36*
X180746D02*
X178596D01*
Y163808D01*
X180746D01*
Y165608D01*
D02*
G37*
G36*
X260842Y166157D02*
X259215D01*
Y163348D01*
X260842D01*
Y166157D01*
D02*
G37*
G36*
X257715D02*
X256087D01*
Y163348D01*
X257715D01*
Y166157D01*
D02*
G37*
G36*
X88008Y165567D02*
X81852D01*
Y161380D01*
X88008D01*
Y165567D01*
D02*
G37*
G36*
X175553Y161499D02*
Y160199D01*
X176853D01*
X176652Y160684D01*
X176039Y161298D01*
X175553Y161499D01*
D02*
G37*
G36*
X174053D02*
X173568Y161298D01*
X172954Y160684D01*
X172753Y160199D01*
X174053D01*
Y161499D01*
D02*
G37*
G36*
X48425Y164035D02*
X45238D01*
Y159805D01*
X53306D01*
X53235Y160344D01*
X52738Y161545D01*
X51946Y162576D01*
X50915Y163368D01*
X49714Y163865D01*
X48425Y164035D01*
D02*
G37*
G36*
X176853Y158699D02*
X175553D01*
Y157399D01*
X176039Y157600D01*
X176652Y158213D01*
X176853Y158699D01*
D02*
G37*
G36*
X174053D02*
X172753D01*
X172954Y158213D01*
X173568Y157600D01*
X174053Y157399D01*
Y158699D01*
D02*
G37*
G36*
X88008Y159880D02*
X81852D01*
Y155693D01*
X88008D01*
Y159880D01*
D02*
G37*
G36*
X80352D02*
X74197D01*
Y155693D01*
X80352D01*
Y159880D01*
D02*
G37*
G36*
X218860Y156775D02*
Y155474D01*
X220160D01*
X219959Y155960D01*
X219346Y156573D01*
X218860Y156775D01*
D02*
G37*
G36*
X217360D02*
X216875Y156573D01*
X216261Y155960D01*
X216060Y155474D01*
X217360D01*
Y156775D01*
D02*
G37*
G36*
X234608Y156381D02*
Y155081D01*
X235908D01*
X235707Y155566D01*
X235094Y156180D01*
X234608Y156381D01*
D02*
G37*
G36*
X233108D02*
X232623Y156180D01*
X232009Y155566D01*
X231808Y155081D01*
X233108D01*
Y156381D01*
D02*
G37*
G36*
X53306Y158305D02*
X45238D01*
Y154076D01*
X48425D01*
X49714Y154245D01*
X50915Y154743D01*
X51946Y155534D01*
X52738Y156565D01*
X53235Y157766D01*
X53306Y158305D01*
D02*
G37*
G36*
X196235Y158216D02*
X193831Y155812D01*
X195748Y153895D01*
X198152Y156299D01*
X196235Y158216D01*
D02*
G37*
G36*
X43738Y164035D02*
X40551D01*
X39262Y163865D01*
X38061Y163368D01*
X37030Y162576D01*
X36239Y161545D01*
X36111Y161236D01*
X29884D01*
Y153309D01*
X42339D01*
Y154076D01*
X43738D01*
Y159055D01*
Y164035D01*
D02*
G37*
G36*
X28384Y161236D02*
X15929D01*
Y153309D01*
X28384D01*
Y161236D01*
D02*
G37*
G36*
X183275Y157505D02*
X180871Y155101D01*
X182788Y153184D01*
X185192Y155588D01*
X183275Y157505D01*
D02*
G37*
G36*
X220160Y153974D02*
X218860D01*
Y152674D01*
X219346Y152875D01*
X219959Y153489D01*
X220160Y153974D01*
D02*
G37*
G36*
X217360D02*
X216060D01*
X216261Y153489D01*
X216875Y152875D01*
X217360Y152674D01*
Y153974D01*
D02*
G37*
G36*
X235908Y153581D02*
X234608D01*
Y152281D01*
X235094Y152482D01*
X235707Y153095D01*
X235908Y153581D01*
D02*
G37*
G36*
X233108D02*
X231808D01*
X232009Y153095D01*
X232623Y152482D01*
X233108Y152281D01*
Y153581D01*
D02*
G37*
G36*
X81065Y152444D02*
Y151144D01*
X82365D01*
X82164Y151629D01*
X81551Y152243D01*
X81065Y152444D01*
D02*
G37*
G36*
X79565D02*
X79080Y152243D01*
X78466Y151629D01*
X78265Y151144D01*
X79565D01*
Y152444D01*
D02*
G37*
G36*
X73978D02*
Y151144D01*
X75279D01*
X75077Y151629D01*
X74464Y152243D01*
X73978Y152444D01*
D02*
G37*
G36*
X72478D02*
X71993Y152243D01*
X71379Y151629D01*
X71178Y151144D01*
X72478D01*
Y152444D01*
D02*
G37*
G36*
X55081Y152050D02*
Y150750D01*
X56381D01*
X56180Y151235D01*
X55566Y151849D01*
X55081Y152050D01*
D02*
G37*
G36*
X53581D02*
X53095Y151849D01*
X52482Y151235D01*
X52281Y150750D01*
X53581D01*
Y152050D01*
D02*
G37*
G36*
X164189Y152181D02*
X161380D01*
Y150553D01*
X164189D01*
Y152181D01*
D02*
G37*
G36*
X186252Y154527D02*
X183848Y152123D01*
X185765Y150207D01*
X188169Y152611D01*
X186252Y154527D01*
D02*
G37*
G36*
X179810Y154040D02*
X177406Y151636D01*
X179323Y149720D01*
X181727Y152123D01*
X179810Y154040D01*
D02*
G37*
G36*
X82365Y149644D02*
X81065D01*
Y148344D01*
X81551Y148545D01*
X82164Y149158D01*
X82365Y149644D01*
D02*
G37*
G36*
X79565D02*
X78265D01*
X78466Y149158D01*
X79080Y148545D01*
X79565Y148344D01*
Y149644D01*
D02*
G37*
G36*
X75279D02*
X73978D01*
Y148344D01*
X74464Y148545D01*
X75077Y149158D01*
X75279Y149644D01*
D02*
G37*
G36*
X72478D02*
X71178D01*
X71379Y149158D01*
X71993Y148545D01*
X72478Y148344D01*
Y149644D01*
D02*
G37*
G36*
X56381Y149250D02*
X55081D01*
Y147950D01*
X55566Y148151D01*
X56180Y148765D01*
X56381Y149250D01*
D02*
G37*
G36*
X53581D02*
X52281D01*
X52482Y148765D01*
X53095Y148151D01*
X53581Y147950D01*
Y149250D01*
D02*
G37*
G36*
X218860Y148900D02*
Y147600D01*
X220160D01*
X219959Y148086D01*
X219346Y148699D01*
X218860Y148900D01*
D02*
G37*
G36*
X217360D02*
X216875Y148699D01*
X216261Y148086D01*
X216060Y147600D01*
X217360D01*
Y148900D01*
D02*
G37*
G36*
X164189Y149053D02*
X161380D01*
Y147425D01*
X164189D01*
Y149053D01*
D02*
G37*
G36*
X234608Y148113D02*
Y146813D01*
X235908D01*
X235707Y147299D01*
X235094Y147912D01*
X234608Y148113D01*
D02*
G37*
G36*
X233108D02*
X232623Y147912D01*
X232009Y147299D01*
X231808Y146813D01*
X233108D01*
Y148113D01*
D02*
G37*
G36*
X182788Y151063D02*
X180384Y148659D01*
X182300Y146742D01*
X184704Y149146D01*
X182788Y151063D01*
D02*
G37*
G36*
X275020Y146963D02*
X274192D01*
X273427Y146646D01*
X273247Y146466D01*
X269924D01*
Y146935D01*
X264724D01*
Y142435D01*
X269924D01*
Y143101D01*
X273467D01*
X274192Y142801D01*
X275020D01*
X275785Y143118D01*
X276371Y143703D01*
X276687Y144468D01*
Y145296D01*
X276371Y146061D01*
X275785Y146646D01*
X275020Y146963D01*
D02*
G37*
G36*
X220160Y146100D02*
X218860D01*
Y144800D01*
X219346Y145001D01*
X219959Y145615D01*
X220160Y146100D01*
D02*
G37*
G36*
X217360D02*
X216060D01*
X216261Y145615D01*
X216875Y145001D01*
X217360Y144800D01*
Y146100D01*
D02*
G37*
G36*
X235908Y145313D02*
X234608D01*
Y144013D01*
X235094Y144214D01*
X235707Y144827D01*
X235908Y145313D01*
D02*
G37*
G36*
X233108D02*
X231808D01*
X232009Y144827D01*
X232623Y144214D01*
X233108Y144013D01*
Y145313D01*
D02*
G37*
G36*
X42339Y151809D02*
X29884D01*
Y143882D01*
X42339D01*
Y151809D01*
D02*
G37*
G36*
X28384D02*
X15929D01*
Y143882D01*
X28384D01*
Y151809D01*
D02*
G37*
G36*
X145488Y147063D02*
X142876D01*
Y143663D01*
X145488D01*
Y147063D01*
D02*
G37*
G36*
X141376D02*
X138764D01*
Y143663D01*
X141376D01*
Y147063D01*
D02*
G37*
G36*
X178490Y144499D02*
X176340D01*
Y142699D01*
X178490D01*
Y144499D01*
D02*
G37*
G36*
X174840D02*
X172690D01*
Y142699D01*
X174840D01*
Y144499D01*
D02*
G37*
G36*
X95582Y143830D02*
X88276D01*
Y140461D01*
X95582D01*
Y143830D01*
D02*
G37*
G36*
X84268Y141748D02*
X81459D01*
Y140120D01*
X84268D01*
Y141748D01*
D02*
G37*
G36*
X72872D02*
X70063D01*
Y140120D01*
X72872D01*
Y141748D01*
D02*
G37*
G36*
X178490Y141199D02*
X176340D01*
Y139399D01*
X178490D01*
Y141199D01*
D02*
G37*
G36*
X174840D02*
X172690D01*
Y139399D01*
X174840D01*
Y141199D01*
D02*
G37*
G36*
X145488Y142163D02*
X142876D01*
Y138764D01*
X145488D01*
Y142163D01*
D02*
G37*
G36*
X141376D02*
X138764D01*
Y138764D01*
X141376D01*
Y142163D01*
D02*
G37*
G36*
X95882Y139130D02*
X92679D01*
Y137896D01*
X95882D01*
Y139130D01*
D02*
G37*
G36*
X91179D02*
X87976D01*
Y137896D01*
X91179D01*
Y139130D01*
D02*
G37*
G36*
X181640Y137019D02*
X179490D01*
Y135219D01*
X181640D01*
Y137019D01*
D02*
G37*
G36*
X177990D02*
X175840D01*
Y135219D01*
X177990D01*
Y137019D01*
D02*
G37*
G36*
X49622Y133677D02*
X46813D01*
Y132049D01*
X49622D01*
Y133677D01*
D02*
G37*
G36*
X45313D02*
X42504D01*
Y132049D01*
X45313D01*
Y133677D01*
D02*
G37*
G36*
X181640Y133719D02*
X179490D01*
Y131919D01*
X181640D01*
Y133719D01*
D02*
G37*
G36*
X177990D02*
X175840D01*
Y131919D01*
X177990D01*
Y133719D01*
D02*
G37*
G36*
X146079Y134661D02*
X144451D01*
Y131852D01*
X146079D01*
Y134661D01*
D02*
G37*
G36*
X142951D02*
X141323D01*
Y131852D01*
X142951D01*
Y134661D01*
D02*
G37*
G36*
X117235Y133830D02*
X109930D01*
Y130461D01*
X117235D01*
Y133830D01*
D02*
G37*
G36*
X259411Y130397D02*
Y129096D01*
X260712D01*
X260510Y129582D01*
X259897Y130195D01*
X259411Y130397D01*
D02*
G37*
G36*
X257911D02*
X257426Y130195D01*
X256812Y129582D01*
X256611Y129096D01*
X257911D01*
Y130397D01*
D02*
G37*
G36*
X49622Y130549D02*
X46813D01*
Y128921D01*
X49622D01*
Y130549D01*
D02*
G37*
G36*
X45313D02*
X42504D01*
Y128921D01*
X45313D01*
Y130549D01*
D02*
G37*
G36*
X200409Y130134D02*
X197600D01*
Y128506D01*
X200409D01*
Y130134D01*
D02*
G37*
G36*
X196100D02*
X193291D01*
Y128506D01*
X196100D01*
Y130134D01*
D02*
G37*
G36*
X179740Y131118D02*
X178112D01*
Y128309D01*
X179740D01*
Y131118D01*
D02*
G37*
G36*
X176612D02*
X174984D01*
Y128309D01*
X176612D01*
Y131118D01*
D02*
G37*
G36*
X253362D02*
X251734D01*
Y128309D01*
X253362D01*
Y131118D01*
D02*
G37*
G36*
X250234D02*
X248606D01*
Y128309D01*
X250234D01*
Y131118D01*
D02*
G37*
G36*
X146079Y130352D02*
X144451D01*
Y127543D01*
X146079D01*
Y130352D01*
D02*
G37*
G36*
X142951D02*
X141323D01*
Y127543D01*
X142951D01*
Y130352D01*
D02*
G37*
G36*
X165317Y128428D02*
Y127128D01*
X166617D01*
X166416Y127613D01*
X165802Y128227D01*
X165317Y128428D01*
D02*
G37*
G36*
X163817D02*
X163331Y128227D01*
X162718Y127613D01*
X162517Y127128D01*
X163817D01*
Y128428D01*
D02*
G37*
G36*
X260712Y127596D02*
X259411D01*
Y126296D01*
X259897Y126497D01*
X260510Y127111D01*
X260712Y127596D01*
D02*
G37*
G36*
X257911D02*
X256611D01*
X256812Y127111D01*
X257426Y126497D01*
X257911Y126296D01*
Y127596D01*
D02*
G37*
G36*
X200409Y127006D02*
X197600D01*
Y125378D01*
X200409D01*
Y127006D01*
D02*
G37*
G36*
X196100D02*
X193291D01*
Y125378D01*
X196100D01*
Y127006D01*
D02*
G37*
G36*
X166617Y125628D02*
X165317D01*
Y124328D01*
X165802Y124529D01*
X166416Y125143D01*
X166617Y125628D01*
D02*
G37*
G36*
X163817D02*
X162517D01*
X162718Y125143D01*
X163331Y124529D01*
X163817Y124328D01*
Y125628D01*
D02*
G37*
G36*
X253362Y126809D02*
X251734D01*
Y124000D01*
X253362D01*
Y126809D01*
D02*
G37*
G36*
X179740Y126809D02*
X178112D01*
Y124000D01*
X179740D01*
Y126809D01*
D02*
G37*
G36*
X176612D02*
X174984D01*
Y124000D01*
X176612D01*
Y126809D01*
D02*
G37*
G36*
X200750Y124491D02*
Y123191D01*
X202050D01*
X201849Y123676D01*
X201236Y124290D01*
X200750Y124491D01*
D02*
G37*
G36*
X199250D02*
X198765Y124290D01*
X198151Y123676D01*
X197950Y123191D01*
X199250D01*
Y124491D01*
D02*
G37*
G36*
X272047Y136672D02*
X270615Y136530D01*
X269238Y136113D01*
X267969Y135434D01*
X266857Y134521D01*
X265944Y133409D01*
X265265Y132140D01*
X264847Y130763D01*
X264706Y129331D01*
X264847Y127899D01*
X265265Y126522D01*
X265944Y125252D01*
X266857Y124140D01*
X267969Y123227D01*
X269238Y122549D01*
X270615Y122131D01*
X272047Y121990D01*
X273479Y122131D01*
X274856Y122549D01*
X276126Y123227D01*
X277238Y124140D01*
X278151Y125252D01*
X278829Y126522D01*
X279247Y127899D01*
X279388Y129331D01*
X279247Y130763D01*
X278829Y132140D01*
X278151Y133409D01*
X277238Y134521D01*
X276126Y135434D01*
X274856Y136113D01*
X273479Y136530D01*
X272047Y136672D01*
D02*
G37*
G36*
X23078Y133971D02*
X21804D01*
X20574Y133641D01*
X19471Y133004D01*
X18570Y132104D01*
X17934Y131001D01*
X17604Y129771D01*
Y128497D01*
X17934Y127267D01*
X18570Y126164D01*
X19471Y125263D01*
X20574Y124627D01*
X21804Y124297D01*
X23078D01*
X24308Y124627D01*
X25411Y125263D01*
X26311Y126164D01*
X26908Y127197D01*
X31087D01*
X35835Y122449D01*
X36463Y122029D01*
X37205Y121882D01*
X42804D01*
Y121741D01*
X49322D01*
Y122079D01*
X53937D01*
X54203Y122132D01*
X54312D01*
X54412Y122173D01*
X54678Y122226D01*
X54904Y122377D01*
X55004Y122418D01*
X55081Y122495D01*
X55307Y122646D01*
X55458Y122872D01*
X55534Y122948D01*
X55576Y123049D01*
X55727Y123274D01*
X55780Y123541D01*
X55821Y123641D01*
Y123749D01*
X55874Y124016D01*
X55821Y124282D01*
Y124391D01*
X55780Y124491D01*
X55727Y124757D01*
X55576Y124983D01*
X55534Y125083D01*
X55458Y125160D01*
X55307Y125386D01*
X55081Y125536D01*
X55004Y125613D01*
X54904Y125655D01*
X54678Y125805D01*
X54412Y125858D01*
X54312Y125900D01*
X54203D01*
X53937Y125953D01*
X46260D01*
X45978Y125897D01*
X42804D01*
Y125756D01*
X38007D01*
X33260Y130504D01*
X32631Y130924D01*
X31890Y131071D01*
X26908D01*
X26311Y132104D01*
X25411Y133004D01*
X24308Y133641D01*
X23078Y133971D01*
D02*
G37*
G36*
X140120Y122916D02*
Y121616D01*
X141420D01*
X141219Y122102D01*
X140606Y122715D01*
X140120Y122916D01*
D02*
G37*
G36*
X138620D02*
X138135Y122715D01*
X137521Y122102D01*
X137320Y121616D01*
X138620D01*
Y122916D01*
D02*
G37*
G36*
X202050Y121691D02*
X200750D01*
Y120391D01*
X201236Y120592D01*
X201849Y121205D01*
X202050Y121691D01*
D02*
G37*
G36*
X199250D02*
X197950D01*
X198151Y121205D01*
X198765Y120592D01*
X199250Y120391D01*
Y121691D01*
D02*
G37*
G36*
X141420Y120116D02*
X140120D01*
Y118816D01*
X140606Y119017D01*
X141219Y119631D01*
X141420Y120116D01*
D02*
G37*
G36*
X138620D02*
X137320D01*
X137521Y119631D01*
X138135Y119017D01*
X138620Y118816D01*
Y120116D01*
D02*
G37*
G36*
X56276Y120095D02*
X53860D01*
Y118270D01*
X56276D01*
Y120095D01*
D02*
G37*
G36*
X52360D02*
X49945D01*
Y118270D01*
X52360D01*
Y120095D01*
D02*
G37*
G36*
X107874Y169218D02*
X99213D01*
X98940Y169163D01*
X98708Y169009D01*
X95165Y165465D01*
X95010Y165234D01*
X94956Y164961D01*
Y149606D01*
X95010Y149333D01*
X95165Y149102D01*
X105401Y138865D01*
X105632Y138711D01*
X105905Y138656D01*
X109930D01*
Y135461D01*
X117235D01*
Y138656D01*
X117815D01*
X118578Y137893D01*
Y118406D01*
X118208Y118036D01*
X116550D01*
X116358Y118499D01*
X117827Y119968D01*
X117982Y120199D01*
X118036Y120472D01*
Y127953D01*
X117982Y128226D01*
X117827Y128457D01*
X117040Y129245D01*
X116809Y129400D01*
X116535Y129454D01*
X105905D01*
X105632Y129400D01*
X105401Y129245D01*
X103148Y126992D01*
X102941Y127013D01*
X102574Y127125D01*
X102473Y127276D01*
X100505Y129245D01*
X100273Y129400D01*
X100000Y129454D01*
X96127D01*
X95924Y129954D01*
X96174Y130204D01*
X96329Y130436D01*
X96383Y130709D01*
Y133465D01*
X96369Y133534D01*
X96369Y133605D01*
X96342Y133669D01*
X96329Y133738D01*
X96289Y133796D01*
X96262Y133862D01*
X96213Y133911D01*
X96174Y133969D01*
X96115Y134009D01*
X96065Y134058D01*
X95161Y134661D01*
X95312Y135161D01*
X95882D01*
Y136396D01*
X91929D01*
X87976D01*
Y135161D01*
X87558Y134966D01*
X84941D01*
X83575Y136331D01*
X83344Y136486D01*
X83314Y136492D01*
X83363Y136992D01*
X84268D01*
Y138620D01*
X80709D01*
Y139370D01*
X79959D01*
Y141748D01*
X74372D01*
Y139370D01*
X73622D01*
Y138620D01*
X70063D01*
Y136992D01*
X70574D01*
X70623Y136492D01*
X70593Y136486D01*
X70362Y136331D01*
X69180Y135150D01*
X69026Y134919D01*
X68971Y134646D01*
Y128347D01*
X69026Y128073D01*
X69180Y127842D01*
X70755Y126267D01*
X70987Y126112D01*
X71260Y126058D01*
X82458D01*
X82534Y126073D01*
X82612Y126075D01*
X82670Y126100D01*
X82732Y126112D01*
X82796Y126155D01*
X82867Y126187D01*
X82911Y126232D01*
X82963Y126267D01*
X83006Y126331D01*
X83060Y126387D01*
X83424Y126957D01*
X83659Y127055D01*
X84245Y127640D01*
X84561Y128405D01*
Y128738D01*
X85113Y129601D01*
X87731D01*
X87934Y129101D01*
X87291Y128457D01*
X87136Y128226D01*
X87082Y127953D01*
Y118800D01*
X86712Y118430D01*
X81496D01*
X81223Y118376D01*
X80991Y118221D01*
X79417Y116646D01*
X79262Y116415D01*
X79208Y116142D01*
Y104331D01*
X79262Y104058D01*
X79417Y103826D01*
X81385Y101857D01*
X81617Y101703D01*
X81890Y101648D01*
X101575D01*
X101848Y101703D01*
X102079Y101857D01*
X102473Y102251D01*
X103050Y102239D01*
X103826Y101464D01*
X104058Y101309D01*
X104331Y101255D01*
X127953D01*
X128226Y101309D01*
X128457Y101464D01*
X132394Y105401D01*
X132549Y105632D01*
X132604Y105905D01*
Y131890D01*
X133858D01*
Y138263D01*
X135827D01*
X136100Y138317D01*
X136331Y138472D01*
X137119Y139259D01*
X137274Y139491D01*
X137328Y139764D01*
Y155118D01*
X137274Y155391D01*
X137119Y155623D01*
X128851Y163891D01*
X128620Y164045D01*
X128347Y164100D01*
X113288D01*
X108379Y169009D01*
X108147Y169163D01*
X107874Y169218D01*
D02*
G37*
G36*
X176341Y118192D02*
Y116892D01*
X177641D01*
X177440Y117377D01*
X176826Y117991D01*
X176341Y118192D01*
D02*
G37*
G36*
X174841D02*
X174355Y117991D01*
X173741Y117377D01*
X173540Y116892D01*
X174841D01*
Y118192D01*
D02*
G37*
G36*
X195685Y118126D02*
X192876D01*
Y116498D01*
X195685D01*
Y118126D01*
D02*
G37*
G36*
X191376D02*
X188567D01*
Y116498D01*
X191376D01*
Y118126D01*
D02*
G37*
G36*
X187811D02*
X185002D01*
Y116498D01*
X187811D01*
Y118126D01*
D02*
G37*
G36*
X183502D02*
X180693D01*
Y116498D01*
X183502D01*
Y118126D01*
D02*
G37*
G36*
X56276Y116770D02*
X53860D01*
Y114945D01*
X56276D01*
Y116770D01*
D02*
G37*
G36*
X52360D02*
X49945D01*
Y114945D01*
X52360D01*
Y116770D01*
D02*
G37*
G36*
X177641Y115392D02*
X176341D01*
Y114092D01*
X176826Y114293D01*
X177440Y114906D01*
X177641Y115392D01*
D02*
G37*
G36*
X174841D02*
X173540D01*
X173741Y114906D01*
X174355Y114293D01*
X174841Y114092D01*
Y115392D01*
D02*
G37*
G36*
X60173Y143441D02*
X59346D01*
X58581Y143124D01*
X57995Y142539D01*
X57678Y141774D01*
Y140946D01*
X57995Y140181D01*
X58160Y140016D01*
Y118743D01*
X57592D01*
Y113542D01*
X62093D01*
Y118743D01*
X61525D01*
Y140184D01*
X61840Y140946D01*
Y141774D01*
X61524Y142539D01*
X60938Y143124D01*
X60173Y143441D01*
D02*
G37*
G36*
X195685Y114998D02*
X192876D01*
Y113370D01*
X195685D01*
Y114998D01*
D02*
G37*
G36*
X191376D02*
X188567D01*
Y113370D01*
X191376D01*
Y114998D01*
D02*
G37*
G36*
X187811D02*
X185002D01*
Y113370D01*
X187811D01*
Y114998D01*
D02*
G37*
G36*
X183502D02*
X180693D01*
Y113370D01*
X183502D01*
Y114998D01*
D02*
G37*
G36*
X62093Y112443D02*
X57592D01*
Y111722D01*
X55976D01*
Y112314D01*
X50245D01*
Y107765D01*
X55976D01*
Y108357D01*
X57592D01*
Y107243D01*
X62093D01*
Y112443D01*
D02*
G37*
G36*
X48535Y116054D02*
X42804D01*
Y115717D01*
X34211D01*
X33470Y115569D01*
X32841Y115149D01*
X32421Y114521D01*
X32274Y113779D01*
Y111432D01*
X32227Y111386D01*
X26908D01*
X26311Y112419D01*
X25411Y113319D01*
X24308Y113956D01*
X23078Y114286D01*
X21804D01*
X20574Y113956D01*
X19471Y113319D01*
X18570Y112419D01*
X17934Y111316D01*
X17604Y110086D01*
Y108812D01*
X17934Y107582D01*
X18570Y106479D01*
X19471Y105578D01*
X20574Y104941D01*
X21804Y104612D01*
X23078D01*
X24308Y104941D01*
X25411Y105578D01*
X26311Y106479D01*
X26908Y107512D01*
X33030D01*
X33771Y107659D01*
X34400Y108079D01*
X35581Y109260D01*
X36001Y109889D01*
X36148Y110630D01*
Y111842D01*
X42804D01*
Y111505D01*
X48535D01*
Y116054D01*
D02*
G37*
G36*
X74839Y115409D02*
X70159D01*
Y110986D01*
X74839D01*
Y115409D01*
D02*
G37*
G36*
X68659D02*
X63980D01*
Y110986D01*
X68659D01*
Y115409D01*
D02*
G37*
G36*
X152964Y114578D02*
X149398D01*
Y112768D01*
X142607Y105976D01*
X141455Y106285D01*
X140181D01*
X138951Y105955D01*
X137848Y105318D01*
X136947Y104418D01*
X136311Y103315D01*
X135981Y102085D01*
Y100811D01*
X136311Y99581D01*
X136947Y98478D01*
X137848Y97577D01*
X138951Y96940D01*
X140181Y96611D01*
X141455D01*
X142607Y96920D01*
X150483Y89044D01*
X151111Y88624D01*
X151853Y88476D01*
X170276D01*
X171017Y88624D01*
X171175Y88729D01*
X173928D01*
Y92098D01*
X171175D01*
X171017Y92203D01*
X170276Y92351D01*
X152655D01*
X145346Y99659D01*
X145655Y100811D01*
Y102085D01*
X145346Y103237D01*
X151154Y109044D01*
X152964D01*
Y111059D01*
X152971Y111070D01*
X153118Y111811D01*
X152971Y112552D01*
X152964Y112563D01*
Y114578D01*
D02*
G37*
G36*
X74839Y109486D02*
X70159D01*
Y105063D01*
X74839D01*
Y109486D01*
D02*
G37*
G36*
X68659D02*
X63980D01*
Y105063D01*
X68659D01*
Y109486D01*
D02*
G37*
G36*
X173928Y102098D02*
X166623D01*
Y102096D01*
X165449D01*
X164805Y101968D01*
X164259Y101603D01*
X163908Y101251D01*
X162117D01*
Y101487D01*
X156780D01*
Y98119D01*
X158883D01*
X159039Y98015D01*
X159683Y97887D01*
X164604D01*
X165248Y98015D01*
X165794Y98379D01*
X166129Y98714D01*
X166623Y98729D01*
X166623Y98729D01*
X166623Y98729D01*
X173928D01*
Y102098D01*
D02*
G37*
G36*
X208155Y99451D02*
X203656D01*
Y98533D01*
X200473D01*
X200392Y98615D01*
X199627Y98931D01*
X198799D01*
X198034Y98615D01*
X197448Y98029D01*
X197132Y97264D01*
Y96436D01*
X197448Y95671D01*
X198034Y95086D01*
X198799Y94769D01*
X199627D01*
X200392Y95086D01*
X200474Y95168D01*
X203656D01*
Y94251D01*
X208155D01*
Y99451D01*
D02*
G37*
G36*
X195079Y112328D02*
X177756D01*
X177483Y112274D01*
X177251Y112119D01*
X177096Y111887D01*
X177042Y111614D01*
Y103066D01*
X177064Y102959D01*
X177076Y102851D01*
X177091Y102824D01*
X177096Y102793D01*
X177157Y102702D01*
X177210Y102607D01*
X177234Y102587D01*
X177251Y102562D01*
X177342Y102501D01*
X177427Y102433D01*
X185607Y98185D01*
X185637Y98177D01*
X185663Y98159D01*
X185770Y98138D01*
X185875Y98108D01*
X185906Y98111D01*
X185936Y98105D01*
X195079D01*
X195352Y98159D01*
X195583Y98314D01*
X196765Y99495D01*
X196919Y99727D01*
X196974Y100000D01*
Y110433D01*
X196919Y110706D01*
X196765Y110938D01*
X195583Y112119D01*
X195352Y112274D01*
X195079Y112328D01*
D02*
G37*
G36*
X124766Y98507D02*
Y97207D01*
X126066D01*
X125865Y97692D01*
X125251Y98306D01*
X124766Y98507D01*
D02*
G37*
G36*
X123266D02*
X122780Y98306D01*
X122167Y97692D01*
X121966Y97207D01*
X123266D01*
Y98507D01*
D02*
G37*
G36*
X126066Y95707D02*
X124766D01*
Y94406D01*
X125251Y94608D01*
X125865Y95221D01*
X126066Y95707D01*
D02*
G37*
G36*
X123266D02*
X121966D01*
X122167Y95221D01*
X122780Y94608D01*
X123266Y94406D01*
Y95707D01*
D02*
G37*
G36*
X195582Y97098D02*
X188276D01*
Y93729D01*
X195582D01*
Y97098D01*
D02*
G37*
G36*
X162117Y97157D02*
X156780D01*
Y93788D01*
X162117D01*
Y93790D01*
X166623D01*
Y93729D01*
X173928D01*
Y97098D01*
X170504D01*
X170217Y97155D01*
X162117D01*
Y97157D01*
D02*
G37*
G36*
X208155Y93151D02*
X203656D01*
Y91841D01*
X195582D01*
Y92098D01*
X188276D01*
Y88729D01*
X195582D01*
Y88986D01*
X203302D01*
X203656Y88632D01*
X203656Y87640D01*
X203656Y87451D01*
Y86841D01*
X195582D01*
Y87098D01*
X188276D01*
Y83729D01*
X195582D01*
Y83986D01*
X203656D01*
Y82440D01*
X208155D01*
Y83612D01*
X219744D01*
X220278Y83078D01*
X221043Y82761D01*
X221871D01*
X222636Y83078D01*
X223221Y83664D01*
X223538Y84429D01*
Y85256D01*
X223221Y86021D01*
X222636Y86607D01*
X221871Y86924D01*
X221043D01*
X220278Y86607D01*
X220138Y86467D01*
X208509D01*
X208155Y86820D01*
X208155Y87951D01*
X208155Y88140D01*
Y89113D01*
X210875D01*
X211212Y88776D01*
X211977Y88460D01*
X212805D01*
X213570Y88776D01*
X214155Y89362D01*
X214472Y90127D01*
Y90955D01*
X214155Y91720D01*
X213570Y92305D01*
X212805Y92622D01*
X211977D01*
X211212Y92305D01*
X210875Y91968D01*
X208155D01*
Y93151D01*
D02*
G37*
G36*
X181065Y92601D02*
Y91301D01*
X182365D01*
X182164Y91787D01*
X181551Y92400D01*
X181065Y92601D01*
D02*
G37*
G36*
X179565D02*
X179079Y92400D01*
X178466Y91787D01*
X178265Y91301D01*
X179565D01*
Y92601D01*
D02*
G37*
G36*
X238795Y90547D02*
X235593D01*
Y89313D01*
X238795D01*
Y90547D01*
D02*
G37*
G36*
X234092D02*
X230890D01*
Y89313D01*
X234092D01*
Y90547D01*
D02*
G37*
G36*
X127549Y92466D02*
X126249D01*
X124993Y92129D01*
X123957Y91531D01*
X126899Y88589D01*
X129840Y91531D01*
X128804Y92129D01*
X127549Y92466D01*
D02*
G37*
G36*
X182365Y89801D02*
X181065D01*
Y88501D01*
X181551Y88702D01*
X182164Y89316D01*
X182365Y89801D01*
D02*
G37*
G36*
X179565D02*
X178265D01*
X178466Y89316D01*
X179079Y88702D01*
X179565Y88501D01*
Y89801D01*
D02*
G37*
G36*
X238795Y87813D02*
X235593D01*
Y86579D01*
X238795D01*
Y87813D01*
D02*
G37*
G36*
X234092D02*
X230890D01*
Y86579D01*
X234092D01*
Y87813D01*
D02*
G37*
G36*
X174228Y87398D02*
X171026D01*
Y86163D01*
X174228D01*
Y87398D01*
D02*
G37*
G36*
X169526D02*
X166323D01*
Y86163D01*
X169526D01*
Y87398D01*
D02*
G37*
G36*
X122896Y90470D02*
X122298Y89434D01*
X121962Y88178D01*
Y86879D01*
X122298Y85623D01*
X122896Y84587D01*
X125838Y87529D01*
X122896Y90470D01*
D02*
G37*
G36*
X130901D02*
X127959Y87529D01*
X130901Y84587D01*
X131499Y85623D01*
X131836Y86879D01*
Y88178D01*
X131499Y89434D01*
X130901Y90470D01*
D02*
G37*
G36*
X174228Y84663D02*
X171026D01*
Y83429D01*
X174228D01*
Y84663D01*
D02*
G37*
G36*
X169526D02*
X166323D01*
Y83429D01*
X169526D01*
Y84663D01*
D02*
G37*
G36*
X226734Y83940D02*
Y82640D01*
X228034D01*
X227833Y83125D01*
X227220Y83739D01*
X226734Y83940D01*
D02*
G37*
G36*
X225234D02*
X224749Y83739D01*
X224135Y83125D01*
X223934Y82640D01*
X225234D01*
Y83940D01*
D02*
G37*
G36*
X126899Y86468D02*
X123957Y83526D01*
X124993Y82928D01*
X126249Y82591D01*
X127549D01*
X128804Y82928D01*
X129840Y83526D01*
X126899Y86468D01*
D02*
G37*
G36*
X228034Y81140D02*
X226734D01*
Y79840D01*
X227220Y80041D01*
X227833Y80654D01*
X228034Y81140D01*
D02*
G37*
G36*
X225234D02*
X223934D01*
X224135Y80654D01*
X224749Y80041D01*
X225234Y79840D01*
Y81140D01*
D02*
G37*
%LPD*%
G36*
X273162Y131000D02*
X273716Y130446D01*
X274016Y129722D01*
Y129331D01*
Y128939D01*
X273716Y128216D01*
X273162Y127662D01*
X272439Y127362D01*
X271656D01*
X270932Y127662D01*
X270378Y128216D01*
X270079Y128939D01*
Y129331D01*
Y129722D01*
X270378Y130446D01*
X270932Y131000D01*
X271656Y131299D01*
X272439D01*
X273162Y131000D01*
D02*
G37*
G36*
X112992Y163386D02*
X128347D01*
X136614Y155118D01*
Y139764D01*
X135827Y138976D01*
X133858D01*
Y139764D01*
X129921D01*
X128740Y140945D01*
Y148425D01*
X119291Y157874D01*
X111811D01*
Y154724D01*
X126809Y139727D01*
X125984Y138903D01*
Y137795D01*
X127953Y135827D01*
Y131890D01*
X131890D01*
Y105905D01*
X127953Y101969D01*
X104331D01*
X103150Y103150D01*
Y116535D01*
X103937Y117323D01*
X118504D01*
X119291Y118110D01*
Y138189D01*
X118110Y139370D01*
X105905Y139370D01*
X95669Y149606D01*
Y164961D01*
X99213Y168504D01*
X107874D01*
X112992Y163386D01*
D02*
G37*
G36*
X84646Y134252D02*
X94488D01*
X95669Y133465D01*
Y130709D01*
X95276Y130315D01*
X84722D01*
X82458Y126772D01*
X71260D01*
X69685Y128347D01*
Y134646D01*
X70866Y135827D01*
X83071D01*
X84646Y134252D01*
D02*
G37*
G36*
X117323Y127953D02*
Y120472D01*
X115180Y118329D01*
X103718D01*
X103150Y118898D01*
Y125984D01*
X105905Y128740D01*
X116535D01*
X117323Y127953D01*
D02*
G37*
G36*
X101969Y126772D02*
Y116929D01*
Y102756D01*
X101575Y102362D01*
X81890D01*
X79921Y104331D01*
Y116142D01*
X81496Y117717D01*
X87008D01*
X87795Y118504D01*
Y127953D01*
X88583Y128740D01*
X100000D01*
X101969Y126772D01*
D02*
G37*
%LPC*%
G36*
X117535Y144130D02*
X114333D01*
Y142896D01*
X117535D01*
Y144130D01*
D02*
G37*
G36*
X112833D02*
X109630D01*
Y142896D01*
X112833D01*
Y144130D01*
D02*
G37*
G36*
X117535Y141396D02*
X114333D01*
Y140161D01*
X117535D01*
Y141396D01*
D02*
G37*
G36*
X112833D02*
X109630D01*
Y140161D01*
X112833D01*
Y141396D01*
D02*
G37*
G36*
X115711Y116248D02*
Y114923D01*
X117035D01*
X117015Y115024D01*
X116533Y115746D01*
X115812Y116228D01*
X115711Y116248D01*
D02*
G37*
G36*
X114211D02*
X114110Y116228D01*
X113388Y115746D01*
X112906Y115024D01*
X112886Y114923D01*
X114211D01*
Y116248D01*
D02*
G37*
G36*
X117035Y113423D02*
X115711D01*
Y112099D01*
X115812Y112119D01*
X116533Y112601D01*
X117015Y113322D01*
X117035Y113423D01*
D02*
G37*
G36*
X114211D02*
X112886D01*
X112906Y113322D01*
X113388Y112601D01*
X114110Y112119D01*
X114211Y112099D01*
Y113423D01*
D02*
G37*
G36*
X119648Y112311D02*
Y110986D01*
X120972D01*
X120952Y111087D01*
X120470Y111809D01*
X119749Y112291D01*
X119648Y112311D01*
D02*
G37*
G36*
X118148D02*
X118047Y112291D01*
X117325Y111809D01*
X116843Y111087D01*
X116823Y110986D01*
X118148D01*
Y112311D01*
D02*
G37*
G36*
X120972Y109486D02*
X119648D01*
Y108162D01*
X119749Y108182D01*
X120470Y108664D01*
X120952Y109385D01*
X120972Y109486D01*
D02*
G37*
G36*
X118148D02*
X116823D01*
X116843Y109385D01*
X117325Y108664D01*
X118047Y108182D01*
X118148Y108162D01*
Y109486D01*
D02*
G37*
G36*
X115711Y108374D02*
Y107049D01*
X117035D01*
X117015Y107150D01*
X116533Y107872D01*
X115812Y108354D01*
X115711Y108374D01*
D02*
G37*
G36*
X114211D02*
X114110Y108354D01*
X113388Y107872D01*
X112906Y107150D01*
X112886Y107049D01*
X114211D01*
Y108374D01*
D02*
G37*
G36*
X117035Y105549D02*
X115711D01*
Y104225D01*
X115812Y104245D01*
X116533Y104727D01*
X117015Y105448D01*
X117035Y105549D01*
D02*
G37*
G36*
X114211D02*
X112886D01*
X112906Y105448D01*
X113388Y104727D01*
X114110Y104245D01*
X114211Y104225D01*
Y105549D01*
D02*
G37*
%LPD*%
G36*
X196260Y110433D02*
Y100000D01*
X195079Y98819D01*
X185936D01*
X177756Y103066D01*
Y111614D01*
X195079D01*
X196260Y110433D01*
D02*
G37*
%LPC*%
G36*
X326341Y114290D02*
Y112167D01*
X328463D01*
X328357Y112563D01*
X327966Y113240D01*
X327413Y113793D01*
X326736Y114183D01*
X326341Y114290D01*
D02*
G37*
G36*
X324841D02*
X324445Y114183D01*
X323768Y113793D01*
X323215Y113240D01*
X322824Y112563D01*
X322718Y112167D01*
X324841D01*
Y114290D01*
D02*
G37*
G36*
X340084Y114298D02*
X339329D01*
X338599Y114103D01*
X337945Y113725D01*
X337411Y113191D01*
X337034Y112537D01*
X336838Y111807D01*
Y111052D01*
X337034Y110323D01*
X337411Y109669D01*
X337945Y109134D01*
X338599Y108757D01*
X339329Y108561D01*
X340084D01*
X340814Y108757D01*
X341468Y109134D01*
X342002Y109669D01*
X342379Y110323D01*
X342575Y111052D01*
Y111807D01*
X342379Y112537D01*
X342002Y113191D01*
X341468Y113725D01*
X340814Y114103D01*
X340084Y114298D01*
D02*
G37*
G36*
X340141Y100113D02*
X339386D01*
X338657Y99917D01*
X338002Y99540D01*
X337468Y99005D01*
X337091Y98351D01*
X336895Y97622D01*
Y96867D01*
X337091Y96137D01*
X337468Y95483D01*
X338002Y94949D01*
X338657Y94571D01*
X339386Y94376D01*
X340141D01*
X340871Y94571D01*
X341525Y94949D01*
X342059Y95483D01*
X342437Y96137D01*
X342632Y96867D01*
Y97622D01*
X342437Y98351D01*
X342059Y99005D01*
X341525Y99540D01*
X340871Y99917D01*
X340141Y100113D01*
D02*
G37*
G36*
X319648Y38664D02*
Y37364D01*
X320948D01*
X320747Y37850D01*
X320133Y38463D01*
X319648Y38664D01*
D02*
G37*
G36*
X318148D02*
X317662Y38463D01*
X317049Y37850D01*
X316847Y37364D01*
X318148D01*
Y38664D01*
D02*
G37*
G36*
X315830Y35864D02*
X314529D01*
Y34564D01*
X315015Y34765D01*
X315629Y35379D01*
X315830Y35864D01*
D02*
G37*
G36*
X320948D02*
X316847D01*
X317049Y35379D01*
X317215Y35212D01*
Y20776D01*
X307873Y11433D01*
X307637D01*
X306835Y11101D01*
X306222Y10487D01*
X306021Y10002D01*
X308071D01*
Y9252D01*
X308821D01*
Y7202D01*
X309306Y7403D01*
X309920Y8016D01*
X310252Y8818D01*
Y9054D01*
X320087Y18889D01*
X320452Y19435D01*
X320580Y20079D01*
Y35212D01*
X320747Y35379D01*
X320948Y35864D01*
D02*
G37*
G36*
X307321Y8502D02*
X306021D01*
X306222Y8016D01*
X306835Y7403D01*
X307321Y7202D01*
Y8502D01*
D02*
G37*
G36*
X74071Y68717D02*
X71203D01*
Y65848D01*
X74071D01*
Y68717D01*
D02*
G37*
G36*
X55254D02*
X52386D01*
Y65848D01*
X55254D01*
Y68717D01*
D02*
G37*
G36*
X69703D02*
X63978D01*
Y65098D01*
X62478D01*
Y68717D01*
X56754D01*
Y65098D01*
X56004D01*
Y64348D01*
X52386D01*
Y61480D01*
Y58624D01*
X56004D01*
Y57124D01*
X52386D01*
Y54256D01*
Y51400D01*
X56004D01*
Y50650D01*
X56754D01*
Y47032D01*
X62478D01*
Y50650D01*
X63978D01*
Y47032D01*
X69703D01*
Y50650D01*
X70453D01*
Y51400D01*
X74071D01*
Y54256D01*
Y57124D01*
X70453D01*
Y58624D01*
X74071D01*
Y61480D01*
Y64348D01*
X70453D01*
Y65098D01*
X69703D01*
Y68717D01*
D02*
G37*
G36*
X74071Y49900D02*
X71203D01*
Y47032D01*
X74071D01*
Y49900D01*
D02*
G37*
G36*
X55254D02*
X52386D01*
Y47032D01*
X55254D01*
Y49900D01*
D02*
G37*
G36*
X23585Y35146D02*
Y33821D01*
X24909D01*
X24889Y33922D01*
X24407Y34643D01*
X23686Y35125D01*
X23585Y35146D01*
D02*
G37*
G36*
X24909Y32321D02*
X23585D01*
Y30996D01*
X23686Y31016D01*
X24407Y31498D01*
X24889Y32220D01*
X24909Y32321D01*
D02*
G37*
G36*
X32951Y33283D02*
X30929D01*
Y29096D01*
X32951D01*
Y33283D01*
D02*
G37*
G36*
X23585Y27272D02*
Y25947D01*
X24909D01*
X24889Y26048D01*
X24407Y26769D01*
X23686Y27251D01*
X23585Y27272D01*
D02*
G37*
G36*
X32951Y27597D02*
X30929D01*
Y23410D01*
X32951D01*
Y27597D01*
D02*
G37*
G36*
X24909Y24447D02*
X23585D01*
Y23122D01*
X23686Y23142D01*
X24407Y23624D01*
X24889Y24346D01*
X24909Y24447D01*
D02*
G37*
G36*
X32890Y22063D02*
X31262D01*
Y19254D01*
X32890D01*
Y22063D01*
D02*
G37*
G36*
X29762D02*
X28134D01*
Y19254D01*
X29762D01*
Y22063D01*
D02*
G37*
G36*
X23585Y19398D02*
Y18073D01*
X24909D01*
X24889Y18174D01*
X24407Y18895D01*
X23686Y19377D01*
X23585Y19398D01*
D02*
G37*
G36*
X24909Y16573D02*
X23585D01*
Y15248D01*
X23686Y15268D01*
X24407Y15750D01*
X24889Y16472D01*
X24909Y16573D01*
D02*
G37*
G36*
X32890Y17754D02*
X30512D01*
X28134D01*
Y15370D01*
X28134D01*
Y12561D01*
X30512D01*
X32890D01*
Y14945D01*
X32890D01*
Y17754D01*
D02*
G37*
G36*
X23585Y11524D02*
Y10199D01*
X24909D01*
X24889Y10300D01*
X24407Y11021D01*
X23686Y11503D01*
X23585Y11524D01*
D02*
G37*
G36*
X24909Y8699D02*
X23585D01*
Y7374D01*
X23686Y7394D01*
X24407Y7876D01*
X24889Y8598D01*
X24909Y8699D01*
D02*
G37*
G36*
X32890Y11061D02*
X30512D01*
X28134D01*
Y8252D01*
Y5868D01*
X30512D01*
X32890D01*
Y8252D01*
Y11061D01*
D02*
G37*
%LPD*%
D12*
X220276Y39173D02*
Y43689D01*
X220472Y43886D01*
Y44094D01*
X220276Y25787D02*
Y29921D01*
X56004Y65098D02*
X59616D01*
X70453Y57874D02*
Y61486D01*
X63228Y50650D02*
X66840D01*
X56004Y54262D02*
Y57874D01*
X63228D02*
X66840D01*
X59616D02*
X63228D01*
Y54262D02*
Y57874D01*
Y61486D02*
Y65098D01*
Y57874D02*
Y61486D01*
X59616Y65098D02*
X63228D01*
X66840D02*
X70453D01*
X63228D02*
X66840D01*
X70453Y61486D02*
Y65098D01*
Y54262D02*
Y57874D01*
Y50650D02*
Y54262D01*
X66840Y50650D02*
X70453D01*
X59616D02*
X63228D01*
X56004D02*
X59616D01*
X56004D02*
Y54262D01*
Y57874D02*
Y61486D01*
X213779Y126357D02*
X217717Y130294D01*
X213779Y120276D02*
Y126357D01*
X217717Y130294D02*
Y134862D01*
X225590Y125984D02*
Y134862D01*
X228465Y120964D02*
X229134Y120295D01*
X225590Y125984D02*
X228465Y123109D01*
Y120964D02*
Y123109D01*
X218898Y120276D02*
Y128740D01*
X219685Y129528D02*
Y134862D01*
X218898Y128740D02*
X219685Y129528D01*
X223622Y120670D02*
X224016Y120276D01*
X223622Y120670D02*
Y134862D01*
X225994Y182668D02*
X226003Y182677D01*
X225994Y179496D02*
Y182668D01*
X225322Y178824D02*
X225994Y179496D01*
X225322Y174824D02*
Y178824D01*
Y174824D02*
X225590Y174556D01*
X227559Y168327D02*
Y176874D01*
X225590Y168327D02*
Y174556D01*
X227559Y176874D02*
X227703Y177018D01*
X223622Y168327D02*
Y191929D01*
X221260Y85039D02*
X221457Y84842D01*
X205532Y85413D02*
X205906Y85039D01*
X221260D01*
X205916Y90541D02*
X212391D01*
X205906Y90551D02*
X205916Y90541D01*
X205768Y90413D02*
X205906Y90551D01*
X191929Y85413D02*
X205532D01*
X191929Y90413D02*
X205768D01*
X261004Y144705D02*
X261024Y144685D01*
X243307Y144705D02*
X261004D01*
D63*
X14173Y177953D02*
D03*
X161024Y13386D02*
D03*
D69*
X250984Y162598D02*
D03*
X258465D02*
D03*
X215748Y177953D02*
D03*
X208268D02*
D03*
X336260Y81260D02*
D03*
X328780D02*
D03*
X251969Y24803D02*
D03*
X244488D02*
D03*
X184843Y127559D02*
D03*
X177362D02*
D03*
X250984D02*
D03*
X243504D02*
D03*
X37992Y5118D02*
D03*
X30512D02*
D03*
X37992Y11811D02*
D03*
X30512D02*
D03*
X30512Y18504D02*
D03*
X37992D02*
D03*
X151181Y131102D02*
D03*
X143701D02*
D03*
D70*
X266142Y157832D02*
D03*
X259842Y157686D02*
D03*
X266142Y153232D02*
D03*
X259842Y153613D02*
D03*
X267324Y144685D02*
D03*
X261024D02*
D03*
X181496Y166358D02*
D03*
X187796D02*
D03*
X230926Y228225D02*
D03*
X224626D02*
D03*
X246063Y228346D02*
D03*
X239763D02*
D03*
X336575Y48937D02*
D03*
X330275D02*
D03*
X335080Y71417D02*
D03*
X328780D02*
D03*
X175590Y141949D02*
D03*
X181890D02*
D03*
X178740Y134468D02*
D03*
X185040D02*
D03*
X66141Y11024D02*
D03*
X72441D02*
D03*
X105906Y120472D02*
D03*
X99606D02*
D03*
X270473Y88583D02*
D03*
X264173D02*
D03*
D71*
X196850Y135236D02*
D03*
Y127756D02*
D03*
X80709Y139370D02*
D03*
Y131890D02*
D03*
X73622Y139370D02*
D03*
Y131890D02*
D03*
X46063Y131299D02*
D03*
Y123819D02*
D03*
X263779Y47244D02*
D03*
Y39764D02*
D03*
X257087Y47244D02*
D03*
Y39764D02*
D03*
X250000Y47244D02*
D03*
Y39764D02*
D03*
X192126Y108268D02*
D03*
Y115748D02*
D03*
X184252Y108268D02*
D03*
Y115748D02*
D03*
X160630Y157283D02*
D03*
Y149803D02*
D03*
X124409Y160630D02*
D03*
Y168110D02*
D03*
X116535Y160630D02*
D03*
Y168110D02*
D03*
X198031Y185433D02*
D03*
Y177953D02*
D03*
X190157Y185433D02*
D03*
Y177953D02*
D03*
X264173Y96063D02*
D03*
Y103543D02*
D03*
X271260Y96063D02*
D03*
Y103543D02*
D03*
D72*
X188912Y145999D02*
D03*
X199213Y156299D02*
D03*
X182788Y152123D02*
D03*
X193088Y162424D02*
D03*
D73*
X209842Y162421D02*
D03*
Y160453D02*
D03*
Y158484D02*
D03*
Y156516D02*
D03*
Y154547D02*
D03*
Y152579D02*
D03*
Y150610D02*
D03*
Y148642D02*
D03*
Y146673D02*
D03*
Y144705D02*
D03*
Y142736D02*
D03*
Y140768D02*
D03*
X243307D02*
D03*
Y142736D02*
D03*
Y144705D02*
D03*
Y146673D02*
D03*
Y148642D02*
D03*
Y150610D02*
D03*
Y152579D02*
D03*
Y154547D02*
D03*
Y156516D02*
D03*
Y158484D02*
D03*
Y160453D02*
D03*
Y162421D02*
D03*
D74*
X215748Y134862D02*
D03*
X217717D02*
D03*
X219685D02*
D03*
X221654D02*
D03*
X223622D02*
D03*
X225590D02*
D03*
X227559D02*
D03*
X229528D02*
D03*
X231496D02*
D03*
X233465D02*
D03*
X235433D02*
D03*
X237402D02*
D03*
Y168327D02*
D03*
X235433D02*
D03*
X233465D02*
D03*
X231496D02*
D03*
X229528D02*
D03*
X227559D02*
D03*
X225590D02*
D03*
X223622D02*
D03*
X221654D02*
D03*
X219685D02*
D03*
X217717D02*
D03*
X215748D02*
D03*
D75*
X230532Y242220D02*
D03*
Y235920D02*
D03*
X237185Y235135D02*
D03*
Y241435D02*
D03*
X59842Y109843D02*
D03*
Y116142D02*
D03*
X229134Y120295D02*
D03*
Y113995D02*
D03*
X224016Y120276D02*
D03*
Y113976D02*
D03*
X218898D02*
D03*
Y120276D02*
D03*
X213779Y113976D02*
D03*
Y120276D02*
D03*
X205906Y90551D02*
D03*
Y96851D02*
D03*
Y85040D02*
D03*
Y78740D02*
D03*
X78740Y9448D02*
D03*
Y15748D02*
D03*
X43701Y17323D02*
D03*
Y11023D02*
D03*
X113386Y30709D02*
D03*
Y24409D02*
D03*
X223622Y198229D02*
D03*
Y191929D02*
D03*
D76*
X242913Y241339D02*
D03*
Y233858D02*
D03*
X250354Y237598D02*
D03*
X45669Y113779D02*
D03*
X53110Y117520D02*
D03*
Y110039D02*
D03*
X328957Y59449D02*
D03*
X336398Y63189D02*
D03*
Y55709D02*
D03*
X51004Y14961D02*
D03*
X58445Y18701D02*
D03*
Y11220D02*
D03*
X224803Y234646D02*
D03*
Y242126D02*
D03*
X217362Y238386D02*
D03*
D77*
X240945Y179764D02*
D03*
Y189764D02*
D03*
Y199764D02*
D03*
Y209764D02*
D03*
Y219764D02*
D03*
D78*
X85433Y194095D02*
D03*
Y185433D02*
D03*
D79*
X99606Y203150D02*
D03*
X85433D02*
D03*
D80*
X64370Y175394D02*
D03*
D81*
X29134Y152559D02*
D03*
Y203346D02*
D03*
D82*
X33701Y28346D02*
D03*
X38701D02*
D03*
X43701D02*
D03*
X48701D02*
D03*
X53701D02*
D03*
X58701D02*
D03*
X63701D02*
D03*
X68701D02*
D03*
X73701D02*
D03*
X78701D02*
D03*
X83701D02*
D03*
X88701D02*
D03*
X93701D02*
D03*
X98701D02*
D03*
Y95276D02*
D03*
X93701D02*
D03*
X88701D02*
D03*
X83701D02*
D03*
X78701D02*
D03*
X73701D02*
D03*
X68701D02*
D03*
X63701D02*
D03*
X58701D02*
D03*
X53701D02*
D03*
X48701D02*
D03*
X43701D02*
D03*
X38701D02*
D03*
X33701D02*
D03*
D83*
X102638Y39311D02*
D03*
Y44311D02*
D03*
Y49311D02*
D03*
Y54311D02*
D03*
Y59311D02*
D03*
Y64311D02*
D03*
Y69311D02*
D03*
Y74311D02*
D03*
Y79311D02*
D03*
Y84311D02*
D03*
D84*
X56004Y50650D02*
D03*
Y57874D02*
D03*
Y65098D02*
D03*
X63228Y50650D02*
D03*
Y57874D02*
D03*
Y65098D02*
D03*
X70453Y50650D02*
D03*
Y57874D02*
D03*
Y65098D02*
D03*
D85*
X69410Y110236D02*
D03*
X86614D02*
D03*
D86*
X233858Y8071D02*
D03*
X203937D02*
D03*
D87*
X231102Y18809D02*
D03*
X206693D02*
D03*
D88*
X213779Y19291D02*
D03*
X216339D02*
D03*
X218898D02*
D03*
X221457D02*
D03*
X224016D02*
D03*
D89*
X224016Y39173D02*
D03*
X220276D02*
D03*
X216535D02*
D03*
Y29921D02*
D03*
X220276D02*
D03*
X224016D02*
D03*
D90*
X233071Y32677D02*
D03*
X244094D02*
D03*
X258268Y237795D02*
D03*
X269291D02*
D03*
X211240Y242004D02*
D03*
X200217D02*
D03*
D91*
X234842Y98563D02*
D03*
Y93563D02*
D03*
Y88563D02*
D03*
X256496D02*
D03*
Y93563D02*
D03*
Y98563D02*
D03*
Y103563D02*
D03*
X234842D02*
D03*
X170276Y100413D02*
D03*
X191929D02*
D03*
Y95413D02*
D03*
Y90413D02*
D03*
Y85413D02*
D03*
X170276D02*
D03*
Y90413D02*
D03*
Y95413D02*
D03*
X113583Y127146D02*
D03*
X91929D02*
D03*
Y132146D02*
D03*
Y137146D02*
D03*
Y142146D02*
D03*
X113583D02*
D03*
Y137146D02*
D03*
Y132146D02*
D03*
D92*
X159449Y95473D02*
D03*
Y99803D02*
D03*
D93*
X84055Y4331D02*
D03*
X112795D02*
D03*
X84055Y12205D02*
D03*
X112795D02*
D03*
D94*
X107283Y15157D02*
D03*
X101378D02*
D03*
X89567D02*
D03*
D95*
X163583Y63583D02*
D03*
D96*
X186417Y28346D02*
D03*
X135630D02*
D03*
D97*
X98228Y110236D02*
D03*
X106496D02*
D03*
D98*
X151181Y122835D02*
D03*
Y111811D02*
D03*
D99*
X142126Y168110D02*
D03*
D100*
X151181Y142913D02*
D03*
X142126D02*
D03*
X133071D02*
D03*
D101*
X146850Y182658D02*
D03*
X112205D02*
D03*
Y203169D02*
D03*
X146850D02*
D03*
D102*
X104724Y160630D02*
D03*
X81102D02*
D03*
D103*
X292605Y50450D02*
X296246Y54091D01*
X292605Y28234D02*
Y50450D01*
X296188Y24481D02*
Y24651D01*
X292605Y28234D02*
X296188Y24651D01*
Y24481D02*
X297702D01*
X296246Y54091D02*
X310870D01*
X297702Y36292D02*
X309127D01*
X321772Y48937D02*
X330275D01*
X309127Y36292D02*
X321772Y48937D01*
X308071Y9252D02*
X318898Y20079D01*
Y36614D01*
X341968Y81260D02*
X344094Y79134D01*
X336260Y81260D02*
X341968D01*
X344094Y61024D02*
Y79134D01*
X342520Y59449D02*
X344094Y61024D01*
X328957Y59449D02*
X342520D01*
X336398Y55709D02*
X336575Y55532D01*
Y48937D02*
Y55532D01*
X328780Y71417D02*
Y81260D01*
X59842Y116142D02*
Y141277D01*
X59759Y141360D02*
X59842Y141277D01*
X65944Y11220D02*
X66141Y11024D01*
X58445Y11220D02*
X65944D01*
X199213Y96850D02*
X199213Y96851D01*
X205906D01*
X212001Y78887D02*
X212148Y79034D01*
X206053Y78887D02*
X212001D01*
X205906Y78740D02*
X206053Y78887D01*
X58445Y11220D02*
X58642Y11417D01*
X170217Y95473D02*
X170276Y95413D01*
X159449Y95473D02*
X170217D01*
X165449Y100413D02*
X170276D01*
X164604Y99569D02*
X165449Y100413D01*
X159683Y99569D02*
X164604D01*
X159449Y99803D02*
X159683Y99569D01*
X267422Y144783D02*
X274508D01*
X274606Y144882D01*
X267324Y144685D02*
X267422Y144783D01*
X59646Y110039D02*
X59842Y109843D01*
X53110Y110039D02*
X59646D01*
D104*
X46260Y124016D02*
X53937D01*
X46063Y123819D02*
X46260Y124016D01*
X330241Y66929D02*
X334730Y71417D01*
X254793Y226378D02*
X261811D01*
X246919Y234252D02*
X254793Y226378D01*
X237735Y234252D02*
X242913D01*
X246919D01*
X237185Y234802D02*
Y235135D01*
Y234802D02*
X237735Y234252D01*
X233139Y248494D02*
X234252Y249606D01*
X230532Y242220D02*
X233139Y244828D01*
Y248494D01*
X230437Y242126D02*
X230532Y242220D01*
X224803Y242126D02*
X230437D01*
X273622Y103543D02*
X276772Y100394D01*
X271260Y103543D02*
X273622D01*
X264173D02*
X271260D01*
X256516D02*
X264173D01*
X256496Y103563D02*
X256516Y103543D01*
X58445Y18701D02*
X65945D01*
X74804Y5512D02*
X78740Y9448D01*
X48031Y5512D02*
X74804D01*
X34211Y110630D02*
Y113779D01*
X88976Y15748D02*
X89567Y15157D01*
X78740Y15748D02*
X88976D01*
X151853Y90413D02*
X170276D01*
X140818Y101448D02*
X151853Y90413D01*
X140818Y101448D02*
Y101448D01*
X151181Y111811D01*
X22441Y109449D02*
X33030D01*
X34211Y110630D01*
Y113779D02*
X45669D01*
X44494Y113720D02*
X44504D01*
X45669Y113779D01*
X22441Y129134D02*
X31890D01*
X37205Y123819D01*
X46063D01*
D105*
X323622Y56299D02*
Y61725D01*
X325086Y63189D02*
X336398D01*
X309520Y42198D02*
X323622Y56299D01*
Y61725D02*
X325086Y63189D01*
X309310Y48103D02*
X316269Y55062D01*
Y59970D02*
X323228Y66929D01*
X316269Y55062D02*
Y59970D01*
X323228Y66929D02*
X330241D01*
X297702Y48103D02*
X309310D01*
X297702Y42198D02*
X309520D01*
X338256Y76422D02*
X340551Y74126D01*
X334403Y76422D02*
X338256D01*
X332107Y78717D02*
X334403Y76422D01*
X325591Y91144D02*
X332107Y84627D01*
X325591Y91144D02*
Y111417D01*
X332107Y78717D02*
Y84627D01*
X340551Y67343D02*
Y74126D01*
X336398Y63189D02*
X340551Y67343D01*
X334730Y71417D02*
X335080D01*
X244488Y24803D02*
Y32677D01*
Y17323D02*
Y24803D01*
D106*
X248819Y158661D02*
X254528D01*
X258465Y162598D01*
X243307Y160453D02*
X247027D01*
X248819Y158661D01*
X250984Y162598D02*
X251083Y162697D01*
Y168405D01*
X251181Y168504D01*
X191535Y135236D02*
X196850D01*
X185040Y127756D02*
Y134468D01*
X185684Y138583D02*
X189961D01*
X185040Y134468D02*
Y137938D01*
X189961Y138583D02*
X201988Y150610D01*
X185040Y137938D02*
X185684Y138583D01*
X196850Y135236D02*
Y140945D01*
X202488Y146583D01*
X208161D01*
X208252Y146673D02*
X209842D01*
X208161Y146583D02*
X208252Y146673D01*
X203543Y133396D02*
Y137831D01*
X206480Y140768D02*
X209842D01*
X203543Y137831D02*
X206480Y140768D01*
X184843Y127559D02*
X185040Y127756D01*
X72441Y11024D02*
Y18898D01*
X75522Y21978D01*
X101506D01*
X203937Y129134D02*
X213779D01*
X215748Y131102D02*
Y134862D01*
X213779Y129134D02*
X215748Y131102D01*
X48701Y95276D02*
X48819Y95394D01*
Y103543D01*
X53543Y95433D02*
Y103543D01*
Y95433D02*
X53701Y95276D01*
X284252Y32087D02*
Y100000D01*
X274803Y23622D02*
X275787D01*
X284252Y32087D01*
X268110Y116142D02*
X284252Y100000D01*
X275787Y35433D02*
X281102Y40748D01*
X266929Y114173D02*
X281102Y100000D01*
Y40748D02*
Y100000D01*
X247244Y114173D02*
X266929D01*
X248823Y116142D02*
X268110D01*
X243504Y126378D02*
X247638Y122244D01*
Y122047D02*
Y122244D01*
X233465Y131500D02*
X248823Y116142D01*
X231496Y129921D02*
X247244Y114173D01*
X274803Y35433D02*
X275787D01*
X233465Y131500D02*
Y134862D01*
X243504Y126378D02*
Y127559D01*
X236614Y114961D02*
Y121260D01*
X229528Y128347D02*
X236614Y121260D01*
X229528Y128347D02*
Y134862D01*
X231496Y129921D02*
Y134862D01*
X237402Y131102D02*
Y134862D01*
Y131102D02*
X240945Y127559D01*
X243504D01*
X227559Y127165D02*
Y134862D01*
X232829Y120714D02*
X233071Y120472D01*
X232829Y120714D02*
Y121895D01*
X227559Y127165D02*
X232829Y121895D01*
X236614Y114961D02*
X246682Y104893D01*
X101506Y21978D02*
X109843Y30315D01*
Y57087D01*
X113386Y57087D02*
X130709Y74410D01*
X178347D02*
X183465Y69291D01*
X130709Y74410D02*
X178347D01*
X109843Y57087D02*
X129921Y77165D01*
X179134D02*
X183858Y72441D01*
X129921Y77165D02*
X179134D01*
X232677Y75197D02*
X244488Y87008D01*
Y103150D01*
X237795Y109843D02*
X244488Y103150D01*
X210236Y75197D02*
X232677D01*
X246682Y84871D02*
Y104893D01*
X234252Y72441D02*
X246682Y84871D01*
X211024Y72441D02*
X234252D01*
X207480D02*
X210236Y75197D01*
X207874Y69291D02*
X211024Y72441D01*
X183858D02*
X207480D01*
X183465Y69291D02*
X207874D01*
X113386Y30709D02*
Y57087D01*
X233287Y109843D02*
X237795D01*
X229134Y113995D02*
X233287Y109843D01*
X203862Y162205D02*
X205118Y160949D01*
X205763Y154547D02*
X209842D01*
X205118Y155192D02*
Y160949D01*
Y155192D02*
X205763Y154547D01*
X188912Y145999D02*
X192126Y149213D01*
X198031D01*
X188912Y145209D02*
Y145999D01*
X185652Y141949D02*
X188912Y145209D01*
X198031Y149213D02*
X201398Y152579D01*
X209842D01*
X101409Y15189D02*
Y16763D01*
X109055Y24409D02*
X112205D01*
X101409Y16763D02*
X109055Y24409D01*
X235534Y196125D02*
X238465Y199055D01*
X233734Y173746D02*
Y204876D01*
X229528Y175404D02*
X230134Y176011D01*
Y221866D01*
X233734Y173746D02*
X235433Y172047D01*
X229528Y168327D02*
Y175404D01*
X235534Y176277D02*
X237402Y174409D01*
X231934Y220911D02*
X235039Y224016D01*
X231934Y175266D02*
Y220911D01*
X231496Y168327D02*
Y174827D01*
X230134Y221866D02*
X231102Y222835D01*
X233734Y204876D02*
X238386Y209528D01*
X235534Y176277D02*
Y196125D01*
X231496Y174827D02*
X231934Y175266D01*
X238465Y199055D02*
Y199606D01*
X239764D01*
X238386Y209528D02*
X239370D01*
X235039Y224016D02*
X245419D01*
X246063Y224660D02*
Y228346D01*
X245419Y224016D02*
X246063Y224660D01*
X181890Y141949D02*
X185652D01*
X193982Y162205D02*
X203862D01*
X187796Y166358D02*
X191122D01*
X193820Y162366D02*
Y163660D01*
X191122Y166358D02*
X193820Y163660D01*
X237402Y168327D02*
Y174409D01*
X235433Y168327D02*
Y172047D01*
X230926Y228225D02*
X231102Y228048D01*
Y222835D02*
Y228048D01*
X243307Y162421D02*
X250965D01*
X201988Y150610D02*
X209842D01*
D107*
X240489Y158762D02*
X245398D01*
Y158484D02*
Y158762D01*
X243307Y158484D02*
X245398D01*
X239845Y159407D02*
Y174097D01*
X240551Y70079D02*
X253543D01*
X269766Y87875D02*
X270473Y88583D01*
X253543Y70079D02*
X269766Y86301D01*
Y87875D01*
X227554Y57082D02*
X240551Y70079D01*
X224798Y57082D02*
X227554D01*
X261695Y177634D02*
Y181218D01*
X242247Y176498D02*
X260560D01*
X261695Y177634D01*
X239845Y174097D02*
X242247Y176498D01*
X240626Y183071D02*
X259842D01*
X261695Y181218D01*
X240158Y183539D02*
Y189528D01*
Y183539D02*
X240626Y183071D01*
X219685Y168327D02*
Y173228D01*
X239845Y159407D02*
X240489Y158762D01*
D108*
X254088Y154496D02*
X259842D01*
X251575D02*
X254088D01*
X243307Y156516D02*
X259842D01*
X243307Y154496D02*
X251575D01*
X259842Y156516D02*
Y157686D01*
Y153613D02*
Y154496D01*
X224016Y23228D02*
X225197Y24409D01*
X232368D01*
X224016Y19291D02*
Y23228D01*
X237094Y107087D02*
X242520Y101661D01*
Y94266D02*
Y101661D01*
X234842Y93563D02*
X241817D01*
X242520Y94266D01*
X264154Y88563D02*
X264173Y88583D01*
X256496Y88563D02*
X264154D01*
X224016Y109055D02*
X225984Y107087D01*
X224016Y109055D02*
Y113976D01*
X225984Y107087D02*
X237094D01*
X213779Y108661D02*
Y113976D01*
X223878Y98563D02*
X234842D01*
X213779Y108661D02*
X223878Y98563D01*
X223209Y103563D02*
X234842D01*
X218898Y107874D02*
Y113976D01*
Y107874D02*
X223209Y103563D01*
X233071Y25112D02*
Y32677D01*
X232368Y24409D02*
X233071Y25112D01*
D109*
X216535Y26178D02*
Y29921D01*
Y45669D02*
X219764Y48898D01*
X216535Y29921D02*
Y45669D01*
X223947Y29852D02*
X224016Y29921D01*
Y39173D02*
Y47261D01*
X221457Y19488D02*
Y23754D01*
X224016Y29921D02*
Y39173D01*
X221457Y23754D02*
X223947Y26244D01*
X218898Y19488D02*
Y23816D01*
X223947Y26244D02*
Y29852D01*
X216535Y26178D02*
X218898Y23816D01*
X215148Y66588D02*
X217965D01*
X219764Y64789D01*
Y48898D02*
Y64789D01*
X222234Y49042D02*
Y65812D01*
X218988Y69058D02*
X222234Y65812D01*
X215148Y69058D02*
X218988D01*
X214764Y69307D02*
X214899D01*
X215148Y69058D01*
X222234Y49042D02*
X224016Y47261D01*
X266142Y156611D02*
X277654D01*
X266142Y154141D02*
X277654D01*
X266142Y156611D02*
Y157832D01*
Y153232D02*
Y154141D01*
D110*
X33701Y79370D02*
Y95276D01*
X27165Y72835D02*
X33701Y79370D01*
X81791Y39311D02*
X102638D01*
X70453Y50650D02*
X81791Y39311D01*
X235433Y228346D02*
X239763D01*
D111*
X241087Y179622D02*
X258174D01*
D112*
X270630Y330866D02*
Y346850D01*
X261024Y308976D02*
Y321260D01*
X270630Y330866D01*
X245630Y293583D02*
X261024Y308976D01*
X194055Y293583D02*
X209449Y308976D01*
Y321260D02*
X219055Y330866D01*
X209449Y308976D02*
Y321260D01*
X219055Y330866D02*
Y346850D01*
D113*
X23622Y346457D02*
X55512D01*
X153543Y326378D02*
X173622Y346457D01*
X153543Y309055D02*
Y326378D01*
X23622Y326614D02*
X41181Y309055D01*
X74803D01*
D114*
X297702Y18576D02*
D03*
Y24481D02*
D03*
Y30387D02*
D03*
Y36292D02*
D03*
Y42198D02*
D03*
Y48103D02*
D03*
X274803Y17717D02*
D03*
Y23622D02*
D03*
Y29528D02*
D03*
Y35433D02*
D03*
Y41339D02*
D03*
Y47244D02*
D03*
D115*
X194055Y323583D02*
D03*
Y293583D02*
D03*
X224055Y313583D02*
D03*
X194055Y253583D02*
D03*
X224055D02*
D03*
X243661Y323583D02*
D03*
Y293583D02*
D03*
X273661Y313583D02*
D03*
X243661Y253583D02*
D03*
X273661D02*
D03*
D116*
X31890Y177953D02*
D03*
X179921Y43701D02*
D03*
D117*
X44488Y159055D02*
D03*
X161024Y31102D02*
D03*
D118*
X56693Y182283D02*
D03*
D119*
X56004Y54262D02*
D03*
Y61486D02*
D03*
X59616Y50650D02*
D03*
Y57874D02*
D03*
Y65098D02*
D03*
X63228Y54262D02*
D03*
Y61486D02*
D03*
X66840Y50650D02*
D03*
Y57874D02*
D03*
Y65098D02*
D03*
X70453Y54262D02*
D03*
Y61486D02*
D03*
D120*
X22441Y129134D02*
D03*
Y109449D02*
D03*
X140818Y101448D02*
D03*
X126899Y87529D02*
D03*
X55512Y346457D02*
D03*
X173622D02*
D03*
X34252Y238189D02*
D03*
X14567D02*
D03*
Y281496D02*
D03*
X34252D02*
D03*
X153543Y309055D02*
D03*
X74803D02*
D03*
X133858Y230315D02*
D03*
X94488D02*
D03*
D121*
X339706Y111430D02*
D03*
X325591Y111417D02*
D03*
X339764Y97244D02*
D03*
D122*
X156693Y55905D02*
D03*
D123*
X248661Y346850D02*
D03*
X268661D02*
D03*
X199055D02*
D03*
X219055D02*
D03*
X23622Y346614D02*
D03*
Y326614D02*
D03*
D124*
X82480Y128819D02*
D03*
X77520Y128701D02*
D03*
X72047Y128825D02*
D03*
X310870Y54091D02*
D03*
X308071Y9252D02*
D03*
X313779Y36614D02*
D03*
X318898D02*
D03*
X261811Y226378D02*
D03*
X233858Y154331D02*
D03*
X54331Y150000D02*
D03*
X73228Y150394D02*
D03*
X80315D02*
D03*
X100000Y182283D02*
D03*
X112205Y189764D02*
D03*
X123622Y176772D02*
D03*
X132283D02*
D03*
X174803Y159449D02*
D03*
X164567Y126378D02*
D03*
X139370Y120866D02*
D03*
X180315Y90551D02*
D03*
X124016Y96457D02*
D03*
X266535Y20079D02*
D03*
X266142Y33071D02*
D03*
X238583Y39764D02*
D03*
X248819Y74803D02*
D03*
X276378D02*
D03*
Y90551D02*
D03*
X225984Y81890D02*
D03*
X175591Y116142D02*
D03*
X200000Y122441D02*
D03*
X218110Y154724D02*
D03*
Y146850D02*
D03*
X233858Y146063D02*
D03*
X258661Y128347D02*
D03*
X273622Y200787D02*
D03*
Y216535D02*
D03*
X197638Y172047D02*
D03*
X189764D02*
D03*
X206693Y197710D02*
D03*
X190945Y196457D02*
D03*
X212598Y208661D02*
D03*
Y220472D02*
D03*
X196850D02*
D03*
X234252Y249606D02*
D03*
X162992Y163779D02*
D03*
X157874Y162598D02*
D03*
X155512Y157480D02*
D03*
X151575D02*
D03*
Y151575D02*
D03*
X276772Y100394D02*
D03*
X251181Y168504D02*
D03*
X190551Y135433D02*
D03*
X59759Y141360D02*
D03*
X22835Y33071D02*
D03*
Y25197D02*
D03*
Y17323D02*
D03*
Y9449D02*
D03*
X65945Y18701D02*
D03*
X203543Y133396D02*
D03*
X203937Y129134D02*
D03*
X48819Y103543D02*
D03*
X53543D02*
D03*
X247638Y122047D02*
D03*
X199213Y96850D02*
D03*
X212148Y79034D02*
D03*
X226003Y182677D02*
D03*
X227703Y177018D02*
D03*
X258174Y179622D02*
D03*
X250000Y55118D02*
D03*
X263779D02*
D03*
X257087D02*
D03*
X244488Y17323D02*
D03*
X233071Y120472D02*
D03*
X48031Y5512D02*
D03*
X44094Y7480D02*
D03*
Y4331D02*
D03*
X237402Y244882D02*
D03*
X235433Y228346D02*
D03*
X274606Y144882D02*
D03*
X221457Y84842D02*
D03*
X212391Y90541D02*
D03*
X179724Y105709D02*
D03*
Y109646D02*
D03*
X118898Y110236D02*
D03*
X114961Y106299D02*
D03*
Y114173D02*
D03*
X67716Y164173D02*
D03*
X62992D02*
D03*
X58268D02*
D03*
X57874Y191339D02*
D03*
X65748D02*
D03*
X73622D02*
D03*
D125*
X53937Y124016D02*
D03*
X224798Y57082D02*
D03*
X219685Y173228D02*
D03*
X214764Y66339D02*
D03*
D126*
X220472Y44094D02*
D03*
X220208Y25787D02*
D03*
X214764Y69307D02*
D03*
X277654Y156611D02*
D03*
Y154141D02*
D03*
M02*
