G04*
G04 #@! TF.GenerationSoftware,Altium Limited,Altium Designer,23.4.1 (23)*
G04*
G04 Layer_Color=2752767*
%FSLAX25Y25*%
%MOIN*%
G70*
G04*
G04 #@! TF.SameCoordinates,01ECF62D-24FD-4C24-98F2-6CFE089B3EF1*
G04*
G04*
G04 #@! TF.FilePolarity,Positive*
G04*
G01*
G75*
%ADD179C,0.00500*%
%ADD180C,0.00667*%
%ADD181C,0.00400*%
D179*
X295702Y16576D02*
Y20576D01*
X299701D01*
Y16576D01*
X295702D01*
Y22481D02*
Y26481D01*
X299701D01*
Y22481D01*
X295702D01*
Y28387D02*
Y32387D01*
X299701D01*
Y28387D01*
X295702D01*
Y34292D02*
Y38292D01*
X299701D01*
Y34292D01*
X295702D01*
Y40198D02*
Y44198D01*
X299701D01*
Y40198D01*
X295702D01*
Y46103D02*
Y50103D01*
X299701D01*
Y46103D01*
X295702D01*
X192055Y321583D02*
X193055Y323583D01*
X192055Y325583D01*
X194055Y324583D01*
X196055Y325583D01*
X195055Y323583D01*
X196055Y321583D01*
X194055Y322583D01*
X192055Y321583D01*
Y291583D02*
X193055Y293583D01*
X192055Y295583D01*
X194055Y294583D01*
X196055Y295583D01*
X195055Y293583D01*
X196055Y291583D01*
X194055Y292583D01*
X192055Y291583D01*
X222055Y311583D02*
X223055Y313583D01*
X222055Y315583D01*
X224055Y314583D01*
X226055Y315583D01*
X225055Y313583D01*
X226055Y311583D01*
X224055Y312583D01*
X222055Y311583D01*
X192055Y251583D02*
X193055Y253583D01*
X192055Y255583D01*
X194055Y254583D01*
X196055Y255583D01*
X195055Y253583D01*
X196055Y251583D01*
X194055Y252583D01*
X192055Y251583D01*
X222055D02*
X223055Y253583D01*
X222055Y255583D01*
X224055Y254583D01*
X226055Y255583D01*
X225055Y253583D01*
X226055Y251583D01*
X224055Y252583D01*
X222055Y251583D01*
X241661Y321583D02*
X242661Y323583D01*
X241661Y325583D01*
X243661Y324583D01*
X245661Y325583D01*
X244661Y323583D01*
X245661Y321583D01*
X243661Y322583D01*
X241661Y321583D01*
Y291583D02*
X242661Y293583D01*
X241661Y295583D01*
X243661Y294583D01*
X245661Y295583D01*
X244661Y293583D01*
X245661Y291583D01*
X243661Y292583D01*
X241661Y291583D01*
X271661Y311583D02*
X272661Y313583D01*
X271661Y315583D01*
X273661Y314583D01*
X275661Y315583D01*
X274661Y313583D01*
X275661Y311583D01*
X273661Y312583D01*
X271661Y311583D01*
X241661Y251583D02*
X242661Y253583D01*
X241661Y255583D01*
X243661Y254583D01*
X245661Y255583D01*
X244661Y253583D01*
X245661Y251583D01*
X243661Y252583D01*
X241661Y251583D01*
X271661D02*
X272661Y253583D01*
X271661Y255583D01*
X273661Y254583D01*
X275661Y255583D01*
X274661Y253583D01*
X275661Y251583D01*
X273661Y252583D01*
X271661Y251583D01*
X29890Y175953D02*
Y179953D01*
X33890D01*
Y175953D01*
X29890D01*
X30690Y176753D02*
Y179153D01*
X33090D01*
Y176753D01*
X30690D01*
X42488Y159055D02*
X44488Y161055D01*
X46488Y159055D01*
X44488Y157055D01*
X42488Y159055D01*
X54693Y180283D02*
X55693D01*
X56693Y181283D01*
X57693Y180283D01*
X58693D01*
Y181283D01*
X57693Y182283D01*
X58693Y183283D01*
Y184283D01*
X57693D01*
X56693Y183283D01*
X55693Y184283D01*
X54693D01*
Y183283D01*
X55693Y182283D01*
X54693Y181283D01*
Y180283D01*
X56004Y52262D02*
X54004Y56262D01*
X58004D01*
X56004Y52262D01*
Y53062D02*
X54804Y55462D01*
X57204D01*
X56004Y53062D01*
Y59486D02*
X54004Y63486D01*
X58004D01*
X56004Y59486D01*
Y60286D02*
X54804Y62686D01*
X57204D01*
X56004Y60286D01*
X59616Y48650D02*
X57616Y52650D01*
X61616D01*
X59616Y48650D01*
Y49450D02*
X58416Y51850D01*
X60816D01*
X59616Y49450D01*
Y55874D02*
X57616Y59874D01*
X61616D01*
X59616Y55874D01*
Y56674D02*
X58416Y59074D01*
X60816D01*
X59616Y56674D01*
Y63098D02*
X57616Y67098D01*
X61616D01*
X59616Y63098D01*
Y63898D02*
X58416Y66298D01*
X60816D01*
X59616Y63898D01*
X63228Y52262D02*
X61228Y56262D01*
X65228D01*
X63228Y52262D01*
Y53062D02*
X62028Y55462D01*
X64428D01*
X63228Y53062D01*
Y59486D02*
X61228Y63486D01*
X65228D01*
X63228Y59486D01*
Y60286D02*
X62028Y62686D01*
X64428D01*
X63228Y60286D01*
X66840Y48650D02*
X64841Y52650D01*
X68840D01*
X66840Y48650D01*
Y49450D02*
X65640Y51850D01*
X68041D01*
X66840Y49450D01*
Y55874D02*
X64841Y59874D01*
X68840D01*
X66840Y55874D01*
Y56674D02*
X65640Y59074D01*
X68041D01*
X66840Y56674D01*
Y63098D02*
X64841Y67098D01*
X68840D01*
X66840Y63098D01*
Y63898D02*
X65640Y66298D01*
X68041D01*
X66840Y63898D01*
X70453Y52262D02*
X68453Y56262D01*
X72453D01*
X70453Y52262D01*
Y53062D02*
X69253Y55462D01*
X71653D01*
X70453Y53062D01*
Y59486D02*
X68453Y63486D01*
X72453D01*
X70453Y59486D01*
Y60286D02*
X69253Y62686D01*
X71653D01*
X70453Y60286D01*
X22441Y127134D02*
X23441Y128134D01*
X24441D01*
X23441Y129134D01*
X24441Y130134D01*
X23441D01*
X22441Y131134D01*
X21441Y130134D01*
X20441D01*
X21441Y129134D01*
X20441Y128134D01*
X21441D01*
X22441Y127134D01*
Y127934D02*
X23041Y128534D01*
X23641D01*
X23041Y129134D01*
X23641Y129734D01*
X23041D01*
X22441Y130334D01*
X21841Y129734D01*
X21241D01*
X21841Y129134D01*
X21241Y128534D01*
X21841D01*
X22441Y127934D01*
Y107449D02*
X23441Y108449D01*
X24441D01*
X23441Y109449D01*
X24441Y110449D01*
X23441D01*
X22441Y111449D01*
X21441Y110449D01*
X20441D01*
X21441Y109449D01*
X20441Y108449D01*
X21441D01*
X22441Y107449D01*
Y108249D02*
X23041Y108849D01*
X23641D01*
X23041Y109449D01*
X23641Y110049D01*
X23041D01*
X22441Y110649D01*
X21841Y110049D01*
X21241D01*
X21841Y109449D01*
X21241Y108849D01*
X21841D01*
X22441Y108249D01*
X272803Y15717D02*
Y19716D01*
X276803D01*
Y15717D01*
X272803D01*
Y21622D02*
Y25622D01*
X276803D01*
Y21622D01*
X272803D01*
Y27528D02*
Y31528D01*
X276803D01*
Y27528D01*
X272803D01*
Y33433D02*
Y37433D01*
X276803D01*
Y33433D01*
X272803D01*
Y39339D02*
Y43339D01*
X276803D01*
Y39339D01*
X272803D01*
Y45244D02*
Y49244D01*
X276803D01*
Y45244D01*
X272803D01*
X102331Y6268D02*
X103331Y8268D01*
X102331Y10268D01*
X104331Y9268D01*
X106331Y10268D01*
X105331Y8268D01*
X106331Y6268D01*
X104331Y7268D01*
X102331Y6268D01*
X103131Y7068D02*
X103731Y8268D01*
X103131Y9468D01*
X104331Y8868D01*
X105531Y9468D01*
X104931Y8268D01*
X105531Y7068D01*
X104331Y7668D01*
X103131Y7068D01*
X90520Y6268D02*
X91520Y8268D01*
X90520Y10268D01*
X92520Y9268D01*
X94520Y10268D01*
X93520Y8268D01*
X94520Y6268D01*
X92520Y7268D01*
X90520Y6268D01*
X91320Y7068D02*
X91920Y8268D01*
X91320Y9468D01*
X92520Y8868D01*
X93720Y9468D01*
X93120Y8268D01*
X93720Y7068D01*
X92520Y7668D01*
X91320Y7068D01*
X159024Y29102D02*
Y33102D01*
X163024D01*
Y29102D01*
X159024D01*
X159824Y29902D02*
Y32302D01*
X162224D01*
Y29902D01*
X159824D01*
X177921Y43701D02*
X179921Y45701D01*
X181921Y43701D01*
X179921Y41701D01*
X177921Y43701D01*
X154693Y53905D02*
X155693D01*
X156693Y54905D01*
X157693Y53905D01*
X158693D01*
Y54905D01*
X157693Y55905D01*
X158693Y56906D01*
Y57906D01*
X157693D01*
X156693Y56906D01*
X155693Y57906D01*
X154693D01*
Y56906D01*
X155693Y55905D01*
X154693Y54905D01*
Y53905D01*
X140818Y99448D02*
X141818Y100448D01*
X142818D01*
X141818Y101448D01*
X142818Y102448D01*
X141818D01*
X140818Y103448D01*
X139818Y102448D01*
X138818D01*
X139818Y101448D01*
X138818Y100448D01*
X139818D01*
X140818Y99448D01*
X126899Y85528D02*
X127899Y86528D01*
X128899D01*
X127899Y87529D01*
X128899Y88529D01*
X127899D01*
X126899Y89529D01*
X125899Y88529D01*
X124899D01*
X125899Y87529D01*
X124899Y86528D01*
X125899D01*
X126899Y85528D01*
X247661Y345850D02*
Y344850D01*
X249661D01*
Y345850D01*
X250661D01*
Y347850D01*
X249661D01*
Y348850D01*
X247661D01*
Y347850D01*
X246661D01*
Y345850D01*
X247661D01*
X267661D02*
Y344850D01*
X269661D01*
Y345850D01*
X270661D01*
Y347850D01*
X269661D01*
Y348850D01*
X267661D01*
Y347850D01*
X266661D01*
Y345850D01*
X267661D01*
X198055D02*
Y344850D01*
X200055D01*
Y345850D01*
X201055D01*
Y347850D01*
X200055D01*
Y348850D01*
X198055D01*
Y347850D01*
X197055D01*
Y345850D01*
X198055D01*
X218055D02*
Y344850D01*
X220055D01*
Y345850D01*
X221055D01*
Y347850D01*
X220055D01*
Y348850D01*
X218055D01*
Y347850D01*
X217055D01*
Y345850D01*
X218055D01*
X55512Y344457D02*
X53512Y348457D01*
X57512D01*
X55512Y344457D01*
X173622D02*
X171622Y348457D01*
X175622D01*
X173622Y344457D01*
X34252Y236189D02*
X35252Y237189D01*
X36252D01*
X35252Y238189D01*
X36252Y239189D01*
X35252D01*
X34252Y240189D01*
X33252Y239189D01*
X32252D01*
X33252Y238189D01*
X32252Y237189D01*
X33252D01*
X34252Y236189D01*
X14567D02*
X15567Y237189D01*
X16567D01*
X15567Y238189D01*
X16567Y239189D01*
X15567D01*
X14567Y240189D01*
X13567Y239189D01*
X12567D01*
X13567Y238189D01*
X12567Y237189D01*
X13567D01*
X14567Y236189D01*
Y279496D02*
X15567Y280496D01*
X16567D01*
X15567Y281496D01*
X16567Y282496D01*
X15567D01*
X14567Y283496D01*
X13567Y282496D01*
X12567D01*
X13567Y281496D01*
X12567Y280496D01*
X13567D01*
X14567Y279496D01*
X34252D02*
X35252Y280496D01*
X36252D01*
X35252Y281496D01*
X36252Y282496D01*
X35252D01*
X34252Y283496D01*
X33252Y282496D01*
X32252D01*
X33252Y281496D01*
X32252Y280496D01*
X33252D01*
X34252Y279496D01*
X22622Y345614D02*
Y344614D01*
X24622D01*
Y345614D01*
X25622D01*
Y347614D01*
X24622D01*
Y348614D01*
X22622D01*
Y347614D01*
X21622D01*
Y345614D01*
X22622D01*
Y325614D02*
Y324614D01*
X24622D01*
Y325614D01*
X25622D01*
Y327614D01*
X24622D01*
Y328614D01*
X22622D01*
Y327614D01*
X21622D01*
Y325614D01*
X22622D01*
X153543Y307055D02*
X154543Y308055D01*
X155543D01*
X154543Y309055D01*
X155543Y310055D01*
X154543D01*
X153543Y311055D01*
X152543Y310055D01*
X151543D01*
X152543Y309055D01*
X151543Y308055D01*
X152543D01*
X153543Y307055D01*
X74803D02*
X75803Y308055D01*
X76803D01*
X75803Y309055D01*
X76803Y310055D01*
X75803D01*
X74803Y311055D01*
X73803Y310055D01*
X72803D01*
X73803Y309055D01*
X72803Y308055D01*
X73803D01*
X74803Y307055D01*
X133858Y228315D02*
X134858Y229315D01*
X135858D01*
X134858Y230315D01*
X135858Y231315D01*
X134858D01*
X133858Y232315D01*
X132858Y231315D01*
X131858D01*
X132858Y230315D01*
X131858Y229315D01*
X132858D01*
X133858Y228315D01*
X94488D02*
X95488Y229315D01*
X96488D01*
X95488Y230315D01*
X96488Y231315D01*
X95488D01*
X94488Y232315D01*
X93488Y231315D01*
X92488D01*
X93488Y230315D01*
X92488Y229315D01*
X93488D01*
X94488Y228315D01*
X81480Y127819D02*
Y126819D01*
X83480D01*
Y127819D01*
X84480D01*
Y129819D01*
X83480D01*
Y130819D01*
X81480D01*
Y129819D01*
X80480D01*
Y127819D01*
X81480D01*
X81880Y128219D02*
Y127619D01*
X83080D01*
Y128219D01*
X83680D01*
Y129419D01*
X83080D01*
Y130019D01*
X81880D01*
Y129419D01*
X81280D01*
Y128219D01*
X81880D01*
X76520Y127701D02*
Y126701D01*
X78520D01*
Y127701D01*
X79520D01*
Y129701D01*
X78520D01*
Y130701D01*
X76520D01*
Y129701D01*
X75520D01*
Y127701D01*
X76520D01*
X76920Y128101D02*
Y127501D01*
X78120D01*
Y128101D01*
X78720D01*
Y129301D01*
X78120D01*
Y129901D01*
X76920D01*
Y129301D01*
X76320D01*
Y128101D01*
X76920D01*
X71047Y127825D02*
Y126825D01*
X73047D01*
Y127825D01*
X74047D01*
Y129825D01*
X73047D01*
Y130825D01*
X71047D01*
Y129825D01*
X70047D01*
Y127825D01*
X71047D01*
X71447Y128225D02*
Y127625D01*
X72647D01*
Y128225D01*
X73247D01*
Y129425D01*
X72647D01*
Y130025D01*
X71447D01*
Y129425D01*
X70847D01*
Y128225D01*
X71447D01*
X51937Y122016D02*
X52937D01*
X53937Y123016D01*
X54937Y122016D01*
X55937D01*
Y123016D01*
X54937Y124016D01*
X55937Y125016D01*
Y126016D01*
X54937D01*
X53937Y125016D01*
X52937Y126016D01*
X51937D01*
Y125016D01*
X52937Y124016D01*
X51937Y123016D01*
Y122016D01*
X52737Y122816D02*
X53337D01*
X53937Y123416D01*
X54537Y122816D01*
X55137D01*
Y123416D01*
X54537Y124016D01*
X55137Y124616D01*
Y125216D01*
X54537D01*
X53937Y124616D01*
X53337Y125216D01*
X52737D01*
Y124616D01*
X53337Y124016D01*
X52737Y123416D01*
Y122816D01*
X309870Y53091D02*
Y52091D01*
X311870D01*
Y53091D01*
X312870D01*
Y55091D01*
X311870D01*
Y56091D01*
X309870D01*
Y55091D01*
X308870D01*
Y53091D01*
X309870D01*
X310270Y53491D02*
Y52891D01*
X311470D01*
Y53491D01*
X312070D01*
Y54691D01*
X311470D01*
Y55291D01*
X310270D01*
Y54691D01*
X309670D01*
Y53491D01*
X310270D01*
X307071Y8252D02*
Y7252D01*
X309071D01*
Y8252D01*
X310071D01*
Y10252D01*
X309071D01*
Y11252D01*
X307071D01*
Y10252D01*
X306071D01*
Y8252D01*
X307071D01*
X307471Y8652D02*
Y8052D01*
X308671D01*
Y8652D01*
X309271D01*
Y9852D01*
X308671D01*
Y10452D01*
X307471D01*
Y9852D01*
X306871D01*
Y8652D01*
X307471D01*
X312779Y35614D02*
Y34614D01*
X314779D01*
Y35614D01*
X315779D01*
Y37614D01*
X314779D01*
Y38614D01*
X312779D01*
Y37614D01*
X311779D01*
Y35614D01*
X312779D01*
X313179Y36014D02*
Y35414D01*
X314380D01*
Y36014D01*
X314980D01*
Y37214D01*
X314380D01*
Y37814D01*
X313179D01*
Y37214D01*
X312579D01*
Y36014D01*
X313179D01*
X317898Y35614D02*
Y34614D01*
X319898D01*
Y35614D01*
X320898D01*
Y37614D01*
X319898D01*
Y38614D01*
X317898D01*
Y37614D01*
X316898D01*
Y35614D01*
X317898D01*
X318298Y36014D02*
Y35414D01*
X319498D01*
Y36014D01*
X320098D01*
Y37214D01*
X319498D01*
Y37814D01*
X318298D01*
Y37214D01*
X317698D01*
Y36014D01*
X318298D01*
X260811Y225378D02*
Y224378D01*
X262811D01*
Y225378D01*
X263811D01*
Y227378D01*
X262811D01*
Y228378D01*
X260811D01*
Y227378D01*
X259811D01*
Y225378D01*
X260811D01*
X261211Y225778D02*
Y225178D01*
X262411D01*
Y225778D01*
X263011D01*
Y226978D01*
X262411D01*
Y227578D01*
X261211D01*
Y226978D01*
X260611D01*
Y225778D01*
X261211D01*
X232858Y153331D02*
Y152331D01*
X234858D01*
Y153331D01*
X235858D01*
Y155331D01*
X234858D01*
Y156331D01*
X232858D01*
Y155331D01*
X231858D01*
Y153331D01*
X232858D01*
X233258Y153731D02*
Y153131D01*
X234458D01*
Y153731D01*
X235058D01*
Y154931D01*
X234458D01*
Y155531D01*
X233258D01*
Y154931D01*
X232658D01*
Y153731D01*
X233258D01*
X53331Y149000D02*
Y148000D01*
X55331D01*
Y149000D01*
X56331D01*
Y151000D01*
X55331D01*
Y152000D01*
X53331D01*
Y151000D01*
X52331D01*
Y149000D01*
X53331D01*
X53731Y149400D02*
Y148800D01*
X54931D01*
Y149400D01*
X55531D01*
Y150600D01*
X54931D01*
Y151200D01*
X53731D01*
Y150600D01*
X53131D01*
Y149400D01*
X53731D01*
X72228Y149394D02*
Y148394D01*
X74228D01*
Y149394D01*
X75228D01*
Y151394D01*
X74228D01*
Y152394D01*
X72228D01*
Y151394D01*
X71228D01*
Y149394D01*
X72228D01*
X72628Y149794D02*
Y149194D01*
X73828D01*
Y149794D01*
X74428D01*
Y150994D01*
X73828D01*
Y151594D01*
X72628D01*
Y150994D01*
X72028D01*
Y149794D01*
X72628D01*
X79315Y149394D02*
Y148394D01*
X81315D01*
Y149394D01*
X82315D01*
Y151394D01*
X81315D01*
Y152394D01*
X79315D01*
Y151394D01*
X78315D01*
Y149394D01*
X79315D01*
X79715Y149794D02*
Y149194D01*
X80915D01*
Y149794D01*
X81515D01*
Y150994D01*
X80915D01*
Y151594D01*
X79715D01*
Y150994D01*
X79115D01*
Y149794D01*
X79715D01*
X99000Y181283D02*
Y180283D01*
X101000D01*
Y181283D01*
X102000D01*
Y183283D01*
X101000D01*
Y184283D01*
X99000D01*
Y183283D01*
X98000D01*
Y181283D01*
X99000D01*
X99400Y181684D02*
Y181084D01*
X100600D01*
Y181684D01*
X101200D01*
Y182884D01*
X100600D01*
Y183484D01*
X99400D01*
Y182884D01*
X98800D01*
Y181684D01*
X99400D01*
X111205Y188764D02*
Y187764D01*
X113205D01*
Y188764D01*
X114205D01*
Y190764D01*
X113205D01*
Y191764D01*
X111205D01*
Y190764D01*
X110205D01*
Y188764D01*
X111205D01*
X111605Y189164D02*
Y188564D01*
X112805D01*
Y189164D01*
X113405D01*
Y190364D01*
X112805D01*
Y190964D01*
X111605D01*
Y190364D01*
X111005D01*
Y189164D01*
X111605D01*
X122622Y175772D02*
Y174772D01*
X124622D01*
Y175772D01*
X125622D01*
Y177772D01*
X124622D01*
Y178772D01*
X122622D01*
Y177772D01*
X121622D01*
Y175772D01*
X122622D01*
X123022Y176172D02*
Y175572D01*
X124222D01*
Y176172D01*
X124822D01*
Y177372D01*
X124222D01*
Y177972D01*
X123022D01*
Y177372D01*
X122422D01*
Y176172D01*
X123022D01*
X131283Y175772D02*
Y174772D01*
X133283D01*
Y175772D01*
X134283D01*
Y177772D01*
X133283D01*
Y178772D01*
X131283D01*
Y177772D01*
X130283D01*
Y175772D01*
X131283D01*
X131684Y176172D02*
Y175572D01*
X132884D01*
Y176172D01*
X133484D01*
Y177372D01*
X132884D01*
Y177972D01*
X131684D01*
Y177372D01*
X131084D01*
Y176172D01*
X131684D01*
X173803Y158449D02*
Y157449D01*
X175803D01*
Y158449D01*
X176803D01*
Y160449D01*
X175803D01*
Y161449D01*
X173803D01*
Y160449D01*
X172803D01*
Y158449D01*
X173803D01*
X174203Y158849D02*
Y158249D01*
X175403D01*
Y158849D01*
X176003D01*
Y160049D01*
X175403D01*
Y160649D01*
X174203D01*
Y160049D01*
X173603D01*
Y158849D01*
X174203D01*
X163567Y125378D02*
Y124378D01*
X165567D01*
Y125378D01*
X166567D01*
Y127378D01*
X165567D01*
Y128378D01*
X163567D01*
Y127378D01*
X162567D01*
Y125378D01*
X163567D01*
X163967Y125778D02*
Y125178D01*
X165167D01*
Y125778D01*
X165767D01*
Y126978D01*
X165167D01*
Y127578D01*
X163967D01*
Y126978D01*
X163367D01*
Y125778D01*
X163967D01*
X138370Y119866D02*
Y118866D01*
X140370D01*
Y119866D01*
X141370D01*
Y121866D01*
X140370D01*
Y122866D01*
X138370D01*
Y121866D01*
X137370D01*
Y119866D01*
X138370D01*
X138770Y120266D02*
Y119666D01*
X139970D01*
Y120266D01*
X140570D01*
Y121466D01*
X139970D01*
Y122066D01*
X138770D01*
Y121466D01*
X138170D01*
Y120266D01*
X138770D01*
X179315Y89551D02*
Y88551D01*
X181315D01*
Y89551D01*
X182315D01*
Y91551D01*
X181315D01*
Y92551D01*
X179315D01*
Y91551D01*
X178315D01*
Y89551D01*
X179315D01*
X179715Y89951D02*
Y89351D01*
X180915D01*
Y89951D01*
X181515D01*
Y91151D01*
X180915D01*
Y91751D01*
X179715D01*
Y91151D01*
X179115D01*
Y89951D01*
X179715D01*
X123016Y95457D02*
Y94457D01*
X125016D01*
Y95457D01*
X126016D01*
Y97457D01*
X125016D01*
Y98457D01*
X123016D01*
Y97457D01*
X122016D01*
Y95457D01*
X123016D01*
X123416Y95857D02*
Y95257D01*
X124616D01*
Y95857D01*
X125216D01*
Y97057D01*
X124616D01*
Y97657D01*
X123416D01*
Y97057D01*
X122816D01*
Y95857D01*
X123416D01*
X265535Y19079D02*
Y18079D01*
X267535D01*
Y19079D01*
X268535D01*
Y21079D01*
X267535D01*
Y22079D01*
X265535D01*
Y21079D01*
X264535D01*
Y19079D01*
X265535D01*
X265935Y19479D02*
Y18879D01*
X267135D01*
Y19479D01*
X267735D01*
Y20679D01*
X267135D01*
Y21279D01*
X265935D01*
Y20679D01*
X265335D01*
Y19479D01*
X265935D01*
X265142Y32071D02*
Y31071D01*
X267142D01*
Y32071D01*
X268142D01*
Y34071D01*
X267142D01*
Y35071D01*
X265142D01*
Y34071D01*
X264142D01*
Y32071D01*
X265142D01*
X265542Y32471D02*
Y31871D01*
X266742D01*
Y32471D01*
X267342D01*
Y33671D01*
X266742D01*
Y34271D01*
X265542D01*
Y33671D01*
X264942D01*
Y32471D01*
X265542D01*
X237583Y38764D02*
Y37764D01*
X239583D01*
Y38764D01*
X240583D01*
Y40764D01*
X239583D01*
Y41764D01*
X237583D01*
Y40764D01*
X236583D01*
Y38764D01*
X237583D01*
X237983Y39164D02*
Y38564D01*
X239183D01*
Y39164D01*
X239783D01*
Y40364D01*
X239183D01*
Y40964D01*
X237983D01*
Y40364D01*
X237383D01*
Y39164D01*
X237983D01*
X247819Y73803D02*
Y72803D01*
X249819D01*
Y73803D01*
X250819D01*
Y75803D01*
X249819D01*
Y76803D01*
X247819D01*
Y75803D01*
X246819D01*
Y73803D01*
X247819D01*
X248219Y74203D02*
Y73603D01*
X249419D01*
Y74203D01*
X250019D01*
Y75403D01*
X249419D01*
Y76003D01*
X248219D01*
Y75403D01*
X247619D01*
Y74203D01*
X248219D01*
X275378Y73803D02*
Y72803D01*
X277378D01*
Y73803D01*
X278378D01*
Y75803D01*
X277378D01*
Y76803D01*
X275378D01*
Y75803D01*
X274378D01*
Y73803D01*
X275378D01*
X275778Y74203D02*
Y73603D01*
X276978D01*
Y74203D01*
X277578D01*
Y75403D01*
X276978D01*
Y76003D01*
X275778D01*
Y75403D01*
X275178D01*
Y74203D01*
X275778D01*
X275378Y89551D02*
Y88551D01*
X277378D01*
Y89551D01*
X278378D01*
Y91551D01*
X277378D01*
Y92551D01*
X275378D01*
Y91551D01*
X274378D01*
Y89551D01*
X275378D01*
X275778Y89951D02*
Y89351D01*
X276978D01*
Y89951D01*
X277578D01*
Y91151D01*
X276978D01*
Y91751D01*
X275778D01*
Y91151D01*
X275178D01*
Y89951D01*
X275778D01*
X224984Y80890D02*
Y79890D01*
X226984D01*
Y80890D01*
X227984D01*
Y82890D01*
X226984D01*
Y83890D01*
X224984D01*
Y82890D01*
X223984D01*
Y80890D01*
X224984D01*
X225384Y81290D02*
Y80690D01*
X226584D01*
Y81290D01*
X227184D01*
Y82490D01*
X226584D01*
Y83090D01*
X225384D01*
Y82490D01*
X224784D01*
Y81290D01*
X225384D01*
X174591Y115142D02*
Y114142D01*
X176591D01*
Y115142D01*
X177591D01*
Y117142D01*
X176591D01*
Y118142D01*
X174591D01*
Y117142D01*
X173591D01*
Y115142D01*
X174591D01*
X174991Y115542D02*
Y114942D01*
X176191D01*
Y115542D01*
X176791D01*
Y116742D01*
X176191D01*
Y117342D01*
X174991D01*
Y116742D01*
X174391D01*
Y115542D01*
X174991D01*
X199000Y121441D02*
Y120441D01*
X201000D01*
Y121441D01*
X202000D01*
Y123441D01*
X201000D01*
Y124441D01*
X199000D01*
Y123441D01*
X198000D01*
Y121441D01*
X199000D01*
X199400Y121841D02*
Y121241D01*
X200600D01*
Y121841D01*
X201200D01*
Y123041D01*
X200600D01*
Y123641D01*
X199400D01*
Y123041D01*
X198800D01*
Y121841D01*
X199400D01*
X217110Y153724D02*
Y152724D01*
X219110D01*
Y153724D01*
X220110D01*
Y155724D01*
X219110D01*
Y156724D01*
X217110D01*
Y155724D01*
X216110D01*
Y153724D01*
X217110D01*
X217510Y154124D02*
Y153524D01*
X218710D01*
Y154124D01*
X219310D01*
Y155324D01*
X218710D01*
Y155924D01*
X217510D01*
Y155324D01*
X216910D01*
Y154124D01*
X217510D01*
X217110Y145850D02*
Y144850D01*
X219110D01*
Y145850D01*
X220110D01*
Y147850D01*
X219110D01*
Y148850D01*
X217110D01*
Y147850D01*
X216110D01*
Y145850D01*
X217110D01*
X217510Y146250D02*
Y145650D01*
X218710D01*
Y146250D01*
X219310D01*
Y147450D01*
X218710D01*
Y148050D01*
X217510D01*
Y147450D01*
X216910D01*
Y146250D01*
X217510D01*
X232858Y145063D02*
Y144063D01*
X234858D01*
Y145063D01*
X235858D01*
Y147063D01*
X234858D01*
Y148063D01*
X232858D01*
Y147063D01*
X231858D01*
Y145063D01*
X232858D01*
X233258Y145463D02*
Y144863D01*
X234458D01*
Y145463D01*
X235058D01*
Y146663D01*
X234458D01*
Y147263D01*
X233258D01*
Y146663D01*
X232658D01*
Y145463D01*
X233258D01*
X257661Y127347D02*
Y126347D01*
X259661D01*
Y127347D01*
X260661D01*
Y129347D01*
X259661D01*
Y130347D01*
X257661D01*
Y129347D01*
X256661D01*
Y127347D01*
X257661D01*
X258061Y127746D02*
Y127146D01*
X259261D01*
Y127746D01*
X259861D01*
Y128946D01*
X259261D01*
Y129546D01*
X258061D01*
Y128946D01*
X257461D01*
Y127746D01*
X258061D01*
X272622Y199787D02*
Y198787D01*
X274622D01*
Y199787D01*
X275622D01*
Y201787D01*
X274622D01*
Y202787D01*
X272622D01*
Y201787D01*
X271622D01*
Y199787D01*
X272622D01*
X273022Y200187D02*
Y199587D01*
X274222D01*
Y200187D01*
X274822D01*
Y201387D01*
X274222D01*
Y201987D01*
X273022D01*
Y201387D01*
X272422D01*
Y200187D01*
X273022D01*
X272622Y215535D02*
Y214535D01*
X274622D01*
Y215535D01*
X275622D01*
Y217535D01*
X274622D01*
Y218535D01*
X272622D01*
Y217535D01*
X271622D01*
Y215535D01*
X272622D01*
X273022Y215935D02*
Y215335D01*
X274222D01*
Y215935D01*
X274822D01*
Y217135D01*
X274222D01*
Y217735D01*
X273022D01*
Y217135D01*
X272422D01*
Y215935D01*
X273022D01*
X196638Y171047D02*
Y170047D01*
X198638D01*
Y171047D01*
X199638D01*
Y173047D01*
X198638D01*
Y174047D01*
X196638D01*
Y173047D01*
X195638D01*
Y171047D01*
X196638D01*
X197038Y171447D02*
Y170847D01*
X198238D01*
Y171447D01*
X198838D01*
Y172647D01*
X198238D01*
Y173247D01*
X197038D01*
Y172647D01*
X196438D01*
Y171447D01*
X197038D01*
X188764Y171047D02*
Y170047D01*
X190764D01*
Y171047D01*
X191764D01*
Y173047D01*
X190764D01*
Y174047D01*
X188764D01*
Y173047D01*
X187764D01*
Y171047D01*
X188764D01*
X189164Y171447D02*
Y170847D01*
X190364D01*
Y171447D01*
X190964D01*
Y172647D01*
X190364D01*
Y173247D01*
X189164D01*
Y172647D01*
X188564D01*
Y171447D01*
X189164D01*
X205693Y196710D02*
Y195710D01*
X207693D01*
Y196710D01*
X208693D01*
Y198710D01*
X207693D01*
Y199710D01*
X205693D01*
Y198710D01*
X204693D01*
Y196710D01*
X205693D01*
X206093Y197110D02*
Y196510D01*
X207293D01*
Y197110D01*
X207893D01*
Y198310D01*
X207293D01*
Y198910D01*
X206093D01*
Y198310D01*
X205493D01*
Y197110D01*
X206093D01*
X189945Y195457D02*
Y194457D01*
X191945D01*
Y195457D01*
X192945D01*
Y197457D01*
X191945D01*
Y198457D01*
X189945D01*
Y197457D01*
X188945D01*
Y195457D01*
X189945D01*
X190345Y195857D02*
Y195257D01*
X191545D01*
Y195857D01*
X192145D01*
Y197057D01*
X191545D01*
Y197657D01*
X190345D01*
Y197057D01*
X189745D01*
Y195857D01*
X190345D01*
X211598Y207661D02*
Y206661D01*
X213598D01*
Y207661D01*
X214598D01*
Y209661D01*
X213598D01*
Y210661D01*
X211598D01*
Y209661D01*
X210598D01*
Y207661D01*
X211598D01*
X211998Y208061D02*
Y207461D01*
X213198D01*
Y208061D01*
X213798D01*
Y209261D01*
X213198D01*
Y209861D01*
X211998D01*
Y209261D01*
X211398D01*
Y208061D01*
X211998D01*
X211598Y219472D02*
Y218472D01*
X213598D01*
Y219472D01*
X214598D01*
Y221472D01*
X213598D01*
Y222472D01*
X211598D01*
Y221472D01*
X210598D01*
Y219472D01*
X211598D01*
X211998Y219872D02*
Y219272D01*
X213198D01*
Y219872D01*
X213798D01*
Y221072D01*
X213198D01*
Y221672D01*
X211998D01*
Y221072D01*
X211398D01*
Y219872D01*
X211998D01*
X195850Y219472D02*
Y218472D01*
X197850D01*
Y219472D01*
X198850D01*
Y221472D01*
X197850D01*
Y222472D01*
X195850D01*
Y221472D01*
X194850D01*
Y219472D01*
X195850D01*
X196250Y219872D02*
Y219272D01*
X197450D01*
Y219872D01*
X198050D01*
Y221072D01*
X197450D01*
Y221672D01*
X196250D01*
Y221072D01*
X195650D01*
Y219872D01*
X196250D01*
X233252Y248606D02*
Y247606D01*
X235252D01*
Y248606D01*
X236252D01*
Y250606D01*
X235252D01*
Y251606D01*
X233252D01*
Y250606D01*
X232252D01*
Y248606D01*
X233252D01*
X233652Y249006D02*
Y248406D01*
X234852D01*
Y249006D01*
X235452D01*
Y250206D01*
X234852D01*
Y250806D01*
X233652D01*
Y250206D01*
X233052D01*
Y249006D01*
X233652D01*
X161992Y162779D02*
Y161779D01*
X163992D01*
Y162779D01*
X164992D01*
Y164779D01*
X163992D01*
Y165779D01*
X161992D01*
Y164779D01*
X160992D01*
Y162779D01*
X161992D01*
X162392Y163180D02*
Y162580D01*
X163592D01*
Y163180D01*
X164192D01*
Y164380D01*
X163592D01*
Y164980D01*
X162392D01*
Y164380D01*
X161792D01*
Y163180D01*
X162392D01*
X156874Y161598D02*
Y160598D01*
X158874D01*
Y161598D01*
X159874D01*
Y163598D01*
X158874D01*
Y164598D01*
X156874D01*
Y163598D01*
X155874D01*
Y161598D01*
X156874D01*
X157274Y161998D02*
Y161398D01*
X158474D01*
Y161998D01*
X159074D01*
Y163198D01*
X158474D01*
Y163798D01*
X157274D01*
Y163198D01*
X156674D01*
Y161998D01*
X157274D01*
X154512Y156480D02*
Y155480D01*
X156512D01*
Y156480D01*
X157512D01*
Y158480D01*
X156512D01*
Y159480D01*
X154512D01*
Y158480D01*
X153512D01*
Y156480D01*
X154512D01*
X154912Y156880D02*
Y156280D01*
X156112D01*
Y156880D01*
X156712D01*
Y158080D01*
X156112D01*
Y158680D01*
X154912D01*
Y158080D01*
X154312D01*
Y156880D01*
X154912D01*
X150575Y156480D02*
Y155480D01*
X152575D01*
Y156480D01*
X153575D01*
Y158480D01*
X152575D01*
Y159480D01*
X150575D01*
Y158480D01*
X149575D01*
Y156480D01*
X150575D01*
X150975Y156880D02*
Y156280D01*
X152175D01*
Y156880D01*
X152775D01*
Y158080D01*
X152175D01*
Y158680D01*
X150975D01*
Y158080D01*
X150375D01*
Y156880D01*
X150975D01*
X150575Y150575D02*
Y149575D01*
X152575D01*
Y150575D01*
X153575D01*
Y152575D01*
X152575D01*
Y153575D01*
X150575D01*
Y152575D01*
X149575D01*
Y150575D01*
X150575D01*
X150975Y150975D02*
Y150375D01*
X152175D01*
Y150975D01*
X152775D01*
Y152175D01*
X152175D01*
Y152775D01*
X150975D01*
Y152175D01*
X150375D01*
Y150975D01*
X150975D01*
X275772Y99394D02*
Y98394D01*
X277772D01*
Y99394D01*
X278772D01*
Y101394D01*
X277772D01*
Y102394D01*
X275772D01*
Y101394D01*
X274772D01*
Y99394D01*
X275772D01*
X276172Y99794D02*
Y99194D01*
X277372D01*
Y99794D01*
X277972D01*
Y100994D01*
X277372D01*
Y101594D01*
X276172D01*
Y100994D01*
X275572D01*
Y99794D01*
X276172D01*
X250181Y167504D02*
Y166504D01*
X252181D01*
Y167504D01*
X253181D01*
Y169504D01*
X252181D01*
Y170504D01*
X250181D01*
Y169504D01*
X249181D01*
Y167504D01*
X250181D01*
X250581Y167904D02*
Y167304D01*
X251781D01*
Y167904D01*
X252381D01*
Y169104D01*
X251781D01*
Y169704D01*
X250581D01*
Y169104D01*
X249981D01*
Y167904D01*
X250581D01*
X189551Y134433D02*
Y133433D01*
X191551D01*
Y134433D01*
X192551D01*
Y136433D01*
X191551D01*
Y137433D01*
X189551D01*
Y136433D01*
X188551D01*
Y134433D01*
X189551D01*
X189951Y134833D02*
Y134233D01*
X191151D01*
Y134833D01*
X191751D01*
Y136033D01*
X191151D01*
Y136633D01*
X189951D01*
Y136033D01*
X189351D01*
Y134833D01*
X189951D01*
X58759Y140360D02*
Y139360D01*
X60759D01*
Y140360D01*
X61759D01*
Y142360D01*
X60759D01*
Y143360D01*
X58759D01*
Y142360D01*
X57759D01*
Y140360D01*
X58759D01*
X59159Y140760D02*
Y140160D01*
X60359D01*
Y140760D01*
X60959D01*
Y141960D01*
X60359D01*
Y142560D01*
X59159D01*
Y141960D01*
X58559D01*
Y140760D01*
X59159D01*
X218472Y42094D02*
X219472D01*
X220472Y43095D01*
X221472Y42094D01*
X222472D01*
Y43095D01*
X221472Y44094D01*
X222472Y45094D01*
Y46095D01*
X221472D01*
X220472Y45094D01*
X219472Y46095D01*
X218472D01*
Y45094D01*
X219472Y44094D01*
X218472Y43095D01*
Y42094D01*
X219272Y42895D02*
X219872D01*
X220472Y43494D01*
X221072Y42895D01*
X221672D01*
Y43494D01*
X221072Y44094D01*
X221672Y44695D01*
Y45294D01*
X221072D01*
X220472Y44695D01*
X219872Y45294D01*
X219272D01*
Y44695D01*
X219872Y44094D01*
X219272Y43494D01*
Y42895D01*
X218208Y23787D02*
X219208D01*
X220208Y24787D01*
X221208Y23787D01*
X222208D01*
Y24787D01*
X221208Y25787D01*
X222208Y26787D01*
Y27787D01*
X221208D01*
X220208Y26787D01*
X219208Y27787D01*
X218208D01*
Y26787D01*
X219208Y25787D01*
X218208Y24787D01*
Y23787D01*
X219008Y24587D02*
X219608D01*
X220208Y25187D01*
X220808Y24587D01*
X221408D01*
Y25187D01*
X220808Y25787D01*
X221408Y26387D01*
Y26987D01*
X220808D01*
X220208Y26387D01*
X219608Y26987D01*
X219008D01*
Y26387D01*
X219608Y25787D01*
X219008Y25187D01*
Y24587D01*
X21835Y32071D02*
Y31071D01*
X23835D01*
Y32071D01*
X24835D01*
Y34071D01*
X23835D01*
Y35071D01*
X21835D01*
Y34071D01*
X20835D01*
Y32071D01*
X21835D01*
X22235Y32471D02*
Y31871D01*
X23435D01*
Y32471D01*
X24035D01*
Y33671D01*
X23435D01*
Y34271D01*
X22235D01*
Y33671D01*
X21635D01*
Y32471D01*
X22235D01*
X21835Y24197D02*
Y23197D01*
X23835D01*
Y24197D01*
X24835D01*
Y26197D01*
X23835D01*
Y27197D01*
X21835D01*
Y26197D01*
X20835D01*
Y24197D01*
X21835D01*
X22235Y24597D02*
Y23997D01*
X23435D01*
Y24597D01*
X24035D01*
Y25797D01*
X23435D01*
Y26397D01*
X22235D01*
Y25797D01*
X21635D01*
Y24597D01*
X22235D01*
X21835Y16323D02*
Y15323D01*
X23835D01*
Y16323D01*
X24835D01*
Y18323D01*
X23835D01*
Y19323D01*
X21835D01*
Y18323D01*
X20835D01*
Y16323D01*
X21835D01*
X22235Y16723D02*
Y16123D01*
X23435D01*
Y16723D01*
X24035D01*
Y17923D01*
X23435D01*
Y18523D01*
X22235D01*
Y17923D01*
X21635D01*
Y16723D01*
X22235D01*
X21835Y8449D02*
Y7449D01*
X23835D01*
Y8449D01*
X24835D01*
Y10449D01*
X23835D01*
Y11449D01*
X21835D01*
Y10449D01*
X20835D01*
Y8449D01*
X21835D01*
X22235Y8849D02*
Y8249D01*
X23435D01*
Y8849D01*
X24035D01*
Y10049D01*
X23435D01*
Y10649D01*
X22235D01*
Y10049D01*
X21635D01*
Y8849D01*
X22235D01*
X64945Y17701D02*
Y16701D01*
X66945D01*
Y17701D01*
X67945D01*
Y19701D01*
X66945D01*
Y20701D01*
X64945D01*
Y19701D01*
X63945D01*
Y17701D01*
X64945D01*
X65345Y18101D02*
Y17501D01*
X66545D01*
Y18101D01*
X67145D01*
Y19301D01*
X66545D01*
Y19901D01*
X65345D01*
Y19301D01*
X64745D01*
Y18101D01*
X65345D01*
X202543Y132396D02*
Y131396D01*
X204543D01*
Y132396D01*
X205543D01*
Y134396D01*
X204543D01*
Y135396D01*
X202543D01*
Y134396D01*
X201543D01*
Y132396D01*
X202543D01*
X202943Y132796D02*
Y132196D01*
X204143D01*
Y132796D01*
X204743D01*
Y133996D01*
X204143D01*
Y134596D01*
X202943D01*
Y133996D01*
X202343D01*
Y132796D01*
X202943D01*
X202937Y128134D02*
Y127134D01*
X204937D01*
Y128134D01*
X205937D01*
Y130134D01*
X204937D01*
Y131134D01*
X202937D01*
Y130134D01*
X201937D01*
Y128134D01*
X202937D01*
X203337Y128534D02*
Y127934D01*
X204537D01*
Y128534D01*
X205137D01*
Y129734D01*
X204537D01*
Y130334D01*
X203337D01*
Y129734D01*
X202737D01*
Y128534D01*
X203337D01*
X47819Y102543D02*
Y101543D01*
X49819D01*
Y102543D01*
X50819D01*
Y104543D01*
X49819D01*
Y105543D01*
X47819D01*
Y104543D01*
X46819D01*
Y102543D01*
X47819D01*
X48219Y102943D02*
Y102343D01*
X49419D01*
Y102943D01*
X50019D01*
Y104143D01*
X49419D01*
Y104743D01*
X48219D01*
Y104143D01*
X47619D01*
Y102943D01*
X48219D01*
X52543Y102543D02*
Y101543D01*
X54543D01*
Y102543D01*
X55543D01*
Y104543D01*
X54543D01*
Y105543D01*
X52543D01*
Y104543D01*
X51543D01*
Y102543D01*
X52543D01*
X52943Y102943D02*
Y102343D01*
X54143D01*
Y102943D01*
X54743D01*
Y104143D01*
X54143D01*
Y104743D01*
X52943D01*
Y104143D01*
X52343D01*
Y102943D01*
X52943D01*
X246638Y121047D02*
Y120047D01*
X248638D01*
Y121047D01*
X249638D01*
Y123047D01*
X248638D01*
Y124047D01*
X246638D01*
Y123047D01*
X245638D01*
Y121047D01*
X246638D01*
X247038Y121447D02*
Y120847D01*
X248238D01*
Y121447D01*
X248838D01*
Y122647D01*
X248238D01*
Y123247D01*
X247038D01*
Y122647D01*
X246438D01*
Y121447D01*
X247038D01*
X198213Y95850D02*
Y94850D01*
X200213D01*
Y95850D01*
X201213D01*
Y97850D01*
X200213D01*
Y98850D01*
X198213D01*
Y97850D01*
X197213D01*
Y95850D01*
X198213D01*
X198613Y96250D02*
Y95650D01*
X199813D01*
Y96250D01*
X200413D01*
Y97450D01*
X199813D01*
Y98050D01*
X198613D01*
Y97450D01*
X198013D01*
Y96250D01*
X198613D01*
X211148Y78034D02*
Y77034D01*
X213148D01*
Y78034D01*
X214148D01*
Y80034D01*
X213148D01*
Y81034D01*
X211148D01*
Y80034D01*
X210148D01*
Y78034D01*
X211148D01*
X211548Y78434D02*
Y77834D01*
X212748D01*
Y78434D01*
X213348D01*
Y79634D01*
X212748D01*
Y80234D01*
X211548D01*
Y79634D01*
X210948D01*
Y78434D01*
X211548D01*
X212764Y67307D02*
X213764D01*
X214764Y68307D01*
X215764Y67307D01*
X216764D01*
Y68307D01*
X215764Y69307D01*
X216764Y70307D01*
Y71307D01*
X215764D01*
X214764Y70307D01*
X213764Y71307D01*
X212764D01*
Y70307D01*
X213764Y69307D01*
X212764Y68307D01*
Y67307D01*
X213564Y68107D02*
X214164D01*
X214764Y68707D01*
X215364Y68107D01*
X215964D01*
Y68707D01*
X215364Y69307D01*
X215964Y69907D01*
Y70507D01*
X215364D01*
X214764Y69907D01*
X214164Y70507D01*
X213564D01*
Y69907D01*
X214164Y69307D01*
X213564Y68707D01*
Y68107D01*
X225003Y181677D02*
Y180677D01*
X227003D01*
Y181677D01*
X228003D01*
Y183677D01*
X227003D01*
Y184677D01*
X225003D01*
Y183677D01*
X224003D01*
Y181677D01*
X225003D01*
X225403Y182077D02*
Y181477D01*
X226603D01*
Y182077D01*
X227203D01*
Y183277D01*
X226603D01*
Y183877D01*
X225403D01*
Y183277D01*
X224803D01*
Y182077D01*
X225403D01*
X226703Y176018D02*
Y175018D01*
X228703D01*
Y176018D01*
X229703D01*
Y178018D01*
X228703D01*
Y179018D01*
X226703D01*
Y178018D01*
X225703D01*
Y176018D01*
X226703D01*
X227103Y176418D02*
Y175818D01*
X228303D01*
Y176418D01*
X228903D01*
Y177618D01*
X228303D01*
Y178218D01*
X227103D01*
Y177618D01*
X226503D01*
Y176418D01*
X227103D01*
X257174Y178622D02*
Y177622D01*
X259174D01*
Y178622D01*
X260174D01*
Y180622D01*
X259174D01*
Y181622D01*
X257174D01*
Y180622D01*
X256174D01*
Y178622D01*
X257174D01*
X257574Y179022D02*
Y178422D01*
X258774D01*
Y179022D01*
X259374D01*
Y180222D01*
X258774D01*
Y180822D01*
X257574D01*
Y180222D01*
X256974D01*
Y179022D01*
X257574D01*
X222798Y55082D02*
X223798D01*
X224798Y56082D01*
X225798Y55082D01*
X226798D01*
Y56082D01*
X225798Y57082D01*
X226798Y58082D01*
Y59082D01*
X225798D01*
X224798Y58082D01*
X223798Y59082D01*
X222798D01*
Y58082D01*
X223798Y57082D01*
X222798Y56082D01*
Y55082D01*
X223598Y55882D02*
X224198D01*
X224798Y56482D01*
X225398Y55882D01*
X225998D01*
Y56482D01*
X225398Y57082D01*
X225998Y57682D01*
Y58282D01*
X225398D01*
X224798Y57682D01*
X224198Y58282D01*
X223598D01*
Y57682D01*
X224198Y57082D01*
X223598Y56482D01*
Y55882D01*
X249000Y54118D02*
Y53118D01*
X251000D01*
Y54118D01*
X252000D01*
Y56118D01*
X251000D01*
Y57118D01*
X249000D01*
Y56118D01*
X248000D01*
Y54118D01*
X249000D01*
X249400Y54518D02*
Y53918D01*
X250600D01*
Y54518D01*
X251200D01*
Y55718D01*
X250600D01*
Y56318D01*
X249400D01*
Y55718D01*
X248800D01*
Y54518D01*
X249400D01*
X262779Y54118D02*
Y53118D01*
X264779D01*
Y54118D01*
X265779D01*
Y56118D01*
X264779D01*
Y57118D01*
X262779D01*
Y56118D01*
X261779D01*
Y54118D01*
X262779D01*
X263179Y54518D02*
Y53918D01*
X264380D01*
Y54518D01*
X264980D01*
Y55718D01*
X264380D01*
Y56318D01*
X263179D01*
Y55718D01*
X262579D01*
Y54518D01*
X263179D01*
X256087Y54118D02*
Y53118D01*
X258087D01*
Y54118D01*
X259087D01*
Y56118D01*
X258087D01*
Y57118D01*
X256087D01*
Y56118D01*
X255087D01*
Y54118D01*
X256087D01*
X256487Y54518D02*
Y53918D01*
X257687D01*
Y54518D01*
X258287D01*
Y55718D01*
X257687D01*
Y56318D01*
X256487D01*
Y55718D01*
X255887D01*
Y54518D01*
X256487D01*
X243488Y16323D02*
Y15323D01*
X245488D01*
Y16323D01*
X246488D01*
Y18323D01*
X245488D01*
Y19323D01*
X243488D01*
Y18323D01*
X242488D01*
Y16323D01*
X243488D01*
X243888Y16723D02*
Y16123D01*
X245088D01*
Y16723D01*
X245688D01*
Y17923D01*
X245088D01*
Y18523D01*
X243888D01*
Y17923D01*
X243288D01*
Y16723D01*
X243888D01*
X232071Y119472D02*
Y118472D01*
X234071D01*
Y119472D01*
X235071D01*
Y121472D01*
X234071D01*
Y122472D01*
X232071D01*
Y121472D01*
X231071D01*
Y119472D01*
X232071D01*
X232471Y119872D02*
Y119272D01*
X233671D01*
Y119872D01*
X234271D01*
Y121072D01*
X233671D01*
Y121672D01*
X232471D01*
Y121072D01*
X231871D01*
Y119872D01*
X232471D01*
X47032Y4512D02*
Y3512D01*
X49031D01*
Y4512D01*
X50032D01*
Y6512D01*
X49031D01*
Y7512D01*
X47032D01*
Y6512D01*
X46031D01*
Y4512D01*
X47032D01*
X47431Y4912D02*
Y4312D01*
X48632D01*
Y4912D01*
X49231D01*
Y6112D01*
X48632D01*
Y6712D01*
X47431D01*
Y6112D01*
X46832D01*
Y4912D01*
X47431D01*
X43095Y6480D02*
Y5480D01*
X45094D01*
Y6480D01*
X46095D01*
Y8480D01*
X45094D01*
Y9480D01*
X43095D01*
Y8480D01*
X42094D01*
Y6480D01*
X43095D01*
X43494Y6880D02*
Y6280D01*
X44695D01*
Y6880D01*
X45294D01*
Y8080D01*
X44695D01*
Y8680D01*
X43494D01*
Y8080D01*
X42895D01*
Y6880D01*
X43494D01*
X43095Y3331D02*
Y2331D01*
X45094D01*
Y3331D01*
X46095D01*
Y5331D01*
X45094D01*
Y6331D01*
X43095D01*
Y5331D01*
X42094D01*
Y3331D01*
X43095D01*
X43494Y3731D02*
Y3131D01*
X44695D01*
Y3731D01*
X45294D01*
Y4931D01*
X44695D01*
Y5531D01*
X43494D01*
Y4931D01*
X42895D01*
Y3731D01*
X43494D01*
X217685Y171228D02*
X218685D01*
X219685Y172228D01*
X220685Y171228D01*
X221685D01*
Y172228D01*
X220685Y173228D01*
X221685Y174228D01*
Y175228D01*
X220685D01*
X219685Y174228D01*
X218685Y175228D01*
X217685D01*
Y174228D01*
X218685Y173228D01*
X217685Y172228D01*
Y171228D01*
X218485Y172028D02*
X219085D01*
X219685Y172628D01*
X220285Y172028D01*
X220885D01*
Y172628D01*
X220285Y173228D01*
X220885Y173828D01*
Y174428D01*
X220285D01*
X219685Y173828D01*
X219085Y174428D01*
X218485D01*
Y173828D01*
X219085Y173228D01*
X218485Y172628D01*
Y172028D01*
X236402Y243882D02*
Y242882D01*
X238402D01*
Y243882D01*
X239402D01*
Y245882D01*
X238402D01*
Y246882D01*
X236402D01*
Y245882D01*
X235402D01*
Y243882D01*
X236402D01*
X236802Y244282D02*
Y243682D01*
X238002D01*
Y244282D01*
X238602D01*
Y245482D01*
X238002D01*
Y246082D01*
X236802D01*
Y245482D01*
X236202D01*
Y244282D01*
X236802D01*
X234433Y227346D02*
Y226346D01*
X236433D01*
Y227346D01*
X237433D01*
Y229346D01*
X236433D01*
Y230346D01*
X234433D01*
Y229346D01*
X233433D01*
Y227346D01*
X234433D01*
X234833Y227747D02*
Y227147D01*
X236033D01*
Y227747D01*
X236633D01*
Y228946D01*
X236033D01*
Y229546D01*
X234833D01*
Y228946D01*
X234233D01*
Y227747D01*
X234833D01*
X212764Y64339D02*
X213764D01*
X214764Y65339D01*
X215764Y64339D01*
X216764D01*
Y65339D01*
X215764Y66339D01*
X216764Y67339D01*
Y68339D01*
X215764D01*
X214764Y67339D01*
X213764Y68339D01*
X212764D01*
Y67339D01*
X213764Y66339D01*
X212764Y65339D01*
Y64339D01*
X213564Y65139D02*
X214164D01*
X214764Y65739D01*
X215364Y65139D01*
X215964D01*
Y65739D01*
X215364Y66339D01*
X215964Y66939D01*
Y67539D01*
X215364D01*
X214764Y66939D01*
X214164Y67539D01*
X213564D01*
Y66939D01*
X214164Y66339D01*
X213564Y65739D01*
Y65139D01*
X275654Y154611D02*
X276654D01*
X277654Y155611D01*
X278654Y154611D01*
X279654D01*
Y155611D01*
X278654Y156611D01*
X279654Y157611D01*
Y158611D01*
X278654D01*
X277654Y157611D01*
X276654Y158611D01*
X275654D01*
Y157611D01*
X276654Y156611D01*
X275654Y155611D01*
Y154611D01*
X276454Y155411D02*
X277054D01*
X277654Y156011D01*
X278254Y155411D01*
X278854D01*
Y156011D01*
X278254Y156611D01*
X278854Y157211D01*
Y157811D01*
X278254D01*
X277654Y157211D01*
X277054Y157811D01*
X276454D01*
Y157211D01*
X277054Y156611D01*
X276454Y156011D01*
Y155411D01*
X275654Y152141D02*
X276654D01*
X277654Y153141D01*
X278654Y152141D01*
X279654D01*
Y153141D01*
X278654Y154141D01*
X279654Y155141D01*
Y156141D01*
X278654D01*
X277654Y155141D01*
X276654Y156141D01*
X275654D01*
Y155141D01*
X276654Y154141D01*
X275654Y153141D01*
Y152141D01*
X276454Y152941D02*
X277054D01*
X277654Y153541D01*
X278254Y152941D01*
X278854D01*
Y153541D01*
X278254Y154141D01*
X278854Y154741D01*
Y155341D01*
X278254D01*
X277654Y154741D01*
X277054Y155341D01*
X276454D01*
Y154741D01*
X277054Y154141D01*
X276454Y153541D01*
Y152941D01*
X273606Y143882D02*
Y142882D01*
X275606D01*
Y143882D01*
X276606D01*
Y145882D01*
X275606D01*
Y146882D01*
X273606D01*
Y145882D01*
X272606D01*
Y143882D01*
X273606D01*
X274006Y144282D02*
Y143682D01*
X275206D01*
Y144282D01*
X275806D01*
Y145482D01*
X275206D01*
Y146082D01*
X274006D01*
Y145482D01*
X273406D01*
Y144282D01*
X274006D01*
X220457Y83842D02*
Y82842D01*
X222457D01*
Y83842D01*
X223457D01*
Y85843D01*
X222457D01*
Y86843D01*
X220457D01*
Y85843D01*
X219457D01*
Y83842D01*
X220457D01*
X220857Y84242D02*
Y83643D01*
X222057D01*
Y84242D01*
X222657D01*
Y85443D01*
X222057D01*
Y86042D01*
X220857D01*
Y85443D01*
X220257D01*
Y84242D01*
X220857D01*
X211391Y89541D02*
Y88541D01*
X213391D01*
Y89541D01*
X214391D01*
Y91541D01*
X213391D01*
Y92541D01*
X211391D01*
Y91541D01*
X210391D01*
Y89541D01*
X211391D01*
X211791Y89941D02*
Y89341D01*
X212991D01*
Y89941D01*
X213591D01*
Y91141D01*
X212991D01*
Y91741D01*
X211791D01*
Y91141D01*
X211191D01*
Y89941D01*
X211791D01*
X178724Y104709D02*
Y103709D01*
X180724D01*
Y104709D01*
X181724D01*
Y106709D01*
X180724D01*
Y107709D01*
X178724D01*
Y106709D01*
X177724D01*
Y104709D01*
X178724D01*
X179124Y105109D02*
Y104509D01*
X180324D01*
Y105109D01*
X180924D01*
Y106309D01*
X180324D01*
Y106909D01*
X179124D01*
Y106309D01*
X178524D01*
Y105109D01*
X179124D01*
X178724Y108646D02*
Y107646D01*
X180724D01*
Y108646D01*
X181724D01*
Y110646D01*
X180724D01*
Y111646D01*
X178724D01*
Y110646D01*
X177724D01*
Y108646D01*
X178724D01*
X179124Y109046D02*
Y108446D01*
X180324D01*
Y109046D01*
X180924D01*
Y110246D01*
X180324D01*
Y110846D01*
X179124D01*
Y110246D01*
X178524D01*
Y109046D01*
X179124D01*
X117898Y109236D02*
Y108236D01*
X119898D01*
Y109236D01*
X120898D01*
Y111236D01*
X119898D01*
Y112236D01*
X117898D01*
Y111236D01*
X116898D01*
Y109236D01*
X117898D01*
X118298Y109636D02*
Y109036D01*
X119498D01*
Y109636D01*
X120098D01*
Y110836D01*
X119498D01*
Y111436D01*
X118298D01*
Y110836D01*
X117698D01*
Y109636D01*
X118298D01*
X113961Y105299D02*
Y104299D01*
X115961D01*
Y105299D01*
X116961D01*
Y107299D01*
X115961D01*
Y108299D01*
X113961D01*
Y107299D01*
X112961D01*
Y105299D01*
X113961D01*
X114361Y105699D02*
Y105099D01*
X115561D01*
Y105699D01*
X116161D01*
Y106899D01*
X115561D01*
Y107499D01*
X114361D01*
Y106899D01*
X113761D01*
Y105699D01*
X114361D01*
X113961Y113173D02*
Y112173D01*
X115961D01*
Y113173D01*
X116961D01*
Y115173D01*
X115961D01*
Y116173D01*
X113961D01*
Y115173D01*
X112961D01*
Y113173D01*
X113961D01*
X114361Y113573D02*
Y112973D01*
X115561D01*
Y113573D01*
X116161D01*
Y114773D01*
X115561D01*
Y115373D01*
X114361D01*
Y114773D01*
X113761D01*
Y113573D01*
X114361D01*
X66716Y163173D02*
Y162173D01*
X68717D01*
Y163173D01*
X69717D01*
Y165173D01*
X68717D01*
Y166173D01*
X66716D01*
Y165173D01*
X65716D01*
Y163173D01*
X66716D01*
X67116Y163573D02*
Y162973D01*
X68317D01*
Y163573D01*
X68916D01*
Y164773D01*
X68317D01*
Y165373D01*
X67116D01*
Y164773D01*
X66517D01*
Y163573D01*
X67116D01*
X61992Y163173D02*
Y162173D01*
X63992D01*
Y163173D01*
X64992D01*
Y165173D01*
X63992D01*
Y166173D01*
X61992D01*
Y165173D01*
X60992D01*
Y163173D01*
X61992D01*
X62392Y163573D02*
Y162973D01*
X63592D01*
Y163573D01*
X64192D01*
Y164773D01*
X63592D01*
Y165373D01*
X62392D01*
Y164773D01*
X61792D01*
Y163573D01*
X62392D01*
X57268Y163173D02*
Y162173D01*
X59268D01*
Y163173D01*
X60268D01*
Y165173D01*
X59268D01*
Y166173D01*
X57268D01*
Y165173D01*
X56268D01*
Y163173D01*
X57268D01*
X57668Y163573D02*
Y162973D01*
X58868D01*
Y163573D01*
X59468D01*
Y164773D01*
X58868D01*
Y165373D01*
X57668D01*
Y164773D01*
X57068D01*
Y163573D01*
X57668D01*
X56874Y190339D02*
Y189339D01*
X58874D01*
Y190339D01*
X59874D01*
Y192339D01*
X58874D01*
Y193339D01*
X56874D01*
Y192339D01*
X55874D01*
Y190339D01*
X56874D01*
X57274Y190739D02*
Y190139D01*
X58474D01*
Y190739D01*
X59074D01*
Y191939D01*
X58474D01*
Y192539D01*
X57274D01*
Y191939D01*
X56674D01*
Y190739D01*
X57274D01*
X64748Y190339D02*
Y189339D01*
X66748D01*
Y190339D01*
X67748D01*
Y192339D01*
X66748D01*
Y193339D01*
X64748D01*
Y192339D01*
X63748D01*
Y190339D01*
X64748D01*
X65148Y190739D02*
Y190139D01*
X66348D01*
Y190739D01*
X66948D01*
Y191939D01*
X66348D01*
Y192539D01*
X65148D01*
Y191939D01*
X64548D01*
Y190739D01*
X65148D01*
X72622Y190339D02*
Y189339D01*
X74622D01*
Y190339D01*
X75622D01*
Y192339D01*
X74622D01*
Y193339D01*
X72622D01*
Y192339D01*
X71622D01*
Y190339D01*
X72622D01*
X73022Y190739D02*
Y190139D01*
X74222D01*
Y190739D01*
X74822D01*
Y191939D01*
X74222D01*
Y192539D01*
X73022D01*
Y191939D01*
X72422D01*
Y190739D01*
X73022D01*
D180*
X16173Y177953D02*
G03*
X16173Y177953I-2000J0D01*
G01*
X341706Y111430D02*
G03*
X341706Y111430I-2000J0D01*
G01*
X327591Y111417D02*
G03*
X327591Y111417I-2000J0D01*
G01*
X341764Y97244D02*
G03*
X341764Y97244I-2000J0D01*
G01*
X163024Y13386D02*
G03*
X163024Y13386I-2000J0D01*
G01*
D181*
X15373Y177953D02*
G03*
X15373Y177953I-1200J0D01*
G01*
X162224Y13386D02*
G03*
X162224Y13386I-1200J0D01*
G01*
M02*
