G04*
G04 #@! TF.GenerationSoftware,Altium Limited,Altium Designer,23.4.1 (23)*
G04*
G04 Layer_Physical_Order=2*
G04 Layer_Color=32768*
%FSLAX25Y25*%
%MOIN*%
G70*
G04*
G04 #@! TF.SameCoordinates,01ECF62D-24FD-4C24-98F2-6CFE089B3EF1*
G04*
G04*
G04 #@! TF.FilePolarity,Negative*
G04*
G01*
G75*
%ADD127C,0.05000*%
%ADD128C,0.04000*%
%ADD129R,0.06614X0.07205*%
%ADD130R,0.06653X0.07441*%
%ADD131R,0.01968X0.01811*%
%ADD132R,0.01772X0.01772*%
%ADD133R,0.01850X0.01890*%
%ADD134R,0.01811X0.01811*%
%ADD135R,0.23622X0.74803*%
%ADD136R,1.37795X1.57480*%
%ADD137R,2.87402X0.76772*%
%ADD138R,1.08268X0.35433*%
%ADD139C,0.09425*%
%ADD140C,0.11118*%
%ADD141C,0.14268*%
%AMTHOVALD142*
21,1,0.07874,0.08937,0,0,90.0*
1,1,0.08937,0.00000,-0.03937*
1,1,0.08937,0.00000,0.03937*
21,0,0.07874,0.06937,0,0,90.0*
1,0,0.06937,0.00000,-0.03937*
1,0,0.06937,0.00000,0.03937*
4,0,4,0.00530,-0.03407,0.03690,-0.06566,0.02629,-0.07627,-0.00530,-0.04467,0.00530,-0.03407,0.0*
4,0,4,0.00530,0.04467,-0.02629,0.07627,-0.03690,0.06566,-0.00530,0.03407,0.00530,0.04467,0.0*
4,0,4,0.00530,-0.04467,-0.02629,-0.07627,-0.03690,-0.06566,-0.00530,-0.03407,0.00530,-0.04467,0.0*
4,0,4,0.00530,0.03407,0.03690,0.06566,0.02629,0.07627,-0.00530,0.04467,0.00530,0.03407,0.0*
%
%ADD142THOVALD142*%

%AMTHOVALD143*
21,1,0.07087,0.09724,0,0,180.0*
1,1,0.09724,0.03543,0.00000*
1,1,0.09724,-0.03543,0.00000*
21,0,0.07087,0.07724,0,0,180.0*
1,0,0.07724,0.03543,0.00000*
1,0,0.07724,-0.03543,0.00000*
4,0,4,0.03013,0.00530,0.06451,0.03968,0.07512,0.02908,0.04074,-0.00530,0.03013,0.00530,0.0*
4,0,4,-0.04074,0.00530,-0.07512,-0.02908,-0.06451,-0.03968,-0.03013,-0.00530,-0.04074,0.00530,0.0*
4,0,4,0.04074,0.00530,0.07512,-0.02908,0.06451,-0.03968,0.03013,-0.00530,0.04074,0.00530,0.0*
4,0,4,-0.03013,0.00530,-0.06451,0.03968,-0.07512,0.02908,-0.04074,-0.00530,-0.03013,0.00530,0.0*
%
%ADD143THOVALD143*%

%ADD144O,0.10724X0.11906*%
G04:AMPARAMS|DCode=145|XSize=57.874mil|YSize=57.874mil|CornerRadius=0mil|HoleSize=0mil|Usage=FLASHONLY|Rotation=0.000|XOffset=0mil|YOffset=0mil|HoleType=Round|Shape=Relief|Width=15mil|Gap=10mil|Entries=4|*
%AMTHD145*
7,0,0,0.05787,0.03787,0.01500,45*
%
%ADD145THD145*%
%ADD146C,0.09150*%
%ADD147C,0.07969*%
G04:AMPARAMS|DCode=148|XSize=69.685mil|YSize=69.685mil|CornerRadius=0mil|HoleSize=0mil|Usage=FLASHONLY|Rotation=0.000|XOffset=0mil|YOffset=0mil|HoleType=Round|Shape=Relief|Width=15mil|Gap=10mil|Entries=4|*
%AMTHD148*
7,0,0,0.06969,0.04969,0.01500,45*
%
%ADD148THD148*%
%ADD149C,0.09543*%
%AMTHOVALD150*
21,1,0.07874,0.08937,0,0,180.0*
1,1,0.08937,0.03937,0.00000*
1,1,0.08937,-0.03937,0.00000*
21,0,0.07874,0.06937,0,0,180.0*
1,0,0.06937,0.03937,0.00000*
1,0,0.06937,-0.03937,0.00000*
4,0,4,0.03407,0.00530,0.06566,0.03690,0.07627,0.02629,0.04467,-0.00530,0.03407,0.00530,0.0*
4,0,4,-0.04467,0.00530,-0.07627,-0.02629,-0.06566,-0.03690,-0.03407,-0.00530,-0.04467,0.00530,0.0*
4,0,4,0.04467,0.00530,0.07627,-0.02629,0.06566,-0.03690,0.03407,-0.00530,0.04467,0.00530,0.0*
4,0,4,-0.03407,0.00530,-0.06566,0.03690,-0.07627,0.02629,-0.04467,-0.00530,-0.03407,0.00530,0.0*
%
%ADD150THOVALD150*%

%AMTHOVALD151*
21,1,0.07087,0.09724,0,0,270.0*
1,1,0.09724,0.00000,0.03543*
1,1,0.09724,0.00000,-0.03543*
21,0,0.07087,0.07724,0,0,270.0*
1,0,0.07724,0.00000,0.03543*
1,0,0.07724,0.00000,-0.03543*
4,0,4,-0.00530,0.03013,-0.03968,0.06451,-0.02908,0.07512,0.00530,0.04074,-0.00530,0.03013,0.0*
4,0,4,-0.00530,-0.04074,0.02908,-0.07512,0.03968,-0.06451,0.00530,-0.03013,-0.00530,-0.04074,0.0*
4,0,4,-0.00530,0.04074,0.02908,0.07512,0.03968,0.06451,0.00530,0.03013,-0.00530,0.04074,0.0*
4,0,4,-0.00530,-0.03013,-0.03968,-0.06451,-0.02908,-0.07512,0.00530,-0.04074,-0.00530,-0.03013,0.0*
%
%ADD151THOVALD151*%

%ADD152O,0.11906X0.10724*%
%ADD153C,0.09937*%
G04:AMPARAMS|DCode=154|XSize=89.37mil|YSize=89.37mil|CornerRadius=0mil|HoleSize=0mil|Usage=FLASHONLY|Rotation=0.000|XOffset=0mil|YOffset=0mil|HoleType=Round|Shape=Relief|Width=15mil|Gap=10mil|Entries=4|*
%AMTHD154*
7,0,0,0.08937,0.06937,0.01500,45*
%
%ADD154THD154*%
%ADD155C,0.12890*%
%ADD156C,0.10331*%
%ADD157C,0.07378*%
%ADD158C,0.07181*%
G04:AMPARAMS|DCode=159|XSize=63.779mil|YSize=63.779mil|CornerRadius=0mil|HoleSize=0mil|Usage=FLASHONLY|Rotation=0.000|XOffset=0mil|YOffset=0mil|HoleType=Round|Shape=Relief|Width=15mil|Gap=10mil|Entries=4|*
%AMTHD159*
7,0,0,0.06378,0.04378,0.01500,45*
%
%ADD159THD159*%
G04:AMPARAMS|DCode=160|XSize=61.811mil|YSize=61.811mil|CornerRadius=0mil|HoleSize=0mil|Usage=FLASHONLY|Rotation=0.000|XOffset=0mil|YOffset=0mil|HoleType=Round|Shape=Relief|Width=15mil|Gap=10mil|Entries=4|*
%AMTHD160*
7,0,0,0.06181,0.04181,0.01500,45*
%
%ADD160THD160*%
D127*
X283475Y368110D02*
X285433Y1969D01*
X289370D02*
X289370Y149606D01*
X287402Y1969D02*
Y149606D01*
D128*
X0Y0D02*
X377953D01*
Y149606D01*
X287402D02*
X377953D01*
X287402D02*
Y370079D01*
X0D02*
X287402D01*
X0Y0D02*
Y370079D01*
D129*
X274921Y41476D02*
D03*
D130*
X297657Y42106D02*
D03*
D131*
X59685Y61496D02*
D03*
D132*
X59665Y54232D02*
D03*
D133*
X66909Y54173D02*
D03*
X66949Y61457D02*
D03*
D134*
X63228Y57874D02*
D03*
D135*
X11811Y61024D02*
D03*
D136*
X112205Y291339D02*
D03*
D137*
X143701Y329724D02*
D03*
D138*
X233268Y283465D02*
D03*
D139*
X297702Y18576D02*
D03*
Y24481D02*
D03*
Y30387D02*
D03*
Y36292D02*
D03*
Y42198D02*
D03*
Y48103D02*
D03*
X274803Y17717D02*
D03*
Y23622D02*
D03*
Y29528D02*
D03*
Y35433D02*
D03*
Y41339D02*
D03*
Y47244D02*
D03*
D140*
X194055Y323583D02*
D03*
Y293583D02*
D03*
X224055Y313583D02*
D03*
X194055Y253583D02*
D03*
X224055D02*
D03*
X243661Y323583D02*
D03*
Y293583D02*
D03*
X273661Y313583D02*
D03*
X243661Y253583D02*
D03*
X273661D02*
D03*
D141*
X14173Y177953D02*
D03*
X161024Y13386D02*
D03*
D142*
X31890Y177953D02*
D03*
D143*
X44488Y159055D02*
D03*
D144*
X56693Y182283D02*
D03*
D145*
X56004Y54262D02*
D03*
Y61486D02*
D03*
X59616Y50650D02*
D03*
Y57874D02*
D03*
Y65098D02*
D03*
X63228Y54262D02*
D03*
Y61486D02*
D03*
X66840Y50650D02*
D03*
Y57874D02*
D03*
Y65098D02*
D03*
X70453Y54262D02*
D03*
Y61486D02*
D03*
D146*
X22441Y129134D02*
D03*
Y109449D02*
D03*
D147*
X339706Y111430D02*
D03*
X339764Y97244D02*
D03*
D148*
X325591Y111417D02*
D03*
D149*
X104331Y8268D02*
D03*
X92520D02*
D03*
D150*
X161024Y31102D02*
D03*
D151*
X179921Y43701D02*
D03*
D152*
X156693Y55905D02*
D03*
D153*
X140818Y101448D02*
D03*
X34252Y238189D02*
D03*
Y281496D02*
D03*
X153543Y309055D02*
D03*
X74803D02*
D03*
X133858Y230315D02*
D03*
X94488D02*
D03*
D154*
X126899Y87529D02*
D03*
X14567Y238189D02*
D03*
Y281496D02*
D03*
D155*
X248661Y346850D02*
D03*
X268661D02*
D03*
X199055D02*
D03*
X219055D02*
D03*
X23622Y346614D02*
D03*
Y326614D02*
D03*
D156*
X55512Y346457D02*
D03*
X173622D02*
D03*
D157*
X82480Y128819D02*
D03*
X77520Y128701D02*
D03*
X72047Y128825D02*
D03*
X310870Y54091D02*
D03*
X162992Y163779D02*
D03*
X157874Y162598D02*
D03*
X155512Y157480D02*
D03*
X151575D02*
D03*
Y151575D02*
D03*
X276772Y100394D02*
D03*
X251181Y168504D02*
D03*
X190551Y135433D02*
D03*
X59759Y141360D02*
D03*
X22835Y33071D02*
D03*
Y25197D02*
D03*
X203543Y133396D02*
D03*
X203937Y129134D02*
D03*
X48819Y103543D02*
D03*
X53543D02*
D03*
X247638Y122047D02*
D03*
X199213Y96850D02*
D03*
X212148Y79034D02*
D03*
X226003Y182677D02*
D03*
X227703Y177018D02*
D03*
X258174Y179622D02*
D03*
X250000Y55118D02*
D03*
X263779D02*
D03*
X257087D02*
D03*
X244488Y17323D02*
D03*
X233071Y120472D02*
D03*
X48031Y5512D02*
D03*
X44094Y7480D02*
D03*
Y4331D02*
D03*
X237402Y244882D02*
D03*
X235433Y228346D02*
D03*
X274606Y144882D02*
D03*
X221457Y84842D02*
D03*
X212391Y90541D02*
D03*
X179724Y105709D02*
D03*
Y109646D02*
D03*
X118898Y110236D02*
D03*
X114961Y106299D02*
D03*
Y114173D02*
D03*
X67716Y164173D02*
D03*
X62992D02*
D03*
X58268D02*
D03*
X57874Y191339D02*
D03*
X65748D02*
D03*
X73622D02*
D03*
D158*
X53937Y124016D02*
D03*
X220208Y25787D02*
D03*
X214764Y69307D02*
D03*
X224798Y57082D02*
D03*
X219685Y173228D02*
D03*
X214764Y66339D02*
D03*
X277654Y156611D02*
D03*
Y154141D02*
D03*
D159*
X308071Y9252D02*
D03*
X313779Y36614D02*
D03*
X318898D02*
D03*
X261811Y226378D02*
D03*
X233858Y154331D02*
D03*
X54331Y150000D02*
D03*
X73228Y150394D02*
D03*
X80315D02*
D03*
X100000Y182283D02*
D03*
X112205Y189764D02*
D03*
X123622Y176772D02*
D03*
X132283D02*
D03*
X174803Y159449D02*
D03*
X164567Y126378D02*
D03*
X139370Y120866D02*
D03*
X180315Y90551D02*
D03*
X124016Y96457D02*
D03*
X266535Y20079D02*
D03*
X266142Y33071D02*
D03*
X238583Y39764D02*
D03*
X248819Y74803D02*
D03*
X276378D02*
D03*
Y90551D02*
D03*
X225984Y81890D02*
D03*
X175591Y116142D02*
D03*
X200000Y122441D02*
D03*
X218110Y154724D02*
D03*
Y146850D02*
D03*
X233858Y146063D02*
D03*
X258661Y128347D02*
D03*
X273622Y200787D02*
D03*
Y216535D02*
D03*
X197638Y172047D02*
D03*
X189764D02*
D03*
X206693Y197710D02*
D03*
X190945Y196457D02*
D03*
X212598Y208661D02*
D03*
Y220472D02*
D03*
X196850D02*
D03*
X234252Y249606D02*
D03*
X22835Y17323D02*
D03*
Y9449D02*
D03*
X65945Y18701D02*
D03*
D160*
X220472Y44094D02*
D03*
M02*
