M48
;Layer_Color=9474304
;FILE_FORMAT=2:5
INCH,LZ
;TYPE=PLATED
T1F00S00C0.00787
T2F00S00C0.01181
T3F00S00C0.01378
T4F00S00C0.01968
T5F00S00C0.03150
T6F00S00C0.03425
T7F00S00C0.03543
T8F00S00C0.03937
T10F00S00C0.04331
T12F00S00C0.05118
T13F00S00C0.06890
;TYPE=NON_PLATED
T14F00S00C0.08268
%
T01
X0059616Y005065
Y0057874
Y0065098
X0063228Y0061486
X006684Y0065098
Y0057874
X0063228Y0054262
X006684Y005065
X0070453Y0054262
Y0061486
X0056004
Y0054262
T02
X0220208Y0025787
X0220472Y0044094
X0224798Y0057082
X0214764Y0066339
Y0069307
X0219685Y0173228
X0277654Y0156611
Y0154141
X0053937Y0124016
T03
X0022835Y0009449
Y0017323
Y0025197
Y0033071
X0044094Y000748
Y0004331
X0048031Y0005512
X0065945Y0018701
X0244488Y0017323
X0266535Y0020079
X0266142Y0033071
X0308071Y0009252
X0313779Y0036614
X0318898
X031087Y0054091
X0263779Y0055118
X0257087
X025
X0248819Y0074803
X0276378
Y0090551
X0276772Y0100394
X0258661Y0128347
X0247638Y0122047
X0233071Y0120472
X0233858Y0146063
Y0154331
X021811Y0154724
Y014685
X0227703Y0177018
X0226003Y0182677
X0258174Y0179622
X0251181Y0168504
X0274606Y0144882
X0225984Y008189
X0221457Y0084842
X0238583Y0039764
X0212148Y0079034
X0212391Y0090541
X0199213Y009685
X0180315Y0090551
X0179724Y0105709
Y0109646
X0175591Y0116142
X0164567Y0126378
X013937Y0120866
X0118898Y0110236
X0114961Y0106299
Y0114173
X0124016Y0096457
X008248Y0128819
X007752Y0128701
X0072047Y0128825
X0073228Y0150394
X0080315
X0067716Y0164173
X0062992
X0058268
X0059759Y014136
X01Y0182283
X0112205Y0189764
X0123622Y0176772
X0132283
X0151575Y015748
X0155512
X0157874Y0162598
X0162992Y0163779
X0174803Y0159449
X0189764Y0172047
X0197638
X0190551Y0135433
X0203543Y0133396
X0203937Y0129134
X02Y0122441
X0151575Y0151575
X0054331Y015
X0053543Y0103543
X0048819
X0057874Y0191339
X0065748
X0073622
X0190945Y0196457
X0206693Y019771
X019685Y0220472
X0212598
Y0208661
X0235433Y0228346
X0237402Y0244882
X0234252Y0249606
X0261811Y0226378
X0273622Y0216535
Y0200787
T04
X0325591Y0111417
X0339706Y011143
X0339764Y0097244
T05
X0022441Y0109449
Y0129134
T06
X0274803Y0017717
Y0023622
Y0029528
X0297702Y0030387
Y0024481
Y0018576
Y0036292
Y0042198
Y0048103
X0274803Y0047244
Y0041339
Y0035433
T07
X009252Y0008268
X0104331
T08
X0126899Y0087529
X0140818Y0101448
X0034252Y0238189
X0014567
Y0281496
X0034252
X0074803Y0309055
X0153543
X0133858Y0230315
X0094488
T10
X0055512Y0346457
X0173622
T12
X0194055Y0253583
Y0293583
Y0323583
X0224055Y0313583
X0243661Y0323583
Y0293583
Y0253583
X0224055
X0273661
Y0313583
T13
X0023622Y0326614
Y0346614
X0199055Y034685
X0219055
X0248661
X0268661
T14
X0161024Y0013386
X0014173Y0177953
M30
