G04*
G04 #@! TF.GenerationSoftware,Altium Limited,Altium Designer,23.4.1 (23)*
G04*
G04 Layer_Color=4660084*
%FSLAX25Y25*%
%MOIN*%
G70*
G04*
G04 #@! TF.SameCoordinates,687DAE7F-2A6D-4925-9110-F28A9C07312E*
G04*
G04*
G04 #@! TF.FilePolarity,Positive*
G04*
G01*
G75*
%ADD16C,0.01181*%
%ADD178C,0.03937*%
D16*
X290748Y22736D02*
Y23327D01*
Y25000D02*
Y25591D01*
Y27362D02*
Y27953D01*
Y29724D02*
Y30315D01*
X287992Y29724D02*
Y30315D01*
Y27362D02*
Y27953D01*
Y25000D02*
Y25591D01*
Y22736D02*
Y23327D01*
X290748Y72047D02*
Y72638D01*
Y74311D02*
Y74902D01*
Y76673D02*
Y77264D01*
Y79036D02*
Y79626D01*
X287992Y79036D02*
Y79626D01*
Y76673D02*
Y77264D01*
Y74311D02*
Y74902D01*
Y72047D02*
Y72638D01*
X290748Y128347D02*
Y128937D01*
Y126083D02*
Y126673D01*
Y123721D02*
Y124311D01*
Y121358D02*
Y121949D01*
X287992Y121358D02*
Y121949D01*
Y123721D02*
Y124311D01*
Y126083D02*
Y126673D01*
Y128347D02*
Y128937D01*
D178*
X-1969Y26181D02*
X-1772Y96850D01*
X394Y96260D01*
X197Y26181D02*
X394Y96260D01*
X197Y26181D02*
X3150Y26378D01*
X2953Y96653D02*
X3150Y26378D01*
X2953Y96653D02*
X6299Y96850D01*
X6201Y26181D02*
X6299Y96850D01*
X6201Y26181D02*
X12008Y26772D01*
X11811Y96653D02*
X12008Y26772D01*
X-1772Y96850D02*
X14370D01*
Y26181D02*
Y96850D01*
X-1969Y26181D02*
X14370D01*
X-1772Y96850D02*
X9646D01*
X-1959Y97038D02*
X-1772Y96850D01*
X-1959Y97038D02*
Y372047D01*
X289370D01*
Y151575D02*
Y372047D01*
X-1378Y-1969D02*
X379921D01*
X-1969Y-1378D02*
X-1378Y-1969D01*
X-1969Y-1378D02*
Y26181D01*
X379921Y151575D02*
X379921Y-1969D01*
X289370Y151575D02*
X379921D01*
X9646Y96850D02*
X9843Y26181D01*
X-1969D02*
X9843D01*
X289370Y-1575D02*
Y19193D01*
Y33858D02*
Y51181D01*
Y68504D01*
Y83169D02*
Y100492D01*
Y117815D01*
Y132480D02*
Y151575D01*
M02*
