G04*
G04 #@! TF.GenerationSoftware,Altium Limited,Altium Designer,23.4.1 (23)*
G04*
G04 Layer_Physical_Order=3*
G04 Layer_Color=128*
%FSLAX25Y25*%
%MOIN*%
G70*
G04*
G04 #@! TF.SameCoordinates,687DAE7F-2A6D-4925-9110-F28A9C07312E*
G04*
G04*
G04 #@! TF.FilePolarity,Negative*
G04*
G01*
G75*
%ADD110C,0.03000*%
%ADD127C,0.05000*%
%ADD128C,0.04000*%
%ADD135R,0.23622X0.74803*%
%ADD136R,1.37795X1.57480*%
%ADD137R,2.87402X0.76772*%
%ADD138R,1.08268X0.35433*%
%ADD139C,0.09425*%
%ADD140C,0.11118*%
%ADD141C,0.14268*%
%ADD146C,0.09150*%
%ADD147C,0.07969*%
%ADD149C,0.09543*%
%ADD153C,0.09937*%
%ADD155C,0.12890*%
%ADD156C,0.10331*%
%ADD157C,0.07378*%
%ADD158C,0.07181*%
G04:AMPARAMS|DCode=159|XSize=63.779mil|YSize=63.779mil|CornerRadius=0mil|HoleSize=0mil|Usage=FLASHONLY|Rotation=0.000|XOffset=0mil|YOffset=0mil|HoleType=Round|Shape=Relief|Width=15mil|Gap=10mil|Entries=4|*
%AMTHD159*
7,0,0,0.06378,0.04378,0.01500,45*
%
%ADD159THD159*%
G04:AMPARAMS|DCode=160|XSize=61.811mil|YSize=61.811mil|CornerRadius=0mil|HoleSize=0mil|Usage=FLASHONLY|Rotation=0.000|XOffset=0mil|YOffset=0mil|HoleType=Round|Shape=Relief|Width=15mil|Gap=10mil|Entries=4|*
%AMTHD160*
7,0,0,0.06181,0.04181,0.01500,45*
%
%ADD160THD160*%
%ADD161C,0.02200*%
G04:AMPARAMS|DCode=162|XSize=84.252mil|YSize=84.252mil|CornerRadius=0mil|HoleSize=0mil|Usage=FLASHONLY|Rotation=0.000|XOffset=0mil|YOffset=0mil|HoleType=Round|Shape=Relief|Width=15mil|Gap=10mil|Entries=4|*
%AMTHD162*
7,0,0,0.08425,0.06425,0.01500,45*
%
%ADD162THD162*%
G04:AMPARAMS|DCode=163|XSize=101.181mil|YSize=101.181mil|CornerRadius=0mil|HoleSize=0mil|Usage=FLASHONLY|Rotation=0.000|XOffset=0mil|YOffset=0mil|HoleType=Round|Shape=Relief|Width=15mil|Gap=10mil|Entries=4|*
%AMTHD163*
7,0,0,0.10118,0.08118,0.01500,45*
%
%ADD163THD163*%
%ADD164O,0.09937X0.17811*%
%ADD165O,0.17811X0.10724*%
%AMTHOVALD166*
21,1,0.01181,0.09724,0,0,270.0*
1,1,0.09724,0.00000,0.00591*
1,1,0.09724,0.00000,-0.00591*
21,0,0.01181,0.07724,0,0,270.0*
1,0,0.07724,0.00000,0.00591*
1,0,0.07724,0.00000,-0.00591*
4,0,4,-0.00530,0.00060,-0.03968,0.03498,-0.02908,0.04559,0.00530,0.01121,-0.00530,0.00060,0.0*
4,0,4,-0.00530,-0.01121,0.02908,-0.04559,0.03968,-0.03498,0.00530,-0.00060,-0.00530,-0.01121,0.0*
4,0,4,-0.00530,0.01121,0.02908,0.04559,0.03968,0.03498,0.00530,0.00060,-0.00530,0.01121,0.0*
4,0,4,-0.00530,-0.00060,-0.03968,-0.03498,-0.02908,-0.04559,0.00530,-0.01121,-0.00530,-0.00060,0.0*
%
%ADD166THOVALD166*%

%ADD167C,0.06787*%
%ADD168O,0.17811X0.09937*%
%ADD169O,0.10724X0.17811*%
%AMTHOVALD170*
21,1,0.01181,0.09724,0,0,0.0*
1,1,0.09724,-0.00591,0.00000*
1,1,0.09724,0.00591,0.00000*
21,0,0.01181,0.07724,0,0,0.0*
1,0,0.07724,-0.00591,0.00000*
1,0,0.07724,0.00591,0.00000*
4,0,4,-0.00060,-0.00530,-0.03498,-0.03968,-0.04559,-0.02908,-0.01121,0.00530,-0.00060,-0.00530,0.0*
4,0,4,0.01121,-0.00530,0.04559,0.02908,0.03498,0.03968,0.00060,0.00530,0.01121,-0.00530,0.0*
4,0,4,-0.01121,-0.00530,-0.04559,0.02908,-0.03498,0.03968,-0.00060,0.00530,-0.01121,-0.00530,0.0*
4,0,4,0.00060,-0.00530,0.03498,-0.03968,0.04559,-0.02908,0.01121,0.00530,0.00060,-0.00530,0.0*
%
%ADD170THOVALD170*%

D110*
X108268Y122047D02*
X116142D01*
X96457Y108268D02*
X108268Y122047D01*
X96457Y61024D02*
Y108268D01*
Y61024D02*
X114173Y43307D01*
X161417D01*
X169291Y51181D01*
Y64961D01*
X161417Y72835D02*
X169291Y64961D01*
X114173Y72835D02*
X161417D01*
X114173D02*
Y96457D01*
X127953Y108268D01*
X122047Y122047D02*
X127953Y108268D01*
X110236Y122047D02*
X122047D01*
D127*
X285433Y269685D02*
X287402Y0D01*
X283465Y234252D02*
Y267717D01*
X285433Y0D02*
Y269685D01*
D128*
X0Y0D02*
X377953D01*
Y149606D01*
X287402D02*
X377953D01*
X287402D02*
Y370079D01*
X0D02*
X287402D01*
X0Y0D02*
Y370079D01*
D135*
X11811Y61024D02*
D03*
D136*
X112205Y291339D02*
D03*
D137*
X143701Y329724D02*
D03*
D138*
X233268Y283465D02*
D03*
D139*
X297702Y18576D02*
D03*
Y24481D02*
D03*
Y30387D02*
D03*
Y36292D02*
D03*
Y42198D02*
D03*
X274803Y17717D02*
D03*
Y23622D02*
D03*
Y29528D02*
D03*
Y35433D02*
D03*
Y41339D02*
D03*
D140*
X194055Y323583D02*
D03*
Y293583D02*
D03*
X224055Y313583D02*
D03*
Y253583D02*
D03*
X243661Y323583D02*
D03*
Y293583D02*
D03*
X273661Y313583D02*
D03*
X243661Y253583D02*
D03*
D141*
X14173Y177953D02*
D03*
X161024Y13386D02*
D03*
D146*
X22441Y129134D02*
D03*
Y109449D02*
D03*
D147*
X339706Y111430D02*
D03*
X325591Y111417D02*
D03*
X339764Y97244D02*
D03*
D149*
X104331Y8268D02*
D03*
X92520D02*
D03*
D153*
X140818Y101448D02*
D03*
X126899Y87529D02*
D03*
X34252Y238189D02*
D03*
X14567D02*
D03*
Y281496D02*
D03*
X34252D02*
D03*
X153543Y309055D02*
D03*
X74803D02*
D03*
X133858Y230315D02*
D03*
X94488D02*
D03*
D155*
X248661Y346850D02*
D03*
X268661D02*
D03*
X199055D02*
D03*
X219055D02*
D03*
X23622Y346614D02*
D03*
Y326614D02*
D03*
D156*
X55512Y346457D02*
D03*
X173622D02*
D03*
D157*
X82480Y128819D02*
D03*
X310870Y54091D02*
D03*
X308071Y9252D02*
D03*
X313779Y36614D02*
D03*
X318898D02*
D03*
X261811Y226378D02*
D03*
X233858Y154331D02*
D03*
X54331Y150000D02*
D03*
X73228Y150394D02*
D03*
X80315D02*
D03*
X100000Y182283D02*
D03*
X112205Y189764D02*
D03*
X123622Y176772D02*
D03*
X132283D02*
D03*
X174803Y159449D02*
D03*
X164567Y126378D02*
D03*
X139370Y120866D02*
D03*
X180315Y90551D02*
D03*
X124016Y96457D02*
D03*
X266535Y20079D02*
D03*
X266142Y33071D02*
D03*
X238583Y39764D02*
D03*
X248819Y74803D02*
D03*
X276378D02*
D03*
Y90551D02*
D03*
X225984Y81890D02*
D03*
X175591Y116142D02*
D03*
X200000Y122441D02*
D03*
X218110Y154724D02*
D03*
Y146850D02*
D03*
X233858Y146063D02*
D03*
X258661Y128347D02*
D03*
X273622Y200787D02*
D03*
Y216535D02*
D03*
X197638Y172047D02*
D03*
X189764D02*
D03*
X206693Y197710D02*
D03*
X190945Y196457D02*
D03*
X212598Y208661D02*
D03*
Y220472D02*
D03*
X196850D02*
D03*
X234252Y249606D02*
D03*
X59759Y141360D02*
D03*
X22835Y33071D02*
D03*
Y25197D02*
D03*
Y17323D02*
D03*
Y9449D02*
D03*
X65945Y18701D02*
D03*
X203543Y133396D02*
D03*
X203937Y129134D02*
D03*
X48819Y103543D02*
D03*
X53543D02*
D03*
X226003Y182677D02*
D03*
X227703Y177018D02*
D03*
X244488Y17323D02*
D03*
X233071Y120472D02*
D03*
X237402Y244882D02*
D03*
X235433Y228346D02*
D03*
X274606Y144882D02*
D03*
X221457Y84842D02*
D03*
X212391Y90541D02*
D03*
D158*
X53937Y124016D02*
D03*
X220472Y44094D02*
D03*
X214764Y69307D02*
D03*
X224798Y57082D02*
D03*
X219685Y173228D02*
D03*
X214764Y66339D02*
D03*
X277654Y156611D02*
D03*
Y154141D02*
D03*
D159*
X77520Y128701D02*
D03*
X72047Y128825D02*
D03*
X162992Y163779D02*
D03*
X157874Y162598D02*
D03*
X155512Y157480D02*
D03*
X151575D02*
D03*
Y151575D02*
D03*
X276772Y100394D02*
D03*
X251181Y168504D02*
D03*
X190551Y135433D02*
D03*
X247638Y122047D02*
D03*
X199213Y96850D02*
D03*
X212148Y79034D02*
D03*
X258174Y179622D02*
D03*
X250000Y55118D02*
D03*
X263779D02*
D03*
X257087D02*
D03*
X48031Y5512D02*
D03*
X44094Y7480D02*
D03*
Y4331D02*
D03*
X179724Y105709D02*
D03*
Y109646D02*
D03*
X118898Y110236D02*
D03*
X114961Y106299D02*
D03*
Y114173D02*
D03*
X67716Y164173D02*
D03*
X62992D02*
D03*
X58268D02*
D03*
X57874Y191339D02*
D03*
X65748D02*
D03*
X73622D02*
D03*
D160*
X220208Y25787D02*
D03*
D161*
X263779Y244094D02*
Y253937D01*
X261811Y242126D02*
X263779Y244094D01*
X255906Y242126D02*
X261811D01*
X157480Y173228D02*
X200131Y215879D01*
X210630Y226378D01*
X224410D01*
X239501D01*
X272793D02*
X281496Y235081D01*
X263779Y226378D02*
X272793D01*
X239501D02*
X263779D01*
X208661Y253937D02*
X220472Y242126D01*
X80709Y151575D02*
Y173228D01*
X157480D01*
X281496Y235081D02*
Y261811D01*
X269685D02*
X281496D01*
X263779Y253937D02*
X269685Y261811D01*
X220472Y242126D02*
X255906D01*
X198819Y263779D02*
X208661Y253937D01*
X194882Y263779D02*
X198819D01*
X185281Y257669D02*
X191392Y263779D01*
X194882D01*
X184852Y216073D02*
X185281Y257669D01*
X162458Y194479D02*
X184852Y216073D01*
X80709Y194882D02*
X162458Y194479D01*
X66929Y129921D02*
Y147638D01*
Y129921D02*
X72835Y124016D01*
X80709D01*
X72835Y202756D02*
X80709Y194882D01*
Y151575D02*
X86614Y145669D01*
Y129921D02*
Y145669D01*
X80709Y124016D02*
X86614Y129921D01*
X45276Y171260D02*
X66929Y147638D01*
X45276Y171260D02*
Y194882D01*
X53150Y202756D01*
X72835D01*
D162*
X297702Y48103D02*
D03*
X274803Y47244D02*
D03*
D163*
X194055Y253583D02*
D03*
X273661D02*
D03*
D164*
X31890Y177953D02*
D03*
D165*
X44488Y159055D02*
D03*
D166*
X56693Y182283D02*
D03*
D167*
X56004Y54262D02*
D03*
Y61486D02*
D03*
X59616Y50650D02*
D03*
Y57874D02*
D03*
Y65098D02*
D03*
X63228Y54262D02*
D03*
Y61486D02*
D03*
X66840Y50650D02*
D03*
Y57874D02*
D03*
Y65098D02*
D03*
X70453Y54262D02*
D03*
Y61486D02*
D03*
D168*
X161024Y31102D02*
D03*
D169*
X179921Y43701D02*
D03*
D170*
X156693Y55905D02*
D03*
M02*
