G04*
G04 #@! TF.GenerationSoftware,Altium Limited,Altium Designer,23.4.1 (23)*
G04*
G04 Layer_Physical_Order=4*
G04 Layer_Color=16711680*
%FSLAX25Y25*%
%MOIN*%
G70*
G04*
G04 #@! TF.SameCoordinates,687DAE7F-2A6D-4925-9110-F28A9C07312E*
G04*
G04*
G04 #@! TF.FilePolarity,Positive*
G04*
G01*
G75*
%ADD12C,0.01000*%
%ADD44R,0.04331X0.02362*%
%ADD63C,0.08268*%
%ADD69R,0.02756X0.05118*%
%ADD70R,0.03800X0.03100*%
%ADD71R,0.05118X0.02756*%
%ADD75R,0.03100X0.03800*%
%ADD103C,0.01500*%
%ADD104C,0.02000*%
%ADD105C,0.02500*%
%ADD106C,0.01100*%
%ADD107C,0.00800*%
%ADD108C,0.01200*%
%ADD109C,0.01470*%
%ADD110C,0.03000*%
%ADD112C,0.07000*%
%ADD114O,0.06693X0.04724*%
%ADD115C,0.09843*%
%ADD116O,0.07874X0.15748*%
%ADD117O,0.15748X0.07874*%
%ADD118O,0.07087X0.14173*%
%ADD119C,0.01181*%
%ADD120C,0.07874*%
%ADD121C,0.03937*%
%ADD122O,0.14173X0.07087*%
%ADD123C,0.11811*%
%ADD124C,0.02362*%
%ADD125C,0.01968*%
%ADD126C,0.01772*%
%ADD127C,0.05000*%
%ADD171R,0.06299X0.03543*%
%ADD172R,0.04646X0.02284*%
%ADD173R,0.03543X0.06299*%
G36*
X272924Y169185D02*
Y146110D01*
X272646Y145694D01*
X272484Y144882D01*
X272646Y144070D01*
X273106Y143382D01*
X273794Y142921D01*
X274606Y142760D01*
X275418Y142921D01*
X276107Y143382D01*
X276567Y144070D01*
X276728Y144882D01*
X276567Y145694D01*
X276289Y146110D01*
Y152304D01*
X276789Y152571D01*
X276957Y152459D01*
X277654Y152320D01*
X278351Y152459D01*
X278374Y152474D01*
X280115D01*
Y134982D01*
Y134047D01*
X278414Y132346D01*
X277816Y132943D01*
X277816Y132943D01*
X277816Y132943D01*
X277725Y133004D01*
X277212Y133398D01*
X276514Y133687D01*
X275764Y133786D01*
X275015Y133687D01*
X274317Y133398D01*
X273804Y133004D01*
X273713Y132943D01*
X273651Y132851D01*
X273258Y132338D01*
X272969Y131640D01*
X272870Y130891D01*
X272969Y130142D01*
X273258Y129444D01*
X273651Y128931D01*
X273713Y128839D01*
X274310Y128242D01*
X273930Y127862D01*
X228541Y82474D01*
X228063Y82619D01*
X228039Y82741D01*
X227557Y83462D01*
X226835Y83944D01*
X226732Y83965D01*
X226587Y84443D01*
X234116Y91973D01*
X234437Y92453D01*
X234549Y93019D01*
Y118957D01*
X234571Y118972D01*
X235031Y119660D01*
X235193Y120472D01*
X235031Y121284D01*
X234571Y121973D01*
X233883Y122433D01*
X233071Y122594D01*
X232259Y122433D01*
X231571Y121973D01*
X231111Y121284D01*
X230949Y120472D01*
X231111Y119660D01*
X231571Y118972D01*
X231592Y118957D01*
Y93631D01*
X229224Y91262D01*
X228762Y91454D01*
Y175223D01*
X229204Y175518D01*
X229663Y176206D01*
X229825Y177018D01*
X229663Y177830D01*
X229204Y178518D01*
X228515Y178979D01*
X227703Y179140D01*
X226891Y178979D01*
X226203Y178518D01*
X225943Y178130D01*
X225443Y178282D01*
Y180098D01*
X225917Y180572D01*
X226003Y180555D01*
X226815Y180717D01*
X227503Y181177D01*
X227963Y181865D01*
X228125Y182677D01*
X227963Y183489D01*
X227503Y184178D01*
X226815Y184637D01*
X226003Y184799D01*
X225191Y184637D01*
X224503Y184178D01*
X224043Y183489D01*
X223881Y182677D01*
X223898Y182591D01*
X223006Y181699D01*
X222697Y181236D01*
X222588Y180690D01*
X222588Y180690D01*
Y172885D01*
X222517Y172831D01*
X222088Y172700D01*
X221599Y173189D01*
X221606Y173228D01*
X221460Y173964D01*
X221043Y174587D01*
X220420Y175003D01*
X219685Y175150D01*
X218950Y175003D01*
X218327Y174587D01*
X217910Y173964D01*
X217764Y173228D01*
X217910Y172493D01*
X218327Y171870D01*
X218950Y171453D01*
X219685Y171307D01*
X219934Y170900D01*
Y156730D01*
X219434Y156463D01*
X218961Y156779D01*
X218860Y156799D01*
Y154724D01*
Y152650D01*
X218961Y152670D01*
X219434Y152986D01*
X219934Y152719D01*
Y148856D01*
X219434Y148589D01*
X218961Y148905D01*
X218860Y148925D01*
Y146850D01*
Y144776D01*
X218961Y144796D01*
X219434Y145112D01*
X219934Y144845D01*
Y113541D01*
X202606Y96213D01*
X202319Y95783D01*
X202218Y95276D01*
Y66929D01*
X202319Y66422D01*
X202606Y65992D01*
X210086Y58512D01*
X210516Y58224D01*
X211024Y58123D01*
X222676D01*
X223009Y57748D01*
X222877Y57082D01*
X223023Y56346D01*
X223440Y55723D01*
X224063Y55307D01*
X224798Y55160D01*
X225533Y55307D01*
X226157Y55723D01*
X226573Y56346D01*
X226719Y57082D01*
X226573Y57817D01*
X226157Y58440D01*
X225750Y58711D01*
X225512Y59069D01*
X224838Y59743D01*
X225029Y60205D01*
X227075D01*
X258797Y28482D01*
X259277Y28162D01*
X259842Y28049D01*
X270900D01*
X270969Y27882D01*
X271492Y27201D01*
X271911Y26880D01*
Y26270D01*
X271492Y25949D01*
X270969Y25267D01*
X270641Y24474D01*
X270529Y23622D01*
X270641Y22770D01*
X270969Y21977D01*
X271492Y21295D01*
X271772Y21081D01*
X271804Y21012D01*
X271773Y20450D01*
X270182Y19115D01*
X270162Y19090D01*
X270136Y19073D01*
X270076Y18982D01*
X270008Y18898D01*
X269999Y18868D01*
X269981Y18841D01*
X269960Y18735D01*
X269930Y18630D01*
X269933Y18599D01*
X269927Y18568D01*
Y16865D01*
X269942Y16791D01*
X269943Y16715D01*
X269969Y16656D01*
X269981Y16592D01*
X270023Y16529D01*
X270053Y16459D01*
X270100Y16414D01*
X270136Y16360D01*
X270199Y16318D01*
X270253Y16266D01*
X271379Y15538D01*
X271492Y15390D01*
X272174Y14867D01*
X272848Y14588D01*
X274416Y13574D01*
X274535Y13526D01*
X274653Y13475D01*
X274664Y13475D01*
X274674Y13471D01*
X274803Y13473D01*
X274932Y13471D01*
X274942Y13475D01*
X274953Y13475D01*
X275071Y13526D01*
X275191Y13574D01*
X276759Y14588D01*
X277433Y14867D01*
X278114Y15390D01*
X278227Y15538D01*
X279353Y16266D01*
X279407Y16318D01*
X279470Y16360D01*
X279506Y16414D01*
X279553Y16459D01*
X279583Y16529D01*
X279625Y16592D01*
X279638Y16656D01*
X279663Y16715D01*
X279665Y16791D01*
X279679Y16865D01*
Y18568D01*
X279667Y18632D01*
X279667Y18698D01*
X279640Y18767D01*
X279625Y18841D01*
X279589Y18896D01*
X279564Y18956D01*
X279512Y19010D01*
X279470Y19073D01*
X279416Y19109D01*
X279370Y19156D01*
X278150Y19996D01*
X278114Y20043D01*
X277695Y20365D01*
Y20974D01*
X278114Y21295D01*
X278637Y21977D01*
X278966Y22770D01*
X279078Y23622D01*
X278966Y24474D01*
X278637Y25267D01*
X278114Y25949D01*
X277695Y26270D01*
Y26880D01*
X278114Y27201D01*
X278637Y27882D01*
X278966Y28676D01*
X279078Y29528D01*
X278966Y30379D01*
X278637Y31173D01*
X278114Y31854D01*
X277695Y32176D01*
Y32785D01*
X278114Y33106D01*
X278637Y33788D01*
X278966Y34582D01*
X279078Y35433D01*
X278966Y36285D01*
X278637Y37078D01*
X278114Y37760D01*
X277791Y38008D01*
Y38638D01*
X278185Y38941D01*
X278724Y39643D01*
X279063Y40461D01*
X279080Y40589D01*
X274803D01*
X270526D01*
X270543Y40461D01*
X270882Y39643D01*
X271421Y38941D01*
X271815Y38638D01*
Y38008D01*
X271492Y37760D01*
X270969Y37078D01*
X270641Y36285D01*
X270529Y35433D01*
X270641Y34582D01*
X270969Y33788D01*
X271492Y33106D01*
X271911Y32785D01*
Y32176D01*
X271492Y31854D01*
X270969Y31173D01*
X270900Y31006D01*
X267877D01*
X267714Y31498D01*
X268196Y32220D01*
X268216Y32321D01*
X264067D01*
X264087Y32220D01*
X264569Y31498D01*
X264406Y31006D01*
X260455D01*
X228732Y62729D01*
X228253Y63049D01*
X227687Y63161D01*
X216872D01*
X215842Y64192D01*
X215905Y64835D01*
X216034Y64921D01*
X218506D01*
X219144Y65048D01*
X219685Y65409D01*
X283003Y128727D01*
X283465Y128536D01*
Y1969D01*
X45205D01*
X45053Y2468D01*
X45595Y2830D01*
X46055Y3519D01*
X46102Y3754D01*
X46241Y3837D01*
X46647Y3934D01*
X47219Y3551D01*
X48031Y3390D01*
X48844Y3551D01*
X49532Y4011D01*
X49992Y4700D01*
X50153Y5512D01*
X49992Y6324D01*
X49532Y7012D01*
X48844Y7472D01*
X48031Y7634D01*
X47219Y7472D01*
X46649Y7091D01*
X46217Y7311D01*
X46188Y7339D01*
X46216Y7480D01*
X46055Y8292D01*
X45595Y8981D01*
X44906Y9441D01*
X44094Y9602D01*
X43282Y9441D01*
X42594Y8981D01*
X42134Y8292D01*
X41973Y7480D01*
X42134Y6668D01*
X42385Y6293D01*
X42560Y5906D01*
X42385Y5518D01*
X42134Y5143D01*
X41973Y4331D01*
X42134Y3519D01*
X42594Y2830D01*
X43136Y2468D01*
X42984Y1969D01*
X21654D01*
X19685Y3937D01*
Y19685D01*
X18405Y20950D01*
X18334Y31777D01*
X18851Y32830D01*
X47437Y54552D01*
X48150Y55989D01*
Y74368D01*
X49372Y75595D01*
X75607Y75689D01*
X78347Y73071D01*
X78500Y45790D01*
X84664Y40787D01*
X108262D01*
X110236Y42864D01*
Y98425D01*
X108268Y100394D01*
X64961Y100394D01*
X50691Y114663D01*
Y124191D01*
X52127Y125627D01*
X52515Y125308D01*
X52355Y125068D01*
X52147Y124757D01*
X52000Y124016D01*
X52147Y123274D01*
X52567Y122646D01*
X53263Y121950D01*
X53263Y121950D01*
X66347Y108866D01*
X66975Y108447D01*
X67716Y108299D01*
X67717Y108299D01*
X100534D01*
X102436Y106397D01*
Y103150D01*
X102490Y102876D01*
X102645Y102645D01*
X103826Y101464D01*
X104058Y101309D01*
X104331Y101255D01*
X109941D01*
X111531Y99664D01*
Y78347D01*
X111648Y77459D01*
X111991Y76632D01*
X112536Y75922D01*
X134977Y53481D01*
X135687Y52936D01*
X136514Y52593D01*
X137402Y52476D01*
X147302D01*
X150283Y49495D01*
X150514Y49341D01*
X150787Y49286D01*
X162598D01*
X162652Y49297D01*
X162707Y49295D01*
X162787Y49324D01*
X162872Y49341D01*
X162917Y49371D01*
X162969Y49390D01*
X163032Y49448D01*
X163103Y49495D01*
X163134Y49541D01*
X163174Y49578D01*
X166207Y53713D01*
X194872D01*
X195052Y53533D01*
Y8661D01*
X195219Y7823D01*
X195694Y7111D01*
X198450Y4355D01*
X199161Y3880D01*
X200000Y3713D01*
X243024D01*
X243863Y3880D01*
X244574Y4355D01*
X246038Y5820D01*
X246513Y6531D01*
X246680Y7370D01*
Y17323D01*
X246513Y18162D01*
X246038Y18873D01*
X245327Y19348D01*
X244488Y19515D01*
X243649Y19348D01*
X242938Y18873D01*
X242463Y18162D01*
X242296Y17323D01*
Y8278D01*
X242116Y8098D01*
X200908D01*
X199436Y9569D01*
Y54441D01*
X199269Y55280D01*
X198794Y55991D01*
X197330Y57456D01*
X196618Y57931D01*
X195780Y58098D01*
X166068D01*
X162365Y62655D01*
X162336Y62678D01*
X162316Y62709D01*
X162230Y62767D01*
X162151Y62832D01*
X162115Y62843D01*
X162084Y62864D01*
X161983Y62884D01*
X161884Y62915D01*
X161847Y62911D01*
X161811Y62918D01*
X150787D01*
X150662Y62893D01*
X150536Y62873D01*
X150526Y62866D01*
X150514Y62864D01*
X150408Y62793D01*
X150299Y62725D01*
X146683Y59335D01*
X138822D01*
X118390Y79767D01*
Y100058D01*
X119587Y101255D01*
X127165D01*
X127438Y101309D01*
X127670Y101464D01*
X128457Y102251D01*
X128612Y102483D01*
X128666Y102756D01*
Y116142D01*
X128612Y116415D01*
X128457Y116646D01*
X127276Y117827D01*
X127045Y117982D01*
X126772Y118036D01*
X103937D01*
X103664Y117982D01*
X103432Y117827D01*
X102645Y117040D01*
X102490Y116809D01*
X102436Y116535D01*
Y113681D01*
X100928Y112173D01*
X68519D01*
X56003Y124690D01*
X56003Y124690D01*
X55307Y125386D01*
X54678Y125805D01*
X53937Y125953D01*
X53196Y125805D01*
X52645Y125437D01*
X52326Y125826D01*
X58093Y131593D01*
X180884D01*
X182813Y129663D01*
X183292Y129343D01*
X183858Y129230D01*
X194488D01*
X195054Y129343D01*
X195534Y129663D01*
X197788Y131917D01*
X202028D01*
X202043Y131895D01*
X202731Y131435D01*
X202735Y131435D01*
X202840Y130904D01*
X202437Y130634D01*
X201977Y129946D01*
X201815Y129134D01*
X201977Y128322D01*
X202437Y127634D01*
X203125Y127173D01*
X203937Y127012D01*
X204749Y127173D01*
X205437Y127634D01*
X205613Y127897D01*
X209440D01*
X210005Y128009D01*
X210485Y128330D01*
X211129Y128974D01*
X211450Y129454D01*
X211562Y130020D01*
Y134404D01*
X211450Y134970D01*
X211129Y135450D01*
X206557Y140022D01*
X206078Y140342D01*
X205512Y140455D01*
X62211D01*
X61801Y140955D01*
X61817Y141039D01*
X70657Y149879D01*
X71136Y149734D01*
X71174Y149543D01*
X71656Y148821D01*
X72377Y148339D01*
X72478Y148319D01*
Y150394D01*
X73228D01*
Y151144D01*
X75303D01*
X75283Y151245D01*
X74801Y151966D01*
X74528Y152148D01*
X74680Y152648D01*
X78864D01*
X79015Y152148D01*
X78742Y151966D01*
X78260Y151245D01*
X78240Y151144D01*
X82390D01*
X82370Y151245D01*
X81888Y151966D01*
X81615Y152148D01*
X81766Y152648D01*
X149234D01*
X149567Y152148D01*
X149453Y151575D01*
X149615Y150763D01*
X150074Y150074D01*
X150763Y149615D01*
X151575Y149453D01*
X152387Y149615D01*
X153075Y150074D01*
X153535Y150763D01*
X153697Y151575D01*
X153583Y152148D01*
X153916Y152648D01*
X165354D01*
X165998Y152776D01*
X166544Y153141D01*
X172249Y158847D01*
X172728Y158702D01*
X172749Y158598D01*
X173231Y157876D01*
X173952Y157394D01*
X174053Y157374D01*
Y159449D01*
X174803D01*
Y160199D01*
X176878D01*
X176858Y160300D01*
X176376Y161021D01*
X175654Y161503D01*
X175550Y161524D01*
X175405Y162003D01*
X206799Y193396D01*
X248713D01*
X272924Y169185D01*
D02*
G37*
G36*
X21654Y285433D02*
Y232283D01*
X43307Y210630D01*
Y194882D01*
X141732D01*
X179134Y232283D01*
X232986D01*
Y228346D01*
X233172Y227410D01*
X233703Y226616D01*
X234497Y226086D01*
X235433Y225899D01*
X236369Y226086D01*
X237163Y226616D01*
X237694Y227410D01*
X237880Y228346D01*
Y232283D01*
X271654D01*
X281519Y232260D01*
X283465Y230315D01*
Y158138D01*
X282965Y157923D01*
X282582Y158179D01*
X281944Y158306D01*
X278286D01*
X277654Y158431D01*
X276957Y158293D01*
X276789Y158180D01*
X276289Y158448D01*
Y169882D01*
X276161Y170526D01*
X275796Y171072D01*
X250599Y196268D01*
X250053Y196633D01*
X249409Y196761D01*
X209238D01*
X209075Y196960D01*
X204618D01*
X204638Y196859D01*
X204996Y196324D01*
X204913Y196268D01*
X164657Y156013D01*
X157565D01*
X157329Y156454D01*
X157472Y156668D01*
X157634Y157480D01*
X157472Y158292D01*
X157012Y158981D01*
X156324Y159441D01*
X155512Y159602D01*
X154700Y159441D01*
X154011Y158981D01*
X153844Y158730D01*
X153243D01*
X153075Y158981D01*
X152387Y159441D01*
X151575Y159602D01*
X150763Y159441D01*
X150074Y158981D01*
X149615Y158292D01*
X149453Y157480D01*
X149615Y156668D01*
X149758Y156454D01*
X149522Y156013D01*
X72730D01*
X72086Y155885D01*
X71540Y155520D01*
X59438Y143418D01*
X58947Y143321D01*
X58259Y142861D01*
X57799Y142172D01*
X57638Y141360D01*
X57799Y140548D01*
X58259Y139860D01*
X58393Y139770D01*
X58442Y139273D01*
X45805Y126636D01*
X45615Y126352D01*
X45028Y126231D01*
X33465Y137795D01*
X17717D01*
X5906Y149606D01*
Y285433D01*
X9843Y289370D01*
X17717D01*
X21654Y285433D01*
D02*
G37*
G36*
X208606Y133792D02*
Y130854D01*
X205109D01*
X204749Y131094D01*
X204746Y131095D01*
X204640Y131626D01*
X205044Y131895D01*
X205504Y132584D01*
X205665Y133396D01*
X205504Y134208D01*
X205044Y134896D01*
X204355Y135356D01*
X203543Y135518D01*
X202731Y135356D01*
X202043Y134896D01*
X202028Y134874D01*
X197175D01*
X196609Y134762D01*
X196130Y134441D01*
X193876Y132187D01*
X184471D01*
X182542Y134116D01*
X182062Y134437D01*
X181496Y134549D01*
X58553D01*
X58362Y135011D01*
X60849Y137498D01*
X188996D01*
X189147Y136998D01*
X189051Y136934D01*
X188591Y136245D01*
X188429Y135433D01*
X188591Y134621D01*
X189051Y133933D01*
X189739Y133473D01*
X190551Y133311D01*
X191363Y133473D01*
X192052Y133933D01*
X192511Y134621D01*
X192673Y135433D01*
X192511Y136245D01*
X192052Y136934D01*
X191955Y136998D01*
X192107Y137498D01*
X204899D01*
X208606Y133792D01*
D02*
G37*
G36*
X127953Y116142D02*
Y102756D01*
X127165Y101969D01*
X119291D01*
X114961Y97638D01*
X114567D01*
X110236Y101969D01*
X104331D01*
X103150Y103150D01*
Y106693D01*
X99803Y110039D01*
X103150Y113386D01*
Y116535D01*
X103937Y117323D01*
X126772D01*
X127953Y116142D01*
D02*
G37*
G36*
X222517Y111814D02*
X222588Y111761D01*
Y102757D01*
X212477Y92646D01*
X212391Y92663D01*
X211579Y92501D01*
X210891Y92041D01*
X210431Y91353D01*
X210269Y90541D01*
X210431Y89729D01*
X210891Y89040D01*
X211579Y88580D01*
X212391Y88419D01*
X213203Y88580D01*
X213892Y89040D01*
X214352Y89729D01*
X214513Y90541D01*
X214496Y90627D01*
X225025Y101156D01*
X225025Y101156D01*
X225335Y101619D01*
X225407Y101984D01*
X225907Y101935D01*
Y91312D01*
X221543Y86947D01*
X221457Y86964D01*
X220645Y86803D01*
X219956Y86343D01*
X219496Y85654D01*
X219335Y84842D01*
X219496Y84030D01*
X219956Y83342D01*
X220340Y83086D01*
X220418Y82456D01*
X211484Y73523D01*
X211164Y73043D01*
X211051Y72477D01*
Y65413D01*
X211164Y64847D01*
X211484Y64368D01*
X214616Y61236D01*
X214424Y60774D01*
X211573D01*
X204869Y67478D01*
Y94727D01*
X222088Y111946D01*
X222517Y111814D01*
D02*
G37*
G36*
X223909Y81142D02*
X223930Y81039D01*
X224412Y80317D01*
X225133Y79835D01*
X225255Y79811D01*
X225400Y79333D01*
X216792Y70725D01*
X215857D01*
X215461Y70989D01*
X214764Y71128D01*
X214508Y71077D01*
X214107Y71406D01*
X214089Y71946D01*
X223431Y81288D01*
X223909Y81142D01*
D02*
G37*
G36*
X166929Y55905D02*
X162598Y50000D01*
X150787D01*
X144488Y56299D01*
X150787Y62205D01*
X161811D01*
X166929Y55905D01*
D02*
G37*
G36*
X278966Y18568D02*
Y16865D01*
X274803Y14173D01*
X270641Y16865D01*
Y18568D01*
X272441Y20079D01*
X276772D01*
X278966Y18568D01*
D02*
G37*
G36*
X375984Y146457D02*
Y5512D01*
X372441Y1969D01*
X294488D01*
X291881Y4576D01*
X291881Y143456D01*
X295669Y147244D01*
X375197D01*
X375984Y146457D01*
D02*
G37*
%LPC*%
G36*
X258174Y181744D02*
X257362Y181582D01*
X256673Y181122D01*
X256213Y180434D01*
X256052Y179622D01*
X256213Y178810D01*
X256673Y178121D01*
X257362Y177661D01*
X258174Y177500D01*
X258986Y177661D01*
X259674Y178121D01*
X260134Y178810D01*
X260296Y179622D01*
X260134Y180434D01*
X259674Y181122D01*
X258986Y181582D01*
X258174Y181744D01*
D02*
G37*
G36*
X198388Y174122D02*
Y172797D01*
X199712D01*
X199692Y172898D01*
X199210Y173620D01*
X198489Y174102D01*
X198388Y174122D01*
D02*
G37*
G36*
X196888D02*
X196787Y174102D01*
X196065Y173620D01*
X195583Y172898D01*
X195563Y172797D01*
X196888D01*
Y174122D01*
D02*
G37*
G36*
X190514D02*
Y172797D01*
X191838D01*
X191818Y172898D01*
X191336Y173620D01*
X190615Y174102D01*
X190514Y174122D01*
D02*
G37*
G36*
X189014D02*
X188913Y174102D01*
X188191Y173620D01*
X187709Y172898D01*
X187689Y172797D01*
X189014D01*
Y174122D01*
D02*
G37*
G36*
X199712Y171297D02*
X198388D01*
Y169973D01*
X198489Y169993D01*
X199210Y170475D01*
X199692Y171196D01*
X199712Y171297D01*
D02*
G37*
G36*
X196888D02*
X195563D01*
X195583Y171196D01*
X196065Y170475D01*
X196787Y169993D01*
X196888Y169973D01*
Y171297D01*
D02*
G37*
G36*
X191838D02*
X190514D01*
Y169973D01*
X190615Y169993D01*
X191336Y170475D01*
X191818Y171196D01*
X191838Y171297D01*
D02*
G37*
G36*
X189014D02*
X187689D01*
X187709Y171196D01*
X188191Y170475D01*
X188913Y169993D01*
X189014Y169973D01*
Y171297D01*
D02*
G37*
G36*
X251181Y170626D02*
X250369Y170464D01*
X249681Y170004D01*
X249221Y169316D01*
X249059Y168504D01*
X249221Y167692D01*
X249681Y167004D01*
X250369Y166544D01*
X251181Y166382D01*
X251993Y166544D01*
X252681Y167004D01*
X253141Y167692D01*
X253303Y168504D01*
X253141Y169316D01*
X252681Y170004D01*
X251993Y170464D01*
X251181Y170626D01*
D02*
G37*
G36*
X176878Y158699D02*
X175553D01*
Y157374D01*
X175654Y157394D01*
X176376Y157876D01*
X176858Y158598D01*
X176878Y158699D01*
D02*
G37*
G36*
X217360Y156799D02*
X217259Y156779D01*
X216538Y156297D01*
X216056Y155575D01*
X216036Y155474D01*
X217360D01*
Y156799D01*
D02*
G37*
G36*
X234608Y156405D02*
Y155081D01*
X235933D01*
X235913Y155182D01*
X235431Y155903D01*
X234709Y156385D01*
X234608Y156405D01*
D02*
G37*
G36*
X233108D02*
X233007Y156385D01*
X232286Y155903D01*
X231804Y155182D01*
X231784Y155081D01*
X233108D01*
Y156405D01*
D02*
G37*
G36*
X217360Y153974D02*
X216036D01*
X216056Y153873D01*
X216538Y153152D01*
X217259Y152670D01*
X217360Y152650D01*
Y153974D01*
D02*
G37*
G36*
X235933Y153581D02*
X234608D01*
Y152256D01*
X234709Y152276D01*
X235431Y152758D01*
X235913Y153480D01*
X235933Y153581D01*
D02*
G37*
G36*
X233108D02*
X231784D01*
X231804Y153480D01*
X232286Y152758D01*
X233007Y152276D01*
X233108Y152256D01*
Y153581D01*
D02*
G37*
G36*
X82390Y149644D02*
X81065D01*
Y148319D01*
X81166Y148339D01*
X81888Y148821D01*
X82370Y149543D01*
X82390Y149644D01*
D02*
G37*
G36*
X79565D02*
X78240D01*
X78260Y149543D01*
X78742Y148821D01*
X79464Y148339D01*
X79565Y148319D01*
Y149644D01*
D02*
G37*
G36*
X75303D02*
X73978D01*
Y148319D01*
X74079Y148339D01*
X74801Y148821D01*
X75283Y149543D01*
X75303Y149644D01*
D02*
G37*
G36*
X217360Y148925D02*
X217259Y148905D01*
X216538Y148423D01*
X216056Y147701D01*
X216036Y147600D01*
X217360D01*
Y148925D01*
D02*
G37*
G36*
X234608Y148138D02*
Y146813D01*
X235933D01*
X235913Y146914D01*
X235431Y147635D01*
X234709Y148117D01*
X234608Y148138D01*
D02*
G37*
G36*
X233108D02*
X233007Y148117D01*
X232286Y147635D01*
X231804Y146914D01*
X231784Y146813D01*
X233108D01*
Y148138D01*
D02*
G37*
G36*
X217360Y146100D02*
X216036D01*
X216056Y145999D01*
X216538Y145278D01*
X217259Y144796D01*
X217360Y144776D01*
Y146100D01*
D02*
G37*
G36*
X235933Y145313D02*
X234608D01*
Y143988D01*
X234709Y144008D01*
X235431Y144491D01*
X235913Y145212D01*
X235933Y145313D01*
D02*
G37*
G36*
X233108D02*
X231784D01*
X231804Y145212D01*
X232286Y144491D01*
X233007Y144008D01*
X233108Y143988D01*
Y145313D01*
D02*
G37*
G36*
X259411Y130421D02*
Y129096D01*
X260736D01*
X260716Y129198D01*
X260234Y129919D01*
X259512Y130401D01*
X259411Y130421D01*
D02*
G37*
G36*
X257911D02*
X257810Y130401D01*
X257089Y129919D01*
X256607Y129198D01*
X256587Y129096D01*
X257911D01*
Y130421D01*
D02*
G37*
G36*
X165317Y128453D02*
Y127128D01*
X166642D01*
X166621Y127229D01*
X166139Y127950D01*
X165418Y128433D01*
X165317Y128453D01*
D02*
G37*
G36*
X163817D02*
X163716Y128433D01*
X162994Y127950D01*
X162512Y127229D01*
X162492Y127128D01*
X163817D01*
Y128453D01*
D02*
G37*
G36*
X72047Y130947D02*
X71235Y130785D01*
X70547Y130325D01*
X70087Y129637D01*
X69925Y128825D01*
X70087Y128013D01*
X70547Y127324D01*
X71235Y126864D01*
X72047Y126703D01*
X72859Y126864D01*
X73548Y127324D01*
X74008Y128013D01*
X74169Y128825D01*
X74008Y129637D01*
X73548Y130325D01*
X72859Y130785D01*
X72047Y130947D01*
D02*
G37*
G36*
X82480Y130941D02*
X81668Y130779D01*
X80980Y130319D01*
X80520Y129631D01*
X80358Y128819D01*
X80520Y128007D01*
X80980Y127319D01*
X81668Y126858D01*
X82480Y126697D01*
X83292Y126858D01*
X83981Y127319D01*
X84441Y128007D01*
X84602Y128819D01*
X84441Y129631D01*
X83981Y130319D01*
X83292Y130779D01*
X82480Y130941D01*
D02*
G37*
G36*
X77520Y130823D02*
X76708Y130661D01*
X76019Y130201D01*
X75559Y129513D01*
X75398Y128701D01*
X75559Y127889D01*
X76019Y127200D01*
X76708Y126740D01*
X77520Y126579D01*
X78332Y126740D01*
X79020Y127200D01*
X79480Y127889D01*
X79642Y128701D01*
X79480Y129513D01*
X79020Y130201D01*
X78332Y130661D01*
X77520Y130823D01*
D02*
G37*
G36*
X260736Y127596D02*
X259411D01*
Y126272D01*
X259512Y126292D01*
X260234Y126774D01*
X260716Y127495D01*
X260736Y127596D01*
D02*
G37*
G36*
X257911D02*
X256587D01*
X256607Y127495D01*
X257089Y126774D01*
X257810Y126292D01*
X257911Y126272D01*
Y127596D01*
D02*
G37*
G36*
X166642Y125628D02*
X165317D01*
Y124303D01*
X165418Y124323D01*
X166139Y124805D01*
X166621Y125527D01*
X166642Y125628D01*
D02*
G37*
G36*
X163817D02*
X162492D01*
X162512Y125527D01*
X162994Y124805D01*
X163716Y124323D01*
X163817Y124303D01*
Y125628D01*
D02*
G37*
G36*
X200750Y124516D02*
Y123191D01*
X202075D01*
X202055Y123292D01*
X201572Y124013D01*
X200851Y124495D01*
X200750Y124516D01*
D02*
G37*
G36*
X199250D02*
X199149Y124495D01*
X198427Y124013D01*
X197945Y123292D01*
X197925Y123191D01*
X199250D01*
Y124516D01*
D02*
G37*
G36*
X140120Y122941D02*
Y121616D01*
X141445D01*
X141425Y121717D01*
X140943Y122439D01*
X140221Y122921D01*
X140120Y122941D01*
D02*
G37*
G36*
X138620D02*
X138519Y122921D01*
X137798Y122439D01*
X137315Y121717D01*
X137295Y121616D01*
X138620D01*
Y122941D01*
D02*
G37*
G36*
X202075Y121691D02*
X200750D01*
Y120366D01*
X200851Y120386D01*
X201572Y120869D01*
X202055Y121590D01*
X202075Y121691D01*
D02*
G37*
G36*
X199250D02*
X197925D01*
X197945Y121590D01*
X198427Y120869D01*
X199149Y120386D01*
X199250Y120366D01*
Y121691D01*
D02*
G37*
G36*
X247638Y124169D02*
X246826Y124008D01*
X246137Y123548D01*
X245677Y122859D01*
X245516Y122047D01*
X245677Y121235D01*
X246137Y120547D01*
X246826Y120087D01*
X247638Y119925D01*
X248450Y120087D01*
X249138Y120547D01*
X249598Y121235D01*
X249760Y122047D01*
X249598Y122859D01*
X249138Y123548D01*
X248450Y124008D01*
X247638Y124169D01*
D02*
G37*
G36*
X141445Y120116D02*
X140120D01*
Y118791D01*
X140221Y118812D01*
X140943Y119294D01*
X141425Y120015D01*
X141445Y120116D01*
D02*
G37*
G36*
X138620D02*
X137295D01*
X137315Y120015D01*
X137798Y119294D01*
X138519Y118812D01*
X138620Y118791D01*
Y120116D01*
D02*
G37*
G36*
X176341Y118216D02*
Y116892D01*
X177665D01*
X177645Y116993D01*
X177163Y117714D01*
X176442Y118196D01*
X176341Y118216D01*
D02*
G37*
G36*
X174841D02*
X174740Y118196D01*
X174018Y117714D01*
X173536Y116993D01*
X173516Y116892D01*
X174841D01*
Y118216D01*
D02*
G37*
G36*
X177665Y115392D02*
X176341D01*
Y114067D01*
X176442Y114087D01*
X177163Y114569D01*
X177645Y115291D01*
X177665Y115392D01*
D02*
G37*
G36*
X174841D02*
X173516D01*
X173536Y115291D01*
X174018Y114569D01*
X174740Y114087D01*
X174841Y114067D01*
Y115392D01*
D02*
G37*
G36*
X179724Y111767D02*
X178912Y111606D01*
X178224Y111146D01*
X177764Y110458D01*
X177603Y109646D01*
X177764Y108834D01*
X178224Y108145D01*
X178475Y107978D01*
Y107377D01*
X178224Y107209D01*
X177764Y106521D01*
X177603Y105709D01*
X177764Y104897D01*
X178224Y104208D01*
X178912Y103748D01*
X179724Y103587D01*
X180536Y103748D01*
X181225Y104208D01*
X181685Y104897D01*
X181846Y105709D01*
X181685Y106521D01*
X181225Y107209D01*
X180974Y107377D01*
Y107978D01*
X181225Y108145D01*
X181685Y108834D01*
X181846Y109646D01*
X181685Y110458D01*
X181225Y111146D01*
X180536Y111606D01*
X179724Y111767D01*
D02*
G37*
G36*
X276772Y102516D02*
X275960Y102354D01*
X275271Y101894D01*
X274811Y101206D01*
X274650Y100394D01*
X274811Y99582D01*
X275271Y98893D01*
X275960Y98433D01*
X276772Y98272D01*
X277584Y98433D01*
X278272Y98893D01*
X278732Y99582D01*
X278893Y100394D01*
X278732Y101206D01*
X278272Y101894D01*
X277584Y102354D01*
X276772Y102516D01*
D02*
G37*
G36*
X124766Y98531D02*
Y97207D01*
X126090D01*
X126070Y97308D01*
X125588Y98029D01*
X124867Y98511D01*
X124766Y98531D01*
D02*
G37*
G36*
X123266D02*
X123165Y98511D01*
X122443Y98029D01*
X121961Y97308D01*
X121941Y97207D01*
X123266D01*
Y98531D01*
D02*
G37*
G36*
X140818Y106327D02*
X139555Y106160D01*
X138379Y105673D01*
X137368Y104898D01*
X136593Y103887D01*
X136106Y102711D01*
X135939Y101448D01*
X136106Y100185D01*
X136593Y99009D01*
X137368Y97998D01*
X138379Y97223D01*
X139555Y96735D01*
X140818Y96569D01*
X142081Y96735D01*
X143257Y97223D01*
X144268Y97998D01*
X145043Y99009D01*
X145530Y100185D01*
X145697Y101448D01*
X145530Y102711D01*
X145043Y103887D01*
X144268Y104898D01*
X143257Y105673D01*
X142081Y106160D01*
X140818Y106327D01*
D02*
G37*
G36*
X199213Y98972D02*
X198401Y98811D01*
X197712Y98351D01*
X197252Y97662D01*
X197091Y96850D01*
X197252Y96038D01*
X197712Y95350D01*
X198401Y94890D01*
X199213Y94728D01*
X200025Y94890D01*
X200713Y95350D01*
X201173Y96038D01*
X201335Y96850D01*
X201173Y97662D01*
X200713Y98351D01*
X200025Y98811D01*
X199213Y98972D01*
D02*
G37*
G36*
X126090Y95707D02*
X124766D01*
Y94382D01*
X124867Y94402D01*
X125588Y94884D01*
X126070Y95606D01*
X126090Y95707D01*
D02*
G37*
G36*
X123266D02*
X121941D01*
X121961Y95606D01*
X122443Y94884D01*
X123165Y94402D01*
X123266Y94382D01*
Y95707D01*
D02*
G37*
G36*
X277128Y92626D02*
Y91301D01*
X278453D01*
X278432Y91402D01*
X277950Y92124D01*
X277229Y92606D01*
X277128Y92626D01*
D02*
G37*
G36*
X275628D02*
X275527Y92606D01*
X274805Y92124D01*
X274323Y91402D01*
X274303Y91301D01*
X275628D01*
Y92626D01*
D02*
G37*
G36*
X181065D02*
Y91301D01*
X182390D01*
X182369Y91402D01*
X181887Y92124D01*
X181166Y92606D01*
X181065Y92626D01*
D02*
G37*
G36*
X179565D02*
X179464Y92606D01*
X178743Y92124D01*
X178260Y91402D01*
X178240Y91301D01*
X179565D01*
Y92626D01*
D02*
G37*
G36*
X126899Y92508D02*
X125610Y92338D01*
X124409Y91841D01*
X123978Y91510D01*
X126899Y88589D01*
X129820Y91510D01*
X129388Y91841D01*
X128187Y92338D01*
X126899Y92508D01*
D02*
G37*
G36*
X278453Y89801D02*
X277128D01*
Y88477D01*
X277229Y88497D01*
X277950Y88979D01*
X278432Y89700D01*
X278453Y89801D01*
D02*
G37*
G36*
X275628D02*
X274303D01*
X274323Y89700D01*
X274805Y88979D01*
X275527Y88497D01*
X275628Y88477D01*
Y89801D01*
D02*
G37*
G36*
X182390D02*
X181065D01*
Y88477D01*
X181166Y88497D01*
X181887Y88979D01*
X182369Y89700D01*
X182390Y89801D01*
D02*
G37*
G36*
X179565D02*
X178240D01*
X178260Y89700D01*
X178743Y88979D01*
X179464Y88497D01*
X179565Y88477D01*
Y89801D01*
D02*
G37*
G36*
X122917Y90450D02*
X122586Y90018D01*
X122089Y88817D01*
X121919Y87529D01*
X122089Y86240D01*
X122586Y85039D01*
X122917Y84607D01*
X125838Y87529D01*
X122917Y90450D01*
D02*
G37*
G36*
X130880D02*
X127959Y87529D01*
X130880Y84607D01*
X131211Y85039D01*
X131709Y86240D01*
X131878Y87529D01*
X131709Y88817D01*
X131211Y90018D01*
X130880Y90450D01*
D02*
G37*
G36*
X126899Y86468D02*
X123978Y83547D01*
X124409Y83216D01*
X125610Y82719D01*
X126899Y82549D01*
X128187Y82719D01*
X129388Y83216D01*
X129820Y83547D01*
X126899Y86468D01*
D02*
G37*
G36*
X277128Y76878D02*
Y75553D01*
X278453D01*
X278432Y75654D01*
X277950Y76376D01*
X277229Y76858D01*
X277128Y76878D01*
D02*
G37*
G36*
X275628D02*
X275527Y76858D01*
X274805Y76376D01*
X274323Y75654D01*
X274303Y75553D01*
X275628D01*
Y76878D01*
D02*
G37*
G36*
X249569D02*
Y75553D01*
X250893D01*
X250873Y75654D01*
X250391Y76376D01*
X249670Y76858D01*
X249569Y76878D01*
D02*
G37*
G36*
X248069D02*
X247968Y76858D01*
X247246Y76376D01*
X246764Y75654D01*
X246744Y75553D01*
X248069D01*
Y76878D01*
D02*
G37*
G36*
X278453Y74053D02*
X277128D01*
Y72729D01*
X277229Y72749D01*
X277950Y73231D01*
X278432Y73952D01*
X278453Y74053D01*
D02*
G37*
G36*
X275628D02*
X274303D01*
X274323Y73952D01*
X274805Y73231D01*
X275527Y72749D01*
X275628Y72729D01*
Y74053D01*
D02*
G37*
G36*
X250893D02*
X249569D01*
Y72729D01*
X249670Y72749D01*
X250391Y73231D01*
X250873Y73952D01*
X250893Y74053D01*
D02*
G37*
G36*
X248069D02*
X246744D01*
X246764Y73952D01*
X247246Y73231D01*
X247968Y72749D01*
X248069Y72729D01*
Y74053D01*
D02*
G37*
G36*
X263779Y57240D02*
X262967Y57078D01*
X262279Y56618D01*
X261819Y55930D01*
X261658Y55118D01*
X261819Y54306D01*
X262279Y53618D01*
X262967Y53158D01*
X263779Y52996D01*
X264592Y53158D01*
X265280Y53618D01*
X265740Y54306D01*
X265901Y55118D01*
X265740Y55930D01*
X265280Y56618D01*
X264592Y57078D01*
X263779Y57240D01*
D02*
G37*
G36*
X257087D02*
X256275Y57078D01*
X255586Y56618D01*
X255126Y55930D01*
X254965Y55118D01*
X255126Y54306D01*
X255586Y53618D01*
X256275Y53158D01*
X257087Y52996D01*
X257899Y53158D01*
X258587Y53618D01*
X259047Y54306D01*
X259208Y55118D01*
X259047Y55930D01*
X258587Y56618D01*
X257899Y57078D01*
X257087Y57240D01*
D02*
G37*
G36*
X250000D02*
X249188Y57078D01*
X248500Y56618D01*
X248040Y55930D01*
X247878Y55118D01*
X248040Y54306D01*
X248500Y53618D01*
X249188Y53158D01*
X250000Y52996D01*
X250812Y53158D01*
X251500Y53618D01*
X251960Y54306D01*
X252122Y55118D01*
X251960Y55930D01*
X251500Y56618D01*
X250812Y57078D01*
X250000Y57240D01*
D02*
G37*
G36*
X274932Y51489D02*
X274803Y51487D01*
X274675Y51489D01*
X274664Y51485D01*
X274653Y51485D01*
X274535Y51434D01*
X274416Y51387D01*
X272848Y50373D01*
X272174Y50094D01*
X271492Y49571D01*
X271379Y49423D01*
X270253Y48695D01*
X270199Y48642D01*
X270136Y48600D01*
X270100Y48546D01*
X270053Y48501D01*
X270023Y48432D01*
X269981Y48369D01*
X269969Y48305D01*
X269943Y48245D01*
X269942Y48170D01*
X269927Y48096D01*
Y46393D01*
X269940Y46328D01*
X269939Y46263D01*
X269967Y46193D01*
X269981Y46119D01*
X270018Y46065D01*
X270042Y46004D01*
X270094Y45950D01*
X270136Y45888D01*
X270190Y45851D01*
X270236Y45805D01*
X271456Y44965D01*
X271492Y44918D01*
X271815Y44669D01*
Y44039D01*
X271421Y43736D01*
X270882Y43034D01*
X270543Y42216D01*
X270526Y42089D01*
X274803D01*
X279080D01*
X279063Y42216D01*
X278724Y43034D01*
X278185Y43736D01*
X277916Y43943D01*
X277912Y44577D01*
X279424Y45846D01*
X279444Y45870D01*
X279470Y45888D01*
X279531Y45978D01*
X279599Y46063D01*
X279608Y46093D01*
X279625Y46119D01*
X279646Y46226D01*
X279677Y46330D01*
X279673Y46362D01*
X279679Y46393D01*
Y48096D01*
X279665Y48170D01*
X279663Y48245D01*
X279638Y48305D01*
X279625Y48369D01*
X279583Y48432D01*
X279553Y48501D01*
X279506Y48546D01*
X279470Y48600D01*
X279408Y48642D01*
X279353Y48695D01*
X278227Y49423D01*
X278114Y49571D01*
X277433Y50094D01*
X276759Y50373D01*
X275191Y51387D01*
X275071Y51434D01*
X274953Y51485D01*
X274942Y51485D01*
X274932Y51489D01*
D02*
G37*
G36*
X221222Y45861D02*
Y44844D01*
X222239D01*
X221832Y45454D01*
X221222Y45861D01*
D02*
G37*
G36*
X219722D02*
X219113Y45454D01*
X218706Y44844D01*
X219722D01*
Y45861D01*
D02*
G37*
G36*
X180671Y52519D02*
Y44451D01*
X184901D01*
Y47638D01*
X184731Y48927D01*
X184234Y50128D01*
X183442Y51159D01*
X182411Y51950D01*
X181210Y52448D01*
X180671Y52519D01*
D02*
G37*
G36*
X179171D02*
X178632Y52448D01*
X177431Y51950D01*
X176400Y51159D01*
X175609Y50128D01*
X175111Y48927D01*
X174942Y47638D01*
Y44451D01*
X179171D01*
Y52519D01*
D02*
G37*
G36*
X222239Y43345D02*
X221222D01*
Y42328D01*
X221832Y42735D01*
X222239Y43345D01*
D02*
G37*
G36*
X219722D02*
X218706D01*
X219113Y42735D01*
X219722Y42328D01*
Y43345D01*
D02*
G37*
G36*
X239333Y41838D02*
Y40514D01*
X240657D01*
X240637Y40615D01*
X240155Y41336D01*
X239434Y41818D01*
X239333Y41838D01*
D02*
G37*
G36*
X237833D02*
X237732Y41818D01*
X237010Y41336D01*
X236528Y40615D01*
X236508Y40514D01*
X237833D01*
Y41838D01*
D02*
G37*
G36*
X240657Y39014D02*
X239333D01*
Y37689D01*
X239434Y37709D01*
X240155Y38191D01*
X240637Y38913D01*
X240657Y39014D01*
D02*
G37*
G36*
X237833D02*
X236508D01*
X236528Y38913D01*
X237010Y38191D01*
X237732Y37709D01*
X237833Y37689D01*
Y39014D01*
D02*
G37*
G36*
X184901Y42951D02*
X180671D01*
Y34883D01*
X181210Y34954D01*
X182411Y35451D01*
X183442Y36243D01*
X184234Y37274D01*
X184731Y38475D01*
X184901Y39764D01*
Y42951D01*
D02*
G37*
G36*
X179171D02*
X174942D01*
Y39764D01*
X175111Y38475D01*
X175609Y37274D01*
X176400Y36243D01*
X177431Y35451D01*
X178632Y34954D01*
X179171Y34883D01*
Y42951D01*
D02*
G37*
G36*
X266892Y35146D02*
Y33821D01*
X268216D01*
X268196Y33922D01*
X267714Y34643D01*
X266993Y35125D01*
X266892Y35146D01*
D02*
G37*
G36*
X265392D02*
X265291Y35125D01*
X264569Y34643D01*
X264087Y33922D01*
X264067Y33821D01*
X265392D01*
Y35146D01*
D02*
G37*
G36*
X164961Y36082D02*
X161774D01*
Y31852D01*
X169842D01*
X169771Y32391D01*
X169273Y33592D01*
X168482Y34624D01*
X167450Y35415D01*
X166249Y35912D01*
X164961Y36082D01*
D02*
G37*
G36*
X160274D02*
X157087D01*
X155798Y35912D01*
X154597Y35415D01*
X153566Y34624D01*
X152774Y33592D01*
X152277Y32391D01*
X152206Y31852D01*
X160274D01*
Y36082D01*
D02*
G37*
G36*
X169842Y30352D02*
X161774D01*
Y26123D01*
X164961D01*
X166249Y26292D01*
X167450Y26790D01*
X168482Y27581D01*
X169273Y28613D01*
X169771Y29814D01*
X169842Y30352D01*
D02*
G37*
G36*
X160274D02*
X152206D01*
X152277Y29814D01*
X152774Y28613D01*
X153566Y27581D01*
X154597Y26790D01*
X155798Y26292D01*
X157087Y26123D01*
X160274D01*
Y30352D01*
D02*
G37*
G36*
X220208Y27608D02*
X219511Y27470D01*
X218921Y27075D01*
X218526Y26484D01*
X218387Y25787D01*
X218526Y25091D01*
X218921Y24500D01*
X219511Y24105D01*
X220208Y23967D01*
X220905Y24105D01*
X221496Y24500D01*
X221890Y25091D01*
X222029Y25787D01*
X221890Y26484D01*
X221496Y27075D01*
X220905Y27470D01*
X220208Y27608D01*
D02*
G37*
G36*
X75551Y42480D02*
X50058D01*
X24055Y22958D01*
Y22874D01*
Y22756D01*
Y22754D01*
X110236D01*
Y35326D01*
X108071Y36575D01*
X83189Y36496D01*
X75551Y42480D01*
D02*
G37*
G36*
X267285Y22153D02*
Y20829D01*
X268610D01*
X268590Y20930D01*
X268108Y21651D01*
X267387Y22133D01*
X267285Y22153D01*
D02*
G37*
G36*
X265785D02*
X265684Y22133D01*
X264963Y21651D01*
X264481Y20930D01*
X264461Y20829D01*
X265785D01*
Y22153D01*
D02*
G37*
G36*
X66695Y20775D02*
Y19451D01*
X68019D01*
X67999Y19552D01*
X67517Y20273D01*
X66796Y20755D01*
X66695Y20775D01*
D02*
G37*
G36*
X65195D02*
X65094Y20755D01*
X64372Y20273D01*
X63890Y19552D01*
X63870Y19451D01*
X65195D01*
Y20775D01*
D02*
G37*
G36*
X23585Y19398D02*
Y18073D01*
X24909D01*
X24889Y18174D01*
X24407Y18895D01*
X23686Y19377D01*
X23585Y19398D01*
D02*
G37*
G36*
X22085D02*
X21984Y19377D01*
X21262Y18895D01*
X20780Y18174D01*
X20760Y18073D01*
X22085D01*
Y19398D01*
D02*
G37*
G36*
X268610Y19329D02*
X267285D01*
Y18004D01*
X267387Y18024D01*
X268108Y18506D01*
X268590Y19228D01*
X268610Y19329D01*
D02*
G37*
G36*
X265785D02*
X264461D01*
X264481Y19228D01*
X264963Y18506D01*
X265684Y18024D01*
X265785Y18004D01*
Y19329D01*
D02*
G37*
G36*
X68019Y17951D02*
X66695D01*
Y16626D01*
X66796Y16646D01*
X67517Y17128D01*
X67999Y17850D01*
X68019Y17951D01*
D02*
G37*
G36*
X65195D02*
X63870D01*
X63890Y17850D01*
X64372Y17128D01*
X65094Y16646D01*
X65195Y16626D01*
Y17951D01*
D02*
G37*
G36*
X24909Y16573D02*
X23585D01*
Y15248D01*
X23686Y15268D01*
X24407Y15750D01*
X24889Y16472D01*
X24909Y16573D01*
D02*
G37*
G36*
X22085D02*
X20760D01*
X20780Y16472D01*
X21262Y15750D01*
X21984Y15268D01*
X22085Y15248D01*
Y16573D01*
D02*
G37*
G36*
X23585Y11524D02*
Y10199D01*
X24909D01*
X24889Y10300D01*
X24407Y11021D01*
X23686Y11503D01*
X23585Y11524D01*
D02*
G37*
G36*
X22085D02*
X21984Y11503D01*
X21262Y11021D01*
X20780Y10300D01*
X20760Y10199D01*
X22085D01*
Y11524D01*
D02*
G37*
G36*
X161024Y18463D02*
X159710Y18290D01*
X158485Y17783D01*
X157433Y16976D01*
X156626Y15924D01*
X156119Y14700D01*
X155946Y13386D01*
X156119Y12072D01*
X156626Y10847D01*
X157433Y9796D01*
X158485Y8989D01*
X159710Y8482D01*
X161024Y8309D01*
X162338Y8482D01*
X163562Y8989D01*
X164614Y9796D01*
X165421Y10847D01*
X165928Y12072D01*
X166101Y13386D01*
X165928Y14700D01*
X165421Y15924D01*
X164614Y16976D01*
X163562Y17783D01*
X162338Y18290D01*
X161024Y18463D01*
D02*
G37*
G36*
X24909Y8699D02*
X23585D01*
Y7374D01*
X23686Y7394D01*
X24407Y7876D01*
X24889Y8598D01*
X24909Y8699D01*
D02*
G37*
G36*
X22085D02*
X20760D01*
X20780Y8598D01*
X21262Y7876D01*
X21984Y7394D01*
X22085Y7374D01*
Y8699D01*
D02*
G37*
G36*
X104331Y10962D02*
X103633Y10871D01*
X102983Y10601D01*
X102425Y10173D01*
X101997Y9615D01*
X101728Y8965D01*
X101636Y8268D01*
X101728Y7570D01*
X101997Y6920D01*
X102425Y6362D01*
X102983Y5934D01*
X103633Y5665D01*
X104331Y5573D01*
X105028Y5665D01*
X105678Y5934D01*
X106236Y6362D01*
X106664Y6920D01*
X106934Y7570D01*
X107025Y8268D01*
X106934Y8965D01*
X106664Y9615D01*
X106236Y10173D01*
X105678Y10601D01*
X105028Y10871D01*
X104331Y10962D01*
D02*
G37*
G36*
X92520D02*
X91822Y10871D01*
X91172Y10601D01*
X90614Y10173D01*
X90186Y9615D01*
X89917Y8965D01*
X89825Y8268D01*
X89917Y7570D01*
X90186Y6920D01*
X90614Y6362D01*
X91172Y5934D01*
X91822Y5665D01*
X92520Y5573D01*
X93217Y5665D01*
X93867Y5934D01*
X94425Y6362D01*
X94853Y6920D01*
X95123Y7570D01*
X95214Y8268D01*
X95123Y8965D01*
X94853Y9615D01*
X94425Y10173D01*
X93867Y10601D01*
X93217Y10871D01*
X92520Y10962D01*
D02*
G37*
%LPD*%
G36*
X278966Y48096D02*
Y46393D01*
X277165Y44882D01*
X272835D01*
X270641Y46393D01*
Y48096D01*
X274803Y50787D01*
X278966Y48096D01*
D02*
G37*
%LPC*%
G36*
X15317Y286377D02*
Y282246D01*
X19448D01*
X19377Y282785D01*
X18879Y283986D01*
X18088Y285017D01*
X17057Y285808D01*
X15856Y286306D01*
X15317Y286377D01*
D02*
G37*
G36*
X13817D02*
X13278Y286306D01*
X12077Y285808D01*
X11046Y285017D01*
X10255Y283986D01*
X9757Y282785D01*
X9686Y282246D01*
X13817D01*
Y286377D01*
D02*
G37*
G36*
X19448Y280746D02*
X15317D01*
Y276615D01*
X15856Y276686D01*
X17057Y277184D01*
X18088Y277975D01*
X18879Y279006D01*
X19377Y280207D01*
X19448Y280746D01*
D02*
G37*
G36*
X13817D02*
X9686D01*
X9757Y280207D01*
X10255Y279006D01*
X11046Y277975D01*
X12077Y277184D01*
X13278Y276686D01*
X13817Y276615D01*
Y280746D01*
D02*
G37*
G36*
X15317Y243070D02*
Y238939D01*
X19448D01*
X19377Y239478D01*
X18879Y240679D01*
X18088Y241710D01*
X17057Y242501D01*
X15856Y242999D01*
X15317Y243070D01*
D02*
G37*
G36*
X13817D02*
X13278Y242999D01*
X12077Y242501D01*
X11046Y241710D01*
X10255Y240679D01*
X9757Y239478D01*
X9686Y238939D01*
X13817D01*
Y243070D01*
D02*
G37*
G36*
X19448Y237439D02*
X15317D01*
Y233308D01*
X15856Y233379D01*
X17057Y233876D01*
X18088Y234668D01*
X18879Y235699D01*
X19377Y236900D01*
X19448Y237439D01*
D02*
G37*
G36*
X13817D02*
X9686D01*
X9757Y236900D01*
X10255Y235699D01*
X11046Y234668D01*
X12077Y233876D01*
X13278Y233379D01*
X13817Y233308D01*
Y237439D01*
D02*
G37*
G36*
X262561Y228453D02*
Y227128D01*
X263886D01*
X263866Y227229D01*
X263384Y227950D01*
X262662Y228432D01*
X262561Y228453D01*
D02*
G37*
G36*
X261061D02*
X260960Y228432D01*
X260239Y227950D01*
X259756Y227229D01*
X259736Y227128D01*
X261061D01*
Y228453D01*
D02*
G37*
G36*
X263886Y225628D02*
X262561D01*
Y224303D01*
X262662Y224323D01*
X263384Y224805D01*
X263866Y225527D01*
X263886Y225628D01*
D02*
G37*
G36*
X261061D02*
X259736D01*
X259756Y225527D01*
X260239Y224805D01*
X260960Y224323D01*
X261061Y224303D01*
Y225628D01*
D02*
G37*
G36*
X213348Y222547D02*
Y221222D01*
X214673D01*
X214653Y221323D01*
X214171Y222045D01*
X213449Y222527D01*
X213348Y222547D01*
D02*
G37*
G36*
X211848D02*
X211747Y222527D01*
X211026Y222045D01*
X210544Y221323D01*
X210524Y221222D01*
X211848D01*
Y222547D01*
D02*
G37*
G36*
X197600D02*
Y221222D01*
X198925D01*
X198905Y221323D01*
X198423Y222045D01*
X197701Y222527D01*
X197600Y222547D01*
D02*
G37*
G36*
X196100D02*
X195999Y222527D01*
X195278Y222045D01*
X194796Y221323D01*
X194776Y221222D01*
X196100D01*
Y222547D01*
D02*
G37*
G36*
X214673Y219722D02*
X213348D01*
Y218398D01*
X213449Y218418D01*
X214171Y218900D01*
X214653Y219621D01*
X214673Y219722D01*
D02*
G37*
G36*
X211848D02*
X210524D01*
X210544Y219621D01*
X211026Y218900D01*
X211747Y218418D01*
X211848Y218398D01*
Y219722D01*
D02*
G37*
G36*
X198925D02*
X197600D01*
Y218398D01*
X197701Y218418D01*
X198423Y218900D01*
X198905Y219621D01*
X198925Y219722D01*
D02*
G37*
G36*
X196100D02*
X194776D01*
X194796Y219621D01*
X195278Y218900D01*
X195999Y218418D01*
X196100Y218398D01*
Y219722D01*
D02*
G37*
G36*
X274372Y218610D02*
Y217285D01*
X275697D01*
X275677Y217387D01*
X275195Y218108D01*
X274473Y218590D01*
X274372Y218610D01*
D02*
G37*
G36*
X272872D02*
X272771Y218590D01*
X272050Y218108D01*
X271568Y217387D01*
X271547Y217285D01*
X272872D01*
Y218610D01*
D02*
G37*
G36*
X275697Y215785D02*
X274372D01*
Y214461D01*
X274473Y214481D01*
X275195Y214963D01*
X275677Y215684D01*
X275697Y215785D01*
D02*
G37*
G36*
X272872D02*
X271547D01*
X271568Y215684D01*
X272050Y214963D01*
X272771Y214481D01*
X272872Y214461D01*
Y215785D01*
D02*
G37*
G36*
X213348Y210736D02*
Y209411D01*
X214673D01*
X214653Y209512D01*
X214171Y210234D01*
X213449Y210716D01*
X213348Y210736D01*
D02*
G37*
G36*
X211848D02*
X211747Y210716D01*
X211026Y210234D01*
X210544Y209512D01*
X210524Y209411D01*
X211848D01*
Y210736D01*
D02*
G37*
G36*
X214673Y207911D02*
X213348D01*
Y206587D01*
X213449Y206607D01*
X214171Y207089D01*
X214653Y207810D01*
X214673Y207911D01*
D02*
G37*
G36*
X211848D02*
X210524D01*
X210544Y207810D01*
X211026Y207089D01*
X211747Y206607D01*
X211848Y206587D01*
Y207911D01*
D02*
G37*
G36*
X274372Y202862D02*
Y201537D01*
X275697D01*
X275677Y201638D01*
X275195Y202360D01*
X274473Y202842D01*
X274372Y202862D01*
D02*
G37*
G36*
X272872D02*
X272771Y202842D01*
X272050Y202360D01*
X271568Y201638D01*
X271547Y201537D01*
X272872D01*
Y202862D01*
D02*
G37*
G36*
X275697Y200037D02*
X274372D01*
Y198713D01*
X274473Y198733D01*
X275195Y199215D01*
X275677Y199936D01*
X275697Y200037D01*
D02*
G37*
G36*
X272872D02*
X271547D01*
X271568Y199936D01*
X272050Y199215D01*
X272771Y198733D01*
X272872Y198713D01*
Y200037D01*
D02*
G37*
G36*
X207443Y199785D02*
Y198460D01*
X208768D01*
X208748Y198561D01*
X208265Y199282D01*
X207544Y199764D01*
X207443Y199785D01*
D02*
G37*
G36*
X205943D02*
X205842Y199764D01*
X205120Y199282D01*
X204638Y198561D01*
X204618Y198460D01*
X205943D01*
Y199785D01*
D02*
G37*
G36*
X191695Y198531D02*
Y197207D01*
X193019D01*
X192999Y197308D01*
X192517Y198029D01*
X191796Y198511D01*
X191695Y198531D01*
D02*
G37*
G36*
X190195D02*
X190094Y198511D01*
X189372Y198029D01*
X188890Y197308D01*
X188870Y197207D01*
X190195D01*
Y198531D01*
D02*
G37*
G36*
X193019Y195707D02*
X191695D01*
Y194382D01*
X191796Y194402D01*
X192517Y194884D01*
X192999Y195606D01*
X193019Y195707D01*
D02*
G37*
G36*
X190195D02*
X188870D01*
X188890Y195606D01*
X189372Y194884D01*
X190094Y194402D01*
X190195Y194382D01*
Y195707D01*
D02*
G37*
G36*
X112955Y191838D02*
Y190514D01*
X114279D01*
X114259Y190615D01*
X113777Y191336D01*
X113056Y191818D01*
X112955Y191838D01*
D02*
G37*
G36*
X111455D02*
X111354Y191818D01*
X110632Y191336D01*
X110150Y190615D01*
X110130Y190514D01*
X111455D01*
Y191838D01*
D02*
G37*
G36*
X73622Y193460D02*
X72810Y193299D01*
X72122Y192839D01*
X71662Y192151D01*
X71500Y191339D01*
X71662Y190527D01*
X72122Y189838D01*
X72810Y189378D01*
X73622Y189217D01*
X74434Y189378D01*
X75122Y189838D01*
X75582Y190527D01*
X75744Y191339D01*
X75582Y192151D01*
X75122Y192839D01*
X74434Y193299D01*
X73622Y193460D01*
D02*
G37*
G36*
X65748D02*
X64936Y193299D01*
X64248Y192839D01*
X63788Y192151D01*
X63626Y191339D01*
X63788Y190527D01*
X64248Y189838D01*
X64936Y189378D01*
X65748Y189217D01*
X66560Y189378D01*
X67248Y189838D01*
X67708Y190527D01*
X67870Y191339D01*
X67708Y192151D01*
X67248Y192839D01*
X66560Y193299D01*
X65748Y193460D01*
D02*
G37*
G36*
X114279Y189014D02*
X112955D01*
Y187689D01*
X113056Y187709D01*
X113777Y188191D01*
X114259Y188913D01*
X114279Y189014D01*
D02*
G37*
G36*
X111455D02*
X110130D01*
X110150Y188913D01*
X110632Y188191D01*
X111354Y187709D01*
X111455Y187689D01*
Y189014D01*
D02*
G37*
G36*
X100750Y184358D02*
Y183034D01*
X102075D01*
X102055Y183134D01*
X101573Y183856D01*
X100851Y184338D01*
X100750Y184358D01*
D02*
G37*
G36*
X99250D02*
X99149Y184338D01*
X98427Y183856D01*
X97945Y183134D01*
X97925Y183034D01*
X99250D01*
Y184358D01*
D02*
G37*
G36*
X102075Y181534D02*
X100750D01*
Y180209D01*
X100851Y180229D01*
X101573Y180711D01*
X102055Y181432D01*
X102075Y181534D01*
D02*
G37*
G36*
X99250D02*
X97925D01*
X97945Y181432D01*
X98427Y180711D01*
X99149Y180229D01*
X99250Y180209D01*
Y181534D01*
D02*
G37*
G36*
X32640Y186771D02*
Y178703D01*
X36869D01*
Y181890D01*
X36700Y183179D01*
X36202Y184380D01*
X35411Y185411D01*
X34380Y186202D01*
X33179Y186700D01*
X32640Y186771D01*
D02*
G37*
G36*
X31140D02*
X30601Y186700D01*
X29400Y186202D01*
X28369Y185411D01*
X27577Y184380D01*
X27080Y183179D01*
X26910Y181890D01*
Y178703D01*
X31140D01*
Y186771D01*
D02*
G37*
G36*
X133034Y178846D02*
Y177522D01*
X134358D01*
X134338Y177623D01*
X133856Y178344D01*
X133134Y178826D01*
X133034Y178846D01*
D02*
G37*
G36*
X131534D02*
X131432Y178826D01*
X130711Y178344D01*
X130229Y177623D01*
X130209Y177522D01*
X131534D01*
Y178846D01*
D02*
G37*
G36*
X124372D02*
Y177522D01*
X125697D01*
X125677Y177623D01*
X125195Y178344D01*
X124473Y178826D01*
X124372Y178846D01*
D02*
G37*
G36*
X122872D02*
X122771Y178826D01*
X122050Y178344D01*
X121567Y177623D01*
X121547Y177522D01*
X122872D01*
Y178846D01*
D02*
G37*
G36*
X134358Y176022D02*
X133034D01*
Y174697D01*
X133134Y174717D01*
X133856Y175199D01*
X134338Y175921D01*
X134358Y176022D01*
D02*
G37*
G36*
X131534D02*
X130209D01*
X130229Y175921D01*
X130711Y175199D01*
X131432Y174717D01*
X131534Y174697D01*
Y176022D01*
D02*
G37*
G36*
X125697D02*
X124372D01*
Y174697D01*
X124473Y174717D01*
X125195Y175199D01*
X125677Y175921D01*
X125697Y176022D01*
D02*
G37*
G36*
X122872D02*
X121547D01*
X121567Y175921D01*
X122050Y175199D01*
X122771Y174717D01*
X122872Y174697D01*
Y176022D01*
D02*
G37*
G36*
X57874Y193460D02*
X57062Y193299D01*
X56374Y192839D01*
X55914Y192151D01*
X55752Y191339D01*
X55878Y190706D01*
X55600Y190164D01*
X55533Y190156D01*
X54452Y189708D01*
X53524Y188996D01*
X52812Y188068D01*
X52364Y186987D01*
X52211Y185827D01*
Y178740D01*
X52364Y177580D01*
X52812Y176499D01*
X53524Y175571D01*
X54452Y174859D01*
X55533Y174411D01*
X56693Y174258D01*
X57853Y174411D01*
X58934Y174859D01*
X59862Y175571D01*
X60574Y176499D01*
X61022Y177580D01*
X61174Y178740D01*
Y185827D01*
X61022Y186987D01*
X60574Y188068D01*
X59862Y188996D01*
X59360Y189381D01*
X59374Y189838D01*
X59834Y190527D01*
X59996Y191339D01*
X59834Y192151D01*
X59374Y192839D01*
X58686Y193299D01*
X57874Y193460D01*
D02*
G37*
G36*
X14173Y183030D02*
X12859Y182857D01*
X11635Y182350D01*
X10583Y181543D01*
X9776Y180491D01*
X9269Y179267D01*
X9096Y177953D01*
X9269Y176639D01*
X9776Y175414D01*
X10583Y174363D01*
X11635Y173556D01*
X12859Y173048D01*
X14173Y172875D01*
X15487Y173048D01*
X16712Y173556D01*
X17763Y174363D01*
X18570Y175414D01*
X19078Y176639D01*
X19251Y177953D01*
X19078Y179267D01*
X18570Y180491D01*
X17763Y181543D01*
X16712Y182350D01*
X15487Y182857D01*
X14173Y183030D01*
D02*
G37*
G36*
X36869Y177203D02*
X32640D01*
Y169135D01*
X33179Y169206D01*
X34380Y169703D01*
X35411Y170495D01*
X36202Y171526D01*
X36700Y172727D01*
X36869Y174016D01*
Y177203D01*
D02*
G37*
G36*
X31140D02*
X26910D01*
Y174016D01*
X27080Y172727D01*
X27577Y171526D01*
X28369Y170495D01*
X29400Y169703D01*
X30601Y169206D01*
X31140Y169135D01*
Y177203D01*
D02*
G37*
G36*
X67716Y166295D02*
X66904Y166134D01*
X66216Y165674D01*
X65756Y164985D01*
X65595Y164173D01*
X65756Y163361D01*
X66216Y162673D01*
X66904Y162213D01*
X67716Y162051D01*
X68528Y162213D01*
X69217Y162673D01*
X69677Y163361D01*
X69838Y164173D01*
X69677Y164985D01*
X69217Y165674D01*
X68528Y166134D01*
X67716Y166295D01*
D02*
G37*
G36*
X62992D02*
X62180Y166134D01*
X61492Y165674D01*
X61032Y164985D01*
X60870Y164173D01*
X61032Y163361D01*
X61492Y162673D01*
X62180Y162213D01*
X62992Y162051D01*
X63804Y162213D01*
X64492Y162673D01*
X64952Y163361D01*
X65114Y164173D01*
X64952Y164985D01*
X64492Y165674D01*
X63804Y166134D01*
X62992Y166295D01*
D02*
G37*
G36*
X58268D02*
X57456Y166134D01*
X56767Y165674D01*
X56307Y164985D01*
X56146Y164173D01*
X56307Y163361D01*
X56767Y162673D01*
X57456Y162213D01*
X58268Y162051D01*
X59080Y162213D01*
X59768Y162673D01*
X60228Y163361D01*
X60390Y164173D01*
X60228Y164985D01*
X59768Y165674D01*
X59080Y166134D01*
X58268Y166295D01*
D02*
G37*
G36*
X162992Y165901D02*
X162180Y165740D01*
X161492Y165280D01*
X161032Y164592D01*
X160870Y163779D01*
X161032Y162968D01*
X161492Y162279D01*
X162180Y161819D01*
X162992Y161658D01*
X163804Y161819D01*
X164492Y162279D01*
X164953Y162968D01*
X165114Y163779D01*
X164953Y164592D01*
X164492Y165280D01*
X163804Y165740D01*
X162992Y165901D01*
D02*
G37*
G36*
X157874Y164720D02*
X157062Y164559D01*
X156374Y164099D01*
X155914Y163410D01*
X155752Y162598D01*
X155914Y161786D01*
X156374Y161098D01*
X157062Y160638D01*
X157874Y160477D01*
X158686Y160638D01*
X159374Y161098D01*
X159834Y161786D01*
X159996Y162598D01*
X159834Y163410D01*
X159374Y164099D01*
X158686Y164559D01*
X157874Y164720D01*
D02*
G37*
G36*
X48425Y164035D02*
X45238D01*
Y159805D01*
X53306D01*
X53235Y160344D01*
X52738Y161545D01*
X51946Y162576D01*
X50915Y163368D01*
X49714Y163865D01*
X48425Y164035D01*
D02*
G37*
G36*
X43738D02*
X40551D01*
X39262Y163865D01*
X38061Y163368D01*
X37030Y162576D01*
X36239Y161545D01*
X35741Y160344D01*
X35670Y159805D01*
X43738D01*
Y164035D01*
D02*
G37*
G36*
X53306Y158305D02*
X45238D01*
Y154076D01*
X48425D01*
X49714Y154245D01*
X50915Y154743D01*
X51946Y155534D01*
X52738Y156565D01*
X53235Y157766D01*
X53306Y158305D01*
D02*
G37*
G36*
X43738D02*
X35670D01*
X35741Y157766D01*
X36239Y156565D01*
X37030Y155534D01*
X38061Y154743D01*
X39262Y154245D01*
X40551Y154076D01*
X43738D01*
Y158305D01*
D02*
G37*
G36*
X55081Y152075D02*
Y150750D01*
X56405D01*
X56385Y150851D01*
X55903Y151573D01*
X55182Y152055D01*
X55081Y152075D01*
D02*
G37*
G36*
X53581D02*
X53480Y152055D01*
X52758Y151573D01*
X52276Y150851D01*
X52256Y150750D01*
X53581D01*
Y152075D01*
D02*
G37*
G36*
X56405Y149250D02*
X55081D01*
Y147925D01*
X55182Y147945D01*
X55903Y148427D01*
X56385Y149149D01*
X56405Y149250D01*
D02*
G37*
G36*
X53581D02*
X52256D01*
X52276Y149149D01*
X52758Y148427D01*
X53480Y147945D01*
X53581Y147925D01*
Y149250D01*
D02*
G37*
G36*
X212148Y81156D02*
X211336Y80995D01*
X210647Y80535D01*
X210188Y79846D01*
X210026Y79034D01*
X210188Y78222D01*
X210647Y77534D01*
X211336Y77074D01*
X212148Y76912D01*
X212960Y77074D01*
X213648Y77534D01*
X214108Y78222D01*
X214270Y79034D01*
X214108Y79846D01*
X213648Y80535D01*
X212960Y80995D01*
X212148Y81156D01*
D02*
G37*
G36*
X326341Y114290D02*
Y112167D01*
X328463D01*
X328357Y112563D01*
X327966Y113240D01*
X327413Y113793D01*
X326736Y114183D01*
X326341Y114290D01*
D02*
G37*
G36*
X324841D02*
X324445Y114183D01*
X323768Y113793D01*
X323215Y113240D01*
X322824Y112563D01*
X322718Y112167D01*
X324841D01*
Y114290D01*
D02*
G37*
G36*
X328463Y110667D02*
X322718D01*
X322824Y110272D01*
X323215Y109595D01*
X323768Y109042D01*
X324445Y108651D01*
X324617Y108605D01*
X324984Y108283D01*
X324984Y108038D01*
Y105474D01*
X327362D01*
X329740D01*
Y108283D01*
X327099D01*
X326965Y108783D01*
X327413Y109042D01*
X327966Y109595D01*
X328357Y110272D01*
X328463Y110667D01*
D02*
G37*
G36*
X329740Y103974D02*
X327362D01*
X324984D01*
Y101591D01*
X324787D01*
Y98782D01*
X327165D01*
X329543D01*
Y101165D01*
X329740D01*
Y103974D01*
D02*
G37*
G36*
X329543Y97281D02*
X327915D01*
Y94472D01*
X329543D01*
Y97281D01*
D02*
G37*
G36*
X326415D02*
X324787D01*
Y94472D01*
X326415D01*
Y97281D01*
D02*
G37*
G36*
X370779Y94794D02*
X363080D01*
Y94064D01*
X362092D01*
Y94726D01*
X357593D01*
Y89526D01*
X362092D01*
Y90189D01*
X363080D01*
Y89851D01*
X370779D01*
Y94794D01*
D02*
G37*
G36*
X307518Y96207D02*
X305718D01*
Y94057D01*
X307518D01*
Y96207D01*
D02*
G37*
G36*
Y92557D02*
X305718D01*
Y90407D01*
X307518D01*
Y92557D01*
D02*
G37*
G36*
X340084Y114298D02*
X339329D01*
X338599Y114103D01*
X337945Y113725D01*
X337411Y113191D01*
X337034Y112537D01*
X336838Y111807D01*
Y111052D01*
X337034Y110323D01*
X337411Y109669D01*
X337945Y109134D01*
X338599Y108757D01*
X339329Y108561D01*
X340084D01*
X340172Y108585D01*
X350734Y98023D01*
X350734Y98023D01*
X351280Y97658D01*
X351924Y97530D01*
X368988D01*
X371940Y94579D01*
Y71957D01*
X371242Y71259D01*
X371231Y71265D01*
X371231Y71265D01*
X370779Y71503D01*
X370779Y71783D01*
Y76291D01*
X363080D01*
Y75953D01*
X362092D01*
Y76615D01*
X357593D01*
Y75953D01*
X356581D01*
Y76615D01*
X352081D01*
Y76563D01*
X351581Y76356D01*
X350189Y77748D01*
X349994Y77878D01*
X350146Y78378D01*
X352081D01*
Y77715D01*
X356581D01*
Y78378D01*
X357593D01*
Y77715D01*
X362092D01*
Y78378D01*
X366339D01*
X366619Y78434D01*
X370779D01*
Y83377D01*
X363080D01*
Y82253D01*
X362092D01*
Y82915D01*
X362092D01*
Y83226D01*
X362092D01*
Y88426D01*
X357593D01*
Y87764D01*
X356581D01*
Y88426D01*
X352081D01*
Y87764D01*
X351069D01*
Y88426D01*
X346569D01*
Y87764D01*
X343810D01*
Y88220D01*
X341267D01*
X340787Y88315D01*
X340307Y88220D01*
X338697D01*
Y89536D01*
X340307D01*
X340787Y89441D01*
X348071D01*
X348501Y89526D01*
X351069D01*
Y90189D01*
X352081D01*
Y89526D01*
X356581D01*
Y94726D01*
X352081D01*
Y94064D01*
X351069D01*
Y94726D01*
X346569D01*
Y93315D01*
X340787D01*
X340307Y93220D01*
X338697D01*
Y93798D01*
X339298Y94399D01*
X339386Y94376D01*
X340141D01*
X340871Y94571D01*
X341525Y94949D01*
X342059Y95483D01*
X342437Y96137D01*
X342632Y96867D01*
Y97622D01*
X342437Y98351D01*
X342059Y99005D01*
X341525Y99540D01*
X340871Y99917D01*
X340141Y100113D01*
X339386D01*
X338657Y99917D01*
X338002Y99540D01*
X337468Y99005D01*
X337091Y98351D01*
X336895Y97622D01*
Y96867D01*
X336919Y96778D01*
X335825Y95684D01*
X335460Y95139D01*
X335332Y94495D01*
Y69285D01*
X335460Y68641D01*
X335825Y68095D01*
X337627Y66293D01*
X337660Y66126D01*
X337765Y65970D01*
Y64536D01*
X343810D01*
Y64696D01*
X345524D01*
X345661Y64558D01*
X345688Y64540D01*
X346349Y63880D01*
Y57762D01*
X345431D01*
Y53262D01*
X350631D01*
Y57762D01*
X349713D01*
Y64576D01*
X349585Y65220D01*
X349221Y65766D01*
X349221Y65766D01*
X348049Y66938D01*
X348022Y66956D01*
X347410Y67567D01*
X346864Y67932D01*
X346220Y68060D01*
X343810D01*
Y68220D01*
X340441D01*
X340404Y68274D01*
X339604Y69074D01*
X339795Y69536D01*
X343810D01*
Y69696D01*
X347860D01*
X350241Y67315D01*
X350787Y66950D01*
X351431Y66822D01*
X352081D01*
Y65904D01*
X356581D01*
Y66822D01*
X357593D01*
Y65904D01*
X362092D01*
Y66822D01*
X370866D01*
X371510Y66950D01*
X372056Y67315D01*
X374812Y70070D01*
X374812Y70070D01*
X375176Y70616D01*
X375304Y71260D01*
Y95275D01*
X375304Y95276D01*
X375176Y95919D01*
X374812Y96465D01*
X370875Y100402D01*
X370329Y100767D01*
X369685Y100895D01*
X352621D01*
X342551Y110964D01*
X342575Y111052D01*
Y111807D01*
X342379Y112537D01*
X342002Y113191D01*
X341468Y113725D01*
X340814Y114103D01*
X340084Y114298D01*
D02*
G37*
G36*
X321260Y108194D02*
X318504D01*
X318231Y108140D01*
X317999Y107985D01*
X317998Y107983D01*
X317804D01*
Y107790D01*
X317606Y107591D01*
X317451Y107360D01*
X317396Y107087D01*
Y101501D01*
X312992D01*
X312719Y101447D01*
X312487Y101292D01*
X310913Y99717D01*
X310758Y99486D01*
X310704Y99213D01*
Y96207D01*
X309018D01*
Y93307D01*
Y90407D01*
X310818D01*
X310818Y90407D01*
Y90407D01*
X311318Y90429D01*
X311678Y90069D01*
X311486Y89607D01*
X311136D01*
Y88060D01*
X310518D01*
Y89607D01*
X306018D01*
Y84407D01*
X310518D01*
Y84696D01*
X311136D01*
Y84407D01*
X315636D01*
Y84696D01*
X316820D01*
Y84536D01*
X322865D01*
Y88220D01*
X316820D01*
Y88060D01*
X315636D01*
Y89050D01*
X321654D01*
X321927Y89104D01*
X322048Y89186D01*
X324006D01*
X324186Y89006D01*
Y57995D01*
X320448Y54257D01*
X320079D01*
X319806Y54203D01*
X319574Y54048D01*
X317815Y52289D01*
X317292D01*
X317190Y52751D01*
X317197Y52789D01*
X317725Y53141D01*
X321032Y56448D01*
X321397Y56994D01*
X321525Y57638D01*
Y59536D01*
X322865D01*
Y63220D01*
X316820D01*
Y59536D01*
X318160D01*
Y58335D01*
X315839Y56013D01*
X312164D01*
X311957Y56513D01*
X312494Y57050D01*
X312790Y57109D01*
X312925Y57199D01*
X315199D01*
Y61699D01*
X309999D01*
Y60034D01*
X309361Y59396D01*
X308899Y59588D01*
Y61699D01*
X307981D01*
Y62883D01*
X308574D01*
Y69401D01*
X304418D01*
Y62883D01*
X304617D01*
Y61699D01*
X303699D01*
Y57199D01*
X306510D01*
X306702Y56737D01*
X305693Y55728D01*
X303389D01*
X302648Y55581D01*
X302019Y55161D01*
X299147Y52289D01*
X295669D01*
X295396Y52234D01*
X295165Y52079D01*
X293196Y50111D01*
X293041Y49879D01*
X292987Y49606D01*
Y46457D01*
X293001Y46387D01*
X293001Y46317D01*
X293028Y46252D01*
X293041Y46184D01*
X293081Y46125D01*
X293108Y46060D01*
X293157Y46010D01*
X293196Y45952D01*
X293255Y45913D01*
X293305Y45863D01*
X294292Y45205D01*
X294355Y44688D01*
X294328Y44608D01*
X294324Y44599D01*
X294319Y44596D01*
X293780Y43893D01*
X293442Y43075D01*
X293425Y42948D01*
X293726D01*
X294882Y44488D01*
X301204D01*
X301384Y44956D01*
X326321Y44956D01*
X330483Y40793D01*
Y38840D01*
X330630Y38098D01*
X331050Y37470D01*
X336308Y32212D01*
Y27253D01*
X341251D01*
Y29165D01*
X349591D01*
X352000Y26757D01*
Y14582D01*
X350969Y13551D01*
X348535D01*
Y13692D01*
X342017D01*
Y13551D01*
X337402D01*
X337119Y13495D01*
X335997D01*
X335805Y13957D01*
X337583Y15735D01*
X337914Y16231D01*
X338031Y16816D01*
Y17213D01*
X340267D01*
Y20976D01*
X336782D01*
X336759Y21466D01*
X336759Y21476D01*
Y23266D01*
X333859D01*
X330959D01*
Y21466D01*
X334512D01*
X334536Y20976D01*
X334536Y20966D01*
Y17213D01*
X334536Y17213D01*
X334536D01*
X334324Y16802D01*
X330831Y13308D01*
X330331Y13516D01*
Y14604D01*
X327165D01*
Y16104D01*
X330331D01*
Y17535D01*
X330031D01*
Y20976D01*
X328848D01*
Y21766D01*
X330159D01*
Y26266D01*
X329045D01*
Y27253D01*
X329834D01*
Y34952D01*
X324890D01*
Y27253D01*
X325680D01*
Y26266D01*
X324959D01*
Y21766D01*
X325483D01*
Y20976D01*
X324300D01*
Y17915D01*
X324281Y17891D01*
X324010Y17696D01*
X323510Y17952D01*
Y20317D01*
X323510D01*
Y20628D01*
X323510D01*
Y25828D01*
X319010D01*
Y24910D01*
X317998D01*
Y25828D01*
X313498D01*
Y20628D01*
X313498D01*
X313473Y20188D01*
X313473D01*
X313473Y20138D01*
Y13670D01*
X317629D01*
Y15247D01*
X319010D01*
Y15117D01*
X323500D01*
X323510Y15117D01*
X324000Y15093D01*
Y14041D01*
X323510Y14017D01*
Y14017D01*
X319010D01*
Y8817D01*
X323510D01*
Y10085D01*
X324300D01*
Y9733D01*
X330031D01*
Y10085D01*
X331299D01*
X331885Y10201D01*
X332381Y10533D01*
X334074Y12226D01*
X334536Y12035D01*
Y9733D01*
X337119D01*
X337402Y9677D01*
X342017D01*
Y9536D01*
X348535D01*
Y9677D01*
X351772D01*
X352513Y9824D01*
X353141Y10244D01*
X355307Y12410D01*
X355727Y13038D01*
X355874Y13780D01*
Y27559D01*
X355727Y28300D01*
X355307Y28929D01*
X351764Y32472D01*
X351135Y32892D01*
X350394Y33040D01*
X341251D01*
Y34952D01*
X339048D01*
X334357Y39642D01*
Y41596D01*
X334210Y42337D01*
X333790Y42965D01*
X327231Y49524D01*
X326603Y49944D01*
X326491Y49966D01*
X324587Y51870D01*
Y52195D01*
X327928Y55537D01*
X328403Y56248D01*
X328570Y57087D01*
Y89913D01*
X328403Y90752D01*
X327928Y91464D01*
X326464Y92928D01*
X325752Y93403D01*
X324914Y93570D01*
X323155D01*
Y99606D01*
X323100Y99879D01*
X322946Y100111D01*
X322564Y100493D01*
Y106890D01*
X322510Y107163D01*
X322355Y107394D01*
X321960Y107790D01*
Y107983D01*
X321766D01*
X321764Y107985D01*
X321533Y108140D01*
X321260Y108194D01*
D02*
G37*
G36*
X309593Y83652D02*
X307442D01*
Y81852D01*
X309593D01*
Y83652D01*
D02*
G37*
G36*
X305943D02*
X303793D01*
Y81852D01*
X305943D01*
Y83652D01*
D02*
G37*
G36*
X315593Y83352D02*
X310392D01*
Y78852D01*
X315593D01*
Y79696D01*
X316820D01*
Y79536D01*
X322865D01*
Y83220D01*
X316820D01*
Y83060D01*
X315593D01*
Y83352D01*
D02*
G37*
G36*
X309593Y80352D02*
X307442D01*
Y78552D01*
X309593D01*
Y80352D01*
D02*
G37*
G36*
X305943D02*
X303793D01*
Y78552D01*
X305943D01*
Y80352D01*
D02*
G37*
G36*
X309593Y77747D02*
X307442D01*
Y75947D01*
X309593D01*
Y77747D01*
D02*
G37*
G36*
X305943D02*
X303793D01*
Y75947D01*
X305943D01*
Y77747D01*
D02*
G37*
G36*
X322865Y78220D02*
X316820D01*
Y74536D01*
X322865D01*
Y78220D01*
D02*
G37*
G36*
X309593Y74447D02*
X307442D01*
Y72647D01*
X309593D01*
Y74447D01*
D02*
G37*
G36*
X305943D02*
X303793D01*
Y72647D01*
X305943D01*
Y74447D01*
D02*
G37*
G36*
X315593Y77447D02*
X310392D01*
Y72947D01*
X311310D01*
Y72081D01*
X311438Y71437D01*
X311803Y70891D01*
X312506Y70188D01*
X312936Y69901D01*
X312810Y69401D01*
X311898D01*
Y62883D01*
X316054D01*
Y64459D01*
X319606D01*
X319992Y64536D01*
X322865D01*
Y68220D01*
X316820D01*
Y68037D01*
X316320Y67912D01*
X316054Y68178D01*
X316054Y69228D01*
X316478Y69585D01*
X316820Y69536D01*
Y69536D01*
X322865D01*
Y73220D01*
X316820D01*
Y73060D01*
X315593D01*
Y77447D01*
D02*
G37*
G36*
X360593Y65104D02*
Y62954D01*
X362392D01*
Y65104D01*
X360593D01*
D02*
G37*
G36*
X353581Y65104D02*
X351781D01*
Y62954D01*
X353581D01*
Y65104D01*
D02*
G37*
G36*
X344110Y63520D02*
X341537D01*
Y62128D01*
X344110D01*
Y63520D01*
D02*
G37*
G36*
X340037D02*
X337464D01*
Y62128D01*
X340037D01*
Y63520D01*
D02*
G37*
G36*
X362392Y61454D02*
X360593D01*
Y59304D01*
X362392D01*
Y61454D01*
D02*
G37*
G36*
X353581Y61454D02*
X351781D01*
Y59304D01*
X353581D01*
Y61454D01*
D02*
G37*
G36*
X357293Y65104D02*
X356881Y65104D01*
X356792Y65104D01*
X355081D01*
Y62204D01*
Y59304D01*
X356792D01*
X356881Y59304D01*
X357293Y59304D01*
X357381Y59304D01*
X359092D01*
Y62204D01*
Y65104D01*
X357381D01*
X357293Y65104D01*
D02*
G37*
G36*
X344110Y60628D02*
X341537D01*
Y59236D01*
X344110D01*
Y60628D01*
D02*
G37*
G36*
X340037D02*
X337464D01*
Y59236D01*
X340037D01*
Y60628D01*
D02*
G37*
G36*
X361380Y58062D02*
Y56262D01*
X363529D01*
Y58062D01*
X361380D01*
D02*
G37*
G36*
X353581D02*
X351431D01*
Y56262D01*
X353581D01*
Y58062D01*
D02*
G37*
G36*
X370779Y64873D02*
X363080D01*
Y59930D01*
X364992D01*
Y57762D01*
X364330D01*
Y53262D01*
X369530D01*
Y57762D01*
X368867D01*
Y59930D01*
X370779D01*
Y64873D01*
D02*
G37*
G36*
X363529Y54762D02*
X361380D01*
Y52962D01*
X363529D01*
Y54762D01*
D02*
G37*
G36*
X353581D02*
X351431D01*
Y52962D01*
X353581D01*
Y54762D01*
D02*
G37*
G36*
X357730Y58062D02*
X357231D01*
X357229Y58062D01*
X355081D01*
Y55512D01*
Y52962D01*
X357229D01*
X357231Y52962D01*
X357730D01*
X357731Y52962D01*
X359879D01*
Y55512D01*
Y58062D01*
X357731D01*
X357730Y58062D01*
D02*
G37*
G36*
X326000Y43323D02*
X324605D01*
X326000Y41928D01*
Y43323D01*
D02*
G37*
G36*
X319845Y34646D02*
X319648D01*
Y34564D01*
X319845Y34646D01*
D02*
G37*
G36*
X318148D02*
X317951D01*
X318148Y34564D01*
Y34646D01*
D02*
G37*
G36*
X314727D02*
X314529D01*
Y34564D01*
X314727Y34646D01*
D02*
G37*
G36*
X313030D02*
X312832D01*
X313030Y34564D01*
Y34646D01*
D02*
G37*
G36*
X293701Y41448D02*
X293425D01*
X293442Y41320D01*
X293780Y40502D01*
X294319Y39800D01*
X294714Y39497D01*
Y38867D01*
X294391Y38619D01*
X293868Y37937D01*
X293539Y37144D01*
X293427Y36292D01*
X293539Y35440D01*
X293868Y34647D01*
X294391Y33966D01*
X294481Y33896D01*
X294514Y33404D01*
X294470Y33274D01*
X293590Y32394D01*
X293435Y32163D01*
X293381Y31890D01*
Y28740D01*
X293435Y28467D01*
X293590Y28236D01*
X294377Y27448D01*
X294391Y27439D01*
X294450Y26865D01*
X294443Y26848D01*
X294391Y26808D01*
X293868Y26126D01*
X293539Y25333D01*
X293427Y24481D01*
X293539Y23629D01*
X293868Y22836D01*
X294391Y22154D01*
X294810Y21833D01*
Y21224D01*
X294391Y20902D01*
X293868Y20221D01*
X293539Y19427D01*
X293427Y18576D01*
X293539Y17724D01*
X293868Y16930D01*
X294391Y16249D01*
X295072Y15726D01*
X295866Y15397D01*
X296717Y15285D01*
X298686D01*
X299537Y15397D01*
X300331Y15726D01*
X301012Y16249D01*
X301535Y16930D01*
X301864Y17724D01*
X301976Y18576D01*
X301864Y19427D01*
X301535Y20221D01*
X301012Y20902D01*
X300593Y21224D01*
Y21833D01*
X301012Y22154D01*
X301535Y22836D01*
X301864Y23629D01*
X301976Y24481D01*
X301864Y25333D01*
X301535Y26126D01*
X301012Y26808D01*
X300926Y26874D01*
X300901Y27390D01*
X300942Y27492D01*
X302154Y28704D01*
X305796D01*
Y28040D01*
X312314D01*
Y28436D01*
X313498D01*
Y26928D01*
X317998D01*
Y27845D01*
X319010D01*
Y26928D01*
X323510D01*
Y32128D01*
X319010D01*
Y31210D01*
X317998D01*
Y32128D01*
X313498D01*
Y31800D01*
X312314D01*
Y32196D01*
X305796D01*
Y32069D01*
X302011D01*
X300861Y33219D01*
X300820Y33633D01*
X300865Y33852D01*
X301012Y33966D01*
X301535Y34647D01*
X301864Y35440D01*
X301976Y36292D01*
X301864Y37144D01*
X301535Y37937D01*
X301012Y38619D01*
X300689Y38867D01*
Y39497D01*
X300896Y39656D01*
X300787Y39764D01*
X294882D01*
X293701Y40945D01*
Y41448D01*
D02*
G37*
G36*
X336759Y26566D02*
X334609D01*
Y24766D01*
X336759D01*
Y26566D01*
D02*
G37*
G36*
X333109D02*
X330959D01*
Y24766D01*
X333109D01*
Y26566D01*
D02*
G37*
G36*
X312614Y25016D02*
X309805D01*
Y23388D01*
X312614D01*
Y25016D01*
D02*
G37*
G36*
X308305D02*
X305496D01*
Y23388D01*
X308305D01*
Y25016D01*
D02*
G37*
G36*
X348835Y21472D02*
X346026D01*
Y19845D01*
X348835D01*
Y21472D01*
D02*
G37*
G36*
X344526D02*
X341717D01*
Y19845D01*
X344526D01*
Y21472D01*
D02*
G37*
G36*
X312614Y21888D02*
X305496D01*
Y20260D01*
X305693D01*
Y17679D01*
X308071D01*
X310449D01*
Y20260D01*
X312614D01*
Y21888D01*
D02*
G37*
G36*
X348835Y18345D02*
X346026D01*
Y16716D01*
X348835D01*
Y18345D01*
D02*
G37*
G36*
X344526D02*
X341717D01*
Y16716D01*
X344526D01*
Y18345D01*
D02*
G37*
G36*
X310449Y16179D02*
X308821D01*
Y13370D01*
X310449D01*
Y16179D01*
D02*
G37*
G36*
X307321D02*
X305693D01*
Y13370D01*
X307321D01*
Y16179D01*
D02*
G37*
G36*
X308821Y11302D02*
Y10002D01*
X310121D01*
X309920Y10487D01*
X309306Y11101D01*
X308821Y11302D01*
D02*
G37*
G36*
X307321D02*
X306835Y11101D01*
X306222Y10487D01*
X306021Y10002D01*
X307321D01*
Y11302D01*
D02*
G37*
G36*
X310121Y8502D02*
X308821D01*
Y7202D01*
X309306Y7403D01*
X309920Y8016D01*
X310121Y8502D01*
D02*
G37*
G36*
X307321D02*
X306021D01*
X306222Y8016D01*
X306835Y7403D01*
X307321Y7202D01*
Y8502D01*
D02*
G37*
%LPD*%
G36*
X321850Y106890D02*
Y100197D01*
X322441Y99606D01*
Y90551D01*
X321654Y89764D01*
X312992D01*
X311417Y91339D01*
Y99213D01*
X312992Y100787D01*
X318110D01*
Y107087D01*
X318504Y107480D01*
X321260D01*
X321850Y106890D01*
D02*
G37*
G36*
X323873Y52505D02*
Y51575D01*
X328669Y46779D01*
X327559Y45669D01*
X294882Y45669D01*
X293701Y46457D01*
Y49606D01*
X295669Y51575D01*
X299606D01*
X300787Y52756D01*
X303543D01*
X304724Y51575D01*
X318110D01*
X320079Y53543D01*
X322835D01*
X323873Y52505D01*
D02*
G37*
G36*
X302756Y30315D02*
X300394Y27953D01*
X294882Y27953D01*
X294094Y28740D01*
Y31890D01*
X295024Y32819D01*
X300252D01*
X302756Y30315D01*
D02*
G37*
D12*
X221457Y84842D02*
X227334Y90720D01*
X227443Y176758D02*
X227703Y177018D01*
X227443Y175859D02*
Y176758D01*
X227334Y175751D02*
X227443Y175859D01*
X227334Y90720D02*
Y175751D01*
X212391Y90541D02*
X224016Y102165D01*
Y180690D02*
X226003Y182677D01*
X224016Y102165D02*
Y180690D01*
D44*
X327165Y11614D02*
D03*
Y15354D02*
D03*
Y19094D02*
D03*
X337402D02*
D03*
Y11614D02*
D03*
D63*
X14173Y177953D02*
D03*
X161024Y13386D02*
D03*
D69*
X306496Y66142D02*
D03*
X313976D02*
D03*
X308071Y16929D02*
D03*
X315551D02*
D03*
X327165Y98032D02*
D03*
X319685D02*
D03*
X327362Y104724D02*
D03*
X319882D02*
D03*
D70*
X312993Y75197D02*
D03*
X306693D02*
D03*
X312993Y81102D02*
D03*
X306693D02*
D03*
X312599Y59449D02*
D03*
X306299D02*
D03*
X348031Y55512D02*
D03*
X354331D02*
D03*
X360630D02*
D03*
X366930D02*
D03*
X327559Y24016D02*
D03*
X333859D02*
D03*
D71*
X309055Y40945D02*
D03*
Y48425D02*
D03*
X315748Y40945D02*
D03*
Y48425D02*
D03*
X322441Y40945D02*
D03*
Y48425D02*
D03*
X309055Y22638D02*
D03*
Y30118D02*
D03*
X345276Y19094D02*
D03*
Y11614D02*
D03*
D75*
X308268Y87007D02*
D03*
Y93307D02*
D03*
X313386Y93307D02*
D03*
Y87007D02*
D03*
X348819Y92126D02*
D03*
Y85826D02*
D03*
X354331Y85826D02*
D03*
Y92126D02*
D03*
X359842Y85826D02*
D03*
Y92126D02*
D03*
X354331Y80315D02*
D03*
Y74015D02*
D03*
X359842Y74015D02*
D03*
Y80315D02*
D03*
X354331Y68504D02*
D03*
Y62204D02*
D03*
X359842Y68504D02*
D03*
Y62204D02*
D03*
X315748Y29528D02*
D03*
Y23227D02*
D03*
X321260Y29528D02*
D03*
Y23227D02*
D03*
Y17717D02*
D03*
Y11417D02*
D03*
D103*
X310870Y54091D02*
X311035Y54256D01*
X311645D01*
X311719Y54331D01*
X316535D01*
X319843Y57638D01*
Y61378D01*
X339214Y66770D02*
X339606Y66378D01*
X337015Y69285D02*
Y94495D01*
X339214Y66770D02*
Y67085D01*
X337015Y69285D02*
X339214Y67085D01*
X339606Y66378D02*
X346220D01*
X337015Y94495D02*
X339764Y97244D01*
X339706Y111430D02*
X351924Y99213D01*
X369685D02*
X373622Y95276D01*
X351924Y99213D02*
X369685D01*
X373622Y71260D02*
Y95276D01*
X370866Y68504D02*
X373622Y71260D01*
X359842Y68504D02*
X370866D01*
X346220Y66378D02*
X346850Y65748D01*
X346860D01*
X348031Y64576D01*
Y55512D02*
Y64576D01*
X348557Y71378D02*
X351431Y68504D01*
X354331D01*
X340787Y71378D02*
X348557D01*
X359842Y68504D02*
X359842Y68504D01*
X354331Y68504D02*
X359842D01*
X306299Y65945D02*
X306496Y66142D01*
X306299Y59449D02*
Y65945D01*
X319606Y66142D02*
X319843Y66378D01*
X313976Y66142D02*
X319606D01*
X313695Y71378D02*
X319843D01*
X312993Y72081D02*
Y75197D01*
Y72081D02*
X313695Y71378D01*
X312993Y81102D02*
X313268Y81378D01*
X319843D01*
X308268Y87007D02*
X308897Y86378D01*
X319843D01*
X340354Y24016D02*
X345276Y19094D01*
X333859Y24016D02*
X340354D01*
X333786Y20876D02*
X333859Y20949D01*
X333786Y18810D02*
Y20876D01*
X333859Y20949D02*
Y24016D01*
X330331Y15354D02*
X333786Y18810D01*
X327165Y15354D02*
X330331D01*
X327165Y23622D02*
X327362Y23819D01*
Y31102D01*
X327165Y19094D02*
Y23622D01*
X315551Y16929D02*
X320472D01*
X321260Y17717D01*
X321654Y18111D02*
Y22834D01*
X321260Y17717D02*
X321654Y18111D01*
X321260Y23227D02*
X321654Y22834D01*
X315748Y23227D02*
X321260D01*
X315748Y29528D02*
X321260D01*
X315158Y30118D02*
X315748Y29528D01*
X309055Y30118D02*
X315158D01*
X308787Y30387D02*
X309055Y30118D01*
X297702Y30387D02*
X308787D01*
X206102Y195079D02*
X249409D01*
X72730Y154331D02*
X165354D01*
X206102Y195079D01*
X59759Y141360D02*
X72730Y154331D01*
X249409Y195079D02*
X274606Y169882D01*
Y144882D02*
Y169882D01*
D104*
X53937Y124016D02*
X54633Y123320D01*
Y123320D02*
Y123320D01*
Y123320D02*
X67716Y110236D01*
X348819Y85826D02*
X359842D01*
X340787Y86378D02*
X341339Y85826D01*
X348819D01*
X340787Y91378D02*
X348071D01*
X348819Y92126D01*
X311603Y58899D02*
X312049D01*
X306495Y53791D02*
X311603Y58899D01*
X303389Y53791D02*
X306495D01*
X312049Y58899D02*
X312599Y59449D01*
X299985Y50140D02*
Y50387D01*
X297949Y48103D02*
X299985Y50140D01*
Y50387D02*
X303389Y53791D01*
X297702Y48103D02*
X297949D01*
X366929Y62402D02*
X366930Y62401D01*
Y55512D02*
Y62401D01*
X354331Y80315D02*
X366339D01*
X354330Y80315D02*
X354331Y80315D01*
X349213Y80315D02*
X354330D01*
X340787Y81378D02*
X348150D01*
X349213Y80315D01*
X354331Y74015D02*
X366733D01*
X354330Y74016D02*
X354331Y74015D01*
X351181Y74016D02*
X354330D01*
X348819Y76378D02*
X351181Y74016D01*
X340787Y76378D02*
X348819D01*
X366733Y74015D02*
X366929Y73819D01*
X366339Y80315D02*
X366929Y80905D01*
X366733Y92126D02*
X366929Y92323D01*
X359842Y92126D02*
X366733D01*
X354331D02*
X354331Y92126D01*
X348819Y92126D02*
X354331D01*
X308071Y9252D02*
Y16929D01*
X332420Y38840D02*
Y41596D01*
X325861Y48155D02*
X332420Y41596D01*
Y38840D02*
X338779Y32480D01*
Y31102D02*
Y32480D01*
X350394Y31102D02*
X353937Y27559D01*
X338779Y31102D02*
X350394D01*
X351772Y11614D02*
X353937Y13780D01*
Y27559D01*
X345276Y11614D02*
X351772D01*
X337402D02*
X345276D01*
X230315Y224410D02*
Y242321D01*
Y224410D02*
X238189Y216535D01*
X230315Y242321D02*
X234252Y246258D01*
X238189Y216535D02*
X273622D01*
X234252Y246258D02*
Y249606D01*
X67716Y110236D02*
X118898D01*
D105*
X330315Y111417D02*
X332283Y109449D01*
Y68660D02*
X337657Y63286D01*
X332283Y68660D02*
Y109449D01*
X316535Y111417D02*
X325591D01*
X308268Y92957D02*
Y103150D01*
X316535Y111417D01*
X340551Y61142D02*
X340787Y61378D01*
X354331Y62204D02*
X354331Y62204D01*
X307718Y92407D02*
X308268Y92957D01*
X303543Y84251D02*
Y88583D01*
X342520Y48819D02*
X359165D01*
X354331Y55512D02*
Y62204D01*
X327165Y98032D02*
Y104528D01*
X325591Y111417D02*
X330315D01*
X327165Y104528D02*
X327362Y104724D01*
X325591Y110763D02*
Y111417D01*
X340551Y50787D02*
Y61142D01*
X360630Y50283D02*
Y55512D01*
X325591Y110763D02*
X327362Y108991D01*
X303543Y84251D02*
X305792Y82002D01*
X354331Y62204D02*
X359842D01*
X338879Y63286D02*
X340787Y61378D01*
X337657Y63286D02*
X338879D01*
X327362Y104724D02*
Y108991D01*
X340551Y50787D02*
X342520Y48819D01*
X354331Y55512D02*
X354331Y55512D01*
X303543Y88583D02*
X307368Y92407D01*
X307718D01*
X359165Y48819D02*
X360630Y50283D01*
X354331Y55512D02*
X360630D01*
X306693Y75197D02*
Y81102D01*
X319291Y50000D02*
X326378Y57087D01*
Y89913D01*
X324914Y91378D02*
X326378Y89913D01*
X319843Y91378D02*
X324914D01*
X333859Y24016D02*
Y32285D01*
X325592Y40551D02*
X333859Y32285D01*
X325197Y40551D02*
X325592D01*
X243024Y5906D02*
X244488Y7370D01*
Y17323D01*
X200000Y5906D02*
X243024D01*
X197244Y8661D02*
X200000Y5906D01*
X156693Y55905D02*
X195780D01*
X197244Y54441D01*
Y8661D02*
Y54441D01*
D106*
X183858Y130709D02*
X194488D01*
X197175Y133396D02*
X203543D01*
X194488Y130709D02*
X197175Y133396D01*
X57480Y133071D02*
X181496D01*
X183858Y130709D01*
X46850Y125591D02*
X60236Y138976D01*
X205512D01*
X210084Y134404D01*
X49213Y124803D02*
X57480Y133071D01*
X210084Y130020D02*
Y134404D01*
X209440Y129375D02*
X210084Y130020D01*
X204179Y129375D02*
X209440D01*
X203937Y129134D02*
X204179Y129375D01*
X49213Y107874D02*
Y124803D01*
X46850Y105512D02*
Y125591D01*
X49213Y107874D02*
X53543Y103543D01*
X46850Y105512D02*
X48819Y103543D01*
X259842Y29528D02*
X274803D01*
X216260Y61683D02*
X227687D01*
X259842Y29528D01*
X233071Y93019D02*
Y120472D01*
X212529Y65413D02*
X216260Y61683D01*
X212529Y72477D02*
X233071Y93019D01*
X212529Y65413D02*
Y72477D01*
D107*
X221260Y112992D02*
Y171653D01*
X203543Y95276D02*
X221260Y112992D01*
X219685Y173228D02*
X221260Y171653D01*
X203543Y66929D02*
Y95276D01*
X223257Y59449D02*
X224574Y58131D01*
Y57305D02*
X224798Y57082D01*
X224574Y57305D02*
Y58131D01*
X211024Y59449D02*
X223257D01*
X203543Y66929D02*
X211024Y59449D01*
D108*
X331299Y11614D02*
X336501Y16816D01*
Y18513D02*
X337083Y19094D01*
X337402D01*
X336501Y16816D02*
Y18513D01*
X327165Y11614D02*
X331299D01*
X321457D02*
X327165D01*
X321260Y11417D02*
X321457Y11614D01*
D109*
X277374Y131028D02*
G03*
X279453Y131028I1039J1039D01*
G01*
X276638Y131764D02*
G03*
X274891Y131764I-873J-873D01*
G01*
D02*
G03*
X274891Y130018I873J-873D01*
G01*
X275628Y127203D02*
G03*
X275628Y129281I-1039J1039D01*
G01*
X214899Y66339D02*
X215148Y66588D01*
X214764Y69307D02*
X214899D01*
X215148Y66588D02*
X218506D01*
X214899Y69307D02*
X215148Y69058D01*
X218506Y66588D02*
X284252Y132334D01*
X214764Y66339D02*
X214899D01*
X215148Y69058D02*
X217483D01*
X275108Y126683D01*
X281782Y133357D02*
Y134982D01*
X279453Y131028D02*
X281782Y133357D01*
X276638Y131764D02*
X277374Y131028D01*
X274891Y130018D02*
X275628Y129281D01*
X275628Y129281D02*
X275628Y129281D01*
X275108Y126683D02*
X275628Y127203D01*
X281782Y134982D02*
Y153308D01*
X277682Y156639D02*
X281944D01*
X284252Y132334D02*
Y154331D01*
X281944Y156639D02*
X284252Y154331D01*
X277654Y156611D02*
X277682Y156639D01*
X277654Y154141D02*
X280949D01*
X281782Y153308D01*
D110*
X235433Y228346D02*
Y242913D01*
X237402Y244882D01*
D112*
X194055Y323583D02*
Y330669D01*
X199055Y335669D02*
Y346850D01*
X194055Y330669D02*
X199055Y335669D01*
X245630Y323583D02*
X250630Y328583D01*
Y346850D01*
D114*
X297702Y18576D02*
D03*
Y24481D02*
D03*
Y30387D02*
D03*
Y36292D02*
D03*
Y42198D02*
D03*
Y48103D02*
D03*
X274803Y17717D02*
D03*
Y23622D02*
D03*
Y29528D02*
D03*
Y35433D02*
D03*
Y41339D02*
D03*
Y47244D02*
D03*
D115*
X194055Y323583D02*
D03*
Y293583D02*
D03*
X224055Y313583D02*
D03*
X194055Y253583D02*
D03*
X224055D02*
D03*
X243661Y323583D02*
D03*
Y293583D02*
D03*
X273661Y313583D02*
D03*
X243661Y253583D02*
D03*
X273661D02*
D03*
D116*
X31890Y177953D02*
D03*
X179921Y43701D02*
D03*
D117*
X44488Y159055D02*
D03*
X161024Y31102D02*
D03*
D118*
X56693Y182283D02*
D03*
D119*
X56004Y54262D02*
D03*
Y61486D02*
D03*
X59616Y50650D02*
D03*
Y57874D02*
D03*
Y65098D02*
D03*
X63228Y54262D02*
D03*
Y61486D02*
D03*
X66840Y50650D02*
D03*
Y57874D02*
D03*
Y65098D02*
D03*
X70453Y54262D02*
D03*
Y61486D02*
D03*
D120*
X22441Y129134D02*
D03*
Y109449D02*
D03*
X140818Y101448D02*
D03*
X126899Y87529D02*
D03*
X55512Y346457D02*
D03*
X173622D02*
D03*
X34252Y238189D02*
D03*
X14567D02*
D03*
Y281496D02*
D03*
X34252D02*
D03*
X153543Y309055D02*
D03*
X74803D02*
D03*
X133858Y230315D02*
D03*
X94488D02*
D03*
D121*
X339706Y111430D02*
D03*
X325591Y111417D02*
D03*
X339764Y97244D02*
D03*
D122*
X156693Y55905D02*
D03*
D123*
X248661Y346850D02*
D03*
X268661D02*
D03*
X199055D02*
D03*
X219055D02*
D03*
X23622Y346614D02*
D03*
Y326614D02*
D03*
D124*
X82480Y128819D02*
D03*
X77520Y128701D02*
D03*
X72047Y128825D02*
D03*
X310870Y54091D02*
D03*
X308071Y9252D02*
D03*
X313779Y36614D02*
D03*
X318898D02*
D03*
X261811Y226378D02*
D03*
X233858Y154331D02*
D03*
X54331Y150000D02*
D03*
X73228Y150394D02*
D03*
X80315D02*
D03*
X100000Y182283D02*
D03*
X112205Y189764D02*
D03*
X123622Y176772D02*
D03*
X132283D02*
D03*
X174803Y159449D02*
D03*
X164567Y126378D02*
D03*
X139370Y120866D02*
D03*
X180315Y90551D02*
D03*
X124016Y96457D02*
D03*
X266535Y20079D02*
D03*
X266142Y33071D02*
D03*
X238583Y39764D02*
D03*
X248819Y74803D02*
D03*
X276378D02*
D03*
Y90551D02*
D03*
X225984Y81890D02*
D03*
X175591Y116142D02*
D03*
X200000Y122441D02*
D03*
X218110Y154724D02*
D03*
Y146850D02*
D03*
X233858Y146063D02*
D03*
X258661Y128347D02*
D03*
X273622Y200787D02*
D03*
Y216535D02*
D03*
X197638Y172047D02*
D03*
X189764D02*
D03*
X206693Y197710D02*
D03*
X190945Y196457D02*
D03*
X212598Y208661D02*
D03*
Y220472D02*
D03*
X196850D02*
D03*
X234252Y249606D02*
D03*
X162992Y163779D02*
D03*
X157874Y162598D02*
D03*
X155512Y157480D02*
D03*
X151575D02*
D03*
Y151575D02*
D03*
X276772Y100394D02*
D03*
X251181Y168504D02*
D03*
X190551Y135433D02*
D03*
X59759Y141360D02*
D03*
X22835Y33071D02*
D03*
Y25197D02*
D03*
Y17323D02*
D03*
Y9449D02*
D03*
X65945Y18701D02*
D03*
X203543Y133396D02*
D03*
X203937Y129134D02*
D03*
X48819Y103543D02*
D03*
X53543D02*
D03*
X247638Y122047D02*
D03*
X199213Y96850D02*
D03*
X212148Y79034D02*
D03*
X226003Y182677D02*
D03*
X227703Y177018D02*
D03*
X258174Y179622D02*
D03*
X250000Y55118D02*
D03*
X263779D02*
D03*
X257087D02*
D03*
X244488Y17323D02*
D03*
X233071Y120472D02*
D03*
X48031Y5512D02*
D03*
X44094Y7480D02*
D03*
Y4331D02*
D03*
X237402Y244882D02*
D03*
X235433Y228346D02*
D03*
X274606Y144882D02*
D03*
X221457Y84842D02*
D03*
X212391Y90541D02*
D03*
X179724Y105709D02*
D03*
Y109646D02*
D03*
X118898Y110236D02*
D03*
X114961Y106299D02*
D03*
Y114173D02*
D03*
X67716Y164173D02*
D03*
X62992D02*
D03*
X58268D02*
D03*
X57874Y191339D02*
D03*
X65748D02*
D03*
X73622D02*
D03*
D125*
X53937Y124016D02*
D03*
X224798Y57082D02*
D03*
X219685Y173228D02*
D03*
X214764Y66339D02*
D03*
D126*
X220472Y44094D02*
D03*
X220208Y25787D02*
D03*
X214764Y69307D02*
D03*
X277654Y156611D02*
D03*
Y154141D02*
D03*
D127*
X137402Y55905D02*
X156693D01*
X114961Y78347D02*
X137402Y55905D01*
X114961Y78347D02*
Y106299D01*
D171*
X366929Y92323D02*
D03*
Y80905D02*
D03*
Y62402D02*
D03*
Y73819D02*
D03*
D172*
X319843Y61378D02*
D03*
Y66378D02*
D03*
Y71378D02*
D03*
Y76378D02*
D03*
Y81378D02*
D03*
Y86378D02*
D03*
Y91378D02*
D03*
X340787Y61378D02*
D03*
Y66378D02*
D03*
Y71378D02*
D03*
Y76378D02*
D03*
Y81378D02*
D03*
Y86378D02*
D03*
Y91378D02*
D03*
D173*
X338779Y31102D02*
D03*
X327362D02*
D03*
M02*
