G04*
G04 #@! TF.GenerationSoftware,Altium Limited,Altium Designer,23.4.1 (23)*
G04*
G04 Layer_Color=8388736*
%FSLAX25Y25*%
%MOIN*%
G70*
G04*
G04 #@! TF.SameCoordinates,687DAE7F-2A6D-4925-9110-F28A9C07312E*
G04*
G04*
G04 #@! TF.FilePolarity,Negative*
G04*
G01*
G75*
%ADD21R,0.03150X0.05512*%
%ADD22R,0.04194X0.03494*%
%ADD23R,0.05512X0.03150*%
G04:AMPARAMS|DCode=24|XSize=66.93mil|YSize=53.15mil|CornerRadius=0mil|HoleSize=0mil|Usage=FLASHONLY|Rotation=225.000|XOffset=0mil|YOffset=0mil|HoleType=Round|Shape=Rectangle|*
%AMROTATEDRECTD24*
4,1,4,0.00487,0.04245,0.04245,0.00487,-0.00487,-0.04245,-0.04245,-0.00487,0.00487,0.04245,0.0*
%
%ADD24ROTATEDRECTD24*%

%ADD25R,0.05118X0.01575*%
%ADD26R,0.01575X0.05118*%
%ADD27R,0.03494X0.04194*%
%ADD28R,0.04724X0.03543*%
%ADD29R,0.08268X0.04724*%
%ADD30R,0.02756X0.02756*%
%ADD31R,0.06693X0.06693*%
%ADD32R,0.17717X0.13386*%
%ADD33R,0.24803X0.15748*%
%ADD34R,0.03937X0.08268*%
%ADD35R,0.08268X0.03937*%
%ADD36R,0.05630X0.05630*%
%ADD37R,0.09252X0.08740*%
%ADD38R,0.07874X0.07480*%
%ADD39R,0.08661X0.06693*%
%ADD40R,0.01968X0.05709*%
%ADD41R,0.02756X0.05748*%
%ADD42R,0.04528X0.02559*%
%ADD43R,0.06299X0.02362*%
%ADD44R,0.04331X0.02362*%
%ADD45R,0.04331X0.03543*%
%ADD46R,0.03150X0.06299*%
%ADD47R,0.13386X0.17717*%
%ADD48R,0.15748X0.24803*%
%ADD49R,0.05512X0.13780*%
%ADD50R,0.02559X0.04528*%
%ADD51R,0.13386X0.06693*%
%ADD52R,0.05118X0.06693*%
%ADD53R,0.06496X0.05118*%
%ADD54R,0.12205X0.08268*%
%ADD55C,0.00118*%
%ADD56O,0.07087X0.05118*%
%ADD57C,0.10236*%
%ADD58C,0.08661*%
%ADD59O,0.08268X0.16142*%
%ADD60O,0.16142X0.08268*%
%ADD61O,0.07480X0.14567*%
%ADD62C,0.01575*%
%ADD63C,0.08268*%
%ADD64C,0.04331*%
%ADD65C,0.00394*%
%ADD66O,0.14567X0.07480*%
%ADD67C,0.12205*%
%ADD68C,0.02756*%
D21*
X250984Y162598D02*
D03*
X258465D02*
D03*
X215748Y177953D02*
D03*
X208268D02*
D03*
X336260Y81260D02*
D03*
X328780D02*
D03*
X251969Y24803D02*
D03*
X244488D02*
D03*
X184843Y127559D02*
D03*
X177362D02*
D03*
X250984D02*
D03*
X243504D02*
D03*
X37992Y5118D02*
D03*
X30512D02*
D03*
X37992Y11811D02*
D03*
X30512D02*
D03*
X30512Y18504D02*
D03*
X37992D02*
D03*
X151181Y131102D02*
D03*
X143701D02*
D03*
D22*
X266142Y157832D02*
D03*
X259842Y157686D02*
D03*
X266142Y153232D02*
D03*
X259842Y153613D02*
D03*
X267324Y144685D02*
D03*
X261024D02*
D03*
X181496Y166358D02*
D03*
X187796D02*
D03*
X230926Y228225D02*
D03*
X224626D02*
D03*
X246063Y228346D02*
D03*
X239763D02*
D03*
X336575Y48937D02*
D03*
X330275D02*
D03*
X335080Y71417D02*
D03*
X328780D02*
D03*
X175590Y141949D02*
D03*
X181890D02*
D03*
X178740Y134468D02*
D03*
X185040D02*
D03*
X66141Y11024D02*
D03*
X72441D02*
D03*
X105906Y120472D02*
D03*
X99606D02*
D03*
X270473Y88583D02*
D03*
X264173D02*
D03*
D23*
X196850Y135236D02*
D03*
Y127756D02*
D03*
X80709Y139370D02*
D03*
Y131890D02*
D03*
X73622Y139370D02*
D03*
Y131890D02*
D03*
X46063Y131299D02*
D03*
Y123819D02*
D03*
X263779Y47244D02*
D03*
Y39764D02*
D03*
X257087Y47244D02*
D03*
Y39764D02*
D03*
X250000Y47244D02*
D03*
Y39764D02*
D03*
X192126Y108268D02*
D03*
Y115748D02*
D03*
X184252Y108268D02*
D03*
Y115748D02*
D03*
X160630Y157283D02*
D03*
Y149803D02*
D03*
X124409Y160630D02*
D03*
Y168110D02*
D03*
X116535Y160630D02*
D03*
Y168110D02*
D03*
X198031Y185433D02*
D03*
Y177953D02*
D03*
X190157Y185433D02*
D03*
Y177953D02*
D03*
X264173Y96063D02*
D03*
Y103543D02*
D03*
X271260Y96063D02*
D03*
Y103543D02*
D03*
D24*
X188912Y145999D02*
D03*
X199213Y156299D02*
D03*
X182788Y152123D02*
D03*
X193088Y162424D02*
D03*
D25*
X209842Y162421D02*
D03*
Y160453D02*
D03*
Y158484D02*
D03*
Y156516D02*
D03*
Y154547D02*
D03*
Y152579D02*
D03*
Y150610D02*
D03*
Y148642D02*
D03*
Y146673D02*
D03*
Y144705D02*
D03*
Y142736D02*
D03*
Y140768D02*
D03*
X243307D02*
D03*
Y142736D02*
D03*
Y144705D02*
D03*
Y146673D02*
D03*
Y148642D02*
D03*
Y150610D02*
D03*
Y152579D02*
D03*
Y154547D02*
D03*
Y156516D02*
D03*
Y158484D02*
D03*
Y160453D02*
D03*
Y162421D02*
D03*
D26*
X215748Y134862D02*
D03*
X217717D02*
D03*
X219685D02*
D03*
X221654D02*
D03*
X223622D02*
D03*
X225590D02*
D03*
X227559D02*
D03*
X229528D02*
D03*
X231496D02*
D03*
X233465D02*
D03*
X235433D02*
D03*
X237402D02*
D03*
Y168327D02*
D03*
X235433D02*
D03*
X233465D02*
D03*
X231496D02*
D03*
X229528D02*
D03*
X227559D02*
D03*
X225590D02*
D03*
X223622D02*
D03*
X221654D02*
D03*
X219685D02*
D03*
X217717D02*
D03*
X215748D02*
D03*
D27*
X230532Y242220D02*
D03*
Y235920D02*
D03*
X237185Y235135D02*
D03*
Y241435D02*
D03*
X59842Y109843D02*
D03*
Y116142D02*
D03*
X229134Y120295D02*
D03*
Y113995D02*
D03*
X224016Y120276D02*
D03*
Y113976D02*
D03*
X218898D02*
D03*
Y120276D02*
D03*
X213779Y113976D02*
D03*
Y120276D02*
D03*
X205906Y90551D02*
D03*
Y96851D02*
D03*
Y85040D02*
D03*
Y78740D02*
D03*
X78740Y9448D02*
D03*
Y15748D02*
D03*
X43701Y17323D02*
D03*
Y11023D02*
D03*
X113386Y30709D02*
D03*
Y24409D02*
D03*
X223622Y198229D02*
D03*
Y191929D02*
D03*
D28*
X242913Y241339D02*
D03*
Y233858D02*
D03*
X250354Y237598D02*
D03*
X45669Y113779D02*
D03*
X53110Y117520D02*
D03*
Y110039D02*
D03*
X328957Y59449D02*
D03*
X336398Y63189D02*
D03*
Y55709D02*
D03*
X51004Y14961D02*
D03*
X58445Y18701D02*
D03*
Y11220D02*
D03*
X224803Y234646D02*
D03*
Y242126D02*
D03*
X217362Y238386D02*
D03*
D29*
X240945Y179764D02*
D03*
Y189764D02*
D03*
Y199764D02*
D03*
Y209764D02*
D03*
Y219764D02*
D03*
D30*
X85433Y194095D02*
D03*
Y185433D02*
D03*
D31*
X99606Y203150D02*
D03*
X85433D02*
D03*
D32*
X64370Y175394D02*
D03*
D33*
X29134Y152559D02*
D03*
Y203346D02*
D03*
D34*
X33701Y28346D02*
D03*
X38701D02*
D03*
X43701D02*
D03*
X48701D02*
D03*
X53701D02*
D03*
X58701D02*
D03*
X63701D02*
D03*
X68701D02*
D03*
X73701D02*
D03*
X78701D02*
D03*
X83701D02*
D03*
X88701D02*
D03*
X93701D02*
D03*
X98701D02*
D03*
Y95276D02*
D03*
X93701D02*
D03*
X88701D02*
D03*
X83701D02*
D03*
X78701D02*
D03*
X73701D02*
D03*
X68701D02*
D03*
X63701D02*
D03*
X58701D02*
D03*
X53701D02*
D03*
X48701D02*
D03*
X43701D02*
D03*
X38701D02*
D03*
X33701D02*
D03*
D35*
X102638Y39311D02*
D03*
Y44311D02*
D03*
Y49311D02*
D03*
Y54311D02*
D03*
Y59311D02*
D03*
Y64311D02*
D03*
Y69311D02*
D03*
Y74311D02*
D03*
Y79311D02*
D03*
Y84311D02*
D03*
D36*
X56004Y50650D02*
D03*
Y57874D02*
D03*
Y65098D02*
D03*
X63228Y50650D02*
D03*
Y57874D02*
D03*
Y65098D02*
D03*
X70453Y50650D02*
D03*
Y57874D02*
D03*
Y65098D02*
D03*
D37*
X69410Y110236D02*
D03*
X86614D02*
D03*
D38*
X233858Y8071D02*
D03*
X203937D02*
D03*
D39*
X231102Y18809D02*
D03*
X206693D02*
D03*
D40*
X213779Y19291D02*
D03*
X216339D02*
D03*
X218898D02*
D03*
X221457D02*
D03*
X224016D02*
D03*
D41*
X224016Y39173D02*
D03*
X220276D02*
D03*
X216535D02*
D03*
Y29921D02*
D03*
X220276D02*
D03*
X224016D02*
D03*
D42*
X233071Y32677D02*
D03*
X244094D02*
D03*
X258268Y237795D02*
D03*
X269291D02*
D03*
X211240Y242004D02*
D03*
X200217D02*
D03*
D43*
X234842Y98563D02*
D03*
Y93563D02*
D03*
Y88563D02*
D03*
X256496D02*
D03*
Y93563D02*
D03*
Y98563D02*
D03*
Y103563D02*
D03*
X234842D02*
D03*
X170276Y100413D02*
D03*
X191929D02*
D03*
Y95413D02*
D03*
Y90413D02*
D03*
Y85413D02*
D03*
X170276D02*
D03*
Y90413D02*
D03*
Y95413D02*
D03*
X113583Y127146D02*
D03*
X91929D02*
D03*
Y132146D02*
D03*
Y137146D02*
D03*
Y142146D02*
D03*
X113583D02*
D03*
Y137146D02*
D03*
Y132146D02*
D03*
D44*
X159449Y95473D02*
D03*
Y99803D02*
D03*
D45*
X84055Y4331D02*
D03*
X112795D02*
D03*
X84055Y12205D02*
D03*
X112795D02*
D03*
D46*
X107283Y15157D02*
D03*
X101378D02*
D03*
X89567D02*
D03*
D47*
X163583Y63583D02*
D03*
D48*
X186417Y28346D02*
D03*
X135630D02*
D03*
D49*
X98228Y110236D02*
D03*
X106496D02*
D03*
D50*
X151181Y122835D02*
D03*
Y111811D02*
D03*
D51*
X142126Y168110D02*
D03*
D52*
X151181Y142913D02*
D03*
X142126D02*
D03*
X133071D02*
D03*
D53*
X146850Y182658D02*
D03*
X112205D02*
D03*
Y203169D02*
D03*
X146850D02*
D03*
D54*
X104724Y160630D02*
D03*
X81102D02*
D03*
D55*
X332688Y9460D02*
X345777D01*
X332688Y8988D02*
X345777D01*
X332688Y9342D02*
X345777D01*
X332688Y8870D02*
X345777D01*
X332688Y9224D02*
X345777D01*
X332688Y9106D02*
X345777D01*
X332688Y8752D02*
X345777D01*
X332688Y6747D02*
X345777D01*
X332688Y7101D02*
X345777D01*
X332688Y6512D02*
X345777D01*
X332688Y6158D02*
X345777D01*
X332688Y6394D02*
X345777D01*
X332688Y6865D02*
X345777D01*
X332688Y6983D02*
X345777D01*
X332688Y6276D02*
X345777D01*
X332688Y6629D02*
X345777D01*
X332688Y7219D02*
X345777D01*
X332688Y8162D02*
X345777D01*
X332688Y8044D02*
X345777D01*
X332688Y7691D02*
X345777D01*
X332688Y7573D02*
X345777D01*
X332688Y7455D02*
X345777D01*
X332688Y7337D02*
X345777D01*
X332688Y8398D02*
X345777D01*
X332688Y8280D02*
X345777D01*
X332688Y8634D02*
X345777D01*
X332688Y7809D02*
X345777D01*
X332688Y8516D02*
X345777D01*
X332688Y7927D02*
X345777D01*
X332688Y9695D02*
X345777D01*
X332688Y10049D02*
X345777D01*
X332688Y10521D02*
X345777D01*
X332688Y10403D02*
X345777D01*
X332688Y10167D02*
X345777D01*
X332688Y10285D02*
X345777D01*
X332688Y10639D02*
X345777D01*
X332688Y9577D02*
X345777D01*
X332688Y9931D02*
X345777D01*
X332688Y9813D02*
X345777D01*
X332688Y5215D02*
X345777D01*
X332688Y5568D02*
X345777D01*
X332688Y5922D02*
X345777D01*
X332688Y6040D02*
X345777D01*
X332688Y5804D02*
X345777D01*
X332688Y5333D02*
X345777D01*
X332688Y5686D02*
X345777D01*
X332688Y5450D02*
X345777D01*
X332688Y17360D02*
X334457D01*
X332688Y16888D02*
X335283D01*
X332688Y17006D02*
X335047D01*
X332688Y16298D02*
X336344D01*
X332688Y16534D02*
X335990D01*
X332688Y17124D02*
X334929D01*
X332688Y16417D02*
X336108D01*
X332688Y16770D02*
X335518D01*
X332688Y16181D02*
X336580D01*
X332688Y16652D02*
X335754D01*
X332688Y17596D02*
X333985D01*
X332688Y14176D02*
X345777D01*
X332688Y13940D02*
X345777D01*
X332688Y13822D02*
X345777D01*
X332688Y14294D02*
X345777D01*
X332688Y14058D02*
X345777D01*
X332688Y13704D02*
X345777D01*
X332688Y15237D02*
X338348D01*
X332688Y15001D02*
X338702D01*
X332688Y15473D02*
X337877D01*
X332688Y14884D02*
X338938D01*
X332688Y15119D02*
X338466D01*
X332688Y14766D02*
X339174D01*
X332688Y15355D02*
X338112D01*
X332688Y13587D02*
X345777D01*
X332688Y14412D02*
X345777D01*
X332688Y15709D02*
X337405D01*
X341060D02*
X345777D01*
X332688Y15827D02*
X337169D01*
X332688Y16063D02*
X336816D01*
X332688Y15945D02*
X337051D01*
X332688Y10875D02*
X345777D01*
X332688Y11582D02*
X345777D01*
X332688Y10992D02*
X345777D01*
X332688Y11228D02*
X345777D01*
X332688Y11464D02*
X345777D01*
X332688Y11346D02*
X345777D01*
X332688Y11700D02*
X345777D01*
X332688Y10757D02*
X345777D01*
X332688Y11818D02*
X345777D01*
X332688Y11110D02*
X345777D01*
X340825Y15591D02*
X345777D01*
X332688D02*
X337641D01*
X340117Y15237D02*
X345777D01*
X332688Y14530D02*
X345777D01*
X339292Y14766D02*
X345777D01*
X339528Y14884D02*
X345777D01*
X339763Y15001D02*
X345777D01*
X340353Y15355D02*
X345777D01*
X339999Y15119D02*
X345777D01*
X332688Y14648D02*
X345777D01*
X340589Y15473D02*
X345777D01*
X332688Y18185D02*
X332924D01*
X332688Y17949D02*
X333396D01*
X345305Y18067D02*
X345777D01*
X332688Y17831D02*
X333514D01*
X332688Y18067D02*
X333160D01*
X345541Y18185D02*
X345777D01*
X332688Y17242D02*
X334693D01*
X332688Y17714D02*
X333750D01*
X332688Y17478D02*
X334221D01*
X332688Y13115D02*
X345777D01*
X332688Y12054D02*
X345777D01*
X332688Y12172D02*
X345777D01*
X332688Y12643D02*
X345777D01*
X332688Y12407D02*
X345777D01*
X332688Y11936D02*
X345777D01*
X332688Y12997D02*
X345777D01*
X332688Y12879D02*
X345777D01*
X332688Y13351D02*
X345777D01*
X332688Y12289D02*
X345777D01*
X332688Y12525D02*
X345777D01*
X332688Y13233D02*
X345777D01*
X332688Y13469D02*
X345777D01*
X332688Y12761D02*
X345777D01*
X360280Y6040D02*
X373723D01*
X360163Y5804D02*
X373841D01*
X360516Y6512D02*
X373487D01*
X347192Y13822D02*
X360398D01*
X347546Y14648D02*
X360045D01*
X347664Y14766D02*
X360045D01*
X347428Y14412D02*
X360163D01*
X347074Y13351D02*
X360516D01*
X347074Y13115D02*
X360634D01*
X347310Y13940D02*
X360398D01*
X347192Y13469D02*
X360516D01*
X347310Y14176D02*
X360280D01*
X347192Y13587D02*
X360516D01*
X347074Y13233D02*
X360516D01*
X347546Y14530D02*
X360163D01*
X347310Y14058D02*
X360280D01*
X347074Y12997D02*
X360634D01*
X346956Y12761D02*
X360634D01*
X363936Y12879D02*
X369950D01*
X363818Y12525D02*
X370185D01*
X364172Y13115D02*
X369832D01*
X364290Y13351D02*
X369714D01*
X364407Y13587D02*
X369596D01*
X363818Y12643D02*
X370067D01*
X364054Y12997D02*
X369950D01*
X364172Y13233D02*
X369832D01*
X363936Y12761D02*
X370067D01*
X364290Y13469D02*
X369596D01*
X363700Y12289D02*
X370303D01*
X360398Y6276D02*
X373605D01*
X361578Y8398D02*
X372426D01*
X360045Y5568D02*
X373959D01*
X352498Y4979D02*
X355092D01*
X360398Y6394D02*
X373487D01*
X347781Y8516D02*
X359927D01*
X352027Y5097D02*
X355564D01*
X360280Y6158D02*
X373723D01*
X360045Y5686D02*
X373959D01*
X359809Y5215D02*
X374194D01*
X361460Y8280D02*
X372544D01*
X347781Y8398D02*
X359809D01*
Y5333D02*
X374077D01*
X360163Y5922D02*
X373841D01*
X347664Y8634D02*
X359927D01*
X361813Y8870D02*
X372190D01*
X361931Y9106D02*
X372072D01*
X361696Y8752D02*
X372190D01*
X361813Y8988D02*
X372072D01*
X361931Y9224D02*
X371954D01*
X361578Y8516D02*
X372426D01*
X366058Y16652D02*
X367945D01*
X366294Y17124D02*
X367591D01*
X365823Y16181D02*
X368181D01*
X366884Y18185D02*
X367120D01*
X365823Y16298D02*
X368063D01*
X366294Y17006D02*
X367709D01*
X366176Y16888D02*
X367709D01*
X365940Y16417D02*
X368063D01*
X366884Y18067D02*
X367120D01*
X366176Y16770D02*
X367827D01*
X347900Y8280D02*
X359809D01*
X351319Y5333D02*
X356271D01*
X347546Y8870D02*
X360045D01*
X347664Y8752D02*
X360045D01*
X346956Y12172D02*
X360752D01*
X347428Y9106D02*
X360163D01*
X351673Y5215D02*
X356036D01*
X347428Y14294D02*
X360280D01*
X347192Y13704D02*
X360398D01*
X346956Y12879D02*
X360634D01*
X364997Y14766D02*
X368888D01*
X365705Y15945D02*
X368299D01*
X365587Y15709D02*
X368417D01*
X365351Y15473D02*
X368534D01*
X365469Y15591D02*
X368534D01*
X365233Y15119D02*
X368770D01*
X365233Y15237D02*
X368652D01*
X364997Y14648D02*
X369006D01*
X365351Y15355D02*
X368652D01*
X365705Y16063D02*
X368181D01*
X365115Y15001D02*
X368770D01*
X365587Y15827D02*
X368299D01*
X365115Y14884D02*
X368888D01*
X364761Y14294D02*
X369242D01*
X364525Y13940D02*
X369360D01*
X364525Y13822D02*
X369478D01*
X364643Y14058D02*
X369360D01*
X364643Y14176D02*
X369242D01*
X364879Y14412D02*
X369124D01*
X364879Y14530D02*
X369124D01*
X347428Y9224D02*
X360280D01*
X347546Y8988D02*
X360163D01*
X359927Y5450D02*
X374077D01*
X346956Y12643D02*
X360634D01*
X346956Y12289D02*
X360752D01*
X346956Y12407D02*
X360634D01*
X346956Y12525D02*
X360634D01*
X366530Y17478D02*
X367473D01*
X366412Y17360D02*
X367473D01*
X366766Y17831D02*
X367237D01*
X366648Y17714D02*
X367355D01*
X366766Y17949D02*
X367237D01*
X366530Y17596D02*
X367355D01*
X352498Y18539D02*
X355092D01*
X352027Y18421D02*
X355682D01*
X350965Y18067D02*
X356625D01*
X366412Y17242D02*
X367591D01*
X353441Y18657D02*
X354149D01*
X351555Y18303D02*
X356036D01*
X351319Y18185D02*
X356389D01*
X365940Y16534D02*
X367945D01*
X364407Y13704D02*
X369478D01*
X363582Y12172D02*
X370421D01*
X362167Y9577D02*
X371836D01*
X362049Y9342D02*
X371954D01*
X363700Y12407D02*
X370185D01*
X362167Y9460D02*
X371836D01*
X361696Y8634D02*
X372308D01*
X362993Y10992D02*
X371011D01*
X362875Y10757D02*
X371129D01*
X362875Y10875D02*
X371129D01*
X346956D02*
X360634D01*
X346956Y11110D02*
X360634D01*
X346956Y10992D02*
X360634D01*
X362993Y11110D02*
X370893D01*
X346956Y10757D02*
X360634D01*
X363464Y11936D02*
X370539D01*
X346956Y11818D02*
X360752D01*
X346956Y11700D02*
X360752D01*
X346956Y12054D02*
X360752D01*
X363346Y11700D02*
X370657D01*
X346956Y11936D02*
X360752D01*
X363464Y11818D02*
X370539D01*
X346956Y11582D02*
X360752D01*
X363582Y12054D02*
X370421D01*
X363228Y11582D02*
X370657D01*
X347310Y9342D02*
X360280D01*
X347192Y9931D02*
X360516D01*
X347074Y10521D02*
X360634D01*
X347192Y9813D02*
X360398D01*
X346956Y10639D02*
X360634D01*
X347192Y9695D02*
X360398D01*
X347074Y10285D02*
X360516D01*
X347074Y10403D02*
X360634D01*
X347310Y9577D02*
X360398D01*
X347310Y9460D02*
X360280D01*
X347192Y10049D02*
X360516D01*
X347074Y10167D02*
X360516D01*
X362403Y9931D02*
X371600D01*
X362403Y10049D02*
X371482D01*
X362639Y10403D02*
X371364D01*
X362757Y10639D02*
X371247D01*
X362285Y9813D02*
X371718D01*
X362521Y10285D02*
X371364D01*
X362639Y10521D02*
X371247D01*
X362285Y9695D02*
X371718D01*
X362521Y10167D02*
X371482D01*
X363110Y11228D02*
X370893D01*
X346956Y11464D02*
X360752D01*
X346956Y11228D02*
X360752D01*
X363110Y11346D02*
X370775D01*
X346956D02*
X360752D01*
X363228Y11464D02*
X370775D01*
X348489Y7337D02*
X359101D01*
X348135Y7927D02*
X359573D01*
X348725Y7101D02*
X358865D01*
X348489Y7455D02*
X359219D01*
X347900Y8162D02*
X359691D01*
X348017Y8044D02*
X359691D01*
X348253Y7691D02*
X359337D01*
X348843Y6983D02*
X358748D01*
X348371Y7573D02*
X359337D01*
X348135Y7809D02*
X359455D01*
X348607Y7219D02*
X358983D01*
X361106Y7573D02*
X372897D01*
X361460Y8162D02*
X372544D01*
X360870Y7101D02*
X373133D01*
X360988Y7455D02*
X373015D01*
X360988Y7337D02*
X373015D01*
X361342Y8044D02*
X372661D01*
X361224Y7927D02*
X372661D01*
X360752Y6983D02*
X373251D01*
X361106Y7691D02*
X372779D01*
X360870Y7219D02*
X373133D01*
X361224Y7809D02*
X372779D01*
X350022Y6040D02*
X357686D01*
X350494Y5686D02*
X357097D01*
X350140Y5922D02*
X357451D01*
X351083Y5450D02*
X356625D01*
X350376Y5804D02*
X357333D01*
X350847Y5568D02*
X356861D01*
X360516Y6629D02*
X373369D01*
X349314Y6512D02*
X358276D01*
X349432Y6394D02*
X358158D01*
X360634Y6865D02*
X373251D01*
X349079Y6747D02*
X358512D01*
X360634D02*
X373369D01*
X349786Y6158D02*
X357804D01*
X349668Y6276D02*
X358040D01*
X348961Y6865D02*
X358748D01*
X349197Y6629D02*
X358394D01*
X348253Y15827D02*
X359455D01*
X347900Y15355D02*
X359691D01*
X348017Y15473D02*
X359691D01*
X347664Y14884D02*
X359927D01*
X348135Y15591D02*
X359573D01*
X347781Y15001D02*
X359927D01*
X348371Y15945D02*
X359337D01*
X347900Y15237D02*
X359809D01*
X348371Y16063D02*
X359219D01*
X348135Y15709D02*
X359455D01*
X347781Y15119D02*
X359809D01*
X348489Y16181D02*
X359101D01*
X348607Y16298D02*
X358983D01*
X348961Y16652D02*
X358748D01*
X348725Y16417D02*
X358983D01*
X349432Y17124D02*
X358158D01*
X349668Y17242D02*
X358040D01*
X349197Y16888D02*
X358394D01*
X349786Y17360D02*
X357922D01*
X349314Y17006D02*
X358276D01*
X349904Y17478D02*
X357686D01*
X349079Y16770D02*
X358512D01*
X348843Y16534D02*
X358865D01*
X350140Y17596D02*
X357569D01*
X344834Y17831D02*
X345777D01*
X345070Y17949D02*
X345777D01*
X344480Y17596D02*
X345777D01*
X344716Y17714D02*
X345777D01*
X350494Y17831D02*
X357097D01*
X350729Y17949D02*
X356861D01*
X350376Y17714D02*
X357333D01*
X343537Y17124D02*
X345777D01*
X343183Y16888D02*
X345777D01*
X344008Y17360D02*
X345777D01*
X343419Y17006D02*
X345777D01*
X342122Y16298D02*
X345777D01*
X341414Y15945D02*
X345777D01*
X342475Y16534D02*
X345777D01*
X343773Y17242D02*
X345777D01*
X342711Y16652D02*
X345777D01*
X344244Y17478D02*
X345777D01*
X341178Y15827D02*
X345777D01*
X341650Y16063D02*
X345777D01*
X342947Y16770D02*
X345777D01*
X342357Y16417D02*
X345777D01*
X341886Y16181D02*
X345777D01*
D56*
X297702Y18576D02*
D03*
Y24481D02*
D03*
Y30387D02*
D03*
Y36292D02*
D03*
Y42198D02*
D03*
Y48103D02*
D03*
X274803Y17717D02*
D03*
Y23622D02*
D03*
Y29528D02*
D03*
Y35433D02*
D03*
Y41339D02*
D03*
Y47244D02*
D03*
D57*
X194055Y323583D02*
D03*
Y293583D02*
D03*
X224055Y313583D02*
D03*
X194055Y253583D02*
D03*
X224055D02*
D03*
X243661Y323583D02*
D03*
Y293583D02*
D03*
X273661Y313583D02*
D03*
X243661Y253583D02*
D03*
X273661D02*
D03*
D58*
X14173Y177953D02*
D03*
X161024Y13386D02*
D03*
D59*
X31890Y177953D02*
D03*
X179921Y43701D02*
D03*
D60*
X44488Y159055D02*
D03*
X161024Y31102D02*
D03*
D61*
X56693Y182283D02*
D03*
D62*
X56004Y54262D02*
D03*
Y61486D02*
D03*
X59616Y50650D02*
D03*
Y57874D02*
D03*
Y65098D02*
D03*
X63228Y54262D02*
D03*
Y61486D02*
D03*
X66840Y50650D02*
D03*
Y57874D02*
D03*
Y65098D02*
D03*
X70453Y54262D02*
D03*
Y61486D02*
D03*
D63*
X22441Y129134D02*
D03*
Y109449D02*
D03*
X140818Y101448D02*
D03*
X126899Y87529D02*
D03*
X55512Y346457D02*
D03*
X173622D02*
D03*
X34252Y238189D02*
D03*
X14567D02*
D03*
Y281496D02*
D03*
X34252D02*
D03*
X153543Y309055D02*
D03*
X74803D02*
D03*
X133858Y230315D02*
D03*
X94488D02*
D03*
D64*
X339706Y111430D02*
D03*
X325591Y111417D02*
D03*
X339764Y97244D02*
D03*
D65*
X104331Y8268D02*
D03*
X92520D02*
D03*
D66*
X156693Y55905D02*
D03*
D67*
X248661Y346850D02*
D03*
X268661D02*
D03*
X199055D02*
D03*
X219055D02*
D03*
X23622Y346614D02*
D03*
Y326614D02*
D03*
D68*
X57874Y191339D02*
D03*
X65748D02*
D03*
X73622D02*
D03*
M02*
