G04*
G04 #@! TF.GenerationSoftware,Altium Limited,Altium Designer,23.4.1 (23)*
G04*
G04 Layer_Color=128*
%FSLAX25Y25*%
%MOIN*%
G70*
G04*
G04 #@! TF.SameCoordinates,687DAE7F-2A6D-4925-9110-F28A9C07312E*
G04*
G04*
G04 #@! TF.FilePolarity,Positive*
G04*
G01*
G75*
%ADD13C,0.00394*%
%ADD179C,0.00500*%
%ADD182C,0.00041*%
D13*
X0Y0D02*
Y370079D01*
X287402D01*
Y149606D02*
Y370079D01*
Y149606D02*
X377953D01*
Y0D02*
Y149606D01*
X0Y0D02*
X377953D01*
D179*
X295989Y18576D02*
X299414D01*
X297702Y16863D02*
Y20288D01*
X295989Y24481D02*
X299414D01*
X297702Y22769D02*
Y26194D01*
X295989Y30387D02*
X299414D01*
X297702Y28674D02*
Y32099D01*
X295989Y36292D02*
X299414D01*
X297702Y34580D02*
Y38005D01*
X295989Y42198D02*
X299414D01*
X297702Y40485D02*
Y43910D01*
X295989Y48103D02*
X299414D01*
X297702Y46391D02*
Y49816D01*
X191496Y323583D02*
X196614D01*
X194055Y321024D02*
Y326142D01*
X191496Y293583D02*
X196614D01*
X194055Y291024D02*
Y296142D01*
X221496Y313583D02*
X226614D01*
X224055Y311024D02*
Y316142D01*
X191496Y253583D02*
X196614D01*
X194055Y251024D02*
Y256142D01*
X221496Y253583D02*
X226614D01*
X224055Y251024D02*
Y256142D01*
X241102Y323583D02*
X246220D01*
X243661Y321024D02*
Y326142D01*
X241102Y293583D02*
X246220D01*
X243661Y291024D02*
Y296142D01*
X271102Y313583D02*
X276220D01*
X273661Y311024D02*
Y316142D01*
X241102Y253583D02*
X246220D01*
X243661Y251024D02*
Y256142D01*
X271102Y253583D02*
X276220D01*
X273661Y251024D02*
Y256142D01*
X10039Y177953D02*
X18307D01*
X14173Y173819D02*
Y182087D01*
X29921Y177953D02*
X33858D01*
X31890Y175984D02*
Y179921D01*
X42126Y159055D02*
X46850D01*
X44488Y156693D02*
Y161417D01*
X54331Y182283D02*
X59055D01*
X56693Y179921D02*
Y184646D01*
X55610Y54262D02*
X56398D01*
X56004Y53868D02*
Y54655D01*
X55610Y61486D02*
X56398D01*
X56004Y61093D02*
Y61880D01*
X59222Y50650D02*
X60010D01*
X59616Y50256D02*
Y51043D01*
X59222Y57874D02*
X60010D01*
X59616Y57480D02*
Y58268D01*
X59222Y65098D02*
X60010D01*
X59616Y64705D02*
Y65492D01*
X62835Y54262D02*
X63622D01*
X63228Y53868D02*
Y54655D01*
X62835Y61486D02*
X63622D01*
X63228Y61093D02*
Y61880D01*
X66447Y50650D02*
X67234D01*
X66840Y50256D02*
Y51043D01*
X66447Y57874D02*
X67234D01*
X66840Y57480D02*
Y58268D01*
X66447Y65098D02*
X67234D01*
X66840Y64705D02*
Y65492D01*
X70059Y54262D02*
X70846D01*
X70453Y53868D02*
Y54655D01*
X70059Y61486D02*
X70846D01*
X70453Y61093D02*
Y61880D01*
X20866Y129134D02*
X24016D01*
X22441Y127559D02*
Y130709D01*
X20866Y109449D02*
X24016D01*
X22441Y107874D02*
Y111024D01*
X338722Y111430D02*
X340691D01*
X339706Y110446D02*
Y112414D01*
X324606Y111417D02*
X326575D01*
X325591Y110433D02*
Y112402D01*
X338779Y97244D02*
X340748D01*
X339764Y96260D02*
Y98228D01*
X273091Y17717D02*
X276516D01*
X274803Y16004D02*
Y19429D01*
X273091Y23622D02*
X276516D01*
X274803Y21910D02*
Y25335D01*
X273091Y29528D02*
X276516D01*
X274803Y27815D02*
Y31240D01*
X273091Y35433D02*
X276516D01*
X274803Y33720D02*
Y37146D01*
X273091Y41339D02*
X276516D01*
X274803Y39626D02*
Y43051D01*
X273091Y47244D02*
X276516D01*
X274803Y45531D02*
Y48957D01*
X102559Y8268D02*
X106102D01*
X104331Y6496D02*
Y10039D01*
X90748Y8268D02*
X94291D01*
X92520Y6496D02*
Y10039D01*
X156890Y13386D02*
X165157D01*
X161024Y9252D02*
Y17520D01*
X159055Y31102D02*
X162992D01*
X161024Y29134D02*
Y33071D01*
X177559Y43701D02*
X182283D01*
X179921Y41339D02*
Y46063D01*
X154331Y55905D02*
X159055D01*
X156693Y53543D02*
Y58268D01*
X138849Y101448D02*
X142787D01*
X140818Y99479D02*
Y103416D01*
X124930Y87529D02*
X128867D01*
X126899Y85560D02*
Y89497D01*
X245216Y346850D02*
X252106D01*
X248661Y343406D02*
Y350295D01*
X265216Y346850D02*
X272106D01*
X268661Y343406D02*
Y350295D01*
X195610Y346850D02*
X202500D01*
X199055Y343406D02*
Y350295D01*
X215610Y346850D02*
X222500D01*
X219055Y343406D02*
Y350295D01*
X53347Y346457D02*
X57677D01*
X55512Y344291D02*
Y348622D01*
X171457Y346457D02*
X175787D01*
X173622Y344291D02*
Y348622D01*
X32283Y238189D02*
X36220D01*
X34252Y236221D02*
Y240158D01*
X12598Y238189D02*
X16535D01*
X14567Y236221D02*
Y240158D01*
X12598Y281496D02*
X16535D01*
X14567Y279528D02*
Y283465D01*
X32283Y281496D02*
X36220D01*
X34252Y279528D02*
Y283465D01*
X20177Y346614D02*
X27067D01*
X23622Y343169D02*
Y350059D01*
X20177Y326614D02*
X27067D01*
X23622Y323169D02*
Y330059D01*
X151575Y309055D02*
X155512D01*
X153543Y307087D02*
Y311024D01*
X72835Y309055D02*
X76772D01*
X74803Y307087D02*
Y311024D01*
X131890Y230315D02*
X135827D01*
X133858Y228346D02*
Y232283D01*
X92520Y230315D02*
X96457D01*
X94488Y228346D02*
Y232283D01*
X81791Y128819D02*
X83169D01*
X82480Y128130D02*
Y129508D01*
X76831Y128701D02*
X78209D01*
X77520Y128012D02*
Y129390D01*
X71358Y128825D02*
X72736D01*
X72047Y128136D02*
Y129514D01*
X53347Y124016D02*
X54528D01*
X53937Y123425D02*
Y124606D01*
X310181Y54091D02*
X311559D01*
X310870Y53402D02*
Y54780D01*
X307382Y9252D02*
X308760D01*
X308071Y8563D02*
Y9941D01*
X313091Y36614D02*
X314469D01*
X313779Y35925D02*
Y37303D01*
X318209Y36614D02*
X319587D01*
X318898Y35925D02*
Y37303D01*
X261122Y226378D02*
X262500D01*
X261811Y225689D02*
Y227067D01*
X233169Y154331D02*
X234547D01*
X233858Y153642D02*
Y155020D01*
X53642Y150000D02*
X55020D01*
X54331Y149311D02*
Y150689D01*
X72539Y150394D02*
X73917D01*
X73228Y149705D02*
Y151083D01*
X79626Y150394D02*
X81004D01*
X80315Y149705D02*
Y151083D01*
X99311Y182283D02*
X100689D01*
X100000Y181595D02*
Y182972D01*
X111516Y189764D02*
X112894D01*
X112205Y189075D02*
Y190453D01*
X122933Y176772D02*
X124311D01*
X123622Y176083D02*
Y177461D01*
X131595Y176772D02*
X132972D01*
X132283Y176083D02*
Y177461D01*
X174114Y159449D02*
X175492D01*
X174803Y158760D02*
Y160138D01*
X163878Y126378D02*
X165256D01*
X164567Y125689D02*
Y127067D01*
X138681Y120866D02*
X140059D01*
X139370Y120177D02*
Y121555D01*
X179626Y90551D02*
X181004D01*
X180315Y89862D02*
Y91240D01*
X123327Y96457D02*
X124705D01*
X124016Y95768D02*
Y97146D01*
X265846Y20079D02*
X267224D01*
X266535Y19390D02*
Y20768D01*
X265453Y33071D02*
X266831D01*
X266142Y32382D02*
Y33760D01*
X237894Y39764D02*
X239272D01*
X238583Y39075D02*
Y40453D01*
X248130Y74803D02*
X249508D01*
X248819Y74114D02*
Y75492D01*
X275689Y74803D02*
X277067D01*
X276378Y74114D02*
Y75492D01*
X275689Y90551D02*
X277067D01*
X276378Y89862D02*
Y91240D01*
X225295Y81890D02*
X226673D01*
X225984Y81201D02*
Y82579D01*
X174902Y116142D02*
X176279D01*
X175591Y115453D02*
Y116831D01*
X199311Y122441D02*
X200689D01*
X200000Y121752D02*
Y123130D01*
X217421Y154724D02*
X218799D01*
X218110Y154035D02*
Y155413D01*
X217421Y146850D02*
X218799D01*
X218110Y146161D02*
Y147539D01*
X233169Y146063D02*
X234547D01*
X233858Y145374D02*
Y146752D01*
X257972Y128347D02*
X259350D01*
X258661Y127657D02*
Y129035D01*
X272933Y200787D02*
X274311D01*
X273622Y200098D02*
Y201476D01*
X272933Y216535D02*
X274311D01*
X273622Y215846D02*
Y217224D01*
X196949Y172047D02*
X198327D01*
X197638Y171358D02*
Y172736D01*
X189075Y172047D02*
X190453D01*
X189764Y171358D02*
Y172736D01*
X206004Y197710D02*
X207382D01*
X206693Y197021D02*
Y198399D01*
X190256Y196457D02*
X191634D01*
X190945Y195768D02*
Y197146D01*
X211910Y208661D02*
X213287D01*
X212598Y207972D02*
Y209350D01*
X211910Y220472D02*
X213287D01*
X212598Y219783D02*
Y221161D01*
X196161Y220472D02*
X197539D01*
X196850Y219783D02*
Y221161D01*
X233563Y249606D02*
X234941D01*
X234252Y248917D02*
Y250295D01*
X162303Y163779D02*
X163681D01*
X162992Y163091D02*
Y164469D01*
X157185Y162598D02*
X158563D01*
X157874Y161909D02*
Y163287D01*
X154823Y157480D02*
X156201D01*
X155512Y156791D02*
Y158169D01*
X150886Y157480D02*
X152264D01*
X151575Y156791D02*
Y158169D01*
X150886Y151575D02*
X152264D01*
X151575Y150886D02*
Y152264D01*
X276083Y100394D02*
X277461D01*
X276772Y99705D02*
Y101083D01*
X250492Y168504D02*
X251870D01*
X251181Y167815D02*
Y169193D01*
X189862Y135433D02*
X191240D01*
X190551Y134744D02*
Y136122D01*
X59070Y141360D02*
X60448D01*
X59759Y140671D02*
Y142049D01*
X219882Y44094D02*
X221063D01*
X220472Y43504D02*
Y44685D01*
X219618Y25787D02*
X220799D01*
X220208Y25197D02*
Y26378D01*
X22146Y33071D02*
X23524D01*
X22835Y32382D02*
Y33760D01*
X22146Y25197D02*
X23524D01*
X22835Y24508D02*
Y25886D01*
X22146Y17323D02*
X23524D01*
X22835Y16634D02*
Y18012D01*
X22146Y9449D02*
X23524D01*
X22835Y8760D02*
Y10138D01*
X65256Y18701D02*
X66634D01*
X65945Y18012D02*
Y19390D01*
X202854Y133396D02*
X204232D01*
X203543Y132707D02*
Y134085D01*
X203248Y129134D02*
X204626D01*
X203937Y128445D02*
Y129823D01*
X48130Y103543D02*
X49508D01*
X48819Y102854D02*
Y104232D01*
X52854Y103543D02*
X54232D01*
X53543Y102854D02*
Y104232D01*
X246949Y122047D02*
X248327D01*
X247638Y121358D02*
Y122736D01*
X198524Y96850D02*
X199902D01*
X199213Y96161D02*
Y97539D01*
X211459Y79034D02*
X212837D01*
X212148Y78345D02*
Y79723D01*
X214173Y69307D02*
X215354D01*
X214764Y68717D02*
Y69898D01*
X225314Y182677D02*
X226692D01*
X226003Y181988D02*
Y183366D01*
X227014Y177018D02*
X228392D01*
X227703Y176329D02*
Y177707D01*
X257485Y179622D02*
X258863D01*
X258174Y178933D02*
Y180311D01*
X224207Y57082D02*
X225389D01*
X224798Y56491D02*
Y57672D01*
X249311Y55118D02*
X250689D01*
X250000Y54429D02*
Y55807D01*
X263091Y55118D02*
X264469D01*
X263779Y54429D02*
Y55807D01*
X256398Y55118D02*
X257776D01*
X257087Y54429D02*
Y55807D01*
X243799Y17323D02*
X245177D01*
X244488Y16634D02*
Y18012D01*
X232382Y120472D02*
X233760D01*
X233071Y119783D02*
Y121161D01*
X47343Y5512D02*
X48720D01*
X48031Y4823D02*
Y6201D01*
X43406Y7480D02*
X44783D01*
X44094Y6791D02*
Y8169D01*
X43406Y4331D02*
X44783D01*
X44094Y3642D02*
Y5020D01*
X219094Y173228D02*
X220276D01*
X219685Y172638D02*
Y173819D01*
X236713Y244882D02*
X238090D01*
X237402Y244193D02*
Y245571D01*
X234744Y228346D02*
X236122D01*
X235433Y227658D02*
Y229035D01*
X214173Y66339D02*
X215354D01*
X214764Y65748D02*
Y66929D01*
X277063Y156611D02*
X278244D01*
X277654Y156020D02*
Y157201D01*
X277063Y154141D02*
X278244D01*
X277654Y153550D02*
Y154731D01*
X273917Y144882D02*
X275295D01*
X274606Y144193D02*
Y145571D01*
X220768Y84842D02*
X222146D01*
X221457Y84153D02*
Y85532D01*
X211702Y90541D02*
X213080D01*
X212391Y89852D02*
Y91230D01*
X179035Y105709D02*
X180413D01*
X179724Y105020D02*
Y106398D01*
X179035Y109646D02*
X180413D01*
X179724Y108957D02*
Y110335D01*
X118209Y110236D02*
X119587D01*
X118898Y109547D02*
Y110925D01*
X114272Y106299D02*
X115650D01*
X114961Y105610D02*
Y106988D01*
X114272Y114173D02*
X115650D01*
X114961Y113484D02*
Y114862D01*
X67028Y164173D02*
X68405D01*
X67716Y163484D02*
Y164862D01*
X62303Y164173D02*
X63681D01*
X62992Y163484D02*
Y164862D01*
X57579Y164173D02*
X58957D01*
X58268Y163484D02*
Y164862D01*
X57185Y191339D02*
X58563D01*
X57874Y190650D02*
Y192027D01*
X65059Y191339D02*
X66437D01*
X65748Y190650D02*
Y192027D01*
X72933Y191339D02*
X74311D01*
X73622Y190650D02*
Y192027D01*
D182*
X357911Y9685D02*
X358157D01*
X357911Y9767D02*
X357993D01*
X357911Y9726D02*
X358075D01*
X357911Y9603D02*
X358280D01*
X357911Y9644D02*
X358198D01*
M02*
